<?xml version="1.0" encoding="UTF-8"?>
<svg id="_レイヤー_2" data-name="レイヤー 2" xmlns="http://www.w3.org/2000/svg" viewBox="0 0 232.93 150.17">
  <defs>
    <style>
      .cls-1 {
        fill: #eaeaea;
      }

      .cls-2 {
        stroke: #231815;
        stroke-dasharray: 3 2;
        stroke-width: 2px;
      }

      .cls-2, .cls-3 {
        fill: none;
      }

      .cls-4 {
        fill: #231815;
      }

      .cls-5 {
        fill: #fff;
      }

      .cls-3 {
        stroke: #e6e6e6;
      }
    </style>
  </defs>
  <g id="backward">
    <g>
      <rect class="cls-5" width="232.93" height="150.17"/>
      <g>
        <polyline class="cls-2" points="195.02 27.95 110.8 54.07 34.99 80.92"/>
        <polygon class="cls-4" points="111.16 58.67 133.82 49.09 132.41 42.5 108.29 49.17 87.41 58.59 90.16 64.84 111.16 58.67"/>
        <path class="cls-5" d="M95.8,60.03c.13-.42.21-.9.23-1.37.02-.31,0-.62-.02-.84.21,0,.46-.01.51,0,.03,0,.05.01.05.03.02.05-.03.09-.16.14,0,0-.01,0-.02,0-.05.53-.09.79-.19,1.16-.1.39-.19.61-.34.91l-.07-.03ZM96.73,56.93c-.06-.17-.1-.26-.18-.44.52-.11.56-.12.58-.06.02.05-.02.09-.15.18l.73,2.02c.07.18.2.53.38,1.01.09.28,0,.4-.42.64-.1-.23-.2-.24-.84-.13l-.03-.07c.34-.08.46-.11.92-.25.05-.02.06-.04.04-.1l-1.02-2.8ZM97.82,57.19c.4.15.72.31,1.14.58.3.18.41.29.47.44.08.22.09.46,0,.49-.04.01-.08-.02-.15-.11-.16-.2-.5-.57-.72-.76-.29-.26-.49-.4-.79-.58l.04-.06Z"/>
        <path class="cls-5" d="M101.1,58.91s0,.05-.02.08c-.02.02-.11.06-.17.08-.06.02-.08.01-.1-.04-.12-.36-.43-1.21-.8-2.24-.17-.48-.39-1.05-.47-1.22.18.01.23.02.42.05l2.53-.92c.05-.12.06-.16.12-.28.15.04.2.06.35.11.03.01.05.03.06.05.01.03,0,.06-.12.18l.31.88c.31.86.6,1.6.83,2.19,0,.06-.04.1-.19.16-.07.03-.1.02-.12-.03l-.12-.32-2.64.96.12.32ZM101.58,56.55l-.45-1.25-1.18.43.46,1.25,1.18-.43ZM101.62,56.66l-1.18.43.51,1.41,1.18-.43-.51-1.41ZM102.59,54.78l-1.19.43.46,1.25,1.18-.43-.45-1.25ZM101.89,56.56l.51,1.41,1.18-.43-.51-1.41-1.18.43Z"/>
        <path class="cls-5" d="M106.89,53.84q.05-.12.1-.25c.14.04.18.05.32.1.04.02.07.03.08.05,0,0,0,.03,0,.03,0,.02-.03.05-.06.08,0,.01-.02.04-.05.06l.11.31c.1.28.12.33.32.85,0,0,0,.01,0,.02.02.05-.04.09-.2.15-.05.02-.08.02-.1-.01h0s-.04-.12-.04-.12l-1.65.6c-.22.08-.46.18-.64.27l-.11-.15c.23-.06.44-.12.68-.21l1.68-.61-.19-.52-1.8.65c-.07.03-.32.13-.44.18l-.08-.14c.16-.04.4-.11.48-.14l1.8-.65-.17-.47-1.7.62c-.1.04-.26.1-.44.19l-.06-.11c-.13.26-.21.38-.41.63l-.06-.03c.24-.44.33-.69.43-1.16.09-.42.11-.53.09-.76.09-.01.15-.02.2-.02.3-.04.33-.03.34,0,0,.03,0,.04-.17.16-.04.14-.04.15-.08.28l.84-.3c.04-.11.05-.15.09-.27.16.05.21.06.35.11.06.03.09.05.1.06,0,0,0,.03-.01.05t-.18.14c-.14.39-.17.47-.28.66l.88-.32ZM105.9,54.2c.06-.4.06-.42.07-.7l-.91.33c-.09.29-.18.53-.29.74.13-.03.32-.08.45-.13l.69-.25ZM105.33,56.2c.1.4.1.64-.01.92-.06.15-.13.24-.2.27-.08.03-.15-.04-.22-.22-.03-.08-.02-.1.09-.18.22-.16.3-.39.28-.78h.06ZM107.44,55.67l.16.5s.01.03.02.05c0,0,0,0,0,0,.01.03.02.03.12.05.07.01.12.03.13.08.02.06-.01.12-.11.17-.1.06-.47.21-.99.4-.36.13-.49.17-.57.17-.12,0-.18-.03-.24-.16-.12-.35-.13-.37-.16-.46l-.07-.21c-.03-.08-.04-.12-.08-.2.32-.1.47-.12.48-.08.01.04-.02.07-.12.15l.22.6c.02.06.04.08.08.08.03,0,.19-.05.56-.18.35-.13.53-.2.56-.23.04-.04.04-.24-.01-.71h.06ZM106.14,55.76c.22-.02.43-.02.64.02.12.02.17.06.21.16.04.12.02.25-.05.28-.03,0-.06,0-.13-.06-.06-.05-.17-.12-.27-.18-.16-.09-.24-.12-.41-.17v-.06ZM107.57,55.38c.56.09.95.26,1.02.44.02.05.02.12.01.2,0,.08-.03.12-.08.14-.02,0-.05,0-.08,0t-.2-.2c-.15-.17-.41-.36-.7-.5l.03-.07Z"/>
        <path class="cls-5" d="M108.36,52.84c.16.03.21.04.34.08.04-.38.03-.79,0-.99q.51,0,.53.04s-.03.07-.14.11c0,0-.03.01-.05.01-.1.43-.14.56-.25.85.21.06.28.1.31.2.04.12.03.28-.03.3-.04.02-.05.01-.17-.13-.12-.13-.31-.27-.55-.41l.02-.07ZM109.43,53.97q-.13.07-.42.24c.01.14,0,.17-.03.18-.04.02-.09-.04-.26-.34.1-.02.14-.04.2-.06t.2-.08c.08-.29.11-.43.15-.66.06-.38.1-.71.09-.96.39,0,.47,0,.48.05.01.04-.02.07-.17.13-.15.57-.24.83-.44,1.4.45-.19.46-.19.73-.32-.12-.13-.19-.19-.38-.33l.03-.06c.18.06.35.13.52.22.09.05.14.11.17.17.04.13.02.3-.04.32-.03.01-.06,0-.09-.06-.04-.07-.08-.11-.14-.2q-.17.11-.36.22l.31.85c.2.55.2.56.37.98.01.03,0,.05,0,.07-.02.02-.12.08-.19.1-.04.02-.06,0-.08-.03-.12-.37-.24-.74-.33-.98l-.31-.85ZM109.3,55.91c0-.37-.03-.56-.08-.88-.05-.29-.08-.41-.13-.57.35-.04.41-.04.42,0,.01.03-.01.06-.12.12.07.53.06.9-.02,1.32h-.07ZM111.3,51.51c.04-.11.05-.14.1-.24.13.04.16.04.28.08.05.02.08.03.08.06,0,.03-.02.07-.1.16l.19.52c.09.24.14.38.28.7,0,0,0,0,0,.01.02.05-.04.1-.2.16-.04.01-.06,0-.07-.03l-.05-.13-.46.17c.18.34.3.48.57.7.12-.23.2-.45.25-.73.4.05.44.06.45.1.01.03-.02.05-.12.09,0,0-.04.01-.07.02-.16.25-.22.34-.45.57.16.12.31.19.52.26.27.1.46.13.7.14v.07c-.13.08-.18.16-.18.32-.4-.13-.63-.26-.93-.49-.29-.23-.46-.42-.68-.77l.27.67s.05.13.1.27c.05.14.1.27.23.58.06.18,0,.25-.32.46-.05-.1-.1-.13-.21-.15q-.06,0-.42.03l-.02-.06c.29-.08.38-.11.64-.19.04-.02.05-.03.03-.07l-.63-1.73-.46.17.04.11s0,.05-.01.07c-.03.02-.11.07-.17.09-.04.01-.05,0-.07-.03q-.17-.51-.26-.75c-.12-.33-.27-.72-.34-.88.16.03.21.04.37.07l.28-.1c.01-.17,0-.38-.04-.55.41-.03.47-.03.48,0s-.02.06-.15.12c-.08.19-.1.23-.19.38l.71-.26ZM109.94,54.11c.35.18.56.35.61.47.04.11,0,.31-.06.33-.03.01-.04,0-.11-.13-.15-.27-.25-.41-.47-.64l.04-.03ZM111.55,52.07l-.17-.48-1.17.42.17.48,1.17-.42ZM110.84,53.79c.03-.09.04-.11.08-.19.12.04.15.05.27.1.06.03.07.04.08.06,0,.02-.02.06-.09.1-.04.38-.09.62-.22.93-.1.25-.2.42-.4.67l-.06-.05c.16-.27.24-.46.31-.76.08-.3.1-.47.09-.77l-.31.11c-.09.03-.18.07-.24.12l-.08-.14c.12-.02.18-.03.26-.06l.32-.12ZM110.42,52.59l.19.53,1.17-.42-.19-.53-1.17.42Z"/>
        <path class="cls-5" d="M113.51,50.5c-.09.39-.12.47-.26.78.21.07.29.13.31.21.03.08,0,.25-.05.27-.02,0-.06-.01-.12-.07-.18-.2-.29-.28-.61-.46l.02-.06c.17.03.23.04.36.08.05-.38.06-.64.03-.91.1,0,.17,0,.23,0,.19,0,.25,0,.26.04.02.04-.03.08-.16.13h0ZM113.91,52.32q-.33.2-.44.27c.01.12,0,.17-.03.18-.01,0-.03,0-.05-.02t-.19-.32s.06-.02.08-.03c.05-.02.16-.06.33-.13q.02-.05.04-.15c.14-.47.25-1.05.27-1.41.4.01.43.02.45.06.01.04-.03.07-.15.11h-.02c-.15.55-.28.93-.46,1.33.33-.14.42-.19.69-.33-.11-.14-.15-.18-.27-.29l.03-.04c.14.07.22.11.36.19.18.11.26.18.29.25.04.11,0,.29-.06.31-.03,0-.05,0-.08-.05-.07-.12-.1-.15-.21-.31-.13.1-.15.11-.32.22l.3.84c.13.36.15.42.39,1.06.02.05-.01.08-.2.15-.04.02-.06,0-.08-.04-.08-.24-.31-.9-.37-1.08l-.29-.79ZM113.84,54.21c-.07-.58-.16-1.08-.28-1.41q.43-.06.45-.01s-.02.07-.12.14c.07.54.07.84,0,1.29h-.05ZM115.75,49.76c.05-.12.06-.16.11-.28.15.05.2.07.34.12.04.02.06.03.07.05.02.04-.03.09-.14.17-.11.51-.2.78-.38,1.11.14.03.27.04.43.05.36.02.54,0,.91-.08l.02.06c-.15.11-.18.17-.19.36-.55.01-.88-.04-1.3-.19-.23.35-.41.56-.71.82l-.05-.05c.25-.31.4-.54.57-.86-.41-.19-.69-.42-.93-.73h-.04c-.09.05-.19.09-.28.15l-.1-.16c.18-.02.25-.03.37-.08l1.3-.47ZM114.46,52.46c.16.08.32.18.49.32.09.07.15.14.17.19.04.12,0,.3-.07.33-.04.02-.06,0-.15-.16-.12-.2-.29-.42-.48-.64l.04-.04ZM114.58,50.29c.22.26.53.44.93.58.15-.32.22-.59.29-1.02l-1.22.44ZM116.46,53.23l.61-.22c.06-.18.09-.24.15-.41.23.08.29.11.51.21.01,0,.02.02.03.03,0,.01,0,.03-.03.04l-2.31.84c-.17.06-.2.07-.35.16l-.09-.15c.15-.02.2-.04.41-.11l.79-.29-.35-.97-.45.17c-.13.05-.19.07-.3.14l-.08-.15c.13-.02.19-.03.35-.09l.45-.17-.11-.31c-.06-.17-.09-.23-.16-.36.48-.13.49-.13.5-.09.01.03-.03.08-.14.17l.18.49.46-.17c.06-.17.08-.22.14-.37.21.07.28.09.49.18.02,0,.03.02.03.03,0,.01,0,.03-.03.04l-1.06.38.35.97Z"/>
        <path class="cls-5" d="M119.72,48.95c.08-.32.12-.57.12-.97.48,0,.53,0,.54.05.01.04-.03.07-.11.1,0,0-.06.02-.09.03-.12.34-.18.46-.35.75l.78-.28c.05-.13.07-.17.13-.29.2.05.25.07.44.12.06.02.08.04.09.06,0,.01,0,.03,0,.05-.02.02-.05.04-.09.07-.03.02-.08.04-.14.08-.12.29-.16.37-.28.58l-.06-.02c.02-.21.02-.3,0-.56l-2.75,1c.05.21.07.33.06.48-.01.18-.1.35-.2.39-.08.03-.16-.05-.22-.22-.03-.08-.03-.08.07-.21.07-.1.11-.19.13-.33.02-.15.01-.23-.03-.4l.08-.03c.05.13.05.15.07.22l1.19-.43-.17-.47c-.03-.08-.04-.1-.15-.37.45-.11.49-.12.51-.07.01.04-.02.08-.15.16l.24.66.33-.12ZM117.86,48.74c.23.03.42.08.54.13.1.04.14.08.17.15.04.13.02.3-.05.32-.04.01-.08-.01-.16-.11-.2-.21-.3-.3-.53-.45l.04-.05ZM120.09,51.01l.83-.3c.05-.16.06-.21.12-.36.21.06.27.08.48.16.02.01.04.02.04.03,0,.02,0,.04-.04.05l-1.4.51.24.65,1.13-.41c.06-.17.08-.22.15-.39.23.06.3.09.53.18.02,0,.03.02.03.03,0,.02-.01.04-.03.04l-3.32,1.21c-.17.06-.19.07-.28.11-.06.03-.11.05-.14.06l-.1-.15c.19-.03.29-.06.48-.13l1.27-.46-.24-.65-.9.33c-.2.07-.31.12-.43.17l-.1-.14c.2-.03.27-.05.49-.13l.9-.33-.21-.56-.6.22.06.17c.02.08-.02.11-.18.17-.06.02-.09.01-.11-.03-.09-.3-.13-.4-.26-.78-.07-.2-.11-.28-.19-.46.18.03.23.04.4.08l1.45-.53c.04-.1.05-.13.09-.23.13.04.17.04.28.08.05.02.08.03.08.05.01.03-.01.07-.1.17q.03.08.06.17c.05.15.14.38.24.62.01.07-.02.1-.14.15-.01,0-.02,0-.02,0,0,0-.01,0-.01,0-.05.02-.07,0-.09-.03l-.06-.17-.62.22.2.56ZM118.97,50.67l1.5-.54-.24-.65-1.5.54.24.65Z"/>
        <path class="cls-5" d="M123.16,47.72c.04-.12.05-.16.1-.27.16.06.21.08.37.15.01,0,.03.02.03.03,0,.02,0,.02-.04.04l-.63.23.18.51.18-.06c.05-.12.07-.16.12-.28.16.07.21.09.36.16.01,0,.03.02.03.02,0,.02,0,.03-.04.04l-.61.22.2.56.27-.1q.06-.12.11-.22c.12.05.16.06.27.11.04.03.06.04.06.05,0,.02,0,.04-.1.15.19.59.28,1.07.25,1.29-.01.08-.07.19-.13.25-.06.06-.12.09-.28.17-.1-.18-.13-.19-.58-.14l-.02-.07c.22-.04.58-.12.68-.16.06-.02.08-.1.06-.26-.03-.29-.1-.56-.26-1.07l-.95.34.03.09c.02.05-.02.08-.16.13-.06.02-.09.02-.1-.02,0,0,0,0,0-.02-.13-.39-.18-.55-.37-1.07-.28-.77-.35-.94-.45-1.17.15.03.2.03.35.08l.83-.3c.04-.14.05-.18.1-.31.19.06.25.08.43.17.02,0,.03.02.03.03,0,.02,0,.02-.04.04l-.67.24.19.51.2-.07ZM122.53,47.36l-.41.15.19.51.42-.15-.19-.51ZM122.34,48.13l.19.51.41-.15-.18-.51-.42.15ZM122.56,48.73l.21.56.41-.15-.21-.56-.41.15ZM122.67,49.77c.04.09.06.13.08.19.08.22.12.4.11.56,0,.14-.05.24-.12.26-.05.02-.12-.05-.16-.18-.03-.09-.03-.12.03-.22.08-.14.08-.36,0-.59l.06-.02ZM122.86,49.67c.25.21.34.31.39.45.03.08-.02.24-.08.26-.03.01-.06-.01-.08-.08,0,0,0-.01,0-.03-.04-.14-.06-.21-.07-.24-.04-.12-.08-.19-.18-.33l.04-.04ZM123.1,49.51c.26.12.43.24.47.34.03.09,0,.22-.05.24-.03,0-.05,0-.07-.04-.13-.23-.22-.35-.38-.5l.03-.04ZM123.37,49.35c.26.1.42.19.45.28.03.08,0,.2-.05.22-.02,0-.04,0-.06-.04-.01-.02-.05-.08-.1-.15-.07-.11-.14-.17-.26-.26l.03-.05ZM124.4,48.17c.18.56.25.86.27,1.21.02.29,0,.59-.07.85-.03.13-.06.2-.14.37l-.06-.02c.1-.38.11-.76.02-1.24-.05-.32-.22-.92-.37-1.34-.3-.82-.42-1.15-.51-1.35.17.04.22.05.39.09l.95-.34c.04-.1.06-.14.1-.24.14.05.18.06.31.11.04.01.06.03.07.05,0,.03,0,.03-.12.15.04.1.07.18.09.24.02.04.04.11.06.17.05.16.11.31.16.46.01.04.02.07.1.27q.05.13.1.24s0,.02,0,.02c.02.05-.03.09-.2.15-.05.02-.07.02-.09-.02l-.07-.2-.51.19c.19.41.34.61.61.84.21.18.48.33.76.43.16.05.24.06.44.07l.02.06c-.15.09-.17.13-.23.38-.32-.11-.52-.22-.8-.46-.31-.27-.55-.57-.75-.95-.04-.09-.07-.14-.16-.34l-.41.15ZM125.37,47.71l-.44-1.21-.99.36c.05.13.1.25.12.32.11.3.2.56.31.9l1.01-.37Z"/>
        <path class="cls-4" d="M112.47,44.53c-.44.5-.46.53-.66.74.01.03.02.06.02.07.03.11.03.19-.02.2-.03,0-.06,0-.09-.03-.05-.05-.11-.12-.18-.21-.03-.05-.1-.12-.18-.22.47-.29.67-.43,1.29-.91l-.32-1.18s-.02-.08-.05-.18l-.9.25s-.18.06-.4.14l-.08-.19c.15,0,.31-.02.45-.06l.9-.25q-.3-1.11-.4-1.36c.45-.09.59-.1.61-.03,0,.04,0,.06-.18.18q.13.49.22.81c.09.31.39,1.4.88,3.13,0,0,0,.01,0,.01.02.06-.02.09-.16.13-.04.01-.07.02-.09.03,0,0-.02,0-.02,0-.05.01-.08,0-.09-.04,0,0,0-.01,0-.02l-.32-1.24-.21.24ZM113.76,42.82c.1-.12.2-.28.38-.61.19-.35.26-.51.35-.76.14.04.15.04.41.11.14.04.15.05.16.08.01.04-.03.08-.1.1-.04.01-.09.02-.15.03-.65.82-.68.86-1.02,1.17l.49,1.77c.03.11.06.11.45,0q.57-.16.59-.23c0-.05.02-.17.01-.35,0-.08,0-.22,0-.41,0-.09,0-.28,0-.44l.08-.02.23.96s0,.05,0,.06c.02.07.05.09.12.1.12.01.17.04.19.11.01.04-.01.12-.05.16-.05.04-.1.07-.24.12-.15.05-.39.13-.54.17-.3.08-.65.17-.75.19-.12.02-.22,0-.27-.05-.05-.04-.08-.09-.11-.2q-.1-.39-.26-.97-.09-.33-.24-.88l-.35-1.28c-.11-.38-.12-.44-.22-.7.54-.09.63-.1.64-.04.01.05-.03.08-.21.2l.45,1.63Z"/>
        <path class="cls-4" d="M117.33,43.96s0,0-.05.01t0,0c-.05.01-.08,0-.09-.04,0,0,0,0,0-.02-.09-.35-.22-.88-.5-1.87-.26-.94-.36-1.28-.42-1.49.23.06.3.08.53.16l2.41-.66c.06-.12.08-.16.15-.28.17.06.23.08.39.15.04.02.06.04.07.06,0,.03,0,.04-.16.24l.22.79c.06.22.46,1.64.57,2.02.01.07-.04.1-.24.16-.08.02-.09.02-.11-.03l-.11-.41-2.53.7.09.34s0,.01,0,.02c.02.06-.04.1-.19.13h-.02ZM117.41,43.36l2.53-.7-.69-2.49-2.53.7.69,2.49Z"/>
        <path class="cls-4" d="M180.29,25.33c.07-.15.09-.2.16-.35.19.09.24.11.44.22.02.01.03.02.03.03,0,.02,0,.04-.03.05l-1.65.46c-.18.05-.27.08-.46.15l-.08-.15c.15-.02.38-.07.51-.1l.39-.11s-.01-.05-.02-.06c-.06-.22-.12-.4-.18-.54.43-.08.54-.09.55-.04,0,.03-.02.06-.16.16l.11.4.4-.11ZM180.68,26.4c.07-.15.1-.19.16-.34.19.09.25.12.43.22,0,.01.02.03.02.03,0,.02,0,.04-.03.05l-1.88.52s-.14.05-.43.14l-.07-.16c.18-.03.37-.07.47-.1l.77-.21c.06-.31.07-.65.04-1.01.38-.01.49,0,.5.04,0,.03-.03.06-.15.11-.15.49-.21.65-.3.82l.45-.12ZM179.12,25.84c.41.22.56.33.59.43.01.04,0,.13,0,.2-.01.08-.07.17-.12.18-.04.01-.07-.03-.12-.17-.08-.19-.18-.35-.38-.61l.03-.04ZM180.09,27.34c-.08-.26-.09-.33-.16-.51.39-.07.49-.08.5-.02,0,.03-.03.06-.14.13l.09.32.45-.12c.07-.15.09-.2.16-.34.19.08.25.11.44.22.02.02.03.02.03.03,0,.02,0,.04-.03.05l-1.01.28.06.2c.27,0,.51.01.66.05.09.03.14.07.16.16.02.08.02.21,0,.25,0,.01-.02.02-.03.02-.04,0-.05,0-.12-.06-.22-.2-.37-.28-.65-.34.08.3.19.67.41,1.42.01.04,0,.06-.03.08-.03.02-.12.05-.19.07-.06.02-.08,0-.09-.04q-.05-.21-.19-.73-.09-.35-.14-.54c-.18.49-.37.79-.72,1.21l-.06-.04c.33-.58.5-1.06.57-1.63l-.36.1c-.13.04-.25.07-.49.16l-.07-.15q.09-.02.52-.12l.43-.12ZM181.69,26.09c.17.61.21,1.12.14,1.59-.08.51-.26.87-.66,1.33l-.07-.06c.33-.49.45-.81.47-1.3.03-.49-.04-.89-.28-1.77-.12-.42-.2-.7-.31-1.02.21.05.27.06.45.12.21-.14.45-.33.65-.53.11-.1.15-.15.23-.27.41.1.51.14.53.2,0,.02-.03.04-.07.06,0,0-.11.03-.2.04-.5.31-.68.41-1.16.64.03.11.11.4.24.87l1.02-.28q.1-.2.2-.39c.2.1.27.14.47.27.01.01.02.01.02.02,0,.02,0,.03-.03.03l-.66.18.21.75c.04.17.22.78.52,1.83,0,.04,0,.05-.04.07-.04.02-.16.06-.22.08-.05.01-.07,0-.09-.03l-.49-1.87-.21-.75-.67.18Z"/>
        <path class="cls-4" d="M185.88,23.73l-.09-.34c-.03-.12-.04-.16-.09-.29.54-.1.61-.1.62-.04.01.05,0,.06-.2.19l.11.38,1.39-.38c.06-.14.08-.18.14-.32.22.07.29.09.5.18.05.03.07.04.08.06,0,.02,0,.04-.02.06-.04.03-.04.04-.28.14-.04.06-.07.11-.08.15-.1.17-.11.2-.15.25.16.06.3.11.43.15.03.01.04.02.04.04,0,.01,0,.02-.02.03l-1.1.3q-.02.07-.06.18c-.08.25-.12.38-.22.64l.94-.26.12-.27c.16.05.21.06.36.13.05.02.07.03.07.05,0,.02-.02.06-.14.19.04.16.07.26.1.37.14.52.38,1.34.46,1.58.02.08-.03.11-.23.17-.07.02-.1,0-.11-.05l-.05-.17-1.47.4.05.19c.01.07-.02.1-.16.15-.02,0-.04.01-.05.01,0,0,0,0,0,0-.07.02-.1,0-.12-.05-.26-1-.34-1.3-.43-1.63-.09-.32-.11-.4-.25-.81.14.04.27.08.41.12l.37-.1c.01-.39,0-.51-.02-.74l-.73.2c-.09.03-.16.05-.31.12l-.09-.17c.15-.01.3-.04.4-.06l1.54-.42c.04-.16.06-.21.13-.35l.07.02c0-.23,0-.24-.03-.38l-3.18.88c.03.21.04.36.03.53-.02.19-.12.39-.23.42-.08.02-.19-.11-.24-.28-.02-.06,0-.12.08-.2.09-.1.14-.21.18-.34.04-.15.04-.28-.01-.55l.09-.02c.03.09.03.1.05.17.02.06.03.1.04.17l1.39-.38ZM185.02,25.75c-.15.35-.29.59-.52.92l-.07-.04c.22-.43.33-.74.46-1.33.1-.46.14-.69.13-.94.19,0,.43,0,.49.01.02,0,.07.03.07.04v.03s-.05.05-.1.07c-.02.01-.06.03-.11.05-.11.47-.18.7-.28.97q.12-.01.15-.02c.22-.03.27-.02.28.03,0,.02,0,.04-.02.06-.01,0-.04.03-.08.05-.02,0-.04.03-.07.06l.31,1.13c.07.23.12.42.17.57.03.1.06.2.09.31.01.05,0,.07-.03.1-.03.02-.14.07-.21.08-.07.02-.1,0-.11-.04,0,0,0,0,0-.02-.05-.23-.21-.83-.26-1.03l-.29-1.07ZM187.87,24.94l-1.47.4.21.77,1.47-.4-.21-.77ZM186.64,26.23l.25.91,1.47-.4-.25-.91-1.47.4Z"/>
        <path class="cls-4" d="M41.01,73.04c.25.72.6,1.69.76,2.11.01.08-.03.11-.19.17-.08.03-.1.02-.12-.03l-.07-.2-1.34.47.1.29s0,.07-.02.09c-.02.01-.14.07-.2.09-.06.02-.09.01-.12-.05-.16-.54-.47-1.48-.7-2.13-.16-.46-.39-1.08-.45-1.22.18.03.24.05.43.11l1.25-.44c.04-.13.05-.17.1-.29.17.05.22.07.37.13.03.02.05.03.05.04.01.03-.02.07-.11.18l.07.19,1.61-.57c.07-.18.09-.23.17-.4.23.08.3.11.51.21.01,0,.02.02.03.03,0,.02,0,.04-.03.05l-.84.3.67,1.91q.17.49.39,1.07c.05.15.05.23,0,.32-.06.09-.14.16-.43.33-.06-.12-.13-.17-.25-.19-.12-.02-.26,0-.64.1l-.04-.09q.69-.2.93-.29c.09-.03.1-.05.07-.13l-1.03-2.91-1.08.38.13.37ZM40.04,73.88l-.42-1.19-.52.18.42,1.19.51-.18ZM40.08,73.99l-.52.18.45,1.29.52-.18-.45-1.29ZM40.45,72.4l-.53.19.42,1.19.53-.19-.42-1.19ZM40.38,73.88l.45,1.29.53-.19-.45-1.29-.53.19Z"/>
        <path class="cls-4" d="M45.69,74.67s0,.06-.02.09c-.03.02-.12.07-.19.09-.07.02-.09.02-.11-.05-.13-.4-.46-1.35-.87-2.5-.19-.53-.42-1.17-.51-1.36.2.01.26.02.47.06l2.82-.99c.05-.13.07-.18.13-.31.17.05.23.07.39.12.04.01.05.03.06.05.01.04,0,.07-.13.2l.34.98c.34.96.65,1.79.9,2.44,0,.07-.04.12-.21.18-.08.03-.11.02-.14-.03l-.13-.36-2.94,1.03.12.35ZM46.24,72.06l-.49-1.39-1.31.46.49,1.39,1.31-.46ZM46.28,72.17l-1.31.46.55,1.57,1.31-.46-.55-1.57ZM47.38,70.09l-1.32.46.49,1.39,1.32-.46-.49-1.39ZM46.59,72.06l.55,1.57,1.32-.46-.55-1.57-1.32.46Z"/>
        <path class="cls-4" d="M140.55,50.57q-.33.07-.45.1c-.03.11-.05.14-.08.15-.01,0-.03-.01-.04-.04t-.07-.33s.06,0,.08,0c.04,0,.15,0,.31-.02t.08-.11c.25-.35.52-.81.64-1.1.33.13.36.14.36.18,0,.04-.05.05-.16.05h-.02c-.28.42-.5.69-.78.98.32-.02.41-.03.67-.07-.05-.15-.07-.19-.14-.32l.04-.02c.1.1.15.15.24.26.12.15.17.23.17.3,0,.1-.08.24-.14.24-.02,0-.04-.02-.05-.07-.03-.12-.03-.16-.09-.32-.14.05-.16.05-.33.09v.8c.01.34.01.39.03,1,0,.05-.04.07-.21.07-.04,0-.06-.01-.06-.06,0-.23,0-.84,0-1.01v-.74ZM140.75,48.93c-.19.3-.24.36-.45.58.15.12.2.19.2.27,0,.08-.07.21-.12.21-.02,0-.05-.03-.08-.09-.09-.22-.16-.32-.38-.57l.03-.04c.13.08.18.11.27.17.15-.31.23-.52.29-.75.08.03.15.05.19.06.16.05.2.08.2.11,0,.04-.05.06-.17.06h0ZM139.94,52.14c.11-.51.18-.95.18-1.26q.38.08.38.12s-.04.05-.14.08c-.1.47-.19.72-.37,1.08h-.04ZM140.97,50.85c.11.12.21.25.32.41.06.09.09.16.09.21,0,.11-.08.25-.15.25-.04,0-.05-.02-.08-.18-.04-.2-.12-.44-.22-.68l.05-.03ZM142.42,52.09h.58c.11-.14.14-.18.25-.3.17.14.21.18.37.33,0,.01.01.02.01.03,0,.01-.02.02-.04.02l-2.18.03c-.16,0-.19,0-.34.03l-.03-.15c.13.03.18.03.37.03h.75s-.01-.92-.01-.92h-.43c-.12,0-.18.01-.29.04l-.03-.15c.12.02.16.03.32.02h.43s0-.3,0-.3c0-.16,0-.22-.02-.35.44.03.45.04.45.07,0,.03-.05.06-.17.1v.46s.44,0,.44,0c.1-.12.13-.16.23-.27.16.12.21.16.36.3.01.01.02.02.02.04,0,.01-.02.02-.04.02h-1s.01.93.01.93ZM142.85,48.96c.08-.09.1-.12.18-.2.11.09.15.11.25.2.03.03.04.04.04.06,0,.04-.05.07-.17.1-.24.4-.39.59-.65.82.11.07.21.11.35.17.29.12.45.16.79.2v.06c-.15.05-.2.09-.26.25-.46-.15-.73-.29-1.03-.54-.3.23-.51.35-.84.48l-.03-.06c.3-.18.5-.34.73-.55-.29-.28-.46-.55-.56-.88h-.04c-.08,0-.18.01-.28.03l-.03-.16c.15.04.22.05.33.04h1.23ZM141.71,49.07c.11.28.31.53.61.76.22-.23.36-.43.54-.77h-1.16Z"/>
        <path class="cls-4" d="M146.41,49.45c.17-.24.27-.45.39-.78.4.14.44.16.44.2,0,.04-.04.05-.12.05,0,0-.06,0-.08,0-.21.25-.29.33-.51.53h.73c.08-.11.11-.13.19-.21.15.1.19.13.33.24.04.04.06.06.06.08,0,.01,0,.03-.02.04-.02.01-.06.02-.1.03-.03,0-.08.01-.14.02-.18.21-.25.27-.41.4l-.05-.03c.08-.17.11-.24.17-.47l-2.6.03c-.02.19-.04.3-.09.42-.06.15-.18.27-.28.27-.08,0-.12-.09-.12-.25,0-.08,0-.08.12-.16.09-.06.15-.13.21-.23.06-.12.08-.19.1-.35h.08c0,.12,0,.14,0,.2h1.13s0-.46,0-.46c0-.08,0-.1-.02-.36.41.04.45.04.45.09,0,.04-.04.06-.17.09v.62s.32,0,.32,0ZM146.12,51.29h.79c.09-.13.11-.16.21-.27.16.11.2.15.36.28.02.02.02.03.02.04,0,.02-.02.03-.05.03l-1.33.02v.62s1.07-.01,1.07-.01c.1-.13.13-.17.24-.28.17.12.23.17.39.31.01.01.02.02.02.03,0,.02-.02.03-.04.03l-3.14.04c-.16,0-.18,0-.26.01-.06,0-.11.01-.14.01l-.04-.15c.17.03.26.04.44.03h1.2s0-.63,0-.63h-.86c-.19.01-.29.02-.41.03l-.04-.15c.17.03.25.04.45.03h.86s0-.54,0-.54h-.57s0,.17,0,.17c0,.07-.05.08-.2.09-.06,0-.08-.01-.08-.05.01-.28.01-.37,0-.73,0-.19,0-.27-.02-.44.14.08.18.1.31.18l1.37-.02c.06-.07.08-.1.14-.17.1.07.13.09.21.15.04.03.05.05.05.07,0,.03-.03.06-.13.12q0,.08,0,.16c0,.14,0,.36.01.59,0,.06-.04.08-.16.09h-.04s-.06-.01-.07-.05v-.16s-.58,0-.58,0v.53ZM144.92,48.74c.18.1.33.19.41.27.07.06.09.11.09.17,0,.12-.07.26-.14.26-.04,0-.07-.04-.11-.14-.1-.24-.16-.34-.31-.53l.05-.03ZM145.28,50.67l1.42-.02v-.61s-1.42.02-1.42.02v.61Z"/>
        <path class="cls-4" d="M149.16,50.43c-.02.35-.1.63-.23.88-.09.17-.18.25-.27.26-.07,0-.12-.1-.12-.23,0-.08.02-.12.1-.16.21-.12.41-.46.46-.75h.07ZM148.72,49.7c.14.17.24.21.47.21.12,0,.34-.02.69-.08,0-.05,0-.07,0-.09,0-.38-.01-.46-.06-.54-.04-.08-.11-.12-.27-.17.04-.04.07-.05.12-.05.08,0,.24.03.35.08.13.06.2.11.2.18,0,.04,0,.06-.04.12-.05.09-.06.17-.07.44.29-.04.64-.14.7-.2.03-.02.05-.03.07-.03.05,0,.14.02.22.06.1.05.15.09.15.14,0,.05-.05.07-.18.09q-.17.02-.51.07c-.25.04-.4.06-.45.07,0,.21,0,.24,0,.34,0,.47.02.76.06,1.08,0,.04,0,.08,0,.13,0,.13-.01.21-.06.32-.04.1-.09.15-.16.15-.05,0-.08-.04-.12-.13-.04-.12-.1-.17-.44-.37-.11-.06-.11-.06-.19-.12l.02-.04c.29.09.39.12.67.17.01-.26.02-.42.01-1.51-.19.03-.5.06-.63.06-.31,0-.45-.08-.59-.34l.05-.03ZM150.66,50.34c.3.18.5.34.63.5.1.12.13.18.13.29,0,.17-.07.32-.15.32-.04,0-.05-.01-.12-.21-.12-.33-.3-.64-.53-.85l.04-.04ZM150.8,48.76c.15.08.26.16.36.24.15.13.2.22.2.32s-.05.17-.12.17q-.05,0-.18-.26c-.07-.14-.2-.31-.31-.42l.05-.06ZM151.21,48.52c.14.07.26.13.39.23.15.11.21.19.21.31,0,.1-.04.16-.1.17-.04,0-.06-.02-.09-.08-.14-.25-.22-.35-.44-.56l.04-.06Z"/>
        <path class="cls-4" d="M152.51,50.18c.1.07.18.09.39.09t.49-.02c.16,0,1.43-.04,1.56-.04.36,0,.45,0,.52.03.04.02.06.04.06.08,0,.05-.04.09-.09.11-.11.04-.2.04-.96.06-.37,0-1.29.04-1.43.05-.19.01-.22.02-.29.06-.02,0-.04.01-.06.01-.06,0-.12-.04-.19-.13-.08-.1-.15-.27-.16-.37,0-.06,0-.06.03-.09.05.09.07.12.13.16Z"/>
        <path class="cls-4" d="M156.2,51.71c.22-.21.38-.44.53-.77.15-.32.27-.81.26-1.09,0-.16-.07-.23-.27-.31.04-.03.06-.04.11-.04.09,0,.18.03.3.1.15.09.22.15.22.22,0,.03,0,.06-.05.19t-.04.14c-.12.42-.16.52-.26.74-.19.38-.41.64-.75.86l-.04-.04ZM159.6,50.08c-.12.21-.22.35-.43.57-.23.25-.59.57-.84.74-.08.05-.19.15-.23.18-.03.03-.05.04-.08.04-.09,0-.24-.21-.24-.33,0,0,0-.05.03-.12.02-.09.03-.45.02-1.08-.01-.91-.03-.96-.32-1.02.04-.05.07-.06.13-.06.1,0,.22.04.35.12.12.07.17.13.17.18,0,.02,0,.04-.03.11-.02.05-.04.19-.05.39-.01.17-.04,1.05-.04,1.2,0,.05,0,.1,0,.18.46-.19,1.04-.64,1.5-1.15l.05.04Z"/>
        <path class="cls-4" d="M87.51,35.76c.17.25.3.37.54.5.34.18.65.26,1.24.3v.05c-.16.05-.23.13-.27.3-.37-.08-.58-.16-.85-.31-.33-.2-.54-.43-.74-.81-.08.25-.19.43-.37.61-.33.32-.78.5-1.43.59l-.02-.06c.44-.11.79-.27,1.07-.51.22-.2.36-.39.45-.65h-1.02c-.13.01-.2.02-.39.04l-.04-.15c.14.02.33.04.42.04h1.05c.03-.14.04-.22.04-.31,0-.03,0-.07,0-.12.38.05.44.07.44.11,0,.04-.04.06-.13.07-.01.12-.02.16-.03.24h1.13c.09-.13.12-.16.21-.26.16.11.2.15.35.27.02.02.03.04.03.04,0,.01-.01.02-.02.02h-.04s-1.62.02-1.62.02ZM87.62,33.93c.11-.15.27-.45.33-.62.35.1.43.13.43.17,0,.04-.05.06-.2.07-.13.13-.31.28-.44.38h.78c.09-.12.12-.15.22-.26.15.11.19.15.34.27,0,.01.02.03.02.04,0,.02-.02.02-.05.02l-1.55.02v.5s.79,0,.79,0c.09-.11.11-.15.21-.25.15.11.19.15.33.27.01.01.02.03.02.03,0,.02-.02.03-.06.03l-1.3.02v.48s1.15-.01,1.15-.01c.07-.08.14-.16.21-.24.15.11.2.14.34.26.02.02.03.03.03.04,0,.02-.02.03-.05.03l-3.13.04-.22.02q-.08,0-.16.02l-.03-.16c.14.03.26.04.41.04h1.18s0-.5,0-.5h-.76c-.17.01-.24.02-.35.04l-.03-.15c.12.02.24.03.38.03h.76s0-.5,0-.5h-1q-.28.02-.37.04l-.03-.15c.1.02.28.04.38.04h.64s-.02-.03-.05-.12c-.06-.15-.17-.31-.31-.45l.04-.04c.16.07.27.12.37.21.1.08.13.12.13.2,0,.07-.02.13-.08.2h.68Z"/>
        <path class="cls-4" d="M91.39,33.52c.07-.1.09-.13.17-.21.11.08.15.1.25.17.03.02.04.03.04.05,0,.02-.04.05-.12.1.14.18.19.24.3.37.23-.36.25-.4.35-.63.08.03.13.06.17.07.14.06.19.09.19.14,0,.03-.04.05-.09.05-.03,0-.06,0-.1,0-.2.2-.28.27-.48.42.14.14.24.22.39.32.21-.29.32-.46.42-.67.3.12.38.16.38.2,0,.04-.05.05-.21.05-.21.2-.27.25-.54.45.31.2.55.28,1.03.39v.04c-.15.06-.2.12-.25.28-.33-.14-.63-.32-.91-.54-.29-.24-.47-.47-.73-.9-.29.43-.53.7-.9,1-.3.25-.57.42-.91.57l-.03-.04c.4-.27.63-.47.9-.75.28-.29.45-.52.63-.82h-.68c-.12,0-.2.01-.36.03l-.03-.15c.08.01.32.03.38.03h.73ZM91.85,36.74c.15-.33.22-.52.26-.73.38.12.44.13.44.17,0,.04-.06.06-.17.06-.28.33-.31.37-.43.5h.89c.09-.13.12-.17.22-.28.17.12.22.17.38.31.02.02.02.03.02.04,0,.01,0,.02-.02.02l-3.18.04c-.06,0-.08,0-.32.02l-.02-.14c.15.02.27.03.37.03h.93s-.04-.04-.06-.12c-.02-.05-.09-.22-.12-.3-.04-.07-.08-.13-.16-.24l.04-.03c.15.08.25.14.39.26.08.06.11.12.11.18,0,.08-.06.19-.13.23h.58ZM90.07,33.75c.23.08.34.13.48.22.14.09.17.13.17.2,0,.09-.01.19-.03.22-.02.02-.04.04-.06.04-.03,0-.05-.02-.09-.09-.1-.17-.27-.37-.49-.55l.02-.04ZM92.37,35.12c.06-.08.08-.1.15-.18.11.08.14.1.24.18.02.02.03.03.03.04,0,0,0,.02-.02.02-.01,0-.03.02-.04.03-.02,0-.04.02-.06.04,0,.06,0,.09,0,.14,0,.14,0,.27.03.53v.02s0,.05-.04.06c-.03,0-.13.02-.18.02-.04,0-.06-.01-.06-.04v-.05l-1.52.02v.05s-.01.04-.03.04c-.02,0-.12.02-.18.02-.04,0-.06-.02-.06-.04h0c0-.24,0-.32,0-.48,0-.17,0-.27-.02-.55.13.06.17.08.29.16l1.45-.02ZM91.91,34.65c.07-.11.09-.14.18-.25.14.11.18.15.32.28.01.01.02.02.02.02,0,.02-.02.04-.06.04h-1.22c-.07.01-.14.02-.29.03l-.02-.14c.1.02.22.03.31.03h.76ZM90.9,35.84l1.52-.02v-.61s-1.52.02-1.52.02v.61Z"/>
        <path class="cls-4" d="M95.18,34.43h.31c.08-.12.1-.15.18-.26.14.12.19.16.32.29.01.01.02.02.02.03,0,.01-.02.03-.04.03h-.79s0,.4,0,.4c.25.11.36.16.5.26.14.09.18.15.18.25,0,.14-.05.26-.12.26-.03,0-.04-.02-.06-.06-.07-.15-.18-.33-.29-.44-.06-.06-.1-.1-.21-.18v.6c.01.46.01.48.04,1.26,0,.02,0,.04-.03.04-.03.01-.14.03-.21.03-.03,0-.04,0-.04-.04q0-.54,0-1.28v-.78c-.25.58-.45.89-.83,1.31l-.04-.03c.24-.36.36-.58.52-.95.11-.25.15-.35.23-.63h-.46c-.07,0-.14.01-.22.03l-.03-.14c.12.02.19.03.28.03h.52s0-.64,0-.64c-.33.08-.45.1-.75.13l-.02-.06c.32-.09.58-.18.9-.32.23-.09.3-.14.44-.24.23.15.34.23.34.26,0,.02-.02.03-.05.03-.02,0-.1-.02-.17-.03-.2.08-.26.1-.44.15v.7ZM96.6,33.69s-.02.04-.15.09q.02,1.63.04,2.15s0,.03-.02.04c-.03.01-.14.03-.22.03-.03,0-.04,0-.04-.04q0-.28,0-.37c-.02-1.45-.02-1.75-.04-2,.41.05.44.06.44.1ZM97.14,33.75c0-.13,0-.23-.02-.43.34.05.38.05.41.06.03,0,.05.02.05.04,0,.03-.03.05-.16.1l.03,2.16s.01.32.03.84c0,.11-.02.16-.09.22-.09.07-.18.1-.36.14-.02-.11-.04-.15-.11-.2-.04-.02-.14-.05-.26-.08l-.14-.02-.12-.02v-.07q.18,0,.44.02t.3,0c.06,0,.07-.01.07-.06h0s-.04-2.71-.04-2.71Z"/>
        <path class="cls-4" d="M100.87,35.39c0-.17,0-.21-.02-.36.43.05.43.05.43.09,0,.03-.02.04-.15.09v.18s.21,0,.21,0c.1-.12.13-.15.23-.25.16.12.2.16.35.29.01.01.02.02.02.03,0,.01-.02.02-.03.02h-.78s0,.61,0,.61c0,.05,0,.07.02.46v.02c0,.09-.01.13-.07.17-.08.06-.19.09-.43.14-.04-.1-.06-.14-.12-.18-.04-.03-.11-.05-.2-.06t-.29-.03v-.07c.36.02.48.02.78.02.04,0,.06-.01.05-.07l-.02-1h-1.22c-.11.23-.22.39-.39.58-.27.32-.47.49-.82.71l-.03-.05c.33-.28.53-.51.76-.86.08-.12.14-.23.2-.36h-.59c-.16,0-.25.02-.36.04l-.03-.16c.12.02.23.03.4.03h.63c.08-.18.12-.28.18-.47h-.89c-.12.01-.23.03-.3.04l-.03-.16c.12.03.21.03.35.03h.9c.04-.17.07-.28.1-.46h-.65c-.2,0-.27.01-.38.03l-.03-.15c.12.03.22.03.41.03h.66c.03-.18.03-.26.05-.46h-1.02c-.14.01-.22.02-.3.04l-.03-.16c.11.03.22.04.33.04h1.02c0-.17.02-.32.01-.42,0-.02,0-.07,0-.12.41.04.46.05.46.09,0,.04-.04.06-.17.1,0,.18,0,.22-.02.34h1.14c.1-.14.13-.17.23-.28.16.12.22.16.37.29.01.02.02.02.02.04s-.02.02-.04.02l-1.73.02c-.01.17-.02.25-.05.45h1.02c.09-.13.13-.17.22-.28.16.12.21.16.36.28.02.02.02.03.02.04,0,.02-.02.03-.04.03l-1.61.02c-.03.18-.06.28-.1.45l1.42-.02c.11-.12.14-.15.25-.26.15.12.2.16.35.3,0,.01.02.02.02.03,0,.01-.02.02-.03.02l-2.03.02c-.05.17-.1.3-.18.47h1.17ZM99.71,35.65c.51.22.66.33.66.47,0,.11-.07.24-.13.24-.04,0-.04,0-.11-.13-.1-.18-.23-.33-.45-.54l.03-.04Z"/>
        <path class="cls-4" d="M102.54,33.41c.13.02.24.03.41.03l2.41-.03c.08-.08.1-.11.19-.19.12.08.16.11.27.2.03.03.04.04.04.06,0,.03,0,.04-.15.12l.02,1.98q0,.53.02.8c0,.13-.03.18-.09.24-.07.06-.16.09-.4.15-.03-.14-.06-.19-.15-.23-.08-.04-.15-.05-.56-.08v-.07q.61.01.81.01h.02c.06,0,.08-.02.08-.07l-.03-2.84-2.44.03c-.23,0-.28,0-.39.03l-.03-.15ZM102.65,34.08c.15.02.22.02.38.02l1.47-.02q.12-.14.23-.27c.15.12.19.16.33.29,0,.01.02.03.02.04,0,.02-.02.02-.06.02l-1.98.02c-.18,0-.18,0-.35.02l-.03-.14ZM103.21,36.07s0,.05-.02.06c-.02.01-.12.02-.21.03-.04,0-.05-.01-.05-.05,0-.48,0-.64,0-.75,0-.24-.01-.67-.02-.83.14.07.19.1.32.19h1.06c.07-.1.09-.12.16-.21.11.08.15.11.25.19.02.02.03.04.03.05t-.13.12c0,.45.01.66.03,1.08,0,.04-.01.06-.04.07-.02,0-.13.02-.19.02-.04,0-.05-.01-.05-.05v-.24s-1.14.01-1.14.01v.3ZM103.21,35.67h1.14s0-.88,0-.88h-1.14s0,.88,0,.88Z"/>
        <path class="cls-4" d="M54.92,60.08c.62-.54.96-.95,1.3-1.55.25-.45.46-.94.46-1.07,0-.04-.02-.05-.08-.05-.08,0-.45.07-.74.14-.3.07-.55.15-.73.23-.06.03-.11.04-.15.04-.08,0-.19-.08-.29-.21-.07-.09-.11-.18-.11-.25,0-.03,0-.04.03-.08.07.15.2.23.38.23.13,0,.46-.05,1.13-.18.35-.06.38-.07.46-.12t.08-.03c.06,0,.17.07.29.18.08.08.13.14.13.19,0,.04,0,.06-.05.11-.05.06-.07.08-.13.22-.32.65-.72,1.23-1.14,1.63-.25.23-.48.41-.82.61l-.04-.05Z"/>
        <path class="cls-4" d="M58.48,60.07c.23-.24.33-.39.45-.63.14-.3.26-.67.26-.86,0-.11-.06-.17-.21-.21.03-.04.07-.05.11-.05.09,0,.26.07.38.16.27-.18.7-.54.7-.6,0-.02-.03-.04-.1-.04-.21,0-.69.08-1.01.15-.22.05-.35.1-.48.16-.03.01-.08.03-.1.03-.14,0-.34-.25-.34-.42,0-.03,0-.04.03-.07.06.13.17.2.31.2.08,0,.24-.02.54-.06.13-.02.27-.04.44-.06.54-.07.57-.07.63-.11.03-.02.04-.02.06-.02.05,0,.12.05.24.15.11.1.16.18.16.23,0,.05-.03.07-.12.09t-.46.23c-.07.04-.17.09-.46.22-.17.75-.46,1.22-.97,1.55l-.05-.05Z"/>
        <path class="cls-4" d="M61.77,58.89c.09.16.18.24.37.32.18.07.38.13.73.19.19.03.35.06.42.05h.02s.04,0,.04,0c.09,0,.15.04.24.13.08.09.13.18.13.25,0,.06-.03.09-.09.09-.03,0-.05,0-.11-.03-.09-.03-.14-.05-.76-.24-.37-.12-.56-.19-.71-.28-.17-.11-.27-.24-.33-.46l.04-.02ZM61.92,56.87c.18.17.31.24.6.31.18.04.38.07.53.07.04,0,.06,0,.11-.01,0,0,.01,0,.02,0,.02,0,.06.02.11.05.1.08.16.17.16.23,0,.05-.04.08-.09.08-.09,0-.45-.08-.71-.16-.42-.13-.59-.26-.77-.53l.04-.03ZM62.02,57.86c.08.13.18.19.34.26.19.07.45.12.6.12,0,0,.05,0,.06,0h.04s.07.02.13.07c.09.09.14.16.14.21,0,.05-.04.08-.09.08-.07,0-.33-.06-.53-.13-.45-.16-.64-.31-.73-.59l.04-.02Z"/>
        <path class="cls-4" d="M65.01,57c.1,0,.27.05.38.12.07.04.11.09.11.14,0,.01,0,.05-.01.09-.02.09-.03.4-.03.69,0,.05,0,.14,0,.3,0,.05,0,.09,0,.14,0,.13,0,.17,0,.22,0,.06-.04.09-.08.09-.05,0-.1-.05-.15-.13-.04-.08-.07-.17-.07-.22,0-.03,0-.04.01-.09.03-.11.05-.34.04-.65,0-.29-.02-.39-.08-.48-.05-.08-.08-.1-.24-.17.05-.03.06-.03.12-.03ZM65.46,60.02c.4-.28.62-.5.8-.8.22-.38.28-.73.26-1.67,0-.4-.02-.53-.08-.6-.05-.06-.14-.11-.29-.14.06-.05.09-.06.16-.06.1,0,.28.05.41.11.1.05.14.1.15.16t-.02.1c-.03.1-.05.36-.06.86-.01.58-.03.76-.12,1-.16.46-.58.87-1.18,1.11l-.03-.05Z"/>
        <path class="cls-4" d="M68.28,58.12c.1.08.18.09.39.09t.49-.02c.16,0,1.43-.04,1.56-.04.36,0,.45,0,.52.03.04.02.06.04.06.08,0,.05-.04.09-.09.11-.11.04-.2.04-.96.06-.37,0-1.29.04-1.43.05-.19.01-.22.02-.29.05-.02,0-.04.01-.06.01-.06,0-.12-.04-.19-.13-.08-.1-.15-.27-.16-.37,0-.06,0-.06.03-.09.05.09.07.12.13.16Z"/>
        <path class="cls-4" d="M73.05,58.35c.33.16.47.24.67.4.48-.47.69-.7.9-.98.09-.12.13-.17.13-.19s-.02-.03-.06-.03c-.18,0-.73.09-1.24.19-.46.09-.62.14-.79.22-.05.03-.08.03-.11.03-.07,0-.17-.07-.27-.2-.09-.12-.14-.23-.14-.3,0-.03,0-.06.02-.09.05.09.11.15.19.2.06.04.12.05.24.04.19,0,.54-.04,1.32-.16.38-.05.58-.08.62-.09q.07-.01.13-.05s.06-.03.1-.03c.07,0,.15.05.28.19.12.12.17.19.17.25,0,.04-.01.06-.05.08t-.1.04s-.1.05-.22.15c-.04.03-.14.11-.29.22-.08.06-.2.15-.34.26-.2.16-.27.21-.42.31.27.22.35.33.35.5,0,.16-.05.26-.13.26-.06,0-.09-.03-.14-.14-.07-.16-.25-.41-.4-.58-.13-.15-.25-.26-.47-.45l.03-.05Z"/>
        <path class="cls-4" d="M76.27,58.03c.1.08.18.09.39.09t.49-.02c.16,0,1.43-.04,1.56-.04.36,0,.45,0,.52.03.04.02.06.04.06.08,0,.05-.04.09-.09.11-.11.04-.2.04-.96.06-.37,0-1.29.04-1.43.05-.19.01-.22.02-.29.05-.02,0-.04.01-.06.01-.06,0-.12-.04-.19-.13-.08-.1-.15-.27-.16-.37,0-.06,0-.06.03-.09.05.09.07.12.13.16Z"/>
        <path class="cls-4" d="M80.64,56.56c.08,0,.17.02.3.06.17.06.27.14.27.22t-.02.09c-.05.11-.07.41-.06.87.3.03.7.12.93.21.18.08.25.16.25.3,0,.12-.03.18-.09.18-.04,0-.04,0-.15-.09-.27-.24-.58-.41-.95-.51,0,.25,0,.38.01.5,0,.1,0,.15,0,.24,0,.18,0,.24,0,.34q0,.12.01.46c0,.08,0,.15,0,.21,0,.08,0,.11-.02.14-.01.02-.04.04-.07.04-.1,0-.26-.21-.26-.35,0-.04,0-.06.02-.11.06-.19.08-.71.06-1.73,0-.29-.02-.58-.04-.69-.03-.18-.11-.28-.31-.35.05-.03.06-.03.1-.03Z"/>
        <path class="cls-4" d="M115.1,82.69l.07.03h0s.02.02.02.04c0,.01-.04.15-.06.18,0,.03-.02.03-.06.02-.13-.06-.18-.08-.35-.14-.12-.05-.24-.1-.32-.13-.12-.05-.19-.07-.23-.09l-.13-.05c-.07-.03-.1-.04-.17-.06.1-.1.14-.13.26-.21l.19-.47-.13-.05c-.06-.02-.18-.06-.24-.07.14-.29.19-.35.22-.33.03.01.04.05.03.16l.21.08.2-.5-.13-.05q-.18-.07-.24-.08c.13-.27.19-.36.23-.34.04.01.04.07.03.18l.2.08.19-.48c-.04-.09-.06-.11-.09-.2.11-.07.14-.09.26-.15.02-.01.03-.01.04,0,.01,0,.02.02.03.03,0,0,0,.04.03.11.04.02.05.02.07.03.16.06.71.28.79.31,0,0,0,0,0,0,0,0,0,0,0,0,0,0,0,0,.01,0,0,0,.03.03.03.04,0,0,0,.01-.06.2,0,.02-.04.02-.06.02l-.07-.03-.78,1.94ZM114.42,81.84l-.2.5.35.14.2-.5-.35-.14ZM114.7,81.12l-.2.5.35.14.2-.51-.35-.14ZM114.86,82.01l-.2.5.36.14.2-.5-.36-.14ZM115,80.4l-.21.51.35.14.21-.51-.35-.14ZM115.14,81.3l-.2.5.36.14.2-.51-.36-.14ZM116.55,82.03c.14-.01.19-.02.31-.08.1-.04.19-.1.29-.17-.04-.17-.15-.43-.23-.53.11-.11.26-.27.28-.3,0,0,.03-.01.04-.01.02,0,.02.06,0,.11,0,0,0,.01,0,.02,0,.02-.02.04-.03.07,0,.08,0,.12,0,.27,0,.06,0,.11,0,.32.24-.21.43-.51.68-1.07l.05.02c0,.21.03.26.17.36-.27.43-.56.71-.92.89-.24.12-.41.17-.68.18l-.19.47.58.23c.08-.32.11-.44.16-.7h.05c0,.31,0,.5-.05.76q-.08.56-.08.65s.02,0,.03.01c.07.03.11.07.09.1-.02.04-.04.04-.45,0,.02-.03.03-.06.03-.07.03-.08.08-.24.15-.48l-.61-.25-.19.47c.16.09.28.18.4.3.19.18.29.33.41.59l-.05.03c-.18-.24-.32-.37-.52-.5-.23-.15-.58-.31-.93-.45l-.29-.11s-.02,0-.03-.01c.11-.11.15-.14.26-.23l.92-2.31c-.07-.11-.09-.15-.15-.27.15-.09.21-.12.38-.22.01,0,.02,0,.03,0,.01,0,.02.02,0,.05l-1.12,2.81q.51.23.6.27l.94-2.35c-.06-.12-.08-.16-.14-.29.17-.08.22-.11.39-.21,0,0,.02,0,.02,0,0,0,.02.02.02.02l-.63,1.59ZM115.43,80.57l-.21.51.36.14.21-.51-.36-.14ZM115.65,82.89c.05-.08.13-.21.16-.29l.55-1.38q-.07-.14-.13-.24c.14-.09.19-.12.35-.21,0,0,.02,0,.02,0,.02,0,.02.03.01.04l-.73,1.82c-.02.06-.05.19-.07.28l-.17-.03Z"/>
        <path class="cls-4" d="M116.9,77.59c.44.05.77.03,1.13-.06.37-.09.73-.26,1.04-.49.16-.12.24-.2.4-.4l.05.03c-.06.22-.04.29.12.44-.32.23-.48.32-.78.43-.38.14-.82.22-1.21.21-.21,0-.41-.02-.7-.07.5.27.86.62,1.1,1.05.16.29.27.64.32,1,.03.17.03.29.03.57h-.06c-.06-.4-.1-.6-.2-.87-.25-.68-.71-1.2-1.36-1.52l-.43,1.08c-.06.15-.08.22-.11.35l-.15-.03c.09-.14.12-.22.18-.37l.43-1.07c-.21-.11-.49-.23-.72-.32-.1-.04-.14-.05-.26-.08.21-.42.23-.44.27-.43.04.02.05.08.04.2.42.19.57.25.78.36l.42-1.04c-.1-.14-.12-.19-.21-.33.19-.11.26-.15.46-.24.02,0,.03-.01.04,0,.02,0,.03.03.02.05l-.63,1.57Z"/>
        <path class="cls-4" d="M116.76,74.89c.33-.23.44-.29.6-.36.11-.05.2-.06.25-.04.12.05.24.19.21.26-.02.04-.04.05-.18.04-.12,0-.35.02-.49.05-.12.03-.22.05-.37.11l-.02-.06ZM119.64,73.57q.25.1.64.25s.04.03.03.07c0,.05-.03.12-.05.17-.01.03-.02.03-.05.03-.04-.02-.25-.11-.63-.27l-.12-.05-.25.62.38.15.3.12s.03.01.05.02c.03.02.04.03.04.06,0,.01-.04.14-.06.18,0,.03-.02.03-.04.04-.24-.1-.79-.33-1.34-.55-.28-.11-.47-.18-.69-.26.1-.09.13-.12.23-.2l.32-.8c-.2.06-.22.07-.34.14-.18.09-.29.17-.4.27l-.03-.04c.17-.24.37-.46.55-.58-.07-.18-.12-.28-.25-.52l-.51,1.28c-.04.1-.09.26-.11.34l-.15-.02c.05-.08.13-.24.18-.35l.52-1.3c-.03-.06-.06-.14-.1-.22.13-.09.17-.12.31-.2.03-.02.04-.02.06-.02.02,0,.03.04.03.09,0,.02,0,.03,0,.05,0,.03,0,.09-.02.15.05.19.08.37.13.71.05,0,.07.02.12.04.04.01.06.03.08.05l.2-.51c-.03-.07-.06-.15-.1-.22.1-.07.14-.09.25-.16.02,0,.03,0,.04,0,.03.01.05.07.06.16l1.15.46c.12.05.2.08.24.09l.11.04c.11.05.16.11.17.23,0,.06,0,.12-.05.27-.12-.02-.14-.02-.19.02-.03.02-.06.07-.12.15l-.04.06s-.02.03-.04.05l-.05-.02q.04-.08.1-.23c.07-.13.07-.14.1-.21,0,0,0-.01,0-.02.01-.03,0-.06-.04-.07l-.46-.18-.26.65.09.04ZM118.13,75.61c.07-.1.12-.19.17-.3l.09-.23c-.05-.08-.06-.11-.11-.19.12-.08.15-.11.27-.17.03,0,.04,0,.05,0,.02,0,.04.06.05.15l.89.36c.12.01.16,0,.24-.04.15-.07.3-.23.41-.42.06-.09.12-.23.19-.39.12-.3.5-1.37.6-1.68h.04c.02.2.04.25.19.32l-.04.12-.2.53c-.44,1.1-.54,1.29-.8,1.48-.2.15-.37.2-.67.2q.04.07.11.2t.12.2.15.29l.05.02s.03,0,.03,0c.04.02.06.05.05.07s-.1.04-.46.07c0-.05,0-.09-.01-.11-.02-.28-.03-.33-.1-.6l-.96-.38-.1.26q-.08.23-.09.29l-.16-.02ZM118.42,73.35l-.25.62.44.18.25-.62-.44-.18ZM119.21,72.65l-.44-.18-.26.65.44.18.26-.65ZM118.94,73.56l-.25.62.43.17.25-.62-.43-.17ZM119.72,72.86l-.43-.17-.26.65.43.17.26-.65Z"/>
        <path class="cls-4" d="M121.89,71.52c-.06-.33-.14-.55-.29-.8-.24-.4-.61-.69-1.1-.89-.32-.13-.65-.2-.82-.17-.13.02-.22.09-.27.2-.07.18.02.42.27.67.2.2.47.39.73.49.06.03.1.04.24.08.02,0,.05.02.08.03.07.03.1.08.07.14-.06.14-.39.11-.85-.07-.31-.12-.49-.22-.95-.52-.14-.09-.2-.13-.25-.15-.12-.05-.21-.02-.34.1,0-.03,0-.06,0-.07.03-.08.12-.18.24-.25.12-.07.19-.09.27-.06.05.02.07.04.12.11.18.23.65.57,1,.71.03.01.07.03.14.05h0c-.43-.31-.68-.57-.8-.83-.09-.2-.1-.37-.04-.54.14-.36.68-.43,1.3-.19.48.19.83.49,1.05.89.18.33.26.65.26,1.06h-.07Z"/>
        <path class="cls-4" d="M140.56,87.57c.06-.07.08-.09.15-.17.09.08.12.11.21.2.02.02.02.02.02.03,0,.02-.01.02-.04.02h-.48s0,.49,0,.49h.13s.15-.17.15-.17c.1.08.12.11.2.2.01.01.02.02.02.03,0,.01-.01.02-.03.02h-.47s0,.54,0,.54h.13c.05-.08.07-.11.12-.19.09.09.12.12.2.21.01.01.02.03.02.04,0,.02-.01.02-.04.02h-1.04s0,.33,0,.33c0,.05-.04.07-.17.07-.07,0-.09-.01-.09-.06.01-.3.01-.47,0-.92v-.4c0-.07,0-.11,0-.18,0-.08,0-.12,0-.15,0-.02,0-.05,0-.09-.11.15-.18.24-.33.42l-.06-.04c.33-.47.53-.89.68-1.46h-.33c0,.16-.04.29-.1.39-.04.08-.11.14-.16.14-.05,0-.09-.1-.09-.22,0-.05.01-.07.06-.12.11-.11.18-.27.22-.54h.07c0,.1,0,.12,0,.23,0,0,0,.02,0,.04h.35c.05-.21.06-.34.08-.56.3.05.42.1.43.13,0,.03-.05.05-.17.08-.05.18-.06.23-.1.34h.52c.07-.07.09-.09.16-.16.1.09.12.13.21.22,0,.02.02.03.02.04,0,0,0,.01,0,.02,0,.02-.04.04-.13.06-.11.18-.15.23-.26.35l-.05-.02c.04-.17.06-.24.09-.42h-.59c-.09.28-.17.49-.29.71h.28c.06-.16.11-.32.14-.51.3.09.31.1.31.13,0,.03-.04.05-.13.06-.09.14-.13.2-.22.31h.4c.05-.07.1-.12.15-.18.1.09.13.12.22.22,0,0,.01.02.01.02,0,.01-.02.03-.04.03h-.51s0,.43,0,.43h.13ZM140.2,87.57v-.43s-.39,0-.39,0v.43s.39,0,.39,0ZM139.83,88.15h.38s0-.48,0-.48h-.38s0,.48,0,.48ZM140.22,88.77v-.54s-.39,0-.39,0v.54s.39,0,.39,0ZM141.17,88.35c.01.1.02.15.02.22,0,.23-.04.41-.14.54-.05.06-.1.1-.13.1-.06,0-.11-.1-.11-.22,0-.04.01-.06.07-.11.06-.05.12-.13.17-.24.04-.1.06-.17.06-.29h.06ZM142.23,86.12c.06-.06.07-.08.14-.15.1.06.13.08.22.14.03.02.05.04.05.06,0,.02,0,.03-.13.11.01.64.01.66.02.94,0,.03-.02.04-.05.05-.03,0-.1.02-.14.02-.04,0-.07-.02-.07-.06,0,0,0,0,0-.02v-.05h-.92s0,.37,0,.37h1.06c.09-.12.11-.15.2-.25.13.11.17.14.29.26.01.01.02.02.02.03,0,.02-.02.03-.04.03l-1.54.02v.37s1.15-.01,1.15-.01c.06-.07.09-.09.15-.16.11.08.14.1.24.17.03.03.04.04.04.05t-.15.11c-.04.48-.1.81-.17.94-.07.12-.16.17-.44.21-.03-.17-.08-.2-.43-.28v-.06c.41.04.44.04.52.04.1,0,.12-.01.15-.08.04-.11.09-.44.12-.86h-1.18s0,.11,0,.11h0s0,.06-.04.07c-.03,0-.12.02-.16.02-.04,0-.06-.02-.06-.05h0c.01-.47.01-.83,0-1.47,0-.45-.01-.56-.03-.79.12.07.17.1.29.18h.21c.06-.14.1-.25.13-.43.34.06.42.08.43.12,0,.04-.04.05-.21.09q-.07.07-.23.22h.54ZM141.38,88.33c.15.17.25.34.25.44,0,.09-.09.23-.15.23-.03,0-.04-.03-.04-.09,0-.19-.03-.35-.1-.55l.04-.02ZM142.26,86.58v-.37s-.92.01-.92.01v.37s.92-.01.92-.01ZM141.35,86.68v.4s.92-.01.92-.01v-.4s-.92.01-.92.01ZM141.64,88.25c.22.16.36.3.36.38,0,.09-.06.21-.1.21-.03,0-.04-.02-.07-.12-.04-.14-.1-.26-.22-.44l.04-.02ZM141.97,88.2c.29.1.37.16.37.28,0,.09-.03.16-.06.16-.02,0-.04-.02-.06-.06-.07-.13-.15-.24-.27-.35l.02-.03Z"/>
        <path class="cls-4" d="M145.28,86.67c0,.61.02,1.43.04,1.79-.01.06-.05.08-.18.08-.06,0-.08-.01-.09-.05v-.17s-1.13.01-1.13.01v.25s0,.05-.04.06c-.02,0-.13.02-.17.02-.05,0-.07-.02-.07-.07.01-.45.02-1.24.02-1.79,0-.39-.02-.92-.03-1.04.13.07.17.1.3.19h1.06c.06-.1.08-.12.15-.21.12.08.15.11.25.19.02.02.03.04.03.05,0,.03-.03.05-.13.11v.16s1.37-.02,1.37-.02c.1-.12.13-.15.23-.26.15.12.2.16.33.29,0,.01.01.02.01.03,0,.02-.02.03-.04.03h-.71s.02,1.63.02,1.63q0,.41.02.91c0,.13-.02.18-.08.24-.07.06-.15.08-.41.14-.02-.1-.05-.16-.14-.21-.09-.05-.19-.07-.51-.09v-.08q.57.02.77.02c.08,0,.09-.01.09-.08l-.03-2.47h-.91s0,.32,0,.32ZM144.33,87.06v-1.01s-.45,0-.45,0v1.01s.45,0,.45,0ZM144.34,87.15h-.44s.01,1.1.01,1.1h.44s-.01-1.1-.01-1.1ZM145.02,86.04h-.45s.01,1.01.01,1.01h.45s-.01-1.01-.01-1.01ZM144.58,87.15v1.09s.46,0,.46,0v-1.09s-.46,0-.46,0Z"/>
        <path class="cls-4" d="M147.94,87.6c.29-.25.55-.57.83-.99.16-.25.26-.46.26-.54,0-.05-.02-.08-.08-.13q-.05-.04-.1-.07s-.04-.02-.07-.04c.04-.02.05-.02.08-.02.09,0,.22.04.33.1.13.07.19.14.19.2,0,.05,0,.05-.21.37.05.01.08.01.1.01.08,0,.27-.04.48-.08.16-.04.23-.07.31-.11.03-.02.04-.03.07-.03.1,0,.33.2.33.29,0,.04-.01.06-.06.1-.07.06-.09.09-.19.29-.34.66-.68,1.1-1.16,1.52-.34.3-.64.49-.98.64l-.03-.06c.32-.2.55-.4.88-.73.48-.49.85-1.03,1.07-1.59.04-.09.06-.17.06-.21,0-.02-.01-.03-.04-.03-.06,0-.31.07-.51.13-.07.02-.09.03-.13.03-.08,0-.17-.04-.25-.11-.3.44-.71.84-1.14,1.11l-.04-.05Z"/>
        <path class="cls-4" d="M151.66,86.04c.1,0,.27.05.38.12.07.04.11.09.11.14,0,.01,0,.05-.01.09-.02.09-.03.41-.03.69,0,.05,0,.14,0,.3,0,.05,0,.09,0,.14,0,.13,0,.17,0,.22,0,.06-.04.09-.08.09-.05,0-.1-.05-.15-.13-.04-.08-.07-.17-.07-.22,0-.03,0-.04.01-.09.03-.11.05-.34.04-.65,0-.29-.02-.39-.08-.48-.05-.08-.08-.1-.24-.17.05-.03.06-.03.12-.03ZM152.12,89.06c.4-.28.62-.5.8-.8.22-.38.28-.73.26-1.67,0-.4-.02-.53-.08-.6-.05-.06-.14-.11-.29-.14.06-.05.09-.06.16-.06.1,0,.28.05.41.11.1.05.14.1.15.16t-.02.1c-.03.1-.05.36-.06.86-.01.58-.03.76-.12,1-.16.46-.58.87-1.18,1.11l-.03-.05Z"/>
        <path class="cls-4" d="M155.08,88.11c.06,0,.16,0,.34-.03.59-.07.93-.1,1.42-.13.38-.02.4-.02.54-.06.05-.01.08-.02.11-.02.12,0,.37.2.38.3,0,.05-.04.09-.11.09-.03,0-.04,0-.2-.03-.27-.06-.59-.08-.93-.08-.45,0-1.15.13-1.44.25-.06.03-.08.03-.12.03-.1,0-.21-.08-.32-.22-.07-.09-.11-.2-.11-.27t.02-.08c.14.2.22.25.43.24ZM155.25,86.38c.19.18.28.22.49.22.34,0,.89-.12,1.1-.24.03-.02.05-.02.06-.02.05,0,.14.05.22.11.06.04.08.08.08.12,0,.06-.05.08-.25.12-.53.08-.86.12-1.08.12-.3,0-.44-.08-.66-.38l.05-.04Z"/>
        <path class="cls-4" d="M158.78,86.86c.4.24.56.39.56.54,0,.12-.06.23-.12.23-.04,0-.06-.03-.1-.11-.11-.26-.17-.35-.38-.62l.04-.04ZM159.18,88.91c.27-.21.4-.33.59-.55.32-.37.59-.79.76-1.2.05-.13.07-.19.07-.25,0-.09-.04-.13-.21-.21.04-.03.06-.04.09-.04.09,0,.22.04.34.12.11.07.15.12.15.18,0,.04,0,.05-.06.1-.02.02-.08.12-.14.22-.28.49-.34.59-.54.83-.32.39-.66.67-1.02.85l-.04-.06ZM159.5,86.71c.15.08.25.14.35.23.11.09.15.16.15.25,0,.12-.07.25-.13.25-.04,0-.07-.03-.1-.12-.08-.24-.17-.4-.31-.55l.04-.04Z"/>
        <path class="cls-4" d="M162.08,87.44c.29-.25.55-.57.83-.99.16-.25.26-.46.26-.54,0-.05-.02-.08-.08-.14q-.05-.04-.1-.07s-.04-.02-.07-.04c.04-.02.05-.02.08-.02.09,0,.22.04.33.1.13.07.19.14.19.2,0,.05,0,.05-.21.37.05.01.08.01.1.01.08,0,.27-.04.48-.09.16-.04.23-.07.31-.11.03-.02.04-.02.07-.03.1,0,.33.21.33.29,0,.04-.01.06-.06.1-.07.06-.09.09-.19.29-.34.66-.68,1.1-1.16,1.52-.34.3-.64.49-.98.63l-.03-.05c.32-.2.55-.4.88-.73.48-.49.85-1.03,1.07-1.59.04-.09.06-.17.06-.21,0-.02-.01-.03-.04-.03-.06,0-.31.07-.51.13-.07.03-.09.03-.13.03-.08,0-.17-.04-.25-.11-.3.44-.71.84-1.14,1.11l-.04-.05Z"/>
        <rect class="cls-1" x="84.54" y="41.84" width="19.08" height="9.91" transform="translate(-10.7 38.98) rotate(-22.18)"/>
        <path class="cls-4" d="M90.19,45.69c.13-.5.21-.94.21-1.26q.38.08.38.13s-.04.05-.15.07c-.11.47-.21.72-.4,1.07l-.04-.02ZM90.84,44.14q-.33.06-.45.09c-.03.11-.05.14-.08.14-.01,0-.03-.01-.04-.04t-.06-.33s.06,0,.08,0c.04,0,.15,0,.31,0t.08-.11c.26-.34.54-.8.67-1.09.33.14.35.15.35.19,0,.04-.05.05-.16.05h-.02c-.29.41-.52.68-.8.96.32-.02.41-.02.67-.06-.05-.15-.07-.19-.13-.32l.04-.02c.1.1.15.16.24.27.12.15.16.24.16.3,0,.1-.09.24-.15.24-.02,0-.04-.02-.05-.07-.02-.12-.03-.16-.08-.33-.14.04-.16.05-.34.08v.8c-.01.34-.02.39-.02,1,0,.05-.04.06-.21.06-.04,0-.05-.01-.05-.06.01-.23.03-.84.03-1.01v-.74ZM91.08,42.51c-.2.29-.25.36-.46.57.15.13.2.2.2.27,0,.08-.08.21-.12.21-.02,0-.05-.03-.07-.09-.09-.22-.16-.33-.36-.58l.03-.04c.13.08.18.11.27.18.16-.3.25-.51.31-.75.08.03.15.05.19.07.15.05.2.08.2.11,0,.04-.05.05-.17.05h0ZM91.25,44.43c.11.12.21.25.31.42.05.09.08.16.08.21,0,.11-.09.25-.16.25-.04,0-.05-.02-.07-.18-.04-.2-.11-.44-.2-.68l.05-.02ZM92.68,45.7h.58c.11-.12.15-.16.26-.28.16.14.21.19.36.34,0,.01.01.02.01.03,0,.01-.02.02-.04.02l-2.18-.03c-.16,0-.19,0-.34.02l-.03-.15c.13.03.18.03.37.04h.75s.01-.9.01-.9h-.43c-.12,0-.18,0-.29.02l-.02-.15c.12.03.16.03.31.03h.43s0-.29,0-.29c0-.16,0-.22-.01-.35.43.05.45.05.45.08,0,.03-.05.06-.17.1v.46s.43,0,.43,0c.1-.12.13-.15.24-.26.15.13.2.17.35.3.01.01.02.02.02.04,0,.01-.02.02-.04.02h-1s-.01.9-.01.9ZM93.18,42.59c.08-.09.1-.12.18-.2.11.09.14.12.24.21.03.03.04.04.04.06,0,.04-.06.07-.17.1-.25.39-.41.58-.67.8.11.07.21.12.34.18.29.13.45.17.79.22v.06c-.16.05-.2.09-.27.24-.46-.16-.72-.31-1.02-.57-.31.22-.52.33-.85.46l-.03-.06c.3-.17.51-.33.74-.53-.29-.29-.45-.56-.54-.9h-.04c-.08,0-.18,0-.28.02l-.03-.17c.15.04.22.05.33.05l1.23.02ZM92.04,42.67c.1.28.3.54.59.77.22-.22.37-.42.56-.76l-1.16-.02Z"/>
        <path class="cls-4" d="M96.55,45h.79c.09-.1.12-.14.21-.25.15.11.2.15.35.29.02.02.02.03.02.04,0,.02-.02.03-.05.03l-1.33-.02v.62s1.06.01,1.06.01c.1-.13.13-.16.25-.28.17.13.22.17.38.32.01.01.02.03.02.03,0,.02-.02.03-.04.03l-3.14-.04c-.16,0-.18,0-.26,0-.07,0-.11.01-.14,0l-.03-.15c.17.03.26.04.43.05l1.2.02v-.62s-.85-.01-.85-.01c-.19,0-.29,0-.41.01l-.04-.15c.17.03.24.04.45.05h.86s0-.52,0-.52h-.57s0,.16,0,.16c0,.07-.05.08-.21.08-.06,0-.08-.02-.08-.06.02-.28.02-.37.03-.73,0-.19,0-.27,0-.45.14.08.18.1.31.19l1.37.02c.06-.07.08-.09.15-.17.1.07.13.09.21.16.03.03.05.05.05.07,0,.03-.03.06-.13.11q0,.08,0,.16c0,.14,0,.36,0,.59,0,.06-.04.08-.16.08h-.04s-.06-.02-.07-.05v-.16s-.58,0-.58,0v.53ZM96.89,43.17c.17-.24.28-.44.41-.77.39.15.44.17.44.21s-.04.05-.12.05c0,0-.06,0-.08,0-.21.25-.3.33-.52.52h.73c.08-.09.11-.11.2-.19.15.11.19.14.33.24.04.04.06.06.06.08,0,.01,0,.03-.02.04-.02.01-.06.02-.1.03-.03,0-.08.01-.14.02-.19.2-.25.26-.42.39l-.05-.03c.08-.17.11-.24.18-.46l-2.6-.04c-.02.19-.05.3-.1.42-.07.15-.19.26-.29.26-.08,0-.11-.09-.11-.25,0-.08,0-.08.12-.16.09-.06.15-.12.21-.23.06-.12.08-.19.1-.34h.08c0,.12,0,.14,0,.21h1.13s0-.43,0-.43c0-.08,0-.1,0-.36.41.05.45.05.45.1,0,.04-.04.06-.17.09v.62s.3,0,.3,0ZM95.41,42.42c.18.1.32.2.4.28.07.06.09.11.09.18,0,.12-.07.25-.14.25-.04,0-.06-.04-.1-.14-.1-.24-.15-.35-.3-.54l.05-.03ZM95.73,44.36l1.42.02v-.61s-1.41-.02-1.41-.02v.61Z"/>
        <path class="cls-4" d="M87.67,47.26c.07.05.12.07.23.07.08,0,.16,0,.28-.02q1.09-.11,1.19-.15s.06-.02.08-.02c.04,0,.13.06.23.15.1.08.14.15.14.19,0,.03-.01.04-.04.07-.07.07-.09.13-.3,1.19.02.01.03.02.04.03.11.09.14.14.14.19,0,.04-.03.06-.09.06t-.1-.01c-.1-.02-.22-.03-.35-.03-.46,0-1.06.08-1.29.19-.02.01-.06.02-.08.02-.13,0-.37-.31-.37-.47,0-.02,0-.04.02-.07.12.18.22.25.37.25.04,0,.14,0,.21-.01.13,0,.32-.03.57-.05.35-.03.35-.03.68-.05.04-.19.07-.36.12-.73.02-.16.06-.55.06-.6,0-.06-.03-.07-.11-.07-.07,0-.37.02-.54.04-.29.04-.54.09-.83.18-.02,0-.05.01-.08.01-.08,0-.17-.07-.26-.22-.06-.09-.1-.19-.1-.25,0-.02,0-.04.02-.07.05.08.1.14.17.19Z"/>
        <path class="cls-4" d="M90.83,49.47c.22-.2.39-.43.55-.75.16-.31.29-.8.29-1.08,0-.16-.06-.24-.27-.32.04-.03.06-.04.11-.03.09,0,.18.03.3.1.15.09.21.16.21.22,0,.03,0,.06-.05.18t-.04.14c-.13.42-.17.52-.28.73-.2.38-.42.63-.77.84l-.04-.04ZM94.27,47.92c-.13.21-.23.34-.44.56-.24.25-.61.56-.86.72-.08.05-.19.14-.23.18-.03.03-.05.04-.08.04-.09,0-.24-.21-.23-.33,0,0,0-.05.03-.12.03-.09.04-.45.05-1.08.01-.91,0-.96-.29-1.03.04-.05.07-.06.13-.06.1,0,.22.05.35.13.12.07.16.13.16.19,0,.02,0,.04-.03.11-.02.05-.04.19-.06.39-.02.17-.07,1.05-.07,1.2,0,.05,0,.1,0,.18.47-.17,1.06-.61,1.53-1.11l.05.04Z"/>
        <path class="cls-4" d="M95.72,49.82c.27-.29.44-.57.59-.94.12-.29.2-.62.2-.81,0-.1-.02-.14-.1-.2-.26.02-.7.14-.89.24-.07.03-.08.04-.13.04-.08,0-.2-.09-.31-.23-.04-.05-.08-.14-.08-.18,0-.02,0-.03.02-.08.09.14.19.19.33.2.11,0,.13,0,.68-.09.25-.04.7-.09,1.23-.13.08,0,.23-.04.31-.06q.06-.02.1-.02c.05,0,.13.02.21.06.11.05.19.13.19.19,0,.05-.04.08-.11.08-.03,0-.04,0-.1-.01-.16-.04-.42-.06-.64-.06-.24,0-.46,0-.66.03.18.11.26.19.26.28,0,.15-.12.5-.26.78-.23.45-.43.69-.8.96l-.04-.05ZM95.69,46.73c.17.16.29.22.47.22.27,0,.62-.08.85-.19.04-.02.08-.03.12-.03.1,0,.27.14.27.22,0,.05-.05.07-.21.11-.26.05-.71.09-.91.09-.3,0-.45-.09-.64-.38l.06-.04Z"/>
        <path class="cls-4" d="M98.77,49.01c.35-.2.54-.32.86-.58.32-.26.63-.57.81-.82.04-.06.06-.1.06-.15,0-.07-.05-.13-.18-.21.03-.01.05-.02.08-.02.08,0,.21.07.34.17.09.08.13.13.13.19,0,.04-.01.06-.08.11q-.05.04-.2.17c-.14.13-.32.29-.49.43.14.12.18.18.18.29,0,0,0,.04,0,.09v.02c0,.13,0,.56,0,.9,0,.04,0,.12,0,.14,0,.13-.03.19-.08.19-.09,0-.24-.19-.24-.31,0-.01,0-.03.02-.07.05-.16.08-.46.08-.88,0-.16,0-.23-.05-.3-.42.33-.73.5-1.22.69l-.03-.06Z"/>
        <polyline class="cls-3" points="123.48 55.39 123.99 71.09 98.66 132.84"/>
        <polyline class="cls-3" points="78.65 70.41 92.82 88.42 113.39 98.21 162.49 110.75"/>
        <polyline class="cls-3" points="123.99 71.09 137.66 75.75 179.32 84.42"/>
        <polyline class="cls-3" points="137.82 58.25 137.01 75.53 127.22 101.75"/>
        <polyline class="cls-3" points="92.82 88.42 98.82 78.92 109.44 83.9 117.32 88.15"/>
        <line class="cls-3" x1="105.88" y1="94.64" x2="109.44" y2="83.9"/>
        <line class="cls-3" x1="114.66" y1="133.42" x2="124.6" y2="101.08"/>
        <polyline class="cls-3" points="87.32 102.92 123.66 113.59 159.16 122.25"/>
        <polyline class="cls-3" points="66.49 79.25 67.82 73.59 113.86 59.88 132.17 51.34 137.82 58.25 195.99 67.75"/>
        <path class="cls-4" d="M138.46,50.75c0,.81-.66,1.47-1.47,1.47s-1.47-.66-1.47-1.47.66-1.47,1.47-1.47,1.47.66,1.47,1.47Z"/>
        <path class="cls-4" d="M143.82,53.87c.11,0,.29.05.41.11.09.05.14.1.14.16,0,.03,0,.05-.02.09-.05.1-.08.31-.1.65.06.04.1.05.19.05.16,0,.47-.07.77-.16.18-.06.28-.1.39-.17.02-.02.07-.03.08-.03.05,0,.12.02.19.06.09.05.13.09.13.13,0,.06-.05.09-.19.13-.51.12-.97.19-1.24.19-.12,0-.24-.03-.32-.1-.02.43-.02.59-.02.68,0,.48.12.59.57.59.36,0,.71-.06.94-.14.05-.02.08-.03.12-.03.1,0,.27.13.27.21,0,.06-.04.09-.14.11-.17.04-.6.08-.91.08-.52,0-.77-.07-.92-.27-.08-.11-.12-.24-.14-.46,0-.1-.01-.27-.01-.58,0-.05,0-.1,0-.18,0-.2,0-.32,0-.37,0-.34-.02-.45-.05-.53-.04-.08-.12-.14-.27-.18.05-.03.07-.04.16-.04ZM146.64,53.93c0,.24-.19.44-.43.44-.24,0-.44-.19-.44-.43,0-.24.19-.44.43-.44.24,0,.44.19.44.43ZM145.9,53.94c0,.17.14.31.31.3s.3-.14.3-.31c0-.17-.14-.3-.31-.3-.17,0-.31.14-.3.31Z"/>
        <path class="cls-4" d="M147.34,54.92c.1.08.18.09.39.09t.49-.02c.16,0,1.43-.04,1.56-.04.36,0,.45,0,.52.03.04.02.06.04.06.08,0,.05-.04.09-.09.11-.11.04-.2.04-.96.06-.37,0-1.29.04-1.43.05-.19.01-.22.02-.29.05-.02,0-.04.01-.06.01-.06,0-.12-.04-.19-.13-.08-.1-.15-.27-.16-.37,0-.06,0-.06.03-.09.05.09.07.12.13.16Z"/>
        <path class="cls-4" d="M151.64,54.28c.07.05.12.06.23.06.08,0,.16,0,.28-.02q1.09-.14,1.18-.18s.06-.02.08-.03c.04,0,.13.05.23.15.1.08.15.15.15.19,0,.03-.01.04-.04.07-.07.07-.09.14-.27,1.2.02.01.03.02.04.03.11.09.14.14.14.19,0,.04-.03.06-.09.06t-.1-.01c-.1-.02-.22-.03-.35-.02-.46,0-1.06.11-1.29.22-.02.01-.06.02-.08.02-.13,0-.38-.3-.38-.46,0-.02,0-.04.02-.07.13.17.23.24.38.24.04,0,.14,0,.21-.02.13-.01.32-.04.57-.06.35-.04.35-.04.68-.06.04-.19.06-.36.1-.73.02-.17.05-.55.05-.6,0-.06-.03-.07-.11-.07-.07,0-.37.03-.54.05-.29.04-.54.1-.82.2-.02,0-.05.01-.08.01-.08,0-.17-.07-.27-.21-.06-.09-.1-.19-.1-.24,0-.02,0-.04.02-.07.05.08.1.13.17.18Z"/>
        <path class="cls-4" d="M154.97,54.57c.4.24.56.39.56.54,0,.12-.06.23-.12.23-.04,0-.06-.03-.1-.11-.11-.26-.17-.35-.38-.62l.04-.04ZM155.37,56.62c.27-.21.4-.33.59-.55.32-.37.59-.79.76-1.2.05-.13.07-.19.07-.25,0-.09-.04-.13-.21-.21.04-.03.06-.04.09-.04.09,0,.22.04.34.12.11.07.15.12.15.18,0,.04,0,.05-.06.1-.02.02-.08.12-.14.22-.28.49-.34.59-.54.83-.32.39-.66.67-1.02.85l-.04-.06ZM155.69,54.42c.15.08.25.14.35.23.11.09.15.16.15.25,0,.12-.07.25-.13.25-.04,0-.07-.03-.1-.12-.08-.24-.17-.4-.32-.55l.04-.04Z"/>
        <path class="cls-4" d="M158.27,55.15c.29-.25.55-.57.83-.99.16-.25.26-.46.26-.54,0-.05-.02-.08-.08-.13q-.05-.04-.1-.07s-.04-.02-.07-.04c.04-.02.05-.02.08-.02.09,0,.22.04.33.1.13.07.19.14.19.2,0,.05,0,.05-.21.37.05.01.08.01.1.01.08,0,.27-.04.48-.09.16-.04.23-.07.31-.11.03-.02.04-.02.07-.03.1,0,.33.2.33.29,0,.04-.01.06-.06.1-.07.06-.09.09-.19.29-.34.66-.68,1.1-1.16,1.52-.34.3-.64.49-.98.63l-.03-.05c.32-.2.55-.4.88-.73.48-.49.85-1.03,1.07-1.59.04-.09.06-.17.06-.21,0-.02-.01-.03-.04-.03-.06,0-.31.07-.51.13-.07.03-.09.03-.13.03-.08,0-.17-.04-.25-.11-.3.44-.71.84-1.14,1.11l-.04-.05Z"/>
        <path class="cls-4" d="M142.03,55.39c0,.81-.66,1.47-1.47,1.47s-1.47-.66-1.47-1.47.66-1.47,1.47-1.47,1.47.66,1.47,1.47Z"/>
        <path class="cls-4" d="M84.54,34.95c0,.81-.66,1.47-1.47,1.47s-1.47-.66-1.47-1.47.66-1.47,1.47-1.47,1.47.66,1.47,1.47Z"/>
        <path class="cls-4" d="M96.68,68.13c.33.16.47.24.67.4.48-.47.69-.7.9-.98.09-.12.13-.17.13-.19s-.02-.03-.06-.03c-.18,0-.73.09-1.24.19-.46.09-.62.14-.79.22-.05.03-.08.03-.11.03-.07,0-.17-.07-.27-.2-.09-.12-.14-.23-.14-.3,0-.03,0-.06.02-.09.05.09.11.15.19.2.06.04.12.05.24.04.19,0,.54-.04,1.32-.16.38-.05.58-.08.62-.09q.07-.01.13-.05s.06-.03.1-.03c.07,0,.15.05.28.19.12.12.17.19.17.25,0,.04-.01.06-.05.08t-.1.04s-.1.05-.22.15c-.04.03-.14.11-.29.22-.08.06-.2.15-.34.26-.2.16-.27.21-.42.31.27.22.35.33.35.5,0,.16-.05.26-.13.26-.06,0-.09-.03-.14-.14-.07-.16-.25-.41-.4-.58-.13-.15-.25-.27-.47-.45l.03-.05Z"/>
        <path class="cls-4" d="M99.72,68.16c.29-.25.55-.57.83-.99.16-.25.26-.46.26-.54,0-.05-.02-.08-.08-.13q-.05-.04-.1-.07s-.04-.02-.07-.04c.04-.02.05-.02.08-.02.09,0,.22.04.33.1.13.07.19.14.19.2,0,.05,0,.05-.21.37.05.01.08.01.1.01.08,0,.27-.04.48-.08.16-.04.23-.07.31-.11.03-.02.04-.03.07-.03.1,0,.33.2.33.29,0,.04-.01.06-.06.1-.07.06-.09.09-.19.29-.34.66-.68,1.1-1.16,1.52-.34.3-.64.49-.98.64l-.03-.06c.32-.2.55-.4.88-.73.48-.49.85-1.03,1.07-1.59.04-.09.06-.17.06-.21,0-.02-.01-.03-.04-.03-.06,0-.31.07-.51.13-.07.02-.09.03-.13.03-.08,0-.17-.04-.25-.11-.3.44-.71.84-1.14,1.11l-.04-.05Z"/>
        <path class="cls-4" d="M104.05,68.58c0,.23,0,.7.01.8,0,.04,0,.06,0,.07,0,.12-.03.17-.09.17-.04,0-.09-.04-.14-.11-.06-.09-.11-.19-.11-.26,0-.04,0-.06.03-.15.04-.15.06-.65.05-1.38,0-.82-.02-1.04-.08-1.14-.05-.09-.12-.14-.26-.2.04-.02.06-.03.1-.03.09,0,.24.05.39.13.11.06.15.11.15.17,0,.02,0,.03-.02.07-.05.11-.06.3-.06.87.44.05.83.15,1.02.26.12.07.17.14.17.26,0,.1-.03.18-.09.18-.03,0-.06-.01-.16-.1-.31-.25-.6-.41-.95-.5v.09s0,.78,0,.78ZM104.92,66.45c.15.08.26.15.36.24.15.13.2.22.2.32s-.05.17-.12.17q-.05,0-.18-.26c-.07-.14-.2-.31-.31-.42l.05-.05ZM105.33,66.21c.14.07.26.13.39.23.15.11.21.19.21.3,0,.1-.04.17-.1.17-.04,0-.06-.02-.09-.08-.14-.25-.22-.35-.45-.56l.04-.06Z"/>
        <path class="cls-4" d="M107.14,69.6c.28-.27.46-.52.61-.86.14-.32.22-.7.25-1.18-.36.05-.68.13-.92.23-.07.03-.09.03-.13.03-.08,0-.16-.05-.27-.16-.08-.09-.14-.19-.14-.25,0-.02,0-.03.02-.06.12.14.23.2.36.19.11,0,.13,0,.69-.1.13-.02.24-.04.39-.06,0-.11,0-.17,0-.31,0-.35-.02-.43-.11-.52-.06-.05-.14-.08-.27-.1.05-.05.08-.06.16-.06.15,0,.37.05.49.11.08.04.1.07.11.13,0,.02,0,.04-.02.08-.05.11-.08.34-.08.64.07,0,.29-.03.53-.05.15-.01.24-.04.32-.06.03-.02.06-.02.08-.02.06,0,.12.02.19.05.14.07.21.12.21.19,0,.04-.04.08-.08.08-.01,0-.03,0-.05,0-.22-.04-.45-.06-.71-.05-.14,0-.23,0-.5.03-.05.66-.14,1.01-.36,1.38-.17.28-.41.53-.73.75l-.04-.05Z"/>
        <path class="cls-4" d="M110.13,69.26c.22-.21.38-.44.53-.76.15-.32.27-.81.26-1.09,0-.16-.07-.23-.27-.31.04-.03.06-.04.11-.04.09,0,.18.03.3.1.15.09.22.15.22.22,0,.03,0,.07-.05.19t-.04.14c-.12.42-.16.52-.26.74-.19.38-.41.64-.75.86l-.04-.04ZM113.52,67.63c-.12.21-.22.35-.43.57-.23.25-.59.57-.84.74-.08.05-.19.15-.23.18-.03.03-.05.04-.08.04-.09,0-.24-.21-.24-.33,0,0,0-.05.03-.12.02-.09.03-.45.02-1.08-.01-.91-.03-.96-.32-1.02.04-.05.07-.06.13-.06.1,0,.22.04.35.12.12.07.17.13.17.18,0,.02,0,.04-.03.11-.02.05-.04.19-.05.39-.01.17-.04,1.05-.04,1.2,0,.05,0,.1,0,.18.46-.19,1.04-.64,1.5-1.15l.05.04Z"/>
        <path class="cls-4" d="M115.04,68.45c0,.23,0,.7.01.8,0,.04,0,.06,0,.07,0,.12-.03.17-.09.17-.04,0-.09-.04-.14-.11-.06-.09-.11-.19-.11-.26,0-.04,0-.06.03-.15.04-.15.06-.65.05-1.38,0-.82-.02-1.04-.08-1.14-.05-.09-.12-.14-.26-.2.04-.02.06-.03.1-.03.09,0,.24.05.39.13.11.06.15.11.15.17,0,.02,0,.03-.02.07-.05.11-.06.3-.06.87.44.05.83.15,1.02.26.12.07.17.14.17.26,0,.1-.03.18-.09.18-.03,0-.06-.01-.16-.1-.31-.25-.6-.41-.95-.5v.09s0,.78,0,.78ZM115.92,66.32c.15.08.26.15.36.24.15.13.2.22.2.32s-.05.17-.12.17q-.05,0-.18-.26c-.07-.14-.2-.31-.31-.42l.05-.05ZM116.32,66.08c.14.07.26.13.39.23.15.12.21.19.21.31,0,.1-.04.16-.1.17-.04,0-.06-.02-.09-.08-.14-.25-.22-.35-.45-.56l.04-.06Z"/>
        <path class="cls-4" d="M114.15,63.67c0,.81-.66,1.47-1.47,1.47s-1.47-.66-1.47-1.47.66-1.47,1.47-1.47,1.47.66,1.47,1.47Z"/>
        <path class="cls-4" d="M138.1,87.7c0,.81-.66,1.47-1.47,1.47s-1.47-.66-1.47-1.47.66-1.47,1.47-1.47,1.47.66,1.47,1.47Z"/>
        <circle class="cls-4" cx="125.98" cy="75.55" r="1.47"/>
        <path class="cls-4" d="M76.33,62.38c0,.81-.66,1.47-1.47,1.47s-1.47-.66-1.47-1.47.66-1.47,1.47-1.47,1.47.66,1.47,1.47Z"/>
        <path class="cls-4" d="M119.58,102.03c0,.81-.66,1.47-1.47,1.47s-1.47-.66-1.47-1.47.66-1.47,1.47-1.47,1.47.66,1.47,1.47Z"/>
        <path class="cls-4" d="M113.46,93.75c0,.81-.66,1.47-1.47,1.47s-1.47-.66-1.47-1.47.66-1.47,1.47-1.47,1.47.66,1.47,1.47Z"/>
        <path class="cls-4" d="M114.15,107.47c0,.81-.66,1.47-1.47,1.47s-1.47-.66-1.47-1.47.66-1.47,1.47-1.47,1.47.66,1.47,1.47Z"/>
        <polygon class="cls-4" points="110.66 110.94 111.62 113.9 114.73 113.9 112.22 115.72 113.18 118.68 110.66 116.85 108.15 118.68 109.11 115.72 106.6 113.9 109.7 113.9 110.66 110.94"/>
        <path class="cls-4" d="M121.4,100.75c.12,0,.22.04.45.18.14,0,.63-.06,1.25-.13.35-.04.39-.05.46-.08.04-.02.05-.02.07-.02.05,0,.12.05.21.13.09.09.13.15.13.2,0,.03,0,.04-.03.08-.04.05-.05.09-.09.22-.04.13-.06.22-.16.68q-.07.31-.1.41c.14.06.2.13.2.2,0,.05-.03.08-.08.08t-.2-.03c-.1-.01-.34-.02-.57-.02-.31,0-.57.02-.92.07,0,.1,0,.1,0,.15,0,.11-.02.14-.09.15-.06,0-.12-.06-.18-.18-.04-.07-.06-.14-.06-.18,0-.02,0-.03.02-.08,0-.04,0-.16,0-.32,0-.47-.07-1.01-.14-1.19-.05-.14-.13-.22-.28-.29.04-.02.05-.02.08-.03ZM122.03,102.53c.3-.01,1.09-.08,1.32-.11.09-.41.2-1.11.23-1.48-.05,0-.07,0-.11,0-.08,0-.29.02-.79.06-.43.04-.57.06-.77.09.03.41.08,1.07.12,1.43Z"/>
        <path class="cls-4" d="M125.22,101.52c.1.08.18.09.39.09t.49-.02c.16,0,1.43-.04,1.56-.04.36,0,.45,0,.52.03.04.02.06.04.06.08,0,.05-.04.09-.09.11-.11.04-.2.04-.96.06-.37,0-1.29.04-1.43.05-.19.01-.22.02-.29.06-.02,0-.04.01-.06.01-.06,0-.12-.04-.19-.13-.08-.1-.15-.27-.16-.37,0-.06,0-.06.03-.09.05.09.07.12.13.16Z"/>
        <path class="cls-4" d="M129.09,100.51c.3.16.57.36.72.53.09.11.12.17.12.27,0,.16-.07.32-.14.32-.04,0-.06-.02-.09-.08-.18-.42-.39-.74-.65-1l.04-.04ZM129.57,103.28c.51-.46.91-.95,1.23-1.54.22-.41.42-.93.42-1.09,0-.06-.02-.1-.06-.15-.05-.05-.09-.07-.2-.1.05-.04.07-.05.12-.05.1,0,.25.04.39.13.11.06.16.13.16.19,0,.04,0,.05-.04.1-.04.04-.08.12-.18.36-.16.37-.41.8-.6,1.07-.31.44-.75.84-1.21,1.14l-.05-.06Z"/>
        <path class="cls-4" d="M132.66,100.5c.39.09.62.18.78.29.09.06.14.15.14.27,0,.13-.04.22-.11.22-.04,0-.06-.02-.17-.16-.2-.26-.34-.39-.66-.58l.03-.05ZM135.51,100.69c-.2.38-.44.7-.83,1.08-.36.36-.61.56-1.11.92-.19.13-.21.15-.23.19-.06.08-.09.1-.14.1-.16,0-.47-.38-.47-.58,0-.02,0-.04.02-.08.08.12.09.13.15.17.06.06.12.08.16.08.07,0,.19-.05.39-.17.45-.26.6-.38.95-.67.49-.41.72-.65,1.06-1.08l.06.04Z"/>
        <path class="cls-4" d="M97.86,92.51c0-.3,0-.4-.02-.66.14.08.18.11.32.2l1.68-.02c.07-.08.09-.11.16-.18.11.07.15.1.26.18.03.02.04.04.04.05,0,.02-.04.06-.13.11v1.27c.01.31.03.86.06,1.66,0,0,0,.01,0,.01,0,.02-.01.04-.03.04-.02.01-.14.03-.22.03-.06,0-.07,0-.07-.03h0s0-.28,0-.28l-1.73.02v.27s0,.03,0,.04c-.02.02-.14.04-.24.04-.04,0-.06-.01-.06-.05.01-.36.01-.42,0-1.27v-1.43ZM99.88,92.12l-1.73.02v1.25s1.75-.02,1.75-.02v-1.25ZM98.16,93.49l.02,1.33,1.73-.02-.02-1.33-1.73.02Z"/>
        <path class="cls-4" d="M104.14,92.06c.11-.13.14-.17.24-.31.19.14.25.18.42.33.01.01.02.02.02.03,0,.02-.02.03-.04.03l-3.2.04c-.11,0-.29.02-.38.03l-.04-.17c.13.02.33.04.41.04h1.22s0-.24,0-.24c0-.06,0-.12-.03-.24.41.04.46.05.46.1,0,.03-.03.05-.15.09v.27s1.06-.01,1.06-.01ZM104.21,93.53c.05-.05.1-.11.15-.18.13.09.17.11.28.2.02.02.03.03.03.05,0,.03,0,.03-.15.11v.65c.01.13.02.25.02.37,0,.18,0,.19.01.3,0,.1-.04.15-.16.19-.07.03-.15.05-.32.08-.01-.1-.05-.15-.13-.19-.06-.04-.15-.05-.39-.07v-.07c.29.01.42.02.65.02.03,0,.04-.02.04-.07v-1.28s-2.57.03-2.57.03v.82c.01.3.01.38.03.79,0,.02-.02.03-.05.04-.04,0-.13.02-.19.02-.04,0-.06,0-.06-.04,0-.48,0-.53,0-.65,0-.74-.02-.96-.03-1.26.16.07.21.1.35.19l2.46-.03ZM103.66,92.49c.05-.07.07-.09.13-.16.12.08.15.1.26.17.02.02.03.03.03.04,0,.02,0,.03-.13.11,0,.07,0,.14,0,.17,0,.09,0,.15.01.47,0,.03,0,.04-.04.05-.02,0-.12.02-.18.02-.04,0-.06-.01-.06-.04v-.14s-1.45.02-1.45.02v.1s0,0,0,.01c0,.04-.05.06-.17.06-.09,0-.1,0-.11-.04h0c0-.22,0-.32,0-.52,0-.2,0-.31-.02-.47.15.06.19.08.32.15l1.38-.02ZM103.47,93.97c.06-.07.07-.09.13-.15.11.07.15.09.24.17.02.01.02.02.02.03t-.11.11v.16c0,.07,0,.16,0,.29,0,.07,0,.14,0,.21,0,.05-.06.06-.21.07-.04,0-.05,0-.05-.03v-.14s-1.04.01-1.04.01v.2s-.04.05-.13.05c-.03,0-.05,0-.06,0h0s-.06-.02-.07-.05v-.58c0-.22-.01-.36-.02-.49.14.06.18.08.32.15h.98ZM102.25,93.11l1.44-.02v-.51s-1.45.02-1.45.02v.51ZM102.46,94.6h1.04s0-.54,0-.54h-1.04s0,.54,0,.54Z"/>
        <path class="cls-4" d="M107.32,93.02c-.17.28-.29.45-.45.6.41-.02.67-.04,1.24-.09-.14-.12-.21-.17-.38-.28l.02-.05c.38.13.61.24.76.35.08.06.13.14.13.24,0,.1-.04.18-.09.19-.03,0-.04,0-.13-.14-.04-.06-.11-.13-.21-.23-.65.13-1.17.22-1.76.28-.01.12-.03.16-.07.16t-.13-.43c.1,0,.14,0,.25,0,.06,0,.13,0,.28,0,.11-.2.19-.41.23-.6h-.9c-.01.5-.05.75-.14,1.1-.08.3-.2.61-.3.81-.06.1-.09.15-.2.29l-.06-.04c.12-.22.16-.31.22-.54.09-.36.16-.84.17-1.32,0-.27,0-.56,0-.93,0-.36-.01-.54-.03-.78.17.09.21.11.36.21l2.23-.03c.07-.08.09-.11.16-.2.11.08.14.1.24.17.02.02.03.03.03.04,0,0-.01.03-.02.04,0,.01-.02.02-.04.03-.01,0-.03.02-.06.05,0,.1,0,.18,0,.24,0,.15,0,.19.01.45-.01.03-.02.03-.05.04-.06.01-.12.02-.19.02-.04,0-.04,0-.06-.03v-.11s-2.29.03-2.29.03v.41s2.3-.03,2.3-.03c.11-.1.14-.13.25-.23.13.11.18.15.31.27.01,0,.02.02.02.03,0,.02-.02.02-.04.02l-1.62.02ZM107.24,94.1c0-.07,0-.13-.02-.24.23.02.4.04.44.05.01,0,.02.02.02.04,0,.04-.04.06-.15.1v.28s.72,0,.72,0c.1-.11.13-.15.24-.26.16.12.2.16.36.3,0,0,0,.02,0,.02,0,.02-.02.02-.03.02h-1.28s0,.57,0,.57h.89c.11-.13.15-.17.25-.3.17.13.22.17.38.31.02.01.03.03.03.04,0,.02-.02.03-.05.03l-2.76.03c-.09,0-.24.01-.43.03l-.04-.15c.17.03.31.04.45.04h1.01s0-.57,0-.57h-.71c-.08,0-.3.03-.37.04l-.03-.15c.1.02.23.03.4.03h.7s0-.24,0-.24ZM108.39,91.88l-2.28.03s0,.19,0,.54l2.29-.03v-.54Z"/>
        <path class="cls-4" d="M108.66,104.97c0,.81-.66,1.47-1.47,1.47s-1.47-.66-1.47-1.47.66-1.47,1.47-1.47,1.47.66,1.47,1.47Z"/>
        <path class="cls-4" d="M70.67,105.52h1.14c.1-.13.13-.16.22-.27.16.12.21.16.36.28.01.02.02.03.02.04,0,.01-.01.02-.04.02l-1.64.02c.18.16.28.22.53.33.4.18.71.25,1.21.28v.07c-.13.04-.19.1-.26.29-.39-.12-.62-.23-.96-.44-.23-.15-.39-.28-.59-.49v.54c0,.17,0,.26.02.48h0s-.07.06-.24.06c-.04,0-.04,0-.04-.04q0-.17,0-.39c0-.06,0-.18,0-.35v-.23c-.25.25-.47.42-.86.64-.24.13-.42.21-.77.33l-.03-.06c.45-.22.62-.32.89-.51.25-.17.35-.27.55-.49h-1c-.15.01-.23.02-.35.04l-.02-.15c.12.02.21.03.37.03h1.22s0-.41,0-.41h-.26s0,.12,0,.12c0,.04,0,.05-.03.05-.02,0-.12.01-.15.01-.04,0-.05-.01-.05-.04h0q0-.2,0-.49c0-.1,0-.2,0-.3v-.24c0-.07,0-.16-.01-.31.11.05.15.07.26.14h.17c.05-.15.08-.25.1-.4.29.07.36.1.36.13,0,.03-.04.05-.14.05-.09.08-.1.1-.24.21h.49c.06-.07.08-.09.13-.15.08.05.11.08.19.14.04.02.05.04.05.05,0,.03-.03.05-.11.09q0,.67.03,1.01s-.04.06-.2.06c-.03,0-.04,0-.05-.04v-.12s-.27,0-.27,0v.4ZM69.9,103.46s0-.07,0-.14c0-.12,0-.16-.01-.27.09,0,.16.01.21.02.16.01.21.03.21.06,0,.04-.04.06-.18.09,0,.12,0,.12,0,.24h.79s0-.04,0-.11q0-.19-.02-.3c.09,0,.16.01.2.02.19.01.23.03.23.06,0,.03-.04.05-.17.09,0,.12,0,.2,0,.23h.55c.1-.13.13-.17.23-.28.17.13.22.17.39.3.01.01.02.02.02.03,0,.02-.02.03-.05.03h-1.14c0,.1,0,.13.01.25h0s0,.04-.03.05c-.02,0-.13.02-.18.02-.04,0-.04,0-.04-.04h0c0-.09,0-.12,0-.18,0-.03,0-.04,0-.07h-.79q0,.16,0,.27s0,.03-.03.04c-.02,0-.12.01-.18.01-.02,0-.04,0-.04-.03h0c0-.05,0-.14,0-.28h-.76c-.17.01-.22.02-.34.04l-.03-.15c.14.03.23.03.37.03h.76ZM69.86,104.72c-.36.25-.48.33-.77.48,0,.12,0,.16-.05.16-.01,0-.03-.01-.04-.03,0-.01-.06-.12-.14-.33.21-.03.51-.13.98-.33l.02.05ZM69.01,103.9c.24.06.43.12.55.19.12.06.15.12.15.23,0,.12-.03.21-.07.21-.02,0-.04-.02-.08-.06-.17-.22-.36-.39-.58-.53l.03-.04ZM70.93,104.16h-.78s0,.36,0,.36h.78s0-.36,0-.36ZM70.15,104.61v.42s.79,0,.79,0v-.42s-.79,0-.79,0ZM71.25,104.45c.27-.25.44-.43.58-.63.29.15.35.2.35.24,0,.02-.03.04-.07.04-.03,0-.08,0-.12,0-.28.19-.39.26-.7.41l-.03-.04ZM71.28,104.6c.39.08.51.11.72.2.13.05.16.1.16.25,0,.1-.02.16-.06.16-.02,0-.04-.01-.09-.06-.16-.15-.45-.34-.75-.48l.02-.06Z"/>
        <path class="cls-4" d="M76.07,104.54c.06-.08.08-.11.15-.19.12.08.17.11.28.19.02.02.02.03.02.04,0,.03-.01.04-.14.11q0,.13-.02.64c-.02.52-.09.96-.19,1.09-.08.1-.23.15-.51.19-.02-.12-.07-.17-.19-.22-.08-.03-.19-.05-.46-.07v-.07c.46.03.64.03.78.03.15,0,.19-.03.22-.17.07-.3.1-.67.1-1.48l-2.48.03c-.03.45-.07.69-.16.98-.08.27-.2.53-.32.71-.06.08-.1.13-.21.24l-.05-.03c.21-.35.31-.63.39-1.1.07-.4.09-.86.08-1.7,0-.33,0-.48-.02-.7.16.08.21.1.36.2l2.06-.02c.07-.09.09-.11.16-.2.12.08.16.11.28.18.02.02.03.03.03.05,0,.03-.03.05-.13.12,0,.07,0,.1,0,.15,0,.15,0,.32.02.66-.02.05-.06.07-.24.07-.04,0-.05,0-.05-.04v-.14s-2.15.02-2.15.02c0,.18,0,.32-.02.48l2.44-.03ZM75.78,103.31l-2.14.02v.18c0,.19,0,.31,0,.49l2.15-.02v-.66ZM74.26,106.15s-.02.04-.04.04c-.04.01-.11.02-.17.02-.04,0-.06-.01-.06-.05q.01-.33,0-.53c0-.41-.01-.6-.02-.75.14.07.18.09.31.17h.84q.08-.11.15-.19c.12.07.15.09.25.16.03.02.03.03.03.05,0,.03,0,.04-.13.11,0,.04,0,.08,0,.1,0,.2.01.59.02.7,0,.04-.02.04-.05.05-.05,0-.11.01-.15.01-.05,0-.06,0-.07-.04v-.13s-.92.01-.92.01v.24ZM74.26,105.81h.92s0-.67,0-.67h-.92s0,.67,0,.67Z"/>
        <path class="cls-4" d="M77.71,104.01c.07.05.12.06.23.06.08,0,.16,0,.28-.02q1.09-.14,1.18-.18s.06-.03.08-.03c.04,0,.13.05.23.15.1.08.15.15.15.19,0,.03-.01.04-.04.07-.07.07-.09.14-.27,1.2.02.01.03.02.04.03.11.09.14.13.14.19,0,.04-.03.06-.09.06t-.1-.01c-.1-.02-.22-.03-.35-.02-.46,0-1.06.11-1.29.22-.02.01-.06.02-.08.02-.13,0-.38-.3-.38-.46,0-.02,0-.04.02-.07.13.17.23.24.38.24.04,0,.14,0,.21-.02.13-.01.32-.04.57-.06.35-.04.35-.04.68-.06.04-.19.06-.36.1-.73.02-.16.05-.55.05-.6,0-.06-.03-.07-.11-.07-.07,0-.37.03-.54.05-.29.04-.54.1-.82.2-.02,0-.05.01-.08.01-.08,0-.17-.07-.27-.21-.06-.09-.1-.19-.1-.24,0-.02,0-.04.02-.07.05.08.1.13.17.18Z"/>
        <path class="cls-4" d="M81.34,103.96c.07.05.12.06.23.06.08,0,.16,0,.28-.02q1.09-.14,1.18-.18s.06-.03.08-.03c.04,0,.13.05.23.15.1.08.15.15.15.19,0,.03-.01.04-.04.07-.07.07-.09.14-.27,1.2.02.01.03.02.04.03.11.09.14.14.14.19,0,.04-.03.06-.09.06t-.1-.01c-.1-.02-.22-.03-.35-.02-.46,0-1.06.11-1.29.22-.02.01-.06.02-.08.02-.13,0-.38-.3-.38-.46,0-.02,0-.04.02-.07.13.17.23.24.38.24.04,0,.14,0,.21-.02.13-.01.32-.04.57-.06.35-.04.35-.04.68-.06.04-.19.06-.36.1-.73.02-.16.05-.55.05-.6,0-.06-.03-.07-.11-.07-.07,0-.37.03-.54.05-.29.04-.54.1-.82.2-.02,0-.05.01-.08.01-.08,0-.17-.07-.27-.21-.06-.09-.1-.19-.1-.24,0-.02,0-.04.02-.07.05.08.1.13.17.18Z"/>
        <path class="cls-4" d="M84.44,106.23c.59-.44,1.03-1.1,1.33-1.97-.28.05-.55.12-.65.17-.06.02-.07.03-.1.03-.08,0-.19-.07-.28-.18-.05-.07-.09-.17-.1-.22,0-.02,0-.04.02-.06.09.15.19.21.35.2.12,0,.41-.04.81-.11.09-.31.13-.54.13-.67,0-.13-.08-.21-.28-.28.05-.02.07-.03.11-.03.13,0,.29.05.42.14.08.05.11.09.11.16,0,.03,0,.04-.04.1-.04.07-.08.18-.19.54.14-.02.42-.07.47-.07q.2-.03.26-.06s.05-.03.08-.03c.06,0,.1.02.21.11.09.08.14.13.14.18,0,.03,0,.04-.04.09q-.04.07-.13.56c-.14.77-.23,1.03-.4,1.19-.09.09-.23.15-.33.15-.04,0-.08-.04-.1-.09-.03-.08-.06-.11-.15-.17-.04-.03-.18-.1-.4-.22l.02-.06c.34.11.64.19.73.19.06,0,.1-.04.15-.14.1-.22.19-.57.26-1.01.03-.19.05-.35.05-.44,0-.09-.03-.13-.11-.13-.1,0-.52.07-.74.12-.25.72-.48,1.13-.87,1.53-.21.22-.47.41-.71.54l-.03-.05Z"/>
        <path class="cls-4" d="M88.78,106.29c.39-.31.64-.56.9-.9.32-.42.55-.85.66-1.23-.39.03-.75.09-1.16.2-.25.06-.33.09-.41.13-.06.03-.08.04-.12.04-.14,0-.37-.28-.37-.46,0-.03,0-.04.02-.07.09.16.2.23.35.23.16,0,.83-.09,1.35-.19.21-.04.25-.05.33-.1.03-.02.05-.02.06-.03.04,0,.1.04.19.12.11.1.16.17.16.22,0,.03-.02.06-.06.1-.05.04-.08.08-.14.21-.42.82-1.06,1.48-1.71,1.77l-.04-.05ZM88.69,103.2c.14.15.26.21.43.21.27,0,.75-.11.9-.2.03-.02.05-.02.08-.02.11,0,.31.14.31.22,0,.05-.03.07-.15.09-.47.08-.8.11-1.02.12-.3,0-.42-.07-.62-.37l.05-.04Z"/>
        <path class="cls-4" d="M92.06,106.23c.62-.54.96-.95,1.3-1.55.25-.45.46-.94.46-1.07,0-.04-.02-.05-.08-.05-.08,0-.45.07-.74.15-.3.07-.55.15-.73.23-.06.03-.11.04-.15.04-.08,0-.19-.08-.29-.21-.07-.09-.11-.18-.11-.25,0-.03,0-.04.03-.08.07.15.2.23.38.23.13,0,.46-.05,1.13-.18.35-.06.38-.07.46-.12t.08-.03c.06,0,.17.07.29.18.08.08.13.14.13.19,0,.04,0,.06-.05.11-.05.06-.07.08-.13.22-.32.65-.72,1.23-1.14,1.63-.25.23-.48.41-.82.6l-.04-.05Z"/>
        <path class="cls-4" d="M95.62,106.22c.23-.24.33-.39.45-.63.14-.3.26-.67.26-.86,0-.11-.06-.17-.21-.21.03-.04.07-.05.11-.05.09,0,.26.07.38.16.27-.17.7-.54.7-.59,0-.02-.03-.04-.1-.04-.21,0-.69.08-1.01.15-.22.05-.35.1-.48.16-.03.01-.08.03-.1.03-.14,0-.34-.25-.34-.42,0-.03,0-.04.03-.07.06.13.17.2.31.2.08,0,.24-.02.54-.06.13-.02.27-.04.44-.06.54-.07.57-.07.63-.11.03-.02.04-.02.06-.02.05,0,.12.05.24.15.11.1.16.18.16.23,0,.05-.03.07-.12.09t-.46.23c-.07.04-.17.09-.46.22-.17.75-.46,1.22-.97,1.55l-.05-.05Z"/>
        <path class="cls-4" d="M98.32,105.15c.5-.27,1.03-.68,1.49-1.15.39-.39.64-.72.64-.83,0-.08-.07-.14-.23-.22.04-.02.05-.02.08-.02.12,0,.22.03.34.12.14.09.21.18.21.26,0,.04,0,.04-.16.18t-.32.31c-.28.27-.3.29-.47.44.16.11.22.17.25.22.02.04.03.23.04.59,0,.28.02.53.03.76,0,.09,0,.2,0,.23,0,.14-.03.2-.09.2-.09,0-.27-.22-.27-.33t.02-.11c.03-.1.06-.6.06-.98,0-.2-.01-.32-.03-.38-.01-.04-.03-.06-.09-.12-.28.23-.56.43-.76.56-.22.13-.51.28-.72.36l-.03-.06Z"/>
        <path class="cls-4" d="M102.05,103.38c.39.09.62.18.78.29.09.06.14.15.14.27,0,.13-.04.22-.11.22-.04,0-.06-.02-.17-.16-.2-.26-.34-.39-.66-.58l.03-.05ZM104.9,103.57c-.2.38-.44.7-.83,1.08-.36.36-.61.56-1.11.92-.19.13-.21.15-.23.19-.06.08-.09.1-.14.1-.16,0-.47-.38-.47-.58,0-.02,0-.04.02-.08.08.12.09.13.15.17.06.06.12.08.16.08.07,0,.19-.05.39-.17.45-.26.6-.38.95-.67.49-.41.72-.65,1.06-1.08l.06.04Z"/>
        <path class="cls-4" d="M116.52,108.8c.62-.54.96-.95,1.3-1.55.25-.45.46-.94.46-1.07,0-.04-.02-.05-.08-.05-.08,0-.45.07-.74.14-.3.07-.55.15-.73.23-.06.03-.11.04-.15.04-.08,0-.19-.08-.29-.21-.07-.09-.11-.18-.11-.25,0-.03,0-.04.03-.08.07.15.2.23.38.23.13,0,.46-.05,1.13-.18.35-.06.38-.07.46-.12t.08-.03c.06,0,.17.07.29.18.08.08.13.14.13.19,0,.04,0,.06-.05.11-.05.06-.07.08-.13.22-.32.65-.72,1.23-1.14,1.63-.25.23-.48.41-.82.61l-.04-.05Z"/>
        <path class="cls-4" d="M122.46,106.82c-.22.31-.34.46-.59.69-.36.33-.74.6-1.2.83-.22.12-.23.12-.3.2-.03.04-.06.05-.09.05-.08,0-.27-.23-.27-.34t.02-.07c.03-.09.03-.18.03-.61-.01-.88-.04-1.27-.09-1.42-.04-.1-.1-.15-.28-.21.05-.03.08-.04.12-.04.08,0,.21.03.32.09.16.08.24.16.24.24t-.02.08c-.02.06-.04.21-.05.4-.02.24-.03.97-.03,1.27,0,.04,0,.11,0,.2.57-.22.93-.41,1.36-.72.3-.22.57-.47.77-.68l.05.05Z"/>
        <path class="cls-4" d="M123.42,106.66c.4.24.56.39.56.54,0,.12-.06.23-.12.23-.04,0-.06-.03-.1-.11-.11-.26-.17-.35-.38-.62l.04-.04ZM123.82,108.71c.27-.21.4-.33.59-.55.32-.37.59-.79.76-1.2.05-.13.07-.19.07-.25,0-.09-.04-.13-.21-.21.04-.03.06-.04.09-.04.09,0,.22.04.34.12.11.07.15.12.15.18,0,.04,0,.05-.06.1-.02.02-.08.12-.14.22-.28.49-.34.59-.54.83-.32.39-.66.67-1.02.85l-.04-.06ZM124.14,106.5c.15.07.25.14.35.23.11.09.15.16.15.25,0,.12-.07.25-.13.25-.04,0-.07-.03-.1-.12-.08-.24-.17-.4-.31-.55l.04-.04Z"/>
        <path class="cls-4" d="M126.64,106.53c.32.06.57.14.7.23.11.07.15.15.16.26,0,.1-.05.19-.11.19-.04,0-.06-.01-.12-.09-.2-.25-.38-.4-.65-.54l.02-.05ZM129.74,106.4c-.21.31-.41.54-.84.94-.33.32-.76.63-1.38,1-.11.07-.13.08-.19.14-.03.03-.06.04-.09.04-.08,0-.17-.07-.29-.23-.08-.12-.13-.23-.13-.32,0-.04,0-.06.03-.1.09.17.19.25.31.25.11,0,.4-.14.78-.37.62-.37,1.29-.92,1.74-1.4l.06.04ZM127.08,105.82c.64.14.85.27.85.5,0,.11-.05.2-.11.2t-.22-.21c-.15-.18-.34-.33-.55-.44l.03-.06Z"/>
        <path class="cls-4" d="M131.22,106.84c.13,0,.37-.04.57-.08.1-.03.12-.03.17-.05.02-.01.04-.02.05-.03.03-.01.04-.02.06-.02.04,0,.13.06.2.13.06.07.08.09.08.13,0,.02,0,.04-.03.06-.03.04-.05.1-.09.28-.06.23-.14.58-.16.71t.16-.01c.29-.02.32-.02.42-.06.04-.02.05-.02.07-.02.03,0,.11.03.17.07.1.05.16.13.16.18,0,.04-.04.08-.09.08t-.22-.04c-.1-.02-.26-.03-.48-.03-.38,0-.68.04-1.04.14-.16.04-.25.07-.35.12-.05.03-.07.03-.1.03-.07,0-.16-.05-.23-.13-.07-.08-.13-.2-.13-.26,0-.02,0-.04.01-.07.09.12.19.19.31.18.04,0,.14-.01.27-.03.25-.04.45-.07.61-.09q.16-.02.24-.04c.06-.32.14-.97.14-1.1,0-.01,0-.02-.01-.02-.05,0-.34.07-.48.11-.12.04-.15.05-.23.09-.03.01-.07.02-.1.02-.07,0-.14-.05-.2-.16-.05-.08-.08-.16-.08-.21,0-.03,0-.04.02-.08.07.13.17.2.29.2Z"/>
        <path class="cls-4" d="M133.79,107.92c.45-.23.72-.39,1.08-.66.39-.29.84-.7,1.14-1.05-.34.06-.47.1-.86.21-.22.06-.24.07-.34.12-.08.03-.09.04-.12.04-.14,0-.34-.26-.34-.42,0-.03,0-.04.02-.07.11.16.21.21.41.21.15,0,.42-.04.83-.13.32-.07.33-.07.41-.11.05-.03.08-.04.1-.04.05,0,.15.06.23.14.06.05.07.08.07.12,0,.03-.01.04-.07.08-.08.04-.14.09-.34.28-.25.23-.4.35-.56.47.08.08.11.13.13.19.02.06.03.08.03.27v.24c0,.25,0,.56.02.69,0,.04,0,.07,0,.09,0,.1-.03.15-.09.15-.06,0-.12-.05-.17-.15-.05-.08-.08-.17-.08-.22,0-.02,0-.03.02-.06.03-.07.04-.12.05-.23.02-.26.03-.42.02-.56,0-.21,0-.24-.03-.32-.55.4-.97.62-1.51.8l-.03-.05ZM134.87,105.27c.1.09.15.13.25.17.11.03.24.05.37.05.11,0,.18,0,.26-.03.03,0,.05-.01.06-.01.09,0,.23.13.23.21,0,.06-.06.09-.2.09-.24,0-.51-.05-.67-.12-.13-.06-.24-.17-.36-.33l.04-.04ZM135.79,107.1c.41.03.76.1.98.2.14.06.21.17.22.31,0,.09-.04.15-.1.15-.02,0-.04-.01-.12-.07-.3-.24-.59-.39-.98-.53v-.06Z"/>
        <path class="cls-4" d="M137.68,108.34c.38-.25.77-.57,1.06-.89.24-.25.52-.63.75-1,.13-.2.19-.33.27-.52-.19.01-.4.06-.84.19-.19.05-.21.06-.33.11-.02,0-.04.01-.07.01-.09,0-.17-.07-.26-.23-.06-.09-.09-.17-.09-.24,0-.02,0-.04.03-.08.12.21.2.27.38.26.13,0,.54-.06.84-.12.23-.05.3-.07.37-.12.04-.03.06-.04.09-.04.08,0,.31.2.32.28,0,.03-.02.05-.05.08q-.08.06-.22.28t-.5.7c.57.29.88.49,1.04.66.11.12.15.23.16.39,0,.13-.04.21-.11.21-.03,0-.06-.02-.09-.06t-.1-.16c-.2-.33-.55-.69-.96-.97-.32.4-.58.64-.96.91-.25.18-.42.28-.7.4l-.03-.06Z"/>
        <path class="cls-4" d="M141.29,107.89c.39-.31.73-.71.97-1.12.12-.21.16-.31.16-.4,0-.06-.05-.13-.2-.23.04-.01.06-.02.09-.02.07,0,.21.05.33.13.14.09.2.15.2.21,0,.04,0,.05-.09.12-.04.03-.05.05-.13.15-.33.44-.46.58-.83.89-.18.14-.3.22-.46.3l-.03-.04ZM143.41,106.11c.42.24.81.58,1.06.92.13.17.17.28.17.42,0,.17-.06.3-.15.3-.06,0-.08-.02-.13-.18-.21-.54-.55-1.03-1-1.41l.04-.05ZM143.89,105.53c.15.08.26.16.36.24.15.13.2.22.2.32s-.05.17-.12.17q-.05,0-.18-.26c-.07-.14-.2-.31-.31-.42l.05-.06ZM144.3,105.29c.14.06.26.13.38.22.16.11.21.2.21.31,0,.1-.04.16-.1.16-.04,0-.06-.02-.09-.07-.14-.25-.22-.35-.45-.56l.04-.06Z"/>
        <path class="cls-4" d="M145.81,106.65c.1.08.18.09.39.09t.49-.02c.16,0,1.43-.04,1.56-.04.36,0,.45,0,.52.03.04.02.06.04.06.08,0,.05-.04.09-.09.11-.11.04-.2.04-.96.06-.37,0-1.29.04-1.43.05-.19.01-.22.02-.29.05-.02,0-.04.01-.06.01-.06,0-.12-.04-.19-.13-.08-.1-.15-.27-.16-.37,0-.06,0-.06.03-.09.05.09.07.12.12.16Z"/>
        <path class="cls-4" d="M149.51,108.35c.57-.43,1.05-1.13,1.33-1.97-.45.1-.52.12-.65.18-.06.03-.07.03-.1.03-.08,0-.19-.07-.27-.18-.05-.07-.09-.17-.09-.23,0-.02,0-.03.02-.06.08.15.19.21.35.21.12,0,.44-.04.81-.11.08-.3.13-.54.13-.67,0-.13-.08-.21-.27-.29.04-.02.06-.03.11-.03.13,0,.29.05.43.14.08.05.11.09.11.15,0,.03,0,.04-.04.1-.04.06-.07.16-.19.54.16-.03.32-.05.48-.07.14-.02.17-.02.19-.03.02,0,.03,0,.07-.03.03-.02.05-.02.08-.02.06,0,.1.02.21.11.09.08.14.13.14.18,0,.02,0,.05-.04.1-.03.05-.04.08-.05.15v.06s-.04.15-.04.15l-.04.19c-.14.76-.23,1.03-.4,1.19-.09.09-.23.15-.33.15-.04,0-.08-.04-.1-.09-.04-.12-.07-.14-.56-.4l.02-.06c.33.11.65.19.73.19s.13-.07.22-.34c.11-.33.24-1,.23-1.25,0-.1-.03-.13-.11-.13-.1,0-.52.07-.74.12-.23.69-.47,1.11-.87,1.53-.19.2-.51.44-.71.54l-.03-.05ZM152.13,105.34c.15.08.26.16.36.24.14.13.2.22.2.32,0,.1-.05.17-.12.17q-.05,0-.18-.26c-.07-.14-.2-.31-.31-.42l.05-.06ZM152.54,105.1c.14.07.26.13.39.23.15.12.21.19.21.31,0,.1-.04.16-.1.17-.04,0-.06-.02-.09-.08-.14-.25-.22-.35-.44-.56l.04-.06Z"/>
        <path class="cls-4" d="M153.7,106.56c.1.08.18.09.39.09t.49-.02c.16,0,1.43-.04,1.56-.04.36,0,.45,0,.52.03.04.02.06.04.06.08,0,.05-.04.09-.09.11-.11.04-.2.04-.96.06-.37,0-1.29.04-1.43.05-.19.01-.22.02-.29.05-.02,0-.04.01-.06.01-.06,0-.12-.04-.19-.13-.08-.1-.15-.27-.16-.37,0-.06,0-.06.03-.09.05.09.07.12.13.16Z"/>
        <polygon class="cls-4" points="35.92 74.13 36.36 75.6 36.8 77.06 35.31 76.71 33.82 76.35 34.87 75.24 35.92 74.13"/>
        <polygon class="cls-4" points="191.23 25.65 190.82 24.18 190.41 22.71 191.89 23.09 193.37 23.47 192.3 24.56 191.23 25.65"/>
        <path class="cls-4" d="M101.07,123.28l-.11.2c-.13.07-.27.13-.4.16-.13.03-.28.05-.45.05-.41,0-.74-.11-.98-.36-.25-.24-.37-.58-.38-1.01,0-.23.03-.43.09-.6.06-.17.14-.3.24-.39.06-.07.18-.15.36-.25.18-.11.31-.17.38-.2.13-.06.29-.09.48-.09.18,0,.33.01.48.05.09.02.18.06.27.11-.02.15-.04.26-.05.34,0,.08-.02.22-.03.42h-.17c-.01-.19-.03-.3-.04-.35,0-.03-.03-.06-.05-.08-.07-.05-.16-.1-.27-.14-.11-.04-.23-.06-.36-.06-.16,0-.31.04-.43.11-.12.07-.21.18-.28.32-.06.15-.1.33-.09.54,0,.27.05.5.15.72s.22.37.39.47c.16.1.34.14.54.14.1,0,.2-.01.29-.04.09-.03.21-.07.36-.14l.06.08Z"/>
        <path class="cls-4" d="M101.74,122.27c0-.44.13-.79.4-1.07.27-.28.63-.42,1.07-.43.41,0,.75.12,1.01.38s.39.58.4.99c0,.29-.06.55-.19.79-.13.24-.32.42-.56.56-.24.14-.51.21-.8.21-.23,0-.42-.03-.58-.11-.16-.07-.29-.17-.39-.28s-.17-.23-.23-.35c-.09-.21-.14-.44-.14-.68ZM102.29,122.04c0,.24.04.48.13.73.08.25.2.43.35.54.15.11.32.17.5.17.23,0,.42-.09.57-.28.15-.18.22-.46.22-.83,0-.31-.05-.58-.15-.8-.09-.22-.21-.38-.35-.47-.14-.09-.3-.14-.47-.13-.24,0-.43.09-.58.27-.15.18-.22.45-.21.81Z"/>
        <path class="cls-4" d="M108.55,125.01v.17c-.21-.01-.46-.02-.75-.01-.3,0-.55.01-.76.03v-.17c.22,0,.35-.01.36-.02.03,0,.06-.02.08-.03.02-.01.03-.03.04-.05.02-.04.03-.11.03-.21,0,0,0-.14,0-.39,0-.25,0-.39,0-.43v-.78c-.06.03-.11.05-.15.08-.05.03-.1.06-.18.11l-.38.26c-.1.02-.18.03-.26.03-.38,0-.68-.13-.88-.4-.2-.27-.31-.57-.31-.91,0-.15.02-.31.06-.46.04-.15.09-.28.15-.37.06-.09.14-.18.24-.25.05-.04.18-.12.37-.22.19-.11.32-.17.38-.19.12-.04.25-.06.39-.06.13,0,.25.01.38.04.12.03.25.08.4.15l.3-.19.11.06c-.06.18-.1.33-.11.43-.02.19-.03.52-.02.98l.02,1.69v.41c.02.23.02.37.03.41,0,.1.01.17.04.21,0,.02.02.04.04.05.02.01.04.02.07.03.01,0,.12,0,.33,0ZM107.54,121.27c-.08-.08-.19-.14-.32-.21-.14-.06-.28-.09-.41-.09-.25,0-.46.1-.62.29-.17.2-.25.46-.25.81,0,.22.05.43.13.62.08.2.19.34.33.43.14.09.3.13.46.13.14,0,.26-.04.38-.1.11-.07.22-.17.32-.29,0-.51,0-.83,0-.96,0-.21,0-.42-.02-.63Z"/>
        <path class="cls-4" d="M112.37,123.32v.17c-.25-.01-.45-.02-.58-.01-.14,0-.29,0-.44.03,0-.16.02-.34.02-.53-.12.09-.25.22-.42.39-.04.04-.07.07-.11.08-.08.05-.17.08-.25.1-.08.02-.18.03-.3.04-.16,0-.29-.02-.4-.06-.11-.04-.2-.11-.28-.19-.06-.06-.1-.15-.13-.25-.03-.1-.05-.22-.05-.37,0-.07,0-.13,0-.19,0-.06,0-.12,0-.18v-.5c0-.05-.01-.18-.02-.38,0-.13-.01-.21-.03-.25,0-.02-.02-.04-.04-.05-.03-.02-.08-.03-.16-.03-.11,0-.19,0-.25,0v-.17c.42-.05.72-.13.91-.24.03-.02.06-.03.07-.03.01,0,.02,0,.03.01,0,0,.01.02.01.04,0,.02,0,.04,0,.06,0,.06-.01.18-.02.36,0,.33-.01.54,0,.66v.57c0,.24.03.41.06.5.03.1.1.17.19.23.09.06.21.08.35.08.09,0,.19-.02.28-.05.09-.03.17-.08.25-.14.05-.04.11-.11.17-.18.04-.06.07-.1.08-.13.01-.03.02-.07.02-.13,0-.17.01-.34,0-.51v-.25c0-.05,0-.18-.02-.38,0-.13-.01-.21-.03-.25,0-.02-.02-.04-.04-.05-.03-.02-.08-.03-.16-.03-.11,0-.19,0-.25,0v-.17c.42-.05.72-.13.91-.24.03-.02.06-.03.07-.03.01,0,.03,0,.03.01,0,0,.01.02.01.04,0,.02,0,.04,0,.06,0,.06-.01.19-.02.37,0,.32-.01.53,0,.64v.4s.02.41.02.41c0,.24.01.37.02.42,0,.1.01.17.03.21,0,.02.02.03.04.04.02.01.04.02.07.03.01,0,.12,0,.33,0Z"/>
        <path class="cls-4" d="M115.47,123l-.09.21c-.13.09-.23.14-.29.17-.09.04-.2.08-.31.11-.12.03-.24.05-.37.05-.26,0-.49-.05-.7-.15-.21-.1-.37-.26-.49-.48-.12-.21-.18-.46-.18-.75,0-.22.03-.43.09-.61.06-.18.13-.32.2-.4.06-.06.14-.13.26-.22.12-.08.24-.15.35-.2.15-.07.32-.1.5-.1.22,0,.42.04.6.14.18.1.31.23.39.4s.13.36.13.58c0,.05,0,.12,0,.2-.14.03-.27.05-.38.06-.21.02-.42.03-.63.03h-.94c0,.29.06.52.15.69.09.17.22.3.39.38.16.08.33.12.51.12.12,0,.24-.02.36-.06.12-.04.26-.11.44-.21l.05.05ZM113.58,121.82c.06,0,.16,0,.31.01.29,0,.49,0,.6,0,.26,0,.43,0,.51-.02,0-.05,0-.08,0-.11,0-.31-.07-.53-.2-.67-.13-.14-.29-.21-.5-.21-.22,0-.4.08-.53.24s-.2.41-.2.75Z"/>
        <path class="cls-4" d="M116.23,121.15v-.12c.19-.08.35-.15.46-.21,0-.46-.01-.76-.03-.89.2-.07.37-.15.49-.23l.07.06c-.02.16-.04.52-.06,1.07h.28s.12,0,.3,0c.1,0,.18,0,.23-.01l.02.02-.06.27c-.12,0-.24,0-.34,0s-.25,0-.43,0v1.19c0,.29,0,.47,0,.52.01.06.03.11.06.15.03.04.06.08.11.1.04.03.12.04.23.06.08,0,.14,0,.19-.01.05,0,.11-.03.19-.05l.04.11c-.09.07-.18.15-.26.23-.07.03-.14.05-.21.06-.06.01-.14.02-.22.02-.1,0-.19,0-.25-.03-.06-.02-.12-.05-.17-.1-.05-.04-.09-.09-.13-.16-.03-.06-.06-.17-.07-.3,0-.13,0-.28,0-.44,0-.03,0-.07,0-.1v-1.21s-.13,0-.13,0c-.1,0-.21,0-.33.02Z"/>
        <path class="cls-4" d="M118.55,121.12v-.12c.19-.08.35-.14.46-.21,0-.46-.01-.76-.03-.89.2-.07.37-.15.49-.23l.07.06c-.02.16-.04.52-.06,1.07.16,0,.25,0,.28,0,.02,0,.12,0,.3,0,.1,0,.18,0,.23-.01l.02.02-.06.27c-.12,0-.24,0-.34,0-.1,0-.25,0-.43,0v1.19c0,.29,0,.46,0,.52s.03.11.06.15c.03.04.06.08.11.1.04.02.12.04.23.06.08,0,.14,0,.19-.01.05,0,.11-.03.19-.05l.04.11c-.09.07-.18.15-.26.23-.07.03-.14.05-.21.06-.06.01-.14.01-.22.02-.1,0-.19,0-.25-.03-.06-.02-.12-.05-.17-.1-.05-.04-.09-.09-.13-.16s-.06-.17-.07-.3c0-.13,0-.28,0-.44,0-.03,0-.07,0-.1v-1.21s-.13,0-.13,0c-.1,0-.21,0-.33.02Z"/>
        <path class="cls-4" d="M123.34,122.91l-.09.21c-.13.09-.23.14-.29.17-.09.04-.2.08-.31.11-.12.03-.24.05-.37.05-.26,0-.49-.05-.7-.15-.21-.1-.37-.26-.49-.48-.12-.21-.18-.46-.18-.75,0-.22.03-.43.09-.61.06-.18.13-.32.2-.4.06-.06.14-.13.26-.22.12-.08.24-.15.35-.2.15-.07.32-.1.5-.1.22,0,.42.04.6.14.18.1.31.23.39.4s.13.36.13.58c0,.05,0,.12,0,.2-.14.03-.27.05-.38.06-.21.02-.42.03-.63.03h-.94c0,.29.06.52.15.69.09.17.22.3.39.38.16.08.33.12.51.12.12,0,.24-.02.36-.06.12-.04.26-.11.44-.21l.05.05ZM121.44,121.73c.06,0,.16.01.31.01.29,0,.49,0,.6,0,.26,0,.43-.01.51-.02,0-.05,0-.08,0-.11,0-.31-.07-.53-.2-.67s-.29-.21-.5-.21c-.22,0-.4.08-.53.24-.13.16-.2.41-.2.75Z"/>
        <path class="cls-4" d="M129.8,74.5q.09-.12.19-.23c.13.11.17.15.29.26.02.02.02.03.02.04,0,.01-.01.02-.04.02h-.6s0,.23,0,.23c.3.13.37.21.38.33,0,.11-.06.22-.11.22-.02,0-.04-.02-.06-.07-.05-.15-.13-.3-.21-.4v.47c0,.34.01.39.03,1.16q0,.26.02.67c0,.05-.03.06-.17.07-.08,0-.1,0-.1-.05h0q0-.41,0-.81c0-.6,0-.7,0-.89v-.49c-.08.33-.14.5-.28.75-.12.23-.21.35-.38.56l-.05-.03c.2-.34.32-.58.46-1.02.09-.28.13-.41.18-.69h-.28c-.12,0-.18.01-.29.03l-.03-.16c.12.03.17.03.32.03h.32s0-.46,0-.46c0-.17,0-.26-.03-.45.09.01.17.02.21.03.19.02.23.03.23.07,0,.03-.02.05-.16.11v.7s.14,0,.14,0ZM129.87,75.71c.21-.33.37-.65.51-1.05.14-.39.21-.69.23-.96.4.13.45.14.45.18,0,.04-.03.05-.19.08-.14.47-.26.77-.45,1.11-.16.28-.29.46-.51.69l-.05-.04ZM131.44,75.64c.38.34.57.54.71.78.07.11.1.2.1.31,0,.18-.09.36-.18.37-.04,0-.06-.03-.07-.09-.04-.14-.07-.23-.12-.39-.37.11-.71.19-1.64.35-.03.13-.05.17-.09.17-.02,0-.04-.02-.05-.05-.01-.04-.02-.05-.1-.41.14,0,.2,0,.27,0,.04,0,.09,0,.18,0,.11-.26.18-.46.27-.79.16-.55.22-.83.24-1.08.1.03.18.05.23.06.22.06.22.06.22.09,0,.04-.06.07-.18.09-.25.78-.39,1.11-.68,1.62.37-.02.81-.07,1.29-.13-.15-.39-.25-.57-.45-.84l.05-.05ZM131.48,73.65s-.01.05-.01.07c0,.12.1.41.24.66.13.26.31.49.51.67.11.09.17.13.34.22v.04c-.15.07-.2.12-.26.3-.23-.22-.38-.42-.55-.76-.14-.26-.21-.48-.36-.98-.03-.11-.04-.14-.08-.18l.17-.04Z"/>
        <path class="cls-4" d="M134.98,74.98c-.17.28-.29.45-.45.6.41-.02.67-.04,1.24-.09-.14-.12-.21-.17-.38-.28l.02-.05c.38.14.61.24.76.35.08.06.13.14.13.24,0,.1-.04.18-.09.18-.03,0-.04,0-.13-.14-.04-.06-.11-.13-.21-.23-.65.14-1.17.22-1.76.28-.01.12-.03.16-.07.16t-.13-.43c.1,0,.14.01.25,0,.06,0,.13,0,.28,0,.11-.2.19-.41.23-.6h-.9c-.01.5-.05.75-.14,1.1-.08.3-.2.61-.3.81-.06.1-.09.15-.2.29l-.06-.04c.12-.22.16-.31.22-.54.09-.36.16-.84.17-1.32,0-.27,0-.56,0-.93,0-.36-.01-.54-.03-.78.17.09.21.11.36.21l2.23-.03c.07-.08.09-.11.16-.2.11.07.14.1.24.17.02.02.03.03.03.04,0,0-.01.03-.02.04,0,.01-.02.02-.04.03-.01,0-.03.03-.06.05,0,.1,0,.18,0,.24,0,.15,0,.19.01.45-.01.03-.02.03-.05.04-.06.01-.12.02-.19.02-.04,0-.04,0-.06-.03v-.11s-2.29.03-2.29.03v.41s2.3-.03,2.3-.03c.11-.1.14-.13.25-.23.13.11.18.15.31.27.01,0,.02.02.02.03,0,.02-.02.02-.04.02l-1.62.02ZM134.9,76.06c0-.07,0-.13-.02-.24.23.02.4.04.44.05.01,0,.02.02.02.04,0,.04-.04.07-.15.1v.28s.72,0,.72,0c.1-.11.13-.15.24-.26.16.12.2.16.36.3,0,0,0,.02,0,.02,0,.02-.02.02-.03.02h-1.28s0,.57,0,.57h.89c.11-.13.15-.17.25-.3.17.13.22.17.38.31.02.01.03.03.03.04,0,.02-.02.03-.05.03l-2.76.03c-.09,0-.24.01-.43.03l-.04-.15c.17.03.31.04.45.03h1.01s0-.57,0-.57h-.71c-.08,0-.3.03-.37.04l-.03-.15c.1.02.23.03.4.03h.7s0-.24,0-.24ZM136.05,73.83l-2.28.03s0,.19,0,.54l2.29-.03v-.54Z"/>
        <circle class="cls-4" cx="120" cy="89.16" r="1.47"/>
        <path class="cls-4" d="M119.43,92.82c.07-.09.09-.12.16-.21.12.1.15.14.27.25.01.01.02.02.02.03,0,.01-.01.02-.03.02h-.48s.01,1.09.01,1.09c.15-.06.2-.08.39-.16l.03.06c-.06.04-.1.07-.14.09q-.36.25-.75.45c0,.16-.03.2-.06.2-.04,0-.07-.08-.18-.43.14-.03.22-.05.45-.12v-1.17s-.2,0-.2,0c-.08,0-.17,0-.25.03l-.03-.15c.1.02.2.03.27.03h.19s0-.59,0-.59c0-.23,0-.31-.03-.5.41.05.46.06.46.1,0,.04-.04.06-.17.09v.89s.08,0,.08,0ZM120.18,92.67c0,.32,0,.43-.01.65h.45c.06-.08.08-.1.14-.17.09.07.11.09.2.15.03.03.04.04.04.06,0,.02-.02.04-.11.1-.03.64-.05.82-.1.97-.05.15-.12.19-.36.24-.03-.15-.09-.19-.37-.23v-.06c.2.01.32.02.4.01.07,0,.1-.02.11-.07.05-.16.06-.38.08-.92h-.48c-.03.41-.07.63-.15.89-.08.25-.23.5-.43.7-.07.08-.15.14-.3.26l-.04-.05c.54-.59.69-1.12.68-2.39,0-.13,0-.24-.02-.45.15.09.19.12.32.21h.86c0-.21,0-.28,0-.41v-.23c0-.13,0-.18-.02-.31q.42.06.42.1s-.03.04-.14.07c-.01.41-.01.45,0,.62,0,.03,0,.06,0,.14h.48c.09-.11.12-.15.21-.25.14.11.18.15.31.26.02.02.03.03.03.04,0,.02-.02.03-.04.03h-.99c.02.51.07.88.15,1.18.14-.31.22-.56.26-.82.31.09.42.13.42.17,0,.03-.03.04-.17.06-.12.38-.22.6-.39.88.12.28.21.4.43.62.13-.26.17-.37.31-.73h.05s-.13.66-.13.66c-.01.08-.02.13-.02.16,0,.04,0,.06.06.13.03.04.04.06.04.1,0,.08-.05.13-.12.13-.06,0-.15-.04-.24-.12-.22-.18-.38-.39-.53-.72-.14.19-.28.33-.45.46-.21.17-.39.28-.74.44l-.03-.06c.54-.33.84-.63,1.12-1.1-.14-.39-.22-.85-.25-1.45h-.9ZM121.45,91.82c.35.14.47.23.47.36,0,.09-.06.21-.11.21-.03,0-.05-.02-.08-.09-.09-.18-.2-.33-.32-.45l.03-.03Z"/>
        <path class="cls-4" d="M125.94,92.11c.11-.13.14-.17.24-.29.18.13.24.17.41.32,0,.01.02.03.02.04,0,.02-.02.03-.05.03l-1.71.02v.49s1.07-.01,1.07-.01c.08-.08.09-.11.17-.18.11.08.15.1.25.18.03.02.04.04.04.05,0,.03-.03.06-.15.13l.02,1.47c0,.12,0,.31.01.59,0,.09,0,.13-.04.17-.06.08-.19.13-.41.15-.02-.09-.04-.14-.11-.18-.06-.04-.11-.05-.46-.11v-.07q.22.02.67.04c.06,0,.07,0,.07-.04l-.02-2.09-2.42.03.03,2.41s-.03.06-.14.06c-.04,0-.07,0-.08,0h0s-.06-.01-.07-.04h0c.02-.39.02-1.3.01-1.96,0-.36,0-.5-.02-.73.14.06.18.09.31.17h1.02s0-.5,0-.5h-1.16c-.16.01-.26.02-.39.04l-.02-.16c.14.03.26.04.41.04h1.16s0-.12,0-.12c0-.17,0-.23-.02-.39.09.01.16.02.2.02.21.02.26.04.26.08,0,.03-.04.06-.18.11v.28s1.1-.01,1.1-.01ZM124.84,94.13h.46c.09-.11.11-.14.2-.24.14.11.19.14.32.26.01.01.02.03.02.04s-.02.02-.05.02h-.94s0,.22,0,.22c0,.22,0,.47.02.65,0,0,0,0,0,.01,0,.04-.06.06-.24.06-.04,0-.05,0-.05-.03h0c0-.19.01-.56.01-.69v-.21s-.49,0-.49,0c-.15,0-.23,0-.35.03l-.02-.15c.16.03.19.03.41.03h.44s0-.5,0-.5h-.65c-.08,0-.17.02-.26.04l-.02-.16c.13.03.2.04.32.04h.41s-.04-.02-.07-.14c-.06-.16-.15-.32-.26-.47l.03-.03c.29.15.46.3.46.41,0,.03-.02.08-.04.14-.02.05-.03.06-.07.08h.44c.1-.17.24-.46.3-.66.28.09.36.13.36.17,0,.03-.05.05-.16.05-.11.14-.28.32-.41.43h.41c.07-.09.13-.17.19-.23.14.11.18.15.31.26.01.02.02.02.02.03,0,.01-.02.02-.04.02h-1s0,.51,0,.51Z"/>
        <path class="cls-4" d="M127.06,93.6c.27-.41.39-.66.56-1.07.1-.26.21-.57.26-.75.02-.07.03-.11.04-.21.34.09.44.13.44.16,0,.03-.05.06-.15.08-.2.45-.3.65-.48.96.07,0,.19.03.25.05.03,0,.05.02.05.04,0,.02-.02.03-.13.08v.84c.01.14.01.31.01.52,0,.08,0,.13,0,.17,0,.13,0,.17.02.66v.02s-.01.04-.04.05c-.03.01-.15.03-.21.03-.04,0-.06-.02-.06-.06,0-.1,0-.56,0-1.37v-.83c-.21.33-.3.44-.52.7l-.05-.05ZM128.14,92.35c.22.04.31.05.44.05l1.59-.02c.1-.12.13-.16.22-.28.19.13.25.17.42.3.02.01.03.03.03.04,0,.02-.02.03-.03.03l-2.23.03c-.2,0-.26,0-.4.02l-.05-.17ZM128.38,92.91c.12.02.29.04.42.04h1.21c.09-.13.12-.17.21-.28.17.13.22.16.38.28.01.02.02.03.02.03,0,.02-.02.04-.04.04l-1.78.02c-.14,0-.23,0-.39.02l-.03-.15ZM128.38,93.46c.14.03.25.04.42.04h1.22c.1-.13.13-.17.22-.28q.16.12.37.28s.02.03.02.04c0,.02-.02.03-.05.03l-1.79.02c-.14,0-.22,0-.38.03l-.04-.16ZM128.46,91.83c.12.02.28.03.4.03h1.08c.1-.13.13-.17.22-.28.17.12.21.16.36.29.02.01.03.03.03.04,0,.01-.01.02-.03.02l-1.66.02c-.14,0-.22,0-.36.03l-.04-.15ZM128.77,95.11s0,.01,0,.02c0,.02,0,.03-.02.04-.02,0-.14.03-.21.03-.04,0-.05-.02-.05-.05,0-.44,0-.73,0-.89,0-.2,0-.25-.02-.42.15.08.19.1.34.19h1.28c.07-.09.1-.12.16-.2.12.08.15.1.25.18,0,0,.02.02.02.02.02.01.02.03.02.04,0,.03-.04.06-.13.09,0,.59,0,.61.02.94h0s0,.05-.03.06c-.02,0-.15.03-.2.03-.03,0-.05-.02-.05-.05v-.17s-1.38.02-1.38.02v.13ZM128.77,94.89l1.38-.02v-.77s-1.39.02-1.39.02v.77Z"/>
        <path class="cls-4" d="M132.13,93.66c-.04.3-.12.57-.24.83-.15.3-.3.5-.56.72l-.04-.04c.26-.33.41-.64.5-1.07.07-.31.09-.5.09-1.07,0-.19,0-.74,0-.9,0-.21,0-.33-.03-.51.14.08.19.11.32.2l2.14-.03c.07-.08.09-.11.16-.19.11.08.15.1.25.18.03.02.05.04.05.06,0,.03-.02.04-.15.12l.02,1.86c0,.35,0,.5.02,1.01-.01.1-.03.14-.12.19-.07.04-.16.07-.35.1-.06-.23-.09-.25-.54-.31v-.06q.15,0,.38.02t.26,0h.02s.01,0,.01,0c.04,0,.05-.01.05-.06v-1.1s-1,.01-1,.01v.36q.01.26.01.48,0,.19.01.34c0,.06-.04.08-.16.08-.02,0-.04,0-.04,0h-.01c-.06,0-.08-.02-.08-.06,0-.24,0-.68,0-.84v-.36s-.98.01-.98.01ZM133.1,92.73h-.94c0,.38,0,.59-.02.83h.96s0-.83,0-.83ZM133.09,91.9h-.94c0,.09,0,.17,0,.2,0,.03,0,.12,0,.25,0,.07,0,.18,0,.3h.94s0-.75,0-.75ZM134.36,92.63v-.74s-1,.01-1,.01v.74s1-.01,1-.01ZM134.37,93.54v-.82s-1,.01-1,.01v.82s1-.01,1-.01Z"/>
        <path class="cls-4" d="M135.45,93.34c.45-.33.71-.56,1-.89.28-.33.52-.68.64-.94.4.09.45.11.45.15,0,.04-.05.05-.16.07h-.01c.28.36.48.54.8.75.33.21.57.31,1.03.45v.04c-.17.07-.22.13-.26.3-.29-.14-.39-.21-.58-.35-.29-.21-.54-.45-.72-.67-.11-.13-.17-.23-.31-.44-.34.46-.58.72-.96,1.03-.3.25-.52.38-.89.56l-.03-.04ZM138.35,93.52c.09-.12.12-.15.22-.26.17.12.22.16.38.29.02.02.02.02.02.03,0,.01-.02.02-.04.02l-1.5.02v1.24s1.04-.01,1.04-.01l.26-.3c.17.14.23.18.38.32.02.02.02.03.02.04,0,.02-.02.03-.04.03l-3.21.04c-.1,0-.18,0-.27.02l-.02-.15c.11.03.19.04.32.04h1.26s-.01-1.25-.01-1.25h-1.17c-.08.01-.14.02-.25.04l-.02-.14c.1.02.16.03.27.03h1.17s0-.59,0-.59h-.51c-.07,0-.14.02-.21.03l-.02-.14c.12.03.16.03.26.03h.89s.22-.27.22-.27c.14.12.19.16.33.28.02.02.02.03.02.04,0,.02-.02.02-.04.02h-.67s0,.58,0,.58h.92ZM136.19,93.81c.36.27.54.48.54.63,0,.05-.02.12-.05.19-.04.06-.07.09-.1.09t-.14-.29c-.06-.21-.13-.34-.29-.59l.04-.03ZM137.7,94.73c.12-.2.17-.29.29-.58.11-.25.12-.28.15-.39.08.02.14.04.18.06.2.06.25.08.25.11,0,.03-.05.05-.17.07-.34.44-.43.55-.65.76l-.04-.03Z"/>
        <path class="cls-4" d="M142.7,91.86c.1-.13.13-.17.23-.29.18.15.23.19.4.34,0,0,0,.01,0,.02,0,.01-.01.02-.03.02l-2.93.03q0,.13,0,1c0,.56-.09,1.03-.28,1.46-.1.21-.18.36-.36.59l-.06-.03c.36-.74.43-1.16.41-2.55,0-.32,0-.43-.02-.75.14.08.19.11.31.19h1.1s0-.22,0-.22c0-.1,0-.15-.02-.27.37.04.48.07.48.12,0,.04-.05.07-.17.1v.26s.93-.01.93-.01ZM141.95,93.96c0,.22,0,.36,0,.42h.86c.1-.13.13-.17.23-.28.16.12.21.16.37.3.01.02.02.02.02.03,0,.02-.01.02-.04.02l-1.43.02v.59s0,.04-.21.05c-.04,0-.06-.01-.07-.04,0-.11,0-.31,0-.6h-1c-.15.01-.24.02-.37.04l-.04-.15c.17.02.28.03.41.03h1c0-.1,0-.24,0-.43h-.7s0,.16,0,.16c0,.03-.01.04-.04.04-.03,0-.1.02-.16.02-.05,0-.06,0-.06-.04,0-.29,0-.58,0-.96,0-.22,0-.29-.02-.53.13.08.17.1.28.19h.68s0-.37,0-.37h-.78c-.14.01-.2.01-.35.04l-.03-.15c.18.03.21.03.38.03h.78s0-.07,0-.09c0-.12,0-.14-.02-.22.35.02.43.04.43.09,0,.04-.03.05-.15.08v.13s.72,0,.72,0c.09-.11.12-.14.21-.26.17.12.22.16.38.3,0,0,.01.02.01.02,0,.01-.02.02-.03.02l-1.28.02c0,.05,0,.17,0,.36h.7c.06-.07.07-.09.13-.15.11.06.14.08.24.15.03.02.04.04.04.05,0,.01,0,.03-.02.04,0,0-.05.04-.13.09,0,.48.02.88.03,1.06,0,.04-.01.04-.05.05-.05.01-.1.02-.15.02-.06,0-.07,0-.07-.04v-.15s-.72,0-.72,0ZM141.68,93.35c0-.06,0-.2,0-.42h-.7s0,.42,0,.42h.7ZM141.68,93.44h-.7s0,.44,0,.44h.7s0-.44,0-.44ZM142.65,92.92h-.72s0,.42,0,.42h.72s0-.42,0-.42ZM142.66,93.43h-.72s0,.44,0,.44h.72s0-.44,0-.44Z"/>
        <path class="cls-4" d="M122.54,59.35c.09-.2.11-.25.2-.43.26.1.34.13.59.25.01.01.03.03.03.04,0,.02-.01.04-.05.05l-2.07.57.16.59,1.29-.35c.06-.12.08-.16.15-.27.16.06.21.08.36.13.04.02.05.03.06.05.01.04-.02.08-.14.21l.49,1.78c.04.14.1.38.2.71.03.11.03.16,0,.22-.05.12-.19.21-.45.31-.05-.11-.09-.16-.19-.19-.09-.03-.15-.03-.59.01l-.02-.09q.27-.05.82-.17c.07-.02.08-.03.07-.08l-.7-2.52-2.91.8.8,2.91c.01.05-.02.08-.15.12-.05.01-.09.02-.1.03,0,0,0,0,0,0-.05.01-.08,0-.09-.03,0,0,0,0,0,0-.1-.47-.39-1.57-.61-2.37-.12-.43-.17-.6-.26-.88.19.03.25.05.43.11l1.23-.34-.16-.59-1.4.39c-.19.05-.31.09-.46.16l-.08-.19c.18,0,.33-.03.51-.08l1.4-.39-.03-.12c-.06-.2-.08-.27-.14-.46.11-.02.19-.03.25-.03.26-.04.33-.04.34.01.01.04-.03.09-.19.19l.09.33,1.33-.37ZM121.84,62.14l.55-.15c.07-.16.09-.2.17-.35.21.08.27.11.46.21.02.01.03.03.04.04,0,.01-.01.03-.05.04l-1.14.31.07.25c.07.27.16.56.23.78,0,0,0,0,0,.02.01.05-.05.09-.26.15-.05.01-.07,0-.07-.02,0,0,0,0,0,0-.05-.23-.16-.67-.2-.83l-.07-.25-.59.16c-.18.05-.28.08-.41.14l-.07-.17c.2-.02.24-.02.51-.1l.54-.15-.17-.6-.79.22c-.1.03-.2.06-.31.12l-.08-.19c.17,0,.26-.01.4-.05l.5-.14s-.05-.01-.13-.13c-.12-.18-.29-.34-.47-.48l.02-.05c.4.09.65.22.69.35.01.04,0,.11,0,.18,0,.07-.02.09-.05.12l.53-.15c.07-.23.14-.63.16-.88.36.02.48.04.49.09,0,.04-.05.08-.18.12-.09.2-.24.47-.36.65l.5-.14c.06-.13.11-.24.16-.34.2.09.26.12.46.22.02.02.03.02.03.03,0,.01-.01.03-.05.04l-1.21.33.16.6Z"/>
        <path class="cls-4" d="M125.63,62.04s0,0-.05.01t0,0c-.05.01-.08,0-.09-.04,0,0,0,0,0-.02-.09-.35-.23-.88-.5-1.87-.26-.94-.36-1.28-.42-1.49.23.06.3.08.53.16l2.41-.66c.06-.12.08-.16.15-.28.17.06.23.08.39.15.04.02.06.04.07.06,0,.03,0,.04-.16.24l.22.79c.06.22.46,1.64.57,2.02.01.07-.04.1-.24.16-.08.02-.09.02-.11-.03l-.11-.41-2.53.7.09.34s0,.01,0,.02c.02.06-.04.1-.19.13h-.02ZM125.71,61.44l2.53-.7-.69-2.49-2.53.7.69,2.49Z"/>
      </g>
    </g>
  </g>
</svg>