<?xml version="1.0" encoding="UTF-8"?>
<svg id="_レイヤー_2" data-name="レイヤー 2" xmlns="http://www.w3.org/2000/svg" viewBox="0 0 173.64 66.65">
  <defs>
    <style>
      .cls-1 {
        fill: #282a26;
      }
    </style>
  </defs>
  <g id="_レイヤー_1-2" data-name="レイヤー 1">
    <g>
      <path class="cls-1" d="M38.94,43.13c-3.67.51-3.22-1.65-4.56-1.61-.83.49-1.15,1.43-1.02,2.38.11.81.69,1.77,1.1,2.54.01.07,1.8,6.03,1.86,6.47.12.88-.03,1.95.1,2.9.1.73.55,1.27.65,2,.2,1.47-1.39,4-3.15,4.25-.81.11-2.42-.79-3.37-1.18-1.41-.48-3.81,0-4.75-1.36.46-2.08,3.54-1.98,4.36-3.59-.55-1.27-.46-2.77-.87-4.14-.17-.72-1.08-1.35-1.2-2.22-.04-.29.04-.75,0-1.12-.18-1.32-1.29-2.29-1.46-3.53-.08-.59.01-.97-.06-1.49-.04-.29-.24-.64-.61-.66-.99.44-2.8.83-3.9.99-1.76.24-4.31.15-6.15.4-1.1.15-2.34.4-3.33.76-.71.25-.85,1.39-1.14,2.02-.9,1.62-1.15,3-1.72,4.87-.47,1.48-1.67,3.07-2.2,4.64-.02.38,0,.6-.07,1.13-.43,1.18-1.67,2.54-1.47,3.94.06.44.26.79.32,1.23.22,1.61-.17,3.61-2.08,3.87-3.08.43-3.9-1.7-4.19-3.83-.24-1.76.54-1.5,1.25-2.86.17-.4-.1-.73-.08-1.11.09-.98.73-1.74.58-2.84-.23-2.21,1.81-3.09,2.53-4.91l-.02-.15c-.08-.59.93-1.4.83-2.13-.19-1.92,1.88-3.69,1.71-4.94-.05-.37-.16-.65-.21-1.02-.24-1.76,2.84-3.23,2.97-5.56.14-1.66,1.62-2.84,2.11-4.18.2-.7.45-1.11.55-1.95.49-1.86,2.23-3.89,2.05-5.74-.14-1.55,2.27-1.96,2.39-3.77.11-.84,1.44-3.64,1.31-4.59-.06-.44-.22-1.02-.28-1.45-.2-1.47.41-2.97.38-4.31.73-2.27.9-3.78,4.05-4.22.44-.06,1.17-.16,1.63-.08.85.18,1.22,1.25,1.74,1.78.67.51.76,1.17,1.21,1.7,1.31,1.39,1.79,2.14,2.48,3.92.25.71.28,1.46.38,2.19.31,2.27.5,4.71.81,6.91s.96,4.27,1.28,6.55c.17,1.25.2,2.51.37,3.76.57,4.1,2.4,2.21,5.15,3.25.69.13.99.69,1.7.96,1.26.5,2.48.11,2.71,1.79.02.15.47.68.55,1.27.19,1.39-1.98,1.92-3.22,2.09ZM25.89,35.67c-.44-3.15-1.35-9.75-1.77-12.83-.14-1.03-.38-1.67-1.79-1.62-1.11.6-.76,1.52-1.25,2.34-.6,1.05-1.73,5.32-2.33,6.37-.33.34-.57.75-.61.98-.38,2.14-1.99,2.89-2.63,4.77-.33.87.06,1.49-.28,2.28-.23.48-.67,1.66-.6,2.17.13.95,2.06.31,2.65.23,1.47-.2,3.62-.28,4.94-.46,1.69-.23,3.72-1.19,4.47-2.78.06-.08-.01-.07-.02-.15-.08-.59-.73-.95-.78-1.31Z"/>
      <path class="cls-1" d="M67.44,50.4c-.07.61-2.98,6.01-3.31,6.36-.34.27-2.12.37-2.7.45-2.42.33-4.56,2.12-6.98,2.46-3.01.42-5.67-3.7-6.39-5.69-.44-.99-1.29-1.24-1.45-2.41-.15-1.1-.08-2.23-.16-3.34.03-.9-.26-1.91-.39-2.86-.18-1.32.43-1.78.42-2.9-.05-.37-.09-.66-.14-1.03q0-.07-.03-.22c.47-2.53.75-5.41,1.26-7.64.12-.24.77-1.45.99-2.01.53-2.09.47-3.65.89-5.43.44-1.7.85-3.55,1.5-5.36.47-.89.13-1.74.69-2.56.15-1.07.9-2.14,1.21-3.16.3-.56.97-1.1,1.1-1.79.01-.45-.17-.72-.12-.88.72-1.29.41-1.92.59-3.29.01-.45.36-.65.46-.96.7-1.96,4.83-6.64,6.45-6.87,1.03-.14,2.45.93,2.55,1.66.1.73.39,1.74.34,2.49.04.29-.81,1.16-1.13,1.57-.35.2.12.88-.32,1.46-1.14,1.5-.79,2.42-1.53,4.1-.7,1.44-4.36,3.07-4.01,4.51.05.37.07.51.1.73.1.73-1.19,1.14-1.18,2.25.03.74.02,1.79-.54,2.61-.98,1.55-.89,1.69-.93,2.97.03.74-.64,1.28-1.19,2.18-.47.89.91,2.79.35,4.14-1.03,2.31-1.01,2.98-.68,5.32.03.22-.6,1.58-.71,1.89-.26.86-.66,3.9-.16,4.8.69,1.77,1.26,3.19.85,4.52.1.73-1.46,1.32-1.34,2.2.11.81,1.82.72,2.55,1.14.89.48,2.4,2.8,3.94,2.59,1.83-.25,4.7-4.91,5.01-6.44.19-.77,0-2.09-.09-2.83-1.16-1.33-1.36-1.75-3.03-2.49-1.84-.87-3.65-2.63-3.91-4.54-.13-.95-1-1.28-1.11-2.09-.23-1.69,1.31-2.95,3.14-3.2.73-.1,1.65.07,2.42.19,1.3.19,6.81,5.48,6.97,6.66.06.44-.16.99.14,1.55.31.63.89,1,1.47.92.22-.03,1.05,0,1.64,0,.82-.04,3.19-2.31,4.36-2.47.29-.04.73-.1,1.01.31.55.75.4,2.86-1.02,3.95-.83.49-3.68,2-3.98,2.04-.44.06-1.61.22-1.96.42-.72.18-1.15.31-1.64,1.12.12,1.4.13,1.48-.27,2.88Z"/>
      <path class="cls-1" d="M108.08,36.34c.29,2.13-3.41,5.03-5.59,5.48-.59.08-1.65,1.57-2.24,2.18-.75.55-3.26,1.79-4.31,1.79-1.7.16-4.01,1.23-3.34,2.85-.17,2.04-2.04,4.17-3.58,5.43-.73.62-1.65,1.57-2.5,1.91-.99.44-2.26.39-3.31.38-2.86-.13-4.85-1.05-6.08-3.42-.46-.61-1.46-2.49-1.57-3.22-.06-.44.31-1.01.24-1.53-.12-1.4-.17-3.41-.05-5.22,0-1.12.81-2.28,1.32-3.4.7-1.44,1.45-1.92,2.23-3.3.94-1.32,1.62-1.79,3.12-2.82.98-.51.77-1.97.67-2.71-.19-1.39.85-4.15,2.72-4.11.15-.02.29-.04.52,0,2.67.98,3,2.8,3.82,4.93.17.72.7,1.25,1.01,1.88,0,.07.04.29.05.37.2,1.47,1.18,3.12,1.38,4.59.11.81.05,1.41.16,2.22.1.73.44,2.11,1.72,2.15,1.58.08,3.24-.9,5.17-2.06.33-.34,1.25-.7,1.6-.89.89-.57,1.24-1.29,1.89-1.98,1.53-1.33,2.73-2.39,2.95-2.43.66-.09,1.26-.1,1.66.14.19.27.31.63.33.78ZM81.85,40.64c0,.52-.17,2.56-.29,2.8-.57,1.8-.37,4.38-.14,6,.24,1.76,1.24,3.04,3.43,3.19.15-.02.21-.1.43-.13,1.3-1.37,1.58-1.56,1.81-3.09.38-2.14,1.94-.04,1.1-6.13-.13-.95-2.2-2.39-3.29-4.92-1.21.47-2.8.83-3.05,2.29Z"/>
      <path class="cls-1" d="M153.22,30.03c.04.29.1.73.09,1.18-.04.23-.61,1.5-2.2,2.99-.98,1.03-1.97,1.99-2.02,2.15-.61.46-1.14,1.5-1.32,1.83-.63.31-1.46,1.32-2.51,2.36-.94.8-2.78,2.62-4.59,4.07-.19.25-.85.34-1.27.55-1.34,1.08-2.82,2.33-4.65,2.58-2.93.41-4.89-2.39-5.24-4.95-.26-1.91.06-3.89-.13-5.81-.03-.22-.41-.24-.7-.2-1.39,1.84-3.03,3.48-4.23,5.59-1.08,1.94-8.02,8.43-9.86,8.68-2.2.3-3.3-1.71-3.55-3.54-.09-.66-.09-1.18.03-1.95.04-.23-.13-.95-.16-1.17-.23-1.69.75-2.65.62-3.6-.17-1.25-.89-2.12-1.15-3.43-.07-.51.16-1.52-.64-1.41-.59.08-1.21.99-2.01,1.1-.73.1-1.78-.43-1.87-1.09-.1-.73.14-1.66.71-2.41.63-.83,4.2-4.24,6.1-4.5,1.39-.19,3.13.46,3.31,1.78.32,2.35-.03,5.16.15,7.6,0,.6-.43,1.78-.24,3.1.07.51.38,2.71,1.03,2.62.09.14.31.11.31.11.49-.22.78-.85,1.04-1.12,4.18-3.27,6.74-8.03,10.34-11.66.34-.27.94-.8.85-1.39.36-1.17,1.63-3.36,3.24-3.59,1.17-.16,2.92,2.21,3.04,3.09.28,2.05-1.87,3.77-1.34,6.01.02.15.11.28.12.36.07,1.04-.54,2.02-.36,3.34.12.88.77,2.88,1.32,3.63.37-.05.6,0,.74-.03,2.42-.33,4.42-3.15,5.92-4.7.69-.99,2.08-2.75,2.73-3.51.52-.59,4.4-5.46,5.5-5.62,1.91-.26,2.64.16,2.82.96Z"/>
      <path class="cls-1" d="M159.73,11.2c.88-.12,1.31.27,2.25.06.07-.01.52,0,.74-.03.15-.02.59-.08.88-.12.22-.03.73-.1.95-.13,1.5.02,2.79-.38,4.14.25.18.2.77.19.6.59-.29.64-.57,1.27-.72,1.29-1.37.34-2.42.33-3.62.28l-.22.03c-.43.14-.89.57-1.19.61s-.69-.13-1.11.08c-.58.15-.93.88-1.44.95-.66.09-1.48-.47-2.07-.39,0,0-.18.32-.4.35-1.71.61-1.94,7.07-2.29,8.31-.25.33.13.95.19,1.39.06.44.25.71.15,1.1-.64,1.28-.31,2.06-.34,3.48-.09.46-.05,1.8-.42,2.37.15,1.1.2,2.51.19,3.56-.17,1.44,1.32,3.63,3.38,3.34,1.17-.16,3.06-2.22,4.76-3.94.45-.51,1.04-.59,1.43-1.02.38-.5.45-1.63,1.08-1.94.43-.13.85-.34,1.87-1.6.5-.67,1.05-1.56,1.49-2.22.65-.69,1-1.41,1.37-1.46,1.47-.2,2.1.08,2.2.82.04.29.1.73-.07,1.13-.13.17-.98,1.56-2.03,2.6-.92.95-2.01,2.22-2.13,2.46-.54.45-2.79,3.07-3.25,3.51-1.82,1.45-2.66,3.43-4.54,4.96-.88.65-2.35.85-3.23,1.49-.28.11-.36.12-.65.16-.95.13-3.6-.1-4.23-.91-2.77-3.28-2.76-7.02-3-10.94-.06-.44-.11-1.33-.13-1.48.08-3.22-.07-4.32.07-5.99.02-.38.79-2.95.71-3.53-.05-.37-.26-.79-.17-1.25.02-.38.14-1.14.16-1.52.18-1.37-.15-1.62-.86-1.37-.15.02-1.49.06-1.56.07-.81.11-1.22-.2-1.88-.11-.37.05-.81.11-1.32.18-.37.05-1.24-.35-1.31-1.39-.05-1.41.77-1.97,1.43-2.07.73-.1,1.11-.08,1.62-.15.66-.09,1.95.03,2.68-.07,1.6-.3,1.64-1.65,1.86-2.8.04-.23.27-.78.57-1.27.11-.31-.75-.57-.89-2.12-.05-.37.69-.92.57-1.27-.11-.28-.13-.43-.17-.72-.02-.67,1.02-1.26,1.15-1.95-.01-.07-.19-.27-.2-.35l.13-.17c.17-.4,1.17-.76,1.78-1.14.26-.26,1.17-.76,2.02-1.03,3.38-.92,3.23,1.72,3.19,3.07,0,.6-.24,1.53-.34,2.44-.02.38.1.73.08,1.11-.19.77-1.46,2.44-1.5,2.67-.34,1.32.85,1.82,1.58,1.72Z"/>
    </g>
  </g>
</svg>