<?xml version="1.0" encoding="UTF-8"?>
<svg id="_レイヤー_2" data-name="レイヤー 2" xmlns="http://www.w3.org/2000/svg" viewBox="0 0 33.33 148.78">
  <defs>
    <style>
      .cls-1 {
        fill: #fff;
      }

      .cls-1, .cls-2 {
        fill-rule: evenodd;
      }

      .cls-2 {
        fill: #0f0b0b;
      }
    </style>
  </defs>
  <g id="Layer_1" data-name="Layer 1">
    <g>
      <path class="cls-2" d="M0,147.47c.42.34.65.72,1.24.79.36.04.66-.14,1.07-.16,1.16-.06,2.46.18,3.8.28,1.31.11,2.67.09,4.04.11,2.75.04,5.62.48,8.08.22,2.55-.27,5.54-.25,7.97-.44.87-.07,1.81-.33,2.5-.27.18.02.42.06.59.25.19-.35.62-.45.84-.76.25-.13.44.05.66-.23.16-.21.25-.94.37-1.42.13-.52.29-1.05.37-1.48.51-2.49.41-4.74.45-7.55.05-4.39.17-8.91.22-13.32.07-5.89.02-11.72-.09-17.42-.11-5.76.32-11.5.63-17.29.3-5.77.38-11.66.45-17.59.04-2.91-.17-5.79-.13-8.68.1-8.78-.03-17.41.08-26.4.07-5.93-.04-11.55.04-17.54.05-4.28.05-9,.1-13.32.02-1.49.16-3.63-.25-4.17-.26-.33-.39-.18-.83-.31C31.69-.16,29.98.04,28.54,0c-.88-.02-1.74.21-2.62.27-.99.06-1.95-.15-2.91-.15-1.73-.02-3.42.15-5.12.12-.06.44-.49.51-.43.83.07.34.89.98,1.18,1.08.34.13.89.08,1.42.14.92.1,1.77.27,2.73.39.38.05,1.1.02.88.66-1.87.05-4.48-.32-6.12-.13-.45.32-.61.94-.85,1.47,1.38,1.34,4.87.61,6.94,1.28-1.71.15-4,.03-5.83.28-.39.06-1.17.15-1.31.58-.09.26.39,1.05.7,1.19.66.32,2.14.2,3.33.28.55.04,1.17.09,1.72.08.45-.01,1.43-.34,1.37.37-2.24.15-4.37,0-6.6.28-.33.06-.06-.49-.41-.24-.38.02-.38.41-.6.59.78,2.23,5.08,1.19,7.65,1.7,0,.16,0,.32,0,.48-1.25-.12-2.92-.08-4.4-.17-1.5-.09-3.12-.1-3.64,1.02.51,1.04,2.05,1.13,3.49,1.23,1.54.11,3.22-.05,4.52.23,0,.18,0,.35,0,.53-2.44-.14-5.47-.43-7.49.03-1.33.56-.59,1.47.63,1.73,2.04.43,5.14.32,6.78.26,0,.24,0,.48,0,.71-1.24-.02-2.79-.12-4.52-.17-2.08-.07-5.16-.21-3.65,1.74,2.16.29,4.78.4,7.25.45.22,0,.89-.11.89.25,0,.46-1.61.18-2.08.15-2.45-.13-5.11.01-6.72.16-.19.17-.07.64-.36.71.89.77,2.53.9,4.15.94,1.67.05,3.43.05,4.99.18,0,.24,0,.48,0,.71-1.91-.16-4.61-.09-6.54-.02-1.57.06-2.67.07-2.87,1.27,1.65,1.22,5.72.82,8.49.82.29,0,.94-.1.89.31-.04.36-.49.23-1.07.22-1.39-.02-2.68-.03-3.92-.05-1.87-.02-3.58-.09-4.65.54.35,1.22,1.35,1.24,2.9,1.4,1.94.2,4.11.03,6.01.13.28.02.88-.08.95.31-.18.33-.69.17-1.01.16-1.13-.01-2.27-.09-3.51-.1-1.65-.02-3.53-.14-4.52.18-.34.11-1.11.56-1.14.88-.02.21.33.44.35.66,2.37.34,6.01.45,8.73.52.29.01,1.02-.17,1.01.37.04.3-.38.17-.48.17-1.56.08-3.05-.09-4.58-.06-1.33.03-2.73-.11-3.81.13-.29.07-.71.39-.95.05-.12.16-.26.3-.42.41-.18.1.01.58-.36.47.21.34.47.64.76.9,3.07.47,6.49.25,9.8.47,0,.24,0,.48,0,.72-3.18-.3-6.77-.16-9.87,0-.23.28-.69.33-.84.7.23.23.5.7.82.84.53.23,1.46.28,2.26.32,2.5.13,5.52,0,7.61.27,0,.14,0,.28,0,.41-2.11.12-5.21-.09-7.61-.03-1.8.05-3.24.08-3.35,1.62.56.58,1.53.49,2.43.51,2.82.03,5.99-.11,8.5-.08,0,.26,0,.52-.01.77-2.93.11-6.13-.03-8.98.19-.77.06-2.29.04-2.39.74-.12.85,1.29.9,2.19.98,2.9.25,6.61.12,9.15.23.17.66-.55.51-.9.52-.43.02-1,.03-1.37.04-1.92.09-3.77-.1-5.59-.07-.91.02-2-.03-2.68.2-.32.11-.99.54-.96.88.03.55,1.2.67,1.77.73,2.96.34,6.51.34,9.69.36-.08.35.12.67-.01.89-1.59-.06-3.39-.1-5.17-.12-1.74-.02-3.59-.02-5,.18-.67.09-1.19.54-1.38,1.17.22.23.37.54.59.78,3.71.33,7.47-.13,11,.01,0,.26,0,.52,0,.77-1.71-.18-3.33-.06-4.94,0-1.64.06-3.34-.04-5.05.06-.69.04-1.68.19-1.79.46-.39.94,2.06,1.46,2.84,1.52,2.23.17,5.52.3,8.08.21.31,0,.89-.23.89.19,0,.37-1.03.27-1.49.28-.65.02-1.15.08-1.67.1-2.72.1-4.45-.44-6.89-.14-.99.12-2.29.23-2.27,1.34,1.37.91,3.76.82,6.11.85,1.69.02,3.52.04,5.17.06.41,0,1.34-.22,1.18.55-3.04.08-7.21-.32-10.52,0-.92.08-2.47.19-2.33,1.28.05.43.4.54.82.72,4.02.16,8.13.21,11.95.5-2.88.11-6.6-.06-9.52.42-1.24.2-2.69.13-2.98.98.07-.24-.08-.4-.24-.24-.34.12-.12.65,0,.83.24.38,1.57.59,2.61.69,1.08.1,2.31.16,3.33.22,1.95.11,4.16-.13,6.18.08.35.04.63-.06.59.3-.04.34-.12.2-.6.23-2.07.15-3.91.04-5.89.11-2.15.07-4.74.03-6.25.64.03.36-.06.75-.01.95,1.65.69,3.95.7,6.18.67,2.22-.04,4.54-.23,6.54.08,0,.14,0,.28,0,.42-3.06-.02-7.23-.06-10.7.05-.8.03-2.9,0-3.04.5-.16.56.48.7.7.96,3.77.84,8.73.65,13.01.81,0,.28,0,.55-.01.83-2.06-.18-4.06.13-5.71.11-1.42-.02-2.81-.18-4.4-.11-1.08.05-3.63-.04-3.93.67-.11.24.08.75.29.9.33.23,2.18.25,3.15.33,1.24.11,2.39.24,3.5.28,2.02.07,4.37-.06,6.48.14.62.05.69-.06.65.3-.04.33-.35.21-.71.23-3.68.15-7.29-.38-10.64.05-1.36.17-4.13.38-2.69,1.75,3.99.29,9.58.04,14.03.23,0,.24,0,.48,0,.71-3.11-.02-7.17-.01-10.41.17-1.76.1-3.89-.31-4.29,1.02.81.55,2.54.89,4.15,1,2.92.2,6.45.08,9.45.12.35,0,1.17-.19,1.07.31-.21.33-.7.17-1.01.16-2.22-.03-4.32.31-6.42-.02-1.62.3-4.1.1-5.95.22-.56.04-1.5.34-1.55.81-.08.67.49.66.65.72.39.16.7.46,1.06.55.86.22,2.27.09,3.5.1,2.91.04,5.59-.05,8.33-.02.47,0,1.39-.2,1.42.31-1.14,0-3.2.23-4.34,0-1.94.41-5.45.19-7.91.38-1.14.09-2.73.09-2.34,1.4,2.54.43,5.07.78,8.25.81,1.78.02,4.1-.03,5.82.13.45.04.63-.04.59.3-.04.34-.42.23-.83.23-4.18.02-7.89.02-11.77.1-1.22.03-2.94.17-3.05,1.33.64.42.39.09,1.13.25,3.36.72,8.62.82,12.83.87.36,0,1.77-.18,1.66.32-.06.3-.16.13-.71.11-4.85-.13-9.7-.26-13.91-.05-.46.23-1.05.32-1.26.82,1.44,1.63,4.58,1.15,7.42,1.28,2.83.13,6,.13,8.44.1,0,.24,0,.48,0,.71-3.7-.03-7.91-.24-11.54-.08-1.82.08-3.72-.03-4.59.84-.1.36-.12.8-.13,1.25,2.09.73,5.14.6,7.9.63,2.88.03,5.81.01,8.38-.02-.04.28.07.71-.07.89-4.49-.18-8.51-.43-13.13-.34-.95.02-3.4-.04-3.34,1.03.04.69,1,.55,1.72.74.14.04.49.26.71.31,1.03.23,2.22.18,3.45.28,2.99.23,6.97.2,9.99.3.12,0,.71-.12.65.19-.05.26-.21.11-.54.05-4.06,0-9.06-.02-12.9.02-1.42.02-2.37.42-3.22.97.66.94,2.01,1.13,3.31,1.29,4.23.51,9.39-.04,13.38.16,0,.24,0,.47,0,.71-2.37.16-5.13-.3-7.85-.21-2.76.09-5.52-.03-7.79.26-.46.06-.67.28-.84.47,0-.12,0-.24,0-.36-.12-.03-.24.74-.13.95.92.72,2.36.71,3.68.82,4.21.35,8.73.51,12.95.45,0,.28,0,.55,0,.83-4.57.08-9.28-.33-13.79-.17-.92.03-3.65.03-3.7.91-.02.45.43.5.77.6,1.5.43,3.48.38,5.29.54,3.26.29,6.69.36,9.98.54.45.03,1.6-.2,1.48.61-5.32-.44-12.85-.75-17.78.08-.2.17.07.83-.37.77.83,1.12,3.1.96,4.98,1.13,4.23.38,9.08.26,13.19.52,0,.24,0,.48,0,.71-2.94-.15-6.36-.37-9.63-.3-2.31.05-4.88-.08-7.02.15-.69.07-1.45.11-1.73.75.18.31.41.57.7.78,2.54.71,5.6.53,8.67.7,2.67.15,5.49.17,8.08.22.23,0,.91-.21.89.31,0,.26-.37.07-.42,0-.21-.19.07.26-.3.12-3.04.07-6.44-.11-9.69,0-2.26.08-4.8-.06-6.78.39-.59.13-1.37.21-1.5.87,1.98,1.22,4.91,1.31,7.89,1.52,3.63.26,7.6.04,10.82.25,0,.16,0,.32,0,.48-4.32-.18-9.26,0-13.79-.05-1.76-.02-5.15-.37-5.36,1.01-.1.64.65.86,1.12,1.03,1.11.4,2.92.39,4.33.41,4.6.06,9.67.35,13.73.46,0,.22,0,.44,0,.66-4.04-.43-9.06.09-13.2-.1-.76-.04-1.48-.11-2.2-.09-.69.03-1.39.24-2.02.21-.28,0-.5-.17-.77-.13-.6.09-1.06.67-1.38,1.17.21.16.29.46.47.66.11-.46.49.11.77.19,1.29.37,3.03.12,4.58.23,4.18.32,8.75.22,12.84.27.23,0,.85-.19.95.25-.04.32-.48.18-.66.17-1.88-.05-3.87-.23-5.82-.25-2.32-.03-4.57.16-6.54.28-1.32.08-2.47-.21-3.98-.11-.98.07-2.94.18-2.87,1.15.04.58,1.04,1.03,1.47,1.15,1.23.34,2.97.3,4.46.35,4.51.16,9.73.3,13.97.23-.01.24-.02.49.05.66-4.77-.14-11.31-.46-16.53-.14-1.55.09-5.06.32-3.47,1.98.3-.28.94.39,1.48.55,1.21.36,2.86.33,4.39.41,4.6.25,9.77-.09,14.03.29-.09.08-.06.3-.06.47-4.46.1-10.14-.3-14.8,0-1.46.09-3.57-.26-4.76.18-.33.12-1.13.88-.96,1.12.22.41.36.24.83.31,1.28.67,3.51.65,5.46.72,4.64.17,9.64-.07,14.15.11,0,.22,0,.44,0,.65-4.68-.07-10.12-.35-14.92-.18-2.38.08-5.23-.15-6.08,1.41.64,1.18,2.71,1.11,4.39,1.18,5.13.22,10.34.48,15.51.37.28,0,.97-.27,1.01.19-.15.28-.66.21-.96.23-3.71.13-7.02-.21-10.82-.07-2.48.09-4.87,0-7.08.21-.84.08-2.19.2-2.27.81-.09.68.99,1.24,1.41,1.38,1.21.42,3.2.28,4.87.3,4.54.05,9.38.11,13.79.17.31,0,.9-.18,1.07.25-6.47.33-14.02-.17-19.98.35-.33.33-1.46.54-1.32,1.23.09.47,1.25.67,2.07.74,6.16.5,12.92.4,19.2.77,0,.18,0,.36,0,.54-5.32-.54-11.53-.2-17.12-.45-1.28-.05-4.7,0-4.83,1.01-.07.58.88,1.27,1.23,1.38.59.19,1.6.16,2.44.21.92.05,1.87.02,2.68.03,4.72.06,9.88.19,14.45.06.38-.01,1.12-.15,1.12.25,0,.31-.4.17-.54.17-1.84.09-3.52-.1-5.29-.12-4.97-.06-9.78.15-14.69.3-.86.03-1.88.17-1.86,1.17,2.66,1.56,6.85,1.14,10.87,1.38,3.46.21,7.09.11,10.46.13.31,0,1.12-.24,1.06.37-1.65.08-3.42-.03-5.23-.07-1.75-.03-3.55-.04-5.35-.06-4.04-.05-9.01-.23-12.02.51-.43.66.22,1.57.81,1.8.61.24,1.76.25,2.55.33,2.71.26,5.63.3,8.44.4,3.34.12,6.56.34,9.86.24.31-.01,1.04-.29,1.01.37-6.02.05-13.15.09-19.03.48C2.25,145.86,0,145.4,0,147.47Z"/>
      <path class="cls-1" d="M1.01,147c6.97-.56,15.13-.23,22.13-.56.23.82-.71.59-1.31.58-3.07-.04-6.29-.02-9.22.06-3.78.11-7.75.07-11.59-.08Z"/>
      <path class="cls-1" d="M30.05,105.85c-.64.57-.12,1.85-.27,2.55-.13.6-1.22,1.39-1.63,1.77-.64.59-1.13,1.15-1.68,1.53,0-.39.11-.65.07-1.07,1.1-.92,2.08-1.96,2.83-3.24-.35-.03-.57.35-.78.59-.63.72-1.34,1.61-2.05,2.29.38-5.07.43-10.47.49-15.87.88-.74,1.76-1.81,2.53-2.46.04,2.35-.1,4.87.4,6.78.44-2.83.08-6.68.35-9.51-.06-2.07-.18-4.86-.15-6.96,0-.49.25-1.09-.04-1.43-.34.08-.26.58-.31.95-.84.82-1.78,1.87-2.47,2.65.17-1.02-.15-1.8.09-2.56.1-.33,1.11-1.21,1.39-1.53.5-.57,1.04-1,1.33-1.59-1.29.34-1.81,1.8-2.64,2.41-.23-1.07.32-1.3.79-1.83.72-.81,1.5-1.68,2-2.65-.58.15-1,.88-1.44,1.41-.45.54-.97,1.09-1.27,1.71.06-2.71.06-6.29-.01-8.98,0-.22-.12-.61-.05-.83.1-.32.82-.65,1.08-.88.48-.42.88-1.01,1.27-1.35-.01,2.73-.04,5.48.02,8.14.8-1.1.48-2.83.53-4.33.09-2.78.07-6.02.05-8.98-.01-1.41-.21-2.81.22-3.8.02-.26-.29-.19-.29-.42-.04-.56.05-1.12.08-1.72.08-1.49-.16-3.35.12-4.58.06-.27.27-.4.36-.65.02-.28-.3-.22-.29-.48,0-8.55-.08-17.6.25-25.45.32,2.72.22,5.58.31,8.45.3,9.31-.29,19.2,0,29.07.06,2.05-.11,4.11-.14,6.18-.07,6.24-.39,12.64-.23,18.97.21,8.32-.2,16.58.06,24.67.09,2.59-.02,5.21-.03,7.85,0,1.25.17,2.5.2,3.75.06,3.92-.14,7.8-.32,11.65-.16,3.32-.11,6.93-1.01,9.56.39-7.15.83-16.81.6-24.61-.02-.7-.21-1.45.26-1.84-.01-.26-.31.03-.35-.12.02-1.28-.34-2.73-.25-3.99.03-.38.21-.7.01-1.01-.68.39-.42,1.47-.44,2.25-.03.88-.11,1.79-.15,2.56-.02.34.07.67-.01.95-.12.41-1.01,1.13-1.33,1.47-.46.49-.94.93-1.32,1.29-.08-2.43.02-5.03-.27-7.26,1.48-1.15,2.95-2.32,3.97-3.93-.53-.15-.6.65-1.08.76-.91.98-2.09,1.99-2.89,2.88-.03-.43-.24-.81-.1-1.25.08-.25.63-.54.9-.76.89-.72,1.89-1.7,2.64-2.35-.01.15.03.25.12.3.4-1,.13-2.96.17-3.98-.33-.03-.15-.88-.16-1.13ZM30.97,69.24c.03.23-.08.89.05.83-.02-.23.08-.89-.05-.83Z"/>
      <path class="cls-1" d="M24.28,145.26c-.13-.06-.02-.37-.05-.53.06-.06.22-.02.18-.18.16.21-.1.5-.13.71Z"/>
      <path class="cls-1" d="M25.83,145.16c-.08-.23.19-.61.19-.95,1.06-.88,2-2.2,2.95-3,.14,1.13-1,1.8-1.57,2.36-.6.58-1.1,1.11-1.56,1.59Z"/>
      <path class="cls-1" d="M24.53,144.43c-.47-.62-.11-2.04-.2-3.04.03-.28.42-.21.54-.41-.02-.28-.3-.29-.47-.42.02-1.78.04-3.57.07-5.35.03-.25.43-.12.36-.47.15,1.75.04,3.89.11,5.83.05,1.46-.16,2.67-.4,3.86Z"/>
      <path class="cls-1" d="M23.11,143.88c-.2.14-.65.01-.95.05-.05-.66-.78-.97-.87-1.38.8.26,1.08,1.02,1.82,1.33Z"/>
      <path class="cls-1" d="M20.38,143.79c-1.05.27-1.2-.86-1.89-1.15.78,0,1.19.88,1.89,1.15Z"/>
      <path class="cls-1" d="M19.19,143.77c-1.11.26-1.31-.87-2.07-1.15.93-.08,1.38.8,2.07,1.15Z"/>
      <path class="cls-1" d="M17.82,143.7c-1.37.36-1.71-.8-2.6-1.1,1.34-.33,1.85.66,2.6,1.1Z"/>
      <path class="cls-1" d="M16.28,143.68c-1.03.16-1.53-.7-2.13-1.16,1.22-.11,1.32.86,2.13,1.16Z"/>
      <path class="cls-1" d="M14.79,143.6c-.07.14-.38.02-.54.05-.32-.39-.97-.76-1.12-1.14.64.28,1.09.74,1.65,1.09Z"/>
      <path class="cls-1" d="M13.54,143.53c-.83.23-1.02-.68-1.59-.91.78-.17,1.05.66,1.59.91Z"/>
      <path class="cls-1" d="M12.29,143.45c-.94.29-1.07-.72-1.77-.85.9-.25,1.17.62,1.77.85Z"/>
      <path class="cls-1" d="M11.11,143.44c-2.83-.25-6.42-.28-9.39-.59,2.1-.29,5.27-.19,7.55-.27.2,0,.52-.09.71-.05.5.11.7.76,1.12.91Z"/>
      <path class="cls-1" d="M23.12,143.4c-.23-.33-.59-.52-.76-.9.42-.05.54.18.77.31,0,.2,0,.39,0,.59Z"/>
      <path class="cls-1" d="M26.21,143.32c0-.82.85-1.57,1.39-2.18.47-.53,1.01-.96,1.33-1.53.13.12.01.49.05.71-.92,1-1.88,1.97-2.77,3Z"/>
      <path class="cls-1" d="M26.47,141.6c-.06,0-.05-.07-.06-.12.22-.63.82-1.11,1.27-1.59.45-.48.89-1.01,1.32-1.35.03.41-.38.59-.6.83-.65.69-1.25,1.51-1.93,2.23Z"/>
      <path class="cls-1" d="M23.03,140.43c-6.57-.16-13.31-.16-19.43-.77,6.4-.01,12.78-.44,19.51-.3,0,.3,0,.59-.01.89,0,.09,0,.17-.06.18Z"/>
      <path class="cls-1" d="M26.54,140.3c-.26-.05-.05-.54-.11-.78,1.03-.61,1.77-1.51,2.53-2.41.14.74-.63,1.16-1.03,1.59-.48.52-.94,1.08-1.39,1.59Z"/>
      <path class="cls-1" d="M26.44,138.93c0-.5.01-.99.02-1.49.1.05.07.24.29.18.95-.5,1.58-1.64,2.34-2.11.04,1.03-.77,1.53-1.33,2.12-.47.5-.89.93-1.32,1.29Z"/>
      <path class="cls-1" d="M26.52,137.32c-.34-1.12.76-1.58,1.33-2.18.52-.55.83-1.06,1.21-1.53.14.2.01.65.05.95-.79.99-1.85,1.71-2.59,2.76Z"/>
      <path class="cls-1" d="M23.07,137.22c-6.7-.36-13.99.17-20.15-.66,1.68-.39,3.95-.01,6.06.01,4.52.05,9.62-.15,14.15,0,0,.16,0,.32,0,.47,0,.08,0,.17-.06.18Z"/>
      <path class="cls-1" d="M26.51,133.34c1.01-.52,1.92-1.44,2.64-2.05,0,.56-.01,1.11-.02,1.67-.84.9-1.66,1.83-2.53,2.7-.27-.54-.02-1.58-.09-2.32Z"/>
      <path class="cls-1" d="M24.89,134.69c-.06-.21-.25-.3-.41-.42,0-.3,0-.59,0-.89.04-.12.33.02.36-.11.13.36,0,.97.04,1.43Z"/>
      <path class="cls-1" d="M23.11,134.19c-6.1-.12-12.06-.36-17.83-.81,5.69-.04,11.9.14,17.89.28,0,.12,0,.24,0,.36,0,.09,0,.17-.06.18Z"/>
      <path class="cls-1" d="M29.11,129.5c.33,1.21-.4,1.52-1.1,2.13-.55.49-.98.81-1.38,1.11-.44-.87.67-1.36,1.21-1.89.52-.51.97-.94,1.27-1.35Z"/>
      <path class="cls-1" d="M24.79,132.66c-.44.02-.29-.67-.28-1.13.01-.82-.11-1.73.32-2.08-.26-.29-.31-.55-.35-.9-.16-1.73.15-3.39.18-5.11.02-.89-.1-1.76-.09-2.68.05-2.5.06-5.19.04-7.91-.07-7.11,0-14.64.08-21.82.05-3.69-.11-7.32-.11-10.82,0-.86-.04-2,.5-2.37-.53-.53-.33-1.79-.26-3.04.12-2.17.2-4.64.32-6.89.19-3.46-.16-6.63,0-9.39.02-.3-.02-.54.25-.89-.1-.26-.19-.38-.23-.72-.14-1.18.03-2.75.05-4.16.02-1.44-.1-2.84.23-3.92-.31-.85-.15-1.78-.15-2.68,0-2.89-.2-6.16-.01-8.92.1-1.44-.16-3.03,0-4.46,0-.08-.03-.38,0-.47.04-.1.24-.11.24-.18,0-.11-.2-.16-.23-.24-.04-.1.01-.31,0-.42-.13-1.25.03-2.7.05-4.1.02-1.34-.03-2.69,0-4.04.03-2.76-.34-5.54.04-7.91.04-.28.03-.38.24-.59-.41-.34-.17-1.02-.16-1.73.01-.85-.24-1.85.15-2.38-.37-1.57,0-3.57-.12-5.29.27.24.57-.27.71-.17.22.72-.46.68-.55,1.24.13.22.61-.14.59.13.12.59-.23.69-.43.94.01.35.47-.06.41.3-.29,9.16-.16,18.54-.28,28-.06,5-.75,10.23-.18,14.86.04.33.25.63.28.96.14,1.29-.09,3.18-.17,4.58-.17,3.02-.15,6.1-.17,9.21,0,1.47.25,2.88.31,4.29.06,1.59-.22,3.24-.24,4.87-.06,4.7-.18,9.73-.24,14.68-.08,6.84-.9,13.87-.6,20.56.17,3.77-.05,7.53.1,11.3.15,3.77-.07,7.54-.14,11.3.02.12-.01.19-.12.18Z"/>
      <path class="cls-1" d="M29.13,127.6c-.57-.02-1,.51-1.38.87-.4.39-.74.86-1.2,1.12,0-.22,0-.44,0-.65.87-.78,1.88-1.73,2.64-2.41,0,.73-.02,1.47-.03,2.2-.8.84-1.72,1.57-2.53,2.41-.39-.83.81-1.52,1.27-2.01.52-.55.97-.97,1.21-1.53Z"/>
      <path class="cls-1" d="M23.09,131.1c-3.18-.08-6.55-.2-9.87-.24-3.33-.04-6.71.09-9.68-.42,1.49-.46,3.16-.18,4.82-.24,4.78-.17,10-.12,14.81-.3-.04.38.07.91-.07,1.19Z"/>
      <path class="cls-1" d="M26.57,128.05c.14-.7.82-1,1.27-1.41.44-.4.89-.87,1.15-1.47-1,.34-1.52,1.49-2.34,1.81.04-.76.76-1.15,1.21-1.59.47-.46.97-.93,1.38-1.29-.11.67.13,1.15-.02,1.66-.12.44-2.38,2.15-2.64,2.29Z"/>
      <path class="cls-1" d="M23.18,128.01c-2.62-.22-5.41-.35-8.26-.46-3.54-.13-7.52.1-10.46-.54,6.23-.12,12.44-.26,18.79-.25-.04.4.07.95-.07,1.25Z"/>
      <path class="cls-1" d="M26.72,125.67c-.17-.24.03-.61.01-.89.96-.72,1.71-1.66,2.59-2.46.11,1.16-.72,1.53-1.33,2.12-.47.46-.84.9-1.26,1.24Z"/>
      <path class="cls-1" d="M23.23,124.38c-5.4-.13-10.95-.1-16.11-.31,5.37-.08,11.05-.16,16.23-.22-.07.07-.07.21-.06.36,0,.08,0,.17-.06.17Z"/>
      <path class="cls-1" d="M26.8,124.13c-.13-.2-.01-.65-.05-.95.93-.67,1.81-1.72,2.58-2.35.18,1.05-.65,1.38-1.21,1.95-.55.56-.93,1-1.33,1.35Z"/>
      <path class="cls-1" d="M23.38,121.47c-6.14-.28-12.63-.2-18.24-.99,2.75-.4,5.9-.34,8.98-.19,3.14.16,6.32,0,9.39.11.04.36-.06.58-.07.89,0,.08,0,.17-.06.18Z"/>
      <path class="cls-1" d="M23.43,117.72c-5.83-.3-12.18-.09-17.77-.63,5.64.1,11.81-.33,17.78-.44.09.23.09.84-.02,1.07Z"/>
      <path class="cls-1" d="M5.76,114c.72-.22,1.54.02,2.32.03,4.93.08,10.16-.18,15.34-.11-.08.26.17.49,0,.65-5.66-.42-12.12-.19-17.65-.57Z"/>
      <path class="cls-1" d="M26.46,113.18c-.14-.18-.02-.61-.05-.89,1.21-.9,2.39-1.85,3.3-3.05.14.26-.02.8.11,1.07-1.2.88-2.29,1.87-3.36,2.87Z"/>
      <path class="cls-1" d="M23.38,111.48c-.26,0-.51,0-.77,0-.01-.58-.71-.79-.76-1.14.82.08,1.16.64,1.53,1.15Z"/>
      <path class="cls-1" d="M22.32,111.35c-.2.13-.65.01-.95.05-.03-.54-.45-.7-.7-1.02.86-.21,1.04.75,1.66.97Z"/>
      <path class="cls-1" d="M21.07,111.39c-.95.06-1.37-.7-1.65-1.09.98-.05,1.2.63,1.65,1.09Z"/>
      <path class="cls-1" d="M19.64,111.2c-.9.29-1.26-.45-1.66-.85.93-.32,1.17.54,1.66.85Z"/>
      <path class="cls-1" d="M18.39,111.18c-1.02.09-1.36-.48-1.89-.86.98-.33,1.68.44,1.89.86Z"/>
      <path class="cls-1" d="M16.49,110.98c-3.43.12-6.82-.31-9.98-.66,2.99.19,6.26.02,9.45-.06.32.1.2.62.53.72Z"/>
      <path class="cls-1" d="M23.39,110.83c-.21-.11-.34-.29-.53-.42.05-.14.33-.02.48-.05.03.15.08.27.05.48Z"/>
      <path class="cls-1" d="M23.42,108.27c-1.04-.06-1.43-1.07-1.88-1.51.8-.14,1.44,1.11,1.88,1.51Z"/>
      <path class="cls-1" d="M22.24,108.08c-1.21.32-1.4-.87-2.13-1.21.19-.09.46-.09.71-.11.49.42.88.95,1.41,1.32Z"/>
      <path class="cls-1" d="M20.69,108c-1,.29-1.15-.75-1.71-1.09.88-.18,1.03.88,1.71,1.09Z"/>
      <path class="cls-1" d="M19.27,107.92c-.93.28-1.11-.67-1.65-.97.19-.1.54-.05.77-.11.22.43.54.77.88,1.08Z"/>
      <path class="cls-1" d="M17.9,107.85c-.89.3-1.18-.49-1.59-.85.9-.37,1.06.54,1.59.85Z"/>
      <path class="cls-1" d="M16.53,107.77c-.8.25-1.27-.33-1.54-.79.93-.29,1.05.48,1.54.79Z"/>
      <path class="cls-1" d="M15.05,107.69c-.36.18-.8-.08-1.25-.02.03-.34-.17-.46-.35-.6.75-.43,1.25.27,1.6.61Z"/>
      <path class="cls-1" d="M13.32,107.61c-2.18.09-4.48-.21-6.6-.38.88-.25,2.14-.04,3.39-.08,1.39-.05,2.79-.45,3.21.45Z"/>
      <path class="cls-1" d="M23.43,107.5c-.35-.18-.49-.58-.82-.78.1-.14.46-.02.66-.05.16.17.19.48.17.83Z"/>
      <path class="cls-1" d="M23.34,104.82c-4.37-.22-8.83-.34-13.13-.63,4.46,0,8.95.02,13.2-.2-.04.26.07.67-.07.83Z"/>
      <path class="cls-1" d="M23.32,101.79c-5.04-.57-10.78-.44-15.92-.91,5.07-.46,10.6.04,16-.1-.04.32.07.79-.07,1.01Z"/>
      <path class="cls-1" d="M12.61,98.03c3.39-.26,7.12-.16,10.77-.16.08.14.1.64,0,.77-3.49-.3-7.13-.45-10.76-.61Z"/>
      <path class="cls-1" d="M8.92,97.87c.35-.18.76.09,1.19.01-.1.17-.85-.02-1.19-.01Z"/>
      <path class="cls-1" d="M23.34,95.43c-4.81-.14-9.48-.42-14.15-.71,4.62-.26,9.42.02,14.15-.12,0,.24.15.63,0,.83Z"/>
      <path class="cls-1" d="M27.11,93.75c-.32-1.1.62-1.54,1.21-2.13.48-.46.93-.84,1.21-1.29.14.11.02.46.05.66-.71,1.04-1.69,1.79-2.47,2.76Z"/>
      <path class="cls-1" d="M20.3,91.58c.08-.02,0-.11-.06-.12.91-.13,2.08,0,3.09-.02-.04.37.04.63.05.95-1.07-.09-2.07-.26-3.27-.22-.28-.23-.5-.53-.88-.66.23-.09.92-.12,1.07.07Z"/>
      <path class="cls-1" d="M19.46,92.11c-.79.26-1.22-.33-1.6-.67.84-.08,1.01.5,1.6.67Z"/>
      <path class="cls-1" d="M17.97,92.09c-.76.29-1.05-.39-1.54-.55.7-.23,1.01.42,1.54.55Z"/>
      <path class="cls-1" d="M16.48,92.07c-.63.18-1.11-.28-1.54-.5.64-.36,1.07.32,1.54.5Z"/>
      <path class="cls-1" d="M12.33,91.61c.64-.09.88.19,1.25.37-.52.14-1.37.15-1.25-.37Z"/>
      <path class="cls-1" d="M10.01,91.82c.33-.03.88-.25,1.43-.16.32.05.54.31.77.36.62.14-.76.03-1.07-.01-.5-.07-.69-.23-1.13-.19Z"/>
      <path class="cls-1" d="M14.82,91.99c-.54.23-1.02-.1-1.25-.37.56-.26.82.29,1.25.37Z"/>
      <path class="cls-1" d="M29.55,88.66c.36,1.15-.58,1.56-1.16,2.13-.48.46-.86.87-1.21,1.23-.44-.98.57-1.49,1.16-2.07.48-.47.97-.81,1.21-1.29Z"/>
      <path class="cls-1" d="M27.15,90.42c-.31-1.01.67-1.47,1.21-2,.5-.48.89-.93,1.21-1.35.34,1.14-.47,1.46-1.1,2.07-.55.53-.92.93-1.32,1.29Z"/>
      <path class="cls-1" d="M23.36,88.77c0,.28,0,.56,0,.83-.14-.02-.25-.07-.36-.12-3.61-.16-7.32-.22-10.76-.55-.12,0-.24,0-.36,0-.14.05-.27-.08-.06-.06,3.78-.1,7.72-.04,11.54-.1Z"/>
      <path class="cls-1" d="M27.12,87.92c.8-.82,1.71-1.54,2.47-2.41.13.2.01.65.05.95-.82.78-1.62,1.59-2.41,2.41-.26-.1-.04-.66-.11-.95Z"/>
      <path class="cls-1" d="M27.24,87.09c-.17-.26.09-.59.01-.95.98-.54,1.61-1.44,2.35-2.23.13.18.01.61.05.89-.74.83-1.65,1.49-2.41,2.29Z"/>
      <path class="cls-1" d="M23.33,86.45c-2.99-.44-5.91.12-8.92-.23-1.45-.16-3.3-.71-5.22-.54,4.36-.45,9.53-.07,14.15-.25.09.21.1.8,0,1.01Z"/>
      <path class="cls-1" d="M27.32,85.78c-.18-.31.07-.69.01-1.07.98-.64,1.71-1.54,2.41-2.47.23,1.08-.51,1.52-1.15,2.19-.48.5-.96.91-1.27,1.35Z"/>
      <path class="cls-1" d="M22.84,83.11c-.37.18-.49-.38-.77-.48.34-.16.5.37.77.48Z"/>
      <path class="cls-1" d="M21.94,83.04c-.38.22-.51-.32-.77-.42.32-.16.54.29.77.42Z"/>
      <path class="cls-1" d="M21.29,83.03c-.56.13-1.37,0-2.02.04-.05-.19-.14-.33-.29-.42.53-.26.83.21,1.25.25.19-.09-.21-.22,0-.36.6-.08.7.33,1.07.49Z"/>
      <path class="cls-1" d="M18.79,83s-.02.05-.06.06c-3.11-.05-5.79-.18-8.68-.4-.11.01-.12-.06-.06-.06,1.78.02,4.08-.09,6,.01,1.21.07,2.23-.21,2.79.39Z"/>
      <path class="cls-1" d="M22.63,80.37c0,.07-.11.05-.18.06-.35-.22-.54-.61-.88-.84.45-.08.69.58,1.06.79Z"/>
      <path class="cls-1" d="M21.62,80.3c-.12.14-.49.02-.72.05-.18-.33-.49-.54-.7-.84.89-.14.96.52,1.42.79Z"/>
      <path class="cls-1" d="M20.37,80.29c-.08.14-.41.02-.59.05-.27-.21-.41-.54-.7-.72.71-.29.91.44,1.3.67Z"/>
      <path class="cls-1" d="M19.12,80.27c-.14,0-.28,0-.41,0-.13-.29-.36-.47-.59-.66.54-.22.78.37,1,.67Z"/>
      <path class="cls-1" d="M18.17,80.2c-.08.14-.41.02-.6.05-.13-.29-.36-.47-.59-.66.64-.27.82.41,1.18.61Z"/>
      <path class="cls-1" d="M17.04,80.13c-.52.28-.64-.35-.94-.49.49-.25.65.34.94.49Z"/>
      <path class="cls-1" d="M15.98,80.11c-.6.29-.86-.26-1.18-.43.5-.41.94.2,1.18.43Z"/>
      <path class="cls-1" d="M14.85,80.1c-.48.09-1.23-.05-1.42-.43.28-.13.81-.01,1.19-.04-.02.26.08.39.23.48Z"/>
      <path class="cls-1" d="M13.42,80.02c-1.12.08-2.37-.23-3.57-.28.91,0,2.81-.39,3.57.28Z"/>
      <path class="cls-1" d="M23.26,77.23c-.46.02-.84-.56-1.12-.91.54.14.72.63,1.12.91Z"/>
      <path class="cls-1" d="M22.43,77.22c-.05.13-.33.02-.48.05-.23-.3-.45-.61-.76-.84.47-.02.76.63,1.24.79Z"/>
      <path class="cls-1" d="M21.54,77.15c-.07.14-.38.02-.54.05-.08-.33-.6-.55-.58-.78.53.09.64.59,1.12.73Z"/>
      <path class="cls-1" d="M20.41,77.14c-.88.03-2.54.33-2.67-.57.87-.14,1.05.38,1.66.5.18-.24-.31-.26-.29-.54.76-.11.8.47,1.3.61Z"/>
      <path class="cls-1" d="M17.85,77.1c-2.6.05-4.91-.17-7.31-.33,1.47-.2,3.77-.06,5.47-.11.81-.02,1.5-.15,1.84.44Z"/>
      <path class="cls-1" d="M23.39,76.76c-.18-.08-.24-.28-.41-.36.19-.17.47.08.41.36Z"/>
      <path class="cls-1" d="M23,74.37c-.74.31-.92-.43-1.36-.61.65-.23.88.47,1.36.61Z"/>
      <path class="cls-1" d="M21.75,74.3c-.59.24-.82-.38-1.18-.55.56-.21.75.44,1.18.55Z"/>
      <path class="cls-1" d="M20.62,74.29c-.55.25-.83-.28-1.06-.55.58-.04.66.41,1.06.55Z"/>
      <path class="cls-1" d="M19.32,74.21c-.4.24-.65-.18-.89-.31.32-.35.64.21.89.31Z"/>
      <path class="cls-1" d="M18.19,74.2c-.07.13-.37.02-.54.05-.02-.19-.23-.21-.23-.42.44-.06.46.29.77.36Z"/>
      <path class="cls-1" d="M17.18,74.18c-2.14.05-4.82.12-6.78-.2,1.45-.1,3.42,0,4.99-.06.72-.03,1.39-.18,1.78.26Z"/>
      <path class="cls-1" d="M23.3,74.14c-.14-.17-.42-.21-.47-.48.23-.01.31.13.47.18,0,.1,0,.2,0,.3Z"/>
      <path class="cls-1" d="M20.18,71.48c-.7.29-1.36-.28-1.42-.61.79-.1.93.43,1.42.61Z"/>
      <path class="cls-1" d="M18.76,71.47c-.62.28-.96-.24-1.24-.49.6-.31.82.29,1.24.49Z"/>
      <path class="cls-1" d="M17.51,71.45c-.12.14-.5.02-.71.05.02-.27-.21-.3-.29-.48.48-.23.69.3,1.01.43Z"/>
      <path class="cls-1" d="M16.56,71.44c-.51.17-1.25.04-1.3-.43.71-.13.84.31,1.3.43Z"/>
      <path class="cls-1" d="M15.07,71.42c-1.32.17-2.73-.07-3.98-.17,1.27.04,3.13-.55,3.98.17Z"/>
      <path class="cls-1" d="M20.6,71.49c-.11-.27-.33-.43-.59-.54.62-.42.82.52,1.54.38-.08-.16-.41-.3-.29-.48.46.06.61.43,1.01.55-.5.09-1.07.11-1.67.1Z"/>
      <path class="cls-1" d="M23.33,71.46c-.2,0-.4,0-.6,0-.06-.28-.36-.32-.41-.6.53.01.87.21,1,.6Z"/>
      <path class="cls-1" d="M27.58,69.32c-.22-.08-.08-.82-.11-.9.81-.81,1.74-1.51,2.35-2.53.13.28,0,.81.04,1.19-.79.71-1.46,1.55-2.29,2.23Z"/>
      <path class="cls-1" d="M23.31,68.43c-3.68-.19-7.77-.08-11.36-.2,3.42-.43,7.84-.15,11.42-.22,0,.08,0,.16,0,.24,0,.08,0,.17-.06.18Z"/>
      <path class="cls-1" d="M27.48,68.06c-.13-.18-.02-.61-.05-.89.96-.53,1.68-1.29,2.34-2.11.1.16.07.44.11.65-.75.6-1.62,1.58-2.41,2.35Z"/>
      <path class="cls-1" d="M27.55,66.76c.03-.22-.05-.49-.29-.6.4-.48.9-.83,1.32-1.29.42-.45.82-.92,1.21-1.41.25.94-.52,1.52-1.04,2.07-.44.47-.93.79-1.2,1.23Z"/>
      <path class="cls-1" d="M23.34,66c-.37,0-.75-.01-1.13-.02.08-.42-.39-.59-.35-.78.48-.04.96-.1,1.49-.1,0,.3,0,.6-.01.89Z"/>
      <path class="cls-1" d="M21.56,65.91c-.06.13-.37.02-.54.05-.18-.25-.37-.5-.65-.66.16-.14.57-.01.83-.05,0,.32.21.47.35.66Z"/>
      <path class="cls-1" d="M20.37,65.9c-.49.21-.76-.32-.94-.6.16,0,.32,0,.48,0,.05.3.28.43.47.6Z"/>
      <path class="cls-1" d="M19.3,65.95c-.72.12-.94-.26-1.18-.61.7-.09,1,.2,1.18.61Z"/>
      <path class="cls-1" d="M17.87,65.81c-.41.24-.53-.3-.83-.36.08-.14.41-.02.59-.05.04.17.09.34.23.42Z"/>
      <path class="cls-1" d="M16.86,65.8c.01.05-.02.05-.06.06-1.95,0-3.61-.28-5.41-.42-.92-.13.46,0,.66,0,1.54.09,3.16-.02,4.58-.06.12.1.1.33.23.42Z"/>
      <path class="cls-1" d="M27.39,65.39c-.42-.61.17-.93.55-1.3.65-.64,1.37-1.52,1.93-2.12,0,.2,0,.4,0,.6-.76,1.01-1.67,1.86-2.47,2.83Z"/>
      <path class="cls-1" d="M27.41,63.84c-.3-.77.7-1.34,1.21-1.95.46-.55.81-1.07,1.15-1.53.27,1.01-.63,1.52-1.16,2.13-.45.52-.85.96-1.2,1.35Z"/>
      <path class="cls-1" d="M11.97,62.17c3.79.09,7.49-.22,11.42-.16-.04.26.07.67-.07.83-3.71-.29-7.96-.09-11.35-.67Z"/>
      <path class="cls-1" d="M27.43,62.36c.08-1.13-.27-2.34-.02-3.33.11-.45.78-1,1.14-1.35.48-.46.9-.88,1.32-1.17-.15,1.05.17,1.93-.03,2.73-.11.46-.77,1.07-1.15,1.53-.48.6-.93,1.09-1.27,1.59Z"/>
      <path class="cls-1" d="M12.36,59.62c3.67-.12,7.23-.33,11.06-.28-.04.24.07.64-.07.77-3.61-.22-7.52-.14-11-.49Z"/>
      <path class="cls-1" d="M27.54,57.84c-.26-.88.58-1.44,1.09-1.95.45-.44.87-.86,1.26-1.12,0,.3,0,.6-.01.89-.82.68-1.61,1.4-2.35,2.17Z"/>
      <path class="cls-1" d="M12.51,56.53c.86-.32,2.21-.17,3.45-.2,2.42-.05,5.11-.15,7.5-.33-.04.34.07.83-.07,1.07-3.63-.18-7.55-.07-10.87-.55Z"/>
      <path class="cls-1" d="M27.62,56.18c-.38-.71.53-1.27,1.03-1.71.47-.42.93-.77,1.26-1,0,.24,0,.48-.01.71-.97.45-1.61,1.24-2.29,2Z"/>
      <path class="cls-1" d="M12.14,53.49c1.1-.49,2.31-.1,3.57-.07,2.55.04,5.32-.27,7.85-.08-.04.18.07.51-.07.59-3.45-.47-7.66-.2-11.35-.44Z"/>
      <path class="cls-1" d="M27.65,53.8c-.3-.83.66-1.2,1.15-1.65.47-.44.76-.82,1.03-1.24.13.12.02.49.05.71-.85.61-1.56,1.37-2.23,2.17Z"/>
      <path class="cls-1" d="M29.55,49.12c-.78.35-1.26,1.32-1.92,1.58,0-.23,0-.47.01-.71.77-.64,1.62-1.19,2.23-1.99.13.65,0,1.57.03,2.32-.62.61-1.39,1.53-2.17,2.17-.74-1.69,2.05-1.83,1.83-3.37Z"/>
      <path class="cls-1" d="M12.53,50.76c3.54-.29,7.34-.05,10.94-.34-.08.28.13.67-.07.71-3.53-.22-7.52.02-10.87-.37Z"/>
      <path class="cls-1" d="M27.7,49.28c-.13-.16-.01-.57-.05-.83.8-.57,1.59-1.14,2.16-1.94.14.16.02.57.05.84-.66.71-1.47,1.27-2.17,1.93Z"/>
      <path class="cls-1" d="M12.68,47.91c.39-.27.75-.08,1.19-.04,2.96.23,6.7-.07,9.57.12-.04.12.07.39-.06.42-3.7-.03-7.45-.02-10.7-.49Z"/>
      <path class="cls-1" d="M27.78,47.74c-.46-.74.56-1.17,1.03-1.59.49-.44.74-.89,1.08-1,0,.22,0,.44,0,.66-.57.78-1.39,1.3-2.1,1.93Z"/>
      <path class="cls-1" d="M27.74,46.31c-.38-1.31.81-1.68,1.52-2.36.29-.28.34-.58.66-.65.23,1.2-.51,1.48-1.1,2.01-.41.38-.76.7-1.08,1Z"/>
      <path class="cls-1" d="M23.29,45.42c-3.3-.17-6.86.2-9.75-.3,3.05-.28,6.7-.27,9.87-.24,0,.18.03.71-.12.53Z"/>
      <path class="cls-1" d="M27.76,44.41c-.14-.16-.01-.57-.05-.83.74-.46,1.52-1.21,2.16-1.58,0,.2,0,.4,0,.59-.72.58-1.43,1.19-2.1,1.82Z"/>
      <path class="cls-1" d="M27.78,42.8c-.47-.98.46-1.34,1.03-1.89.44-.43.79-.78,1.02-1.18.04.47.14,1.05.04,1.37-.18.61-1.74,1.21-2.1,1.7Z"/>
      <path class="cls-1" d="M23.39,42.51c-.16,0-.32,0-.47,0,.12-.11.03-.28,0-.41.16,0,.31,0,.47,0,0,.14,0,.28,0,.41Z"/>
      <path class="cls-1" d="M22.67,42.44c-.38.13-1.01,0-1.49.04,0-.14.1-.17.07-.36.54-.18,1.18,0,1.42.32Z"/>
      <path class="cls-1" d="M20.89,42.42c-.26.13-.77.01-1.13.04-.02-.14.11-.13.06-.3.39-.17.91,0,1.07.25Z"/>
      <path class="cls-1" d="M19.41,42.4c-.11.13-.46.02-.66.05.03-.14-.11-.13-.06-.3.38-.06.55.09.71.25Z"/>
      <path class="cls-1" d="M18.33,42.39c-.14.1-.69.09-.83,0,0-.48.75-.16.83,0Z"/>
      <path class="cls-1" d="M16.97,42.43c-.6-.04-1.34.05-1.84-.08-.18-.02-.77.05-.65-.07.85.02,1.57-.07,2.38-.09,0,.12.16.08.12.24Z"/>
      <path class="cls-1" d="M27.58,40.06c.88-.44,1.65-1.32,2.34-1.75,0,.26,0,.51-.01.77-.68.75-1.51,1.34-2.16,2.11-.29-.15-.13-.74-.17-1.13Z"/>
      <path class="cls-1" d="M14.15,39.66c1.24-.06,3.02-.38,4.1,0-1.29.04-2.84.14-4.1,0Z"/>
      <path class="cls-1" d="M19.8,39.37c1.22.2,2.44-.17,3.62.16-.15.31-.95.16-1.43.16-.57,0-1.19.02-1.61-.02-.33-.03-.59.07-.59-.31Z"/>
      <path class="cls-1" d="M19.5,39.67c-.27.11-.98.13-.95-.25.48-.08.65.15.95.25Z"/>
      <path class="cls-1" d="M27.58,39.59c-.23-1.51-.27-3.23-.24-5,1.18-.15,1.87-1.13,2.57-1.57,0,.26,0,.52-.01.77-.7.73-1.62,1.23-2.4,1.88,1.02-.08,1.77-.76,2.39-1.04-.2,1.06.24,1.92.03,2.67-.26.9-1.95,1.46-2.34,2.29Z"/>
      <path class="cls-1" d="M23.46,36.68c-.12.33-.72.15-1.13.17-2.46.07-5.37.19-7.73-.21,2.64.08,5.51-.36,8.38-.14.12,0,.51-.12.47.18Z"/>
      <path class="cls-1" d="M14.33,34.08c2.97-.19,5.97-.35,9.16-.3-.02.16.05.72-.06.59-2.97-.16-6.16-.28-9.09-.29Z"/>
      <path class="cls-1" d="M27.41,34.41c-.14-.2-.01-.65-.05-.95,1.13-.24,1.83-1.25,2.58-1.69,0,.2,0,.4,0,.59-.82.71-1.71,1.34-2.52,2.05Z"/>
      <path class="cls-1" d="M27.43,33.1c-.14-.16-.01-.57-.05-.83,1.09-.38,1.73-1.24,2.58-1.87.12.85-.57,1.18-1.15,1.65-.56.45-.99.76-1.38,1.05Z"/>
      <path class="cls-1" d="M27.5,31.8c-.25-.01-.05-.46-.11-.65,1.18-.28,1.78-1.47,2.58-1.93-.02.65-.64,1.02-1.03,1.35-.49.43-.99.79-1.44,1.23Z"/>
      <path class="cls-1" d="M15.68,30.94c2.37-.3,5.23-.1,7.79-.2.12.2.02.6.05.89-2.72-.13-5.45-.25-7.84-.69Z"/>
      <path class="cls-1" d="M27.45,30.61c-.13-.12-.02-.49-.05-.71,1.06-.53,1.88-1.32,2.58-2.23.13.06.02.37.05.54-.84.82-1.66,1.67-2.59,2.41Z"/>
      <path class="cls-1" d="M27.47,29.48c-.31-.56.33-.71.67-1,.66-.57,1.34-1.38,1.86-1.94.26.83-.58,1.25-1.15,1.77-.56.51-.98.86-1.38,1.17Z"/>
      <path class="cls-1" d="M17.49,28.29c1.85-.25,4.05-.14,6.07-.22.09.15.09.62,0,.77-1.86-.35-4.09-.32-6.06-.55Z"/>
      <path class="cls-1" d="M27.48,28.29c-.13-.16-.02-.57-.05-.83.98-.7,1.89-1.47,2.64-2.4.13.12.01.49.05.71-.84.88-1.73,1.72-2.65,2.52Z"/>
      <path class="cls-1" d="M27.5,26.8c-.14-.08-.02-.41-.06-.59,1.16-.36,1.9-1.46,2.7-1.99-.22.62-.82.95-1.27,1.35-.45.41-.92.82-1.38,1.23Z"/>
      <path class="cls-1" d="M15.02,25.88c2.05-.31,5.08-.27,7.49-.27.28,0,.78-.14.95.19-.03.37-.43.12-.59.11-2.5-.05-5.54-.03-7.85-.03Z"/>
      <path class="cls-1" d="M27.51,25.67c-.05-.03-.1-.05-.12-.12.18-.71.91-1.09,1.39-1.59.48-.51.97-1.05,1.44-1.41,0,.18,0,.36,0,.53-.84.93-1.8,1.72-2.71,2.58Z"/>
      <path class="cls-1" d="M27.53,24.6c-.26-.13-.04-.74-.11-1.07,1.1-.6,1.99-1.74,2.82-2.4-.05.89-.79,1.34-1.27,1.83-.51.52-1.01,1.04-1.45,1.64Z"/>
      <path class="cls-1" d="M15.71,23.1c2.23-.34,5.26-.19,7.73-.09-.04.16.07.47-.07.53-2.6-.11-5.25-.16-7.67-.45Z"/>
      <path class="cls-1" d="M30.27,19.35c.21,1.21-.72,1.69-1.34,2.24-.52.47-.98.88-1.38,1.23-.5-1,.88-1.61,1.39-2.12.56-.58.87-1.11,1.32-1.35Z"/>
      <path class="cls-1" d="M27.51,21.09c-.18-1.13.81-1.62,1.39-2.18.53-.52.9-.99,1.27-1.47.34,1.28-.48,1.71-1.22,2.42-.57.56-1.17,1.18-1.44,1.23Z"/>
      <path class="cls-1" d="M17.11,20.43c1.92-.2,4.32-.23,6.36-.1,0,.12,0,.24,0,.36-2.05-.15-4.42-.19-6.36-.26Z"/>
      <path class="cls-1" d="M27.59,19.55c-.39-.92.57-1.28,1.03-1.71.62-.58,1.09-1.37,1.56-1.65.12,1-.73,1.53-1.27,2.06-.49.48-.98.87-1.32,1.29Z"/>
      <path class="cls-1" d="M16.37,17.87c2.19-.22,4.8-.01,7.13-.09-.04.22.07.6-.07.71-2.44-.12-4.95-.18-7.07-.62Z"/>
      <path class="cls-1" d="M27.67,17.95c-.31-.97.72-1.46,1.27-2.01.51-.5.87-.95,1.26-1.17.08.88-.71,1.46-1.21,1.95-.47.46-.95.87-1.32,1.23Z"/>
      <path class="cls-1" d="M27.64,15.68c.98-.58,1.74-1.38,2.46-2.23.2.67-.63,1.34-1.09,1.77-.48.45-.99.77-1.27,1.17-.25-.03-.05-.5-.11-.72Z"/>
      <path class="cls-1" d="M23.59,15.7c-2.2-.26-4.87-.07-6.89-.5,1.94-.4,4.71.05,6.84-.15.11.13.03.43.05.65Z"/>
      <path class="cls-1" d="M27.7,14.97c-.13-.24-.01-.73-.05-1.07.93-.67,1.66-1.55,2.52-2.29.22,1.24-.52,1.5-1.15,2.13-.54.52-.9.93-1.32,1.23Z"/>
      <path class="cls-1" d="M27.79,13.13c-.34-.94.63-1.32,1.15-1.83.48-.47.77-.89,1.14-1.06.22.77-.61,1.3-1.09,1.77-.46.45-.88.8-1.2,1.11Z"/>
      <path class="cls-1" d="M31.12,13.05c-.11-.14-.07-.64.01-.77.11.14.07.63-.01.77Z"/>
      <path class="cls-1" d="M17.09,12.35c2.14.02,4.23.13,6.54.08,0,.16,0,.32,0,.48-1.46-.03-3.25-.09-4.81-.18-.62-.03-1.31-.05-1.72-.38Z"/>
      <path class="cls-1" d="M31.13,11.69c-.18-.29-.22-1.12.02-1.31.1.31.08,1.01-.02,1.31Z"/>
      <path class="cls-1" d="M27.87,11.47c-.5-1.2.35-1.63.98-2.25.41-.41.8-.74,1.02-1.12.46,1.16-.18,1.64-.86,2.31-.42.42-.91.68-1.14,1.06Z"/>
      <path class="cls-1" d="M17.72,9.86c1.7-.32,3.96-.07,5.89-.17,0,.16,0,.32,0,.48-1.91-.15-3.97-.16-5.88-.31Z"/>
      <path class="cls-1" d="M31.03,10.02c-.29-.49-.1-1.11.14-1.48.08.38.15,1.28-.14,1.48Z"/>
      <path class="cls-1" d="M27.83,9.27c-.13-.08-.02-.41-.05-.6.71-.63,1.38-1.3,1.99-2.06.12.1.01.42.11.54-.66.72-1.36,1.41-2.04,2.12Z"/>
      <path class="cls-1" d="M30.87,8.53c-.15-.8-.25-1.7.26-2.14.12.55,0,1.33.1,1.9.02.2-.32-.02-.36.23Z"/>
      <path class="cls-1" d="M18.46,7.13c1.57-.25,3.51-.18,5.17-.18,0,.2,0,.4,0,.59-1.73-.14-3.35-.37-5.17-.42Z"/>
      <path class="cls-1" d="M27.92,7.48c-.33-1.34,1.31-1.7,1.7-2.71.49,1.2-1.25,1.95-1.7,2.71Z"/>
      <path class="cls-1" d="M30.72,6.09c-.35-.6.25-.95.38-1.42.21.57-.05,1.19-.38,1.42Z"/>
      <path class="cls-1" d="M27.94,5.58c-.07,0-.11-.01-.12-.06.4-.85,1.07-1.43,1.63-2.12.01,1.03-1.11,1.38-1.51,2.18Z"/>
      <path class="cls-1" d="M25.56,5.26c.03-1.28-.54-2.39-.37-3.51-.2-.04-.3-.49-.17-.66.32-.09.3.38.41.66.09.23.29.49.35.72.08.35,0,.98.1,1.37.06.24.24.4.23.54-.03.39-.53.57-.55.89Z"/>
      <path class="cls-1" d="M23.66,5.11c-1.62-.22-3.24-.44-4.93-.6,1.59-.09,3.34-.03,4.94-.12,0,.24,0,.48-.01.71Z"/>
      <path class="cls-1" d="M30.62,4.49c-.37-.5-.05-1.27.2-1.66.24.26.23.75.34,1.13-.25.11-.43.28-.54.53Z"/>
      <path class="cls-1" d="M27.77,4.33c-.4-1.11.82-1.44,1.04-2.31.23.13.24.47.41.66-.44.6-.97,1.09-1.44,1.65Z"/>
      <path class="cls-1" d="M27.61,2.84c-.49-.45-.17-1.13.2-1.48.28,0,.59-.03.71.12.02.56-.71.83-.91,1.36Z"/>
      <path class="cls-1" d="M23.77,1.37c-.07.28.15.47,0,.65-1.3-.16-2.96-.28-4.04-.47,1.37-.04,2.64-.18,4.05-.19Z"/>
      <path class="cls-1" d="M27.09,1.41c-.16.02-.05-.22-.18-.24,0-.13.25-.02.36-.05-.05.1-.15.17-.18.29Z"/>
      <path class="cls-1" d="M26.35,146.18c.62-.85,1.82-1.62,2.53-2.59.04.29-.29.52-.49.71-.62.6-1.4,1.25-2.04,1.88Z"/>
      <path class="cls-1" d="M21.57,143.62c-.43-.13-1.01-.62-1.42-.97.69-.12.93.7,1.42.97Z"/>
      <path class="cls-1" d="M29.02,53.28s.63-.75.84-.76c-.14.4-.59.48-.84.76Z"/>
    </g>
  </g>
</svg>