<?xml version="1.0" encoding="UTF-8"?>
<svg id="_レイヤー_2" data-name="レイヤー 2" xmlns="http://www.w3.org/2000/svg" viewBox="0 0 101.11 185.89">
  <defs>
    <style>
      .cls-1 {
        fill: #fff;
      }

      .cls-1, .cls-2 {
        fill-rule: evenodd;
      }

      .cls-2 {
        fill: #0f0b0b;
      }
    </style>
  </defs>
  <g id="Layer_1" data-name="Layer 1">
    <g>
      <path class="cls-2" d="M61.64,119.3c.32,3.75.75,7.51,1.05,11.21.14,1.78.32,3.73,0,5.86-.32,2.18-.47,4.48-1.47,6.42-.5.98-1.36,1.63-2.09,2.39-.66.7-1.05,1.67-1.63,2.46-.57.78-1.19,1.49-1.65,2.34-1.48,2.75-2.63,6.8-2.57,9.64.04,2.01.56,3.57,1.42,5.11,1.33,2.39,2.86,4.27,5.59,5.78.46.25.94.45,1.38.71.4.25.75.62,1.15.88,1.87,1.19,4,1.3,6.23,1.71,2.27.41,4.28.2,6.3.72.85.22,1.4.86,1.98,1.49,1.61,1.75,2.65,3.84,4.33,5.45.54.52,1.31.95,2.03,1.5.61.47,1.19,1.17,1.89,1.58,1.47.87,3.96,1.68,5.44,1.17.72-.25,2.04-1.16,2.25-2.16.39-1.76-1.8-2.61-3.06-3.59-.88-.67-1.82-1.81-2.42-2.57-.98-1.25-2.08-2.8-2.93-4.2-.31-.51-.69-1.07-.78-1.54-.17-.86-.12-1.97-.17-2.95-.05-.96-.12-2.02.13-2.98.2-.77.53-1.43.71-2.15.94-3.74.94-7.13.19-10.01-.29-1.1-.63-2.38-1.19-3.32-.3-.52-.82-1.05-1.24-1.56-1.3-1.58-2.73-3.11-4.76-4.22-.89-.49-1.71-.64-2.37-.96-.75-.36-1.15-.85-1.72-1.35-1.15-1-1.89-1.93-2.24-3.34-.32-1.29-.43-2.72-.57-4.2-.4-4.29-.47-9.02-.62-13.21-.05-1.44-.25-2.88-.28-4.35-.25-10.72-.63-20.19-1.59-30.73,1.71-2.57,2.98-5.59,4.41-8.49,1.42-2.9,3.07-5.7,4.38-8.62,1.32-2.95,2.75-5.89,4.18-8.92,1.43-3,2.57-6.18,3.97-9.39,1.32-3.03,2.51-6.38,3.88-9.48,1.38-3.12,2.8-6.19,4.12-9.11,1.29-2.85,2.77-5.86,4.03-9.2,1-2.67,1.94-4.81,2.88-7.18.35-.88.86-1.88.9-2.57.03-.58-.76-1.51-1.1-1.63-1.38-.5-2.45.53-3.31,1.54-.8.95-1.5,1.74-2.11,2.85-1.24,2.27-2.7,4.28-3.92,6.09-2.78,4.16-5.62,7.78-8.11,12.11-1.27,2.2-2.51,4.3-3.88,6.35-1.37,2.06-2.73,4.11-3.96,6.26-.63,1.1-1.2,2.22-1.88,3.28-1.98,3.07-3.97,6.3-5.69,9.82-.02-3.16-.18-6.55-.29-9.62-.02-.79-.12-1.77-.03-2.44.04-.28.29-.53.3-.8,0-.24-.23-.3-.3-.57-.18-.63-.02-1.57-.04-2.2-.27-6.77-.63-13.69-.8-20.43-.09-3.78-.03-7.77-.36-11.71-.3-3.65-.43-8.07-1.06-11.57-.7-.07-.78-.49-1.58-.66-.58-.12-1.46-.09-2.13,0-.28.04-.55.17-.84.22-.37.06-.47-.07-.71.2-.43.48-.62,1.78-.75,2.67-.92,6.2-1.01,12.36-1.61,18.22-.34,3.34-.58,6.85-.83,10.35-.25,3.47-.46,6.93-.54,10.19-.16,6.69-.59,13.5-1.01,20.35-.37,5.96-.39,11.86-.55,17.65-.03.91.06,1.92-.12,2.57-.26.91-1.1,2-1.75,3.02-1.91,3.04-3.94,5.71-5.64,8.47-2.34,3.79-4.84,7.82-7.28,11.71-1.21,1.93-2.37,3.89-3.66,5.82-3.18,4.77-5.93,9.73-9.47,13.88-.8.94-1.7,2.24-2.81,2.05-.55-.09-1-.25-1.57-.29-1.69-.14-3.34-.53-4.93-.54-4.19-.04-7.46,1.33-10.5,3.39-1.44.98-2.82,2.35-4.09,3.92-1.33,1.63-1.88,4.52-2.1,6.53-.25,2.32-.15,4.27.52,5.9.17.42.42.74.66,1.15.23.4.3.86.5,1.28.19.42.55.71.85,1.09.29.37.48.79.71,1.16.45.71,1.11,1.44,1.78,2.13.67.7,1.29,1.53,1.92,2.06.71.59,1.82,1,2.76,1.43,2.25,1.02,4.2,1.46,6.28,1.54,1.05.05,2.1.04,2.87-.08,1.68-.25,3.25-1.19,4.82-1.86.88-.37,1.59-.55,2.34-1.07.74-.51,1.34-1.23,1.94-1.9,1.32-1.5,2.48-2.7,3.16-4.96,1.42-4.69.78-8.2.48-11.93-.15-1.81-.54-3.74.35-6.05.01-.04.02-.08.03-.11,1.79-3.33,4.32-6.03,6.33-8.8,4.17-5.74,8.07-12.51,12.59-17.74,1.6-1.85,3.48-3.94,5.48-5.21.34-.22,1.91-1.2,2.1-1.08.08.05.38.84.46,1.21.74,3.08,1.03,6.55,1.31,9.57.34,3.68.95,7.48,1.26,11.09ZM64.8,149.92c1.69-1.08,3.25-1.63,5.22-1.79.6-.05,1.05-.04,1.74.11,2.27.5,3.54,1.78,4.71,3.21,1.34,1.63,2.05,2.92,2.24,5.12.07.85-.14,1.92-.2,3.01-.04.68.02,1.58-.19,2.2-.18.53-.71,1.17-1.12,1.73-.4.55-.78,1.17-1.18,1.54-.48.44-1.36.79-2.03,1.04-.73.28-1.52.59-2.21.63-.46.03-.94-.08-1.45-.08-1.97,0-3.48.35-5.44-.82-.61-.36-1.27-1-1.91-1.52-1.38-1.12-1.89-1.93-2.43-3.52-.22-.65-.47-1.32-.47-1.98,0-.37.13-.76.18-1.19.2-1.68.12-3.16,1.16-4.8.72-1.14,2.25-2.18,3.36-2.89ZM9.8,148.6c-1.3-1.46-1.64-3.64-1.92-5.79-.1-.76-.29-1.5-.18-2.13.39-2.16,1.76-3.59,2.76-4.61,1.6-1.63,3.08-2.64,5.53-2.82,1.25-.09,2.19-.17,3.62.15.84.19,1.89.93,2.57,1.49,1.08.88,2.02,1.59,2.44,2.69.48,1.25.56,4.02-.14,5.94-.42,1.14-1.14,2.44-1.93,3.44-.44.55-1.11,1.12-1.62,1.64-.58.59-1.15,1.28-1.61,1.59-.52.35-2.02.87-2.66.97-2.68.41-5.18-.67-6.86-2.55Z"/>
      <path class="cls-1" d="M62.53,1c0,.29-.25.58-.44.87-.54.81-1.18,1.81-1.7,2.68-.16-1.3.7-3.72,2.14-3.55Z"/>
      <path class="cls-1" d="M63.42,1.57c-.97,1.52-2.01,2.91-3.03,4.35.66-1.62,1.79-3.1,2.69-4.57.18.04.14.2.35.22Z"/>
      <path class="cls-1" d="M63.69,1.89c.2.23.27.52.34.81-.59.84-1.23,1.6-1.85,2.4-.21.02-.4.1-.66.04.74-1.06,1.42-2.22,2.17-3.25Z"/>
      <path class="cls-1" d="M64.07,2.95c.04.63.1,1.25.07,1.92-.53.05-1.05.14-1.55.24.33-.68,1.06-1.36,1.48-2.15Z"/>
      <path class="cls-1" d="M99.63,13.77c-.14.7-.38,1.94-1.06,1.93.04.24.4-.09.4.06-.07.38-.26.54-.34.91-.4.06-.84.06-1.19.23.54-1.06,1.32-2.4,2.19-3.13Z"/>
      <path class="cls-1" d="M81.05,39.94c2.06-3.42,3.97-6.97,6.28-10.18.76-1.06,1.37-2.24,2.08-3.33,2.84-4.4,5.45-9.05,8.84-12.6-1.28,2.19-3.04,4.47-4.43,6.83-.18.31-.29.75-.67.86.1.74-.64,1.18-1.13,1.38-.05.3.35.13.4.24-.47.75-.82,1.24-1.27,2.04-.09.12-.29.02-.39.12-.15.18.11.15.1.26-1.69,2.6-3.59,5.32-5.35,8.09-.59.93-1.03,2.07-1.71,2.74-.05.05-.26.14-.3.21-.2.37.16-.09.2-.06.12.12-.45.85-.53.96-.26.4-.47.69-.64.93-.54.78-.73,1.58-1.46,1.51Z"/>
      <path class="cls-1" d="M64.13,5.69c.19.26-.02.74.1,1.03-.72.19-1.54.17-2.32.24-.08-.32-.04-.7-.03-1.07.77-.03,1.54-.06,2.25-.2Z"/>
      <path class="cls-1" d="M98.45,17.09c-.04.28-.21.35-.25.63-.48.1-.99.13-1.44.27-.05-.29.31-.54.42-.82.5.12.79-.17,1.27-.09Z"/>
      <path class="cls-1" d="M64.19,8.43c-.71.05-1.45.07-2.13.19-.06-.27-.12-.55-.02-.9.71,0,1.46.06,2.05-.15.23.18.12.54.1.86Z"/>
      <path class="cls-1" d="M97.97,18.07c.1.25-.22.44-.23.76-.58.05-1.17.09-1.71.19.29-.99,1.24-.73,1.94-.95Z"/>
      <path class="cls-1" d="M59.43,7.52c.13,5.55-.48,11.5-.94,17.36-.32,5.79-.48,11.5-.79,17.28-.18.47-.48.74-.66,1.22-.02-5.84.43-11.82,1.02-17.86.15-1.47.29-2.99.29-4.47,0-1.52.22-3,.36-4.51.28-3.01.26-6.03.72-9.02Z"/>
      <path class="cls-1" d="M97.45,19.21c.14.21-.28.81-.4,1.12-.64-.1-1.18,0-1.81-.07.15-.29.33-.51.48-.8.59-.06,1.16-.16,1.73-.25Z"/>
      <path class="cls-1" d="M64.18,9.25c.18.27.07.69.1,1.04-.68.12-1.36.24-2.13.19,0-.39-.08-.75-.07-1.15.72.01,1.46.07,2.09-.08Z"/>
      <path class="cls-1" d="M96.65,21.28c-.66.08-1.37.04-2.04.09-.07-.19.25-.38.31-.62.62.03,1.42-.06,1.94.05-.03.24-.17.25-.2.47Z"/>
      <path class="cls-1" d="M64.33,12.08c-.71.04-1.39.12-2.11.13-.02-.28-.03-.56-.04-.84.68-.06,1.4-.04,2.02-.22.26.19.08.62.13.93Z"/>
      <path class="cls-1" d="M96.09,22.53c-.77-.02-1.49.04-2.26.03.15-.29.31-.56.48-.8.65-.08,1.42.04,2.04-.09.19.17-.2.61-.26.87Z"/>
      <path class="cls-1" d="M64.28,14.2c-.65.08-1.34.1-2,.16-.03-.35-.04-.71-.03-1.07.68-.04,1.42.05,2-.16.18.27.09.68.03,1.08Z"/>
      <path class="cls-1" d="M95.89,23c-.13.27-.23.58-.37.84-.85-.05-1.66-.05-2.48-.04.15-.26.31-.51.46-.75.81,0,1.58-.06,2.38-.05Z"/>
      <path class="cls-1" d="M95.33,24.25c-.09.43-.29.64-.38,1.07-.92-.01-1.87-.1-2.76-.07.04-.32.43-.73.62-1.06.84.02,1.68.02,2.53.06Z"/>
      <path class="cls-1" d="M64.25,15.08c.12.33.04.77.07,1.14-.69.05-1.28.27-2.02.22.02-.39-.03-.74-.01-1.13.63-.12,1.3-.18,1.97-.23Z"/>
      <path class="cls-1" d="M94.45,26.59c-1.05-.09-2.05-.09-3.09-.16.16-.32.35-.59.55-.84.91,0,1.88.12,2.76.06.24.25-.21.59-.22.94Z"/>
      <path class="cls-1" d="M64.29,17.1c.07.34.04.74.02,1.13-.66.05-1.27.18-1.99.11.08-.35-.02-.6.04-.93.63-.13,1.49.17,1.93-.31Z"/>
      <path class="cls-1" d="M93.93,27.91c-1.13,0-2.34-.12-3.46-.1.2-.39.43-.73.67-1.04,1.04.13,2.05.2,3.02.2.23.25-.2.62-.22.94Z"/>
      <path class="cls-1" d="M64.31,19.95c-.69,0-1.29.13-1.99.11.08-.28-.06-.45.05-.75.66-.05,1.29-.13,1.99-.11-.08.29.06.45-.05.76Z"/>
      <path class="cls-1" d="M93.73,28.38c-.13.21-.22.49-.34.73-1.21-.03-2.5-.2-3.64-.1,0-.29.36-.62.51-.91,1.21.2,2.29.14,3.47.28Z"/>
      <path class="cls-1" d="M92.7,30.62c-1.42-.28-2.63-.17-3.91-.18.2-.48.49-.77.72-1.21,1.24.14,2.44.21,3.61.21.16.29-.34.77-.41,1.18Z"/>
      <path class="cls-1" d="M64.28,20.83c.12.28.1.65.05,1.02-.69-.04-1.3.06-1.93.12-.15-.24,0-.64-.08-.91.6-.17,1.38-.03,1.96-.23Z"/>
      <path class="cls-1" d="M84.68,38.73c-.45-.04-.84.02-1.25.03,1.7-2.68,3.45-5.28,5.14-7.97,1.35.1,2.68.13,3.98.14-1.82,3.78-3.61,7.63-5.3,11.65-.21-.07-.4-.12-.56-.11.98-2.62,2.05-5.06,3.07-7.6-1.49,1.99-2.56,5.06-3.64,7.54-1.64-.17-3.31-.41-4.66-.05.6.25,1.41.2,2.18.24.78.04,1.57.09,2.32.17-.12.34-.26.64-.4.94-1.67-.06-3.42-.28-4.76.27.27.22.67.09,1.04.08,1.09-.03,2.37,0,3.53.06-.13.43-.35.7-.47,1.16-.72.06-1.52-.07-2.28-.1-.76-.03-1.53-.11-2.17.11.55.21,1.32.23,2.05.27.71.03,1.47.04,2.12.05.13.24-.3.75-.4,1.12-1.86-.37-3.57-.44-5.32-.6.98-1.49,1.84-3.18,2.75-4.79,1.46-.1,3.16.25,4.67.23-1.5-.58-2.98-.41-4.39-.56.15-.31.35-.53.53-.79,1.33-.14,2.96.27,4.21-.03-1.33-.47-2.68-.25-3.97-.38.18-.29.38-.52.55-.84.53-.01,1.06-.01,1.45-.27Z"/>
      <path class="cls-1" d="M64.39,22.64c.02.37.06.73.01,1.13-.69.08-1.38.14-2.11.13.03-.38.02-.74.04-1.11.69-.05,1.35-.14,2.06-.15Z"/>
      <path class="cls-1" d="M64.45,24.79c.1.22.04.52.06.79-.78-.02-1.47.14-2.28.08.07-.24-.02-.38.07-.63.74-.03,1.51,0,2.15-.24Z"/>
      <path class="cls-1" d="M64.7,27.47c-.74.26-1.66.18-2.47.32-.06-.3-.02-.65,0-1,.8-.03,1.54-.19,2.36-.17,0,.31.02.6.1.86Z"/>
      <path class="cls-1" d="M64.66,28.58c.2.18.1.52.11.81-.86.12-1.72.24-2.63.27-.02-.25.05-.54,0-.77.78-.21,1.69-.17,2.52-.3Z"/>
      <path class="cls-1" d="M64.8,30.46c.13.42,0,.97.11,1.4-.88.16-1.82.22-2.79.22,0-.43,0-.84.04-1.29.94.02,1.8-.13,2.64-.33Z"/>
      <path class="cls-1" d="M64.91,33.04c.05.33.09.68.03,1.07-.93.02-1.8.13-2.75.11-.04-.3-.04-.62,0-.95.95,0,1.87-.06,2.74-.24Z"/>
      <path class="cls-1" d="M65.02,36.39c-1.04-.17-1.82.17-2.81.1.04-.38.03-.74-.03-1.08.83-.26,1.87-.13,2.71-.36.23.35.07.9.12,1.34Z"/>
      <path class="cls-1" d="M80.99,40.16c.06.08.11.1.22.06-.07.54-.46.98-.73,1.44-2.03,3.36-4.09,6.8-6.14,10.1-2.35,3.78-4.86,7.51-7.07,11.42-.42-.99.31-1.33.89-2.16.87-1.25,1.8-2.77,2.59-4.07,1.13-1.84,2.37-3.9,3.28-5.76,1.43-2.92,3.45-5.54,5.15-8.21.62-.96,1.27-2.24,1.81-2.83Z"/>
      <path class="cls-1" d="M87.08,42.71c.04.35-.31.72-.4,1.12-.22-.11-.33,0-.56-.11.12-.34.26-.64.4-.94.22.04.43.06.55-.07Z"/>
      <path class="cls-1" d="M65.09,38.3c-.94.08-1.86.21-2.8.27-.04-.3-.09-.59-.01-.95.9-.12,1.84-.18,2.71-.36.19.26.06.7.1,1.04Z"/>
      <path class="cls-1" d="M85.94,45.5c-.22-.1-.37-.07-.56-.11.2-.42.39-.86.57-1.31.22.12.48-.11.57.05-.19.46-.38.93-.59,1.36Z"/>
      <path class="cls-1" d="M65.08,39.31c.1.38.09.83.09,1.27-1.02-.06-1.84.25-2.84.21.03-.42-.05-.8.02-1.24.93-.04,1.84-.13,2.73-.24Z"/>
      <path class="cls-1" d="M84.06,47.01c-.1.25-.19.49-.32.67-1.82-.27-3.65-.54-5.34-.55-.08-.21.21-.46.31-.62,1.81.2,3.62.42,5.36.5Z"/>
      <path class="cls-1" d="M65.28,42.56c-.85.3-1.93.18-2.84.38-.17-.29-.04-.73-.08-1.09.95-.09,1.9-.19,2.82-.33.17.28,0,.73.1,1.04Z"/>
      <path class="cls-1" d="M83.53,47.97c.17.19-.26.63-.3.98-1.97-.25-3.92-.49-5.77-.51.21-.37.43-.72.67-1.04,1.77.14,3.65.47,5.39.56Z"/>
      <path class="cls-1" d="M65.22,43.73c.17.27.12.67.1,1.04-.96.11-1.99.08-2.91.24-.12-.3-.06-.7-.03-1.07.99,0,1.89-.14,2.84-.21Z"/>
      <path class="cls-1" d="M57.57,43.19c.06,0,.1.04.09.09-.27,3.09-.38,7.21-.56,10.66-.03.55-.12,1.19-.13,1.79-.01.63.08,1.27-.04,1.71-.18.64-.81,1.14-.84,1.82.42,0,.51-.64.76-.95.29.87-.6,1.68-.92,2.44.08-4.43.5-9.57.84-14.31.09-1.23.03-2.26.81-3.25Z"/>
      <path class="cls-1" d="M65.47,46.82c-1.03.1-2.09.18-3.15.23.04-.32-.02-.59.04-.93,1.03-.09,2.03-.22,3.1-.25-.08.36.04.61,0,.95Z"/>
      <path class="cls-1" d="M65.52,49.03c-.42-.07-.72.08-1.13.02.3-.42.57-.92,1.03-1.05.24.24.12.66.1,1.04Z"/>
      <path class="cls-1" d="M64.63,48.05c-.08.37-.55.73-.79,1.06-.5.01-1,.01-1.45.09-.14-.28-.05-.67-.05-1.02.76-.05,1.55-.05,2.29-.13Z"/>
      <path class="cls-1" d="M65.62,50.06c0,.35-.02.71.05,1.02-1.03.11-2.06.23-3.15.23.25-.43.58-.72.86-1.1.74-.06,1.44-.19,2.24-.15Z"/>
      <path class="cls-1" d="M62.86,50.18c.09.14-.35.7-.59.77.02-.23.06-.46.02-.64.12-.18.41-.03.57-.13Z"/>
      <path class="cls-1" d="M65.58,52.12c.17.25.1.62.06.97-1.14.04-2.19.26-3.38.22-.01-.34.04-.71.03-1.06,1.11-.01,2.2-.08,3.29-.13Z"/>
      <path class="cls-1" d="M65.71,55.42c-.35-.11-.75.08-.94-.23-.65.46-1.69.18-2.48.38-.18-.28.05-.79-.08-1.09,1.04-.29,2.39,0,3.42-.33.17.35.07.84.09,1.27Z"/>
      <path class="cls-1" d="M65,56.39c0,.31-.64.83-.9,1.21-.3-.03-.54.06-.84.04.47-.62.89-1.34,1.74-1.25Z"/>
      <path class="cls-1" d="M60.98,55.41c-.02.5.16,1.07,0,1.54-.11.35-.56.68-.85,1.04-.82,1.03-1.62,2.36-2.46,3.22-.02-1.16,1.05-2.15,1.71-3.09.59-.86,1.18-1.73,1.59-2.71Z"/>
      <path class="cls-1" d="M63.36,56.54c-.03.29-.46.55-.62.88-.09-.19.21-.6-.09-.68-.1.21-.25.53-.46.75-.06-.25-.03-.56.03-.88.4,0,.78-.02,1.15-.07Z"/>
      <path class="cls-1" d="M64.49,58.66c-.08.4-.56.77-.77,1.19-.15,0-.32-.04-.43.05.07-.4.52-.84.77-1.19.12-.05.32.03.43-.05Z"/>
      <path class="cls-1" d="M60.87,57.92c.43,1.33-.86,2.37-1.63,3.42-.6.82-1.17,1.55-1.64,2.29-.22-1.26.77-2.23,1.61-3.36.62-.84,1.19-1.58,1.66-2.34Z"/>
      <path class="cls-1" d="M62.09,59.95c-.26-.77.29-1.32,1.01-1.17.13.37-.5.75-.65,1.16-.14-.04-.27-.05-.36,0Z"/>
      <path class="cls-1" d="M65.66,60.85c.04.31.1.61,0,1-.33-.03-.64,0-.91.08.1-.41.66-.7.92-1.08Z"/>
      <path class="cls-1" d="M65.18,60.88c-.55.67-1.13,1.29-2.12,1.14.46-.84,1.12-1.31,2.12-1.14Z"/>
      <path class="cls-1" d="M60.8,60.09c.37,1.42-.97,2.38-1.74,3.38-.61.81-1.12,1.58-1.64,2.29-.23-1.3.89-2.32,1.68-3.4.6-.82,1.19-1.57,1.7-2.27Z"/>
      <path class="cls-1" d="M62.84,61c-.12.36-.37,1.18-.87,1.1-.09-.46.09-.75.38-1.07.17,0,.35.03.48-.03Z"/>
      <path class="cls-1" d="M56.84,59.9c.23,1.05-.53,1.93-1.02,2.77-.04-.55.05-1.18.06-1.76.13.04.14.15.27.08.25-.31.45-.73.69-1.09Z"/>
      <path class="cls-1" d="M76.69,66.09c-.02.41-.4.89-.58,1.31-.26-.23-.63-.17-.98-.3.17-.33.34-.66.49-1.03.31-.07.75.1,1.06.03Z"/>
      <path class="cls-1" d="M65.72,63c-.61.51-.96,1.49-1.93,1.31.59-.54.94-1.53,1.93-1.31Z"/>
      <path class="cls-1" d="M74.42,65.93s.07.02.11.03c-.16.31-.34.61-.47.98-2.34-.32-4.67-.62-6.81-.58-.12-.23-.09-.75,0-.95,2.39.17,4.79.34,7.18.52Z"/>
      <path class="cls-1" d="M62.04,64.43c0-.34.02-.7-.05-1.02.34-.1.62-.31,1.07-.21-.08.05-.12.17-.15.31.32-.09.84-.52,1.39-.47,0,.42-.77.88-1.06,1.33-.39.03-.78.08-1.2.05Z"/>
      <path class="cls-1" d="M65.64,63.68c.13.09.04.31.03.48-.11.05-.29-.04-.37.06-.08-.2.27-.34.34-.55Z"/>
      <path class="cls-1" d="M76.08,67.5c-.16.31-.34.61-.48.98-.33-.06-.64-.08-1.01-.19.11-.32.29-.54.39-.89.38.05.73.05,1.1.1Z"/>
      <path class="cls-1" d="M56.68,61.98c.3.9-.62,1.62-.92,2.44-.13-.37.06-.91-.02-1.31.45-.12.65-.71.93-1.14Z"/>
      <path class="cls-1" d="M73.85,67.24c-.12.37-.32.59-.46.93-2.11-.24-4.16-.36-6.23-.53.12-.39-.07-.83.09-1.1,2.17.18,4.35.37,6.6.69Z"/>
      <path class="cls-1" d="M65.75,65.26c.19.31.06.79.05,1.2-1.22.05-2.38.2-3.61.21-.04-.33-.04-.67-.12-.98,1.18-.24,2.65.09,3.68-.43Z"/>
      <path class="cls-1" d="M75.35,68.76c.13.18-.28.77-.42,1-.36-.11-.66-.11-1.01-.19.12-.33.3-.56.44-.87.36.09.68.09.98.06Z"/>
      <path class="cls-1" d="M73.03,68.59c.16.18-.27.66-.39.89-1.86-.19-3.63-.22-5.42-.28-.03-.36-.04-.74-.01-1.13,1.95.2,3.85.3,5.82.52Z"/>
      <path class="cls-1" d="M56.61,63.97c.26,1.1-.69,2.01-.95,2.96.43.04.53-.53.78-.83.29.82-.41,1.7-.95,2.14.11-1.05.13-2.07.17-3.08.37-.3.63-.8.95-1.19Z"/>
      <path class="cls-1" d="M74.83,70.08c-.2.22-.27.69-.5.86-.4-.11-.73-.11-1.08-.15.15-.26.29-.55.43-.82.42.1.75.05,1.15.11Z"/>
      <path class="cls-1" d="M65.9,68.68c-1.15.12-2.33.19-3.47.31-.1-.28-.09-.62-.06-.97,1.1-.16,2.31-.09,3.4-.27.23.21.19.57.13.93Z"/>
      <path class="cls-1" d="M72.46,69.89c-.15.26-.29.54-.43.82-1.47-.12-2.98-.31-4.29-.11,1.28.29,2.77.25,4.14.42-.12.26-.26.48-.35.78-1.32.02-2.81-.27-3.98.04,1.18.37,2.51.28,3.68.34,0,.25-.29.69-.46.93-1.1-.01-2.24-.11-3.19.16.92.23,2.04.07,3.03.15-.1.44-.34.62-.44,1.05-.84.1-1.76.04-2.52.3.53.26,1.56.05,2.24.03.03.31-.3.69-.42,1-.66.06-1.27.23-1.89.38,0-2.27-.39-4.34-.37-6.62,1.76.14,3.47.19,5.23.34Z"/>
      <path class="cls-1" d="M74.23,71.26c-.14.29-.25.61-.43.82-.4-.15-.72-.15-1.06-.2.09-.32.26-.48.36-.78.38.06.72.04,1.13.17Z"/>
      <path class="cls-1" d="M65.99,71.9c-.96.68-1.72,1.71-2.61,2.53-1.06.1-2.12.22-3.18.34,1.67-1.49,3.26-3.14,4.83-4.81.3-.04.57-.12.91-.08.05.65-.03,1.38.04,2.02ZM65.46,70.32c-.65.59-1.31,1.24-1.94,1.9-.6.63-1.23,1.27-1.61,2,.46.02.73-.47,1-.76.92-.97,1.9-1.97,2.71-3.09-.06-.01-.11-.03-.16-.05Z"/>
      <path class="cls-1" d="M73.73,72.35c-.16.39-.35.71-.51,1.09-.42-.16-.77-.2-1.16-.29.15-.3.31-.57.44-.87.43.07.79,0,1.22.07Z"/>
      <path class="cls-1" d="M64.14,69.98s.07.02.11.03c-1.5,1.59-3.05,3.07-4.47,4.8-.75,0-1.31.32-2.28-.1,1.27-1.83,2.88-3.04,4.3-4.62.28,0,.54-.06.84-.04-.74.73-1.51,1.48-2.27,2.21-.75.73-1.55,1.45-2.03,2.4.55-.15.96-.64,1.37-1.01,1.27-1.12,2.53-2.41,3.77-3.65.21-.04.45,0,.66-.04Z"/>
      <path class="cls-1" d="M73.19,73.55c-.2.34-.38.71-.52,1.14-.45-.13-.82-.11-1.24-.2.13-.4.32-.7.49-1.03.46.09.8-.04,1.28.09Z"/>
      <path class="cls-1" d="M65.94,72.06c.05.65.1,1.31.04,2.02-.7-.16-1.19.1-1.81.11.57-.76,1.35-1.11,1.77-2.13Z"/>
      <path class="cls-1" d="M72.52,74.77c-1.17,3.22-2.99,5.95-4.35,9.1.04-.61-.47-1.69-.28-2.39.12-.43.67-.95.92-1.5.81-1.69,1.59-3.55,2.39-5.14.44-.03.93.04,1.32-.07Z"/>
      <path class="cls-1" d="M69.33,76.11c-.44,1.07-.98,1.96-1.4,3.07-.24-.86-.18-1.87-.27-2.81.61,0,1.05-.3,1.68-.26Z"/>
      <path class="cls-1" d="M66.15,75.86c-.04.16.03.25,0,.41-.46-.16-.78-.04-1.24-.2.14-.08.13-.3.13-.43.31-.05.72.09,1.12.22Z"/>
      <path class="cls-1" d="M66.14,87.22c-.27-2.14-.42-4.35-.7-6.49.28-.33.6-.57.76-1.13-.28-.12-.6.39-.8.7-.19-.05-.12-.24-.26-.32-.04.76-.63,1.32-1.04,1.87-.21-.16-.41-.32-.76-.41.9-1.07,2.19-1.85,2.72-3.32-.74.2-1.14.96-1.64,1.52-.51.57-1.12,1.06-1.57,1.66-.37.07-.68-.35-.98-.3,1.04-1.23,2.54-2.34,3.59-3.83.28.1.53.14.7.03.25,1.66.31,4.61.44,6.76.07,1.25.29,2.19-.45,3.24Z"/>
      <path class="cls-1" d="M64.97,77.04c-1.03,1.38-2.58,2.54-3.74,3.96-.94.39-2.29.63-2.8,1.82-.61,1.41-.37,2.88-.1,4.05-.34.38-.7.73-1.04,1.11-.18-.25-.22-.58-.33-.87.28-.44.69-.63.94-1.14-.35-.16-.74.31-1,.59-.31-1.09-.44-2.38-.48-3.7,0-.41-.11-1.03-.02-1.31.12-.39.73-.79,1.06-1.16,1.05-1.16,2.17-2.3,3.11-3.44.48.05.91,0,1.36,0-1.75,1.58-3.55,3.11-4.94,5.37.91-.66,1.66-1.57,2.44-2.4.96-1,1.88-1.88,2.8-3,.35.03.66,0,1.08.15-1.41,1.41-2.98,2.53-4.2,4.29.45.06.93-.5,1.32-.84,1.19-1.04,2.48-2.31,3.65-3.45.31,0,.59-.03.9-.02Z"/>
      <path class="cls-1" d="M60.1,76.87c-1.12,1.2-2.59,2.47-3.69,3.97-.46-1.58,1.28-2.21,1.79-3.54-.6.24-1.24,1.13-1.78,1.77-.07-.72-.02-1.51-.03-2.26,1.21.31,2.53.1,3.71.06Z"/>
      <path class="cls-1" d="M64.98,81.3c.14.55.08,1.2.1,1.81-.24-.35-.39-.76-.75-1.05.22-.23.44-.48.64-.75Z"/>
      <path class="cls-1" d="M55.76,80.47c.07.47.14,1.15-.28,1.51-.13-.47-.13-1.12.28-1.51Z"/>
      <path class="cls-1" d="M63.4,83.19c-.39-.09-.44-.09-.55-.34-.26-.06-.33.24-.51.32-.14-.02-.23.03-.4-.06-.91.42-1.85.78-2.44,1.8-.01-.69-.07-1.5.46-1.93.65-.52,2.65-.61,3.16-.29.12.07.24.33.27.49Z"/>
      <path class="cls-1" d="M62.84,83.68c.06.01.11.03.16.05-.55,1.16-.89,2.7-1.53,3.68.56-1.04.78-2.73,1.37-3.73Z"/>
      <path class="cls-1" d="M63.53,83.94c.2.18.42.35.47.61-.34.89-.67,1.8-1.04,2.65-.25.01-.42.18-.69.15.53-.94.9-2.16,1.27-3.4Z"/>
      <path class="cls-1" d="M62.03,83.79c.12.27-.31.94-.37,1.42-.12-.32.2-1.1.37-1.42Z"/>
      <path class="cls-1" d="M55.73,82.12c.08.92.04,2.81.2,4.03.11.81.43,1.24-.18,1.96-.32-1.11-.29-2.75-.33-4.19-.02-.73-.14-1.37.31-1.8Z"/>
      <path class="cls-1" d="M60.57,84.53c.15.25-.25.21-.29.38-.1-.17.23-.24.29-.38Z"/>
      <path class="cls-1" d="M65.14,86.44c.16,1.34.18,2.75.22,4.15-1.33.98-2.54,2.24-3.81,3.41-.41.37-.95.7-1.09,1.27.98-.41,1.76-1.22,2.54-1.95.79-.73,1.62-1.44,2.34-2.25.54.93-.37,1.41-1.02,2-1.12,1.01-2.55,2.19-3.38,3.36.52.04.89-.46,1.23-.75,1.09-.91,2.21-1.97,3.32-2.96.43.8-.52,1.29-1.08,1.8-1.09,1-2.4,2.21-3.26,3.34.54.24.91-.41,1.22-.7,1.06-.97,2.24-2.08,3.25-3.1.43.9-.35,1.33-.99,1.89-1.01.88-2.27,1.94-3.03,2.99-.51-.6-.64-1.55-.94-2.36-.31-.82-.67-1.62-.93-2.41,1.21-1.62,2.8-2.52,3.99-4.18-.82.18-1.5.91-2.18,1.53-.68.62-1.44,1.25-1.97,2.01-.83-.81-.15-1.36.58-2.31.56-.73.98-1.26,1.37-2.19,1.68.03,3.07-.49,3.62-2.57Z"/>
      <path class="cls-1" d="M66.74,87.22c.19.34-.09.62-.28.92-.16-.24.16-.67.28-.92Z"/>
      <path class="cls-1" d="M66.82,88.49c.32.55.05,1.17-.38,1.66-.24-.57,0-1.14.38-1.66Z"/>
      <path class="cls-1" d="M53.95,85.48c.07.19.17.36.11.62-.12-.06-.18-.15-.37-.17.07-.19.18-.29.26-.45Z"/>
      <path class="cls-1" d="M58.6,87.31c.21.21.38.43.57.65-.47.44-.93.92-1.37,1.42-.71-.79.27-1.5.8-2.07Z"/>
      <path class="cls-1" d="M67.07,90.23c.08.29.1.62.06.97-.23-.29-.41.11-.51.32-.36-.39.24-.93.45-1.28Z"/>
      <path class="cls-1" d="M60,88.56c-.55.72-1.14,1.38-1.66,2.16-.21-.22-.23-.54-.34-.81.44-.65.97-1.12,1.5-1.62.17.09.32.19.51.27Z"/>
      <path class="cls-1" d="M61.36,88.97c-.89.88-1.68,1.96-2.46,3.04-.17-.24-.32-.5-.35-.81.71-.76,1.33-1.66,2.03-2.4.28.1.54.16.78.17Z"/>
      <path class="cls-1" d="M53.17,86.67c.08.15.25.26.28.44-.05.22-.21.24-.26.46-.15-.12-.23-.27-.42-.36.15-.15.27-.33.39-.53Z"/>
      <path class="cls-1" d="M56.29,87.91c.18.24.2.56.35.82-.13.21-.27.4-.41.58-.41-.51-.44-.86.07-1.4Z"/>
      <path class="cls-1" d="M67.14,91.37c.14.72.25,1.46-.41,1.95-.35-.62.32-1.28.41-1.95Z"/>
      <path class="cls-1" d="M52.67,87.35c.1.19.13.41.3.56-.04.13-.14.13-.15.31-.11-.25-.39-.58-.15-.88Z"/>
      <path class="cls-1" d="M56.76,89.29c.27.32.56.86.14,1.29-.25-.26-.42-.57-.49-.92.14-.08.25-.21.35-.37Z"/>
      <path class="cls-1" d="M52.12,88.19c.25.25.39.68.08,1.09-.27-.24-.33-.71-.08-1.09Z"/>
      <path class="cls-1" d="M57.26,90.57c.14.41.51.7.39,1.24-.39-.23-.37-.68-.65-.97.03-.2.23-.08.26-.28Z"/>
      <path class="cls-1" d="M67.29,93.61c.31.53-.13.94-.43,1.41-.33-.45.21-1,.43-1.41Z"/>
      <path class="cls-1" d="M52.96,89.5c.07.01.09.04.09.09,1,1.27,1.79,2.77,2.71,4.14.29.43.76.81.84,1.32-1.34-1.65-2.51-3.38-3.87-5.02.05-.22.19-.27.22-.53Z"/>
      <path class="cls-1" d="M51.52,89.19c.01.45.23.79,0,1.36-.45-.26-.35-.92,0-1.36Z"/>
      <path class="cls-1" d="M57.89,92c.12.32.33.58.37.94-.11.06-.64-.64-.37-.94Z"/>
      <path class="cls-1" d="M52.49,90.49c1.23,1.5,2.26,3.12,3.45,4.65-.11.22-.34.21-.51.32-1.08-1.31-2-2.72-3.18-3.98.21-.2.21-.56.24-.99Z"/>
      <path class="cls-1" d="M67.42,95.13c.19.31.05.8.19,1.12-.29.28-.56.59-.78,1.01-.22-.69.2-1.51.59-2.13Z"/>
      <path class="cls-1" d="M50.7,90.54c.24.44.34,1.04-.06,1.58-.24-.42-.35-1.06.06-1.58Z"/>
      <path class="cls-1" d="M65.73,95.62c.02.36.21.82.07,1.15-.11.25-.72.6-.96.83-.9.85-2,1.86-2.77,2.71-.28-.24-.2-.68-.42-.95,1.41-1.16,2.73-2.48,4.09-3.74Z"/>
      <path class="cls-1" d="M67.58,97.13c.29.73-.3,1.27-.65,1.94-.35-.67.35-1.29.65-1.94Z"/>
      <path class="cls-1" d="M49.88,91.89c.21.54.3,1.16-.17,1.72-.2-.57-.29-1.13.17-1.72Z"/>
      <path class="cls-1" d="M65.74,97.16c.15.62.22,1.28.09,2.04.86,6.78.59,14.17,1.13,21.12-.77.43-1.39,1.15-2.15,1.6-.37-1.25.7-1.92,1.16-3.03-.44,0-.87.75-1.24,1.16-.65-5.92-.9-12.06-2.1-17.68.96-1.12,2.44-1.72,3.16-3.01-1.15.4-2.19,1.75-3.26,2.57-.19-.37-.24-.81-.41-1.19,1.2-1.21,2.59-2.06,3.63-3.58Z"/>
      <path class="cls-1" d="M67.65,98.86c.27.72-.25,1.16-.59,1.77-.4-.58.3-1.26.59-1.77Z"/>
      <path class="cls-1" d="M49.07,93.36c.04.45.35,1.02-.09,1.45-.14-.27.04-.72-.26-.91.14-.14.2-.42.34-.55Z"/>
      <path class="cls-1" d="M57.03,96.6c-.26.12-.62.38-.77,0,.22-.14.59-.26.77,0Z"/>
      <path class="cls-1" d="M48.47,94.36c.45.87-.09,1.49-.76,2.49-3.5,5.28-7.12,10.77-10.56,16.1-.96,1.49-1.93,2.83-2.87,4.4-.27.45-.43,1.11-1.08,1.21,2.54-4.06,4.84-8.22,7.47-12.18,2.65-3.98,5.39-7.81,7.79-12.03Z"/>
      <path class="cls-1" d="M67.7,100.48c-.03,1,.61,2.81-.52,3.28-.2-.58.77-1.31.31-1.8-.29,0-.13.27-.31.44-.38-.63.22-1.23.52-1.91Z"/>
      <path class="cls-1" d="M55.45,96.95c.12.01.13.08.2.12-.02.1-.1.1-.12.2-.16-.04-.12-.18-.08-.32Z"/>
      <path class="cls-1" d="M54.76,97.27c.16.04.09.2.15.28-.07.19-.25.15-.33.32-.08-.08-.13-.17-.15-.28.07-.19.25-.15.33-.32Z"/>
      <path class="cls-1" d="M53.79,97.93c.19.03.11.21.2.3-.1.21-.29.26-.42.41-.08-.12-.21-.22-.17-.41.14-.09.28-.16.39-.3Z"/>
      <path class="cls-1" d="M52.86,98.65c.18.1.19.29.21.48-.12.08-.26.14-.33.31-.17-.07-.19-.23-.24-.37.08-.23.29-.2.37-.42Z"/>
      <path class="cls-1" d="M67.79,103.88c.13.36,0,.85.11,1.22-.13.21-.42.12-.53.37-.24-.59.02-1.1.42-1.59Z"/>
      <path class="cls-1" d="M52.09,99.43c.13.11.15.28.23.42-.14.15-.29.31-.43.46-.19-.05-.12-.24-.26-.32.17-.17.31-.38.47-.57Z"/>
      <path class="cls-1" d="M67.85,105.44c.14,1.07.05,2.25.18,3.31-.09.19-.32.14-.4.35,0-1.16-.62-2.63.22-3.67Z"/>
      <path class="cls-1" d="M51.19,100.45c.16.1.24.24.23.42-.47.48-.88,1.06-1.32,1.61-.45-.27.07-.67.3-.98.29-.38.54-.69.79-1.06Z"/>
      <path class="cls-1" d="M49.32,102.91c.08.08.13.17.15.28-.07.26-.22.37-.34.55-.37-.18.04-.65.19-.83Z"/>
      <path class="cls-1" d="M67.96,109.38c.26.37.02.89-.29,1.16-.29-.35.09-.82.29-1.16Z"/>
      <path class="cls-1" d="M48.49,104.08c.37.36-.24.75-.4,1.12-.12-.06-.04-.22-.22-.25.19-.33.41-.58.62-.88Z"/>
      <path class="cls-1" d="M68.02,110.76c.31.39.08,1.03-.33,1.26-.12-.47-.07-.94.33-1.26Z"/>
      <path class="cls-1" d="M47.41,105.52s.08.08.07.14c.2.28-.24.78-.45,1.11-3.38,5.23-7.65,9.82-11.12,15.04-.17-.77.57-1.52,1.03-2.23,1.38-2.15,2.73-4.19,4.38-6.07,2.22-2.54,4.01-5.37,6.09-7.98Z"/>
      <path class="cls-1" d="M68.15,112.28c.25.59,0,1.04-.44,1.46-.14-.51-.03-1.19.44-1.46Z"/>
      <path class="cls-1" d="M68.26,113.85c.29.52-.22.97-.48,1.39-.39-.47.16-1.08.48-1.39Z"/>
      <path class="cls-1" d="M68.36,115.3c.28.59-.29,1.1-.58,1.54-.17-.2,0-.58-.11-.81.24-.24.5-.43.7-.73Z"/>
      <path class="cls-1" d="M68.44,116.8c.25.5-.2.99-.52,1.32-.08.16.09.19.15.28.22.07.35-.03.46-.16.24.48-.46.65-.6,1.18-.21-.7-.19-1.53-.17-2.36.21.19.53-.07.67-.27Z"/>
      <path class="cls-1" d="M68.6,119.4c.12.12,0,.37.09.5-.31.16-.51.53-.73.85-.24-.53.41-.94.64-1.34Z"/>
      <path class="cls-1" d="M66.95,120.91c.41,2.89.46,5.96.73,8.92-.76.52-1.46,1.18-2.23,1.69.16-1.08,1.41-1.46,1.88-2.51-.62.2-1.34.95-1.93,1.49-.18-2.01-.25-4.07-.4-6.1.5-.73,1.65-1.08,1.74-2.02-.79.05-1.18.86-1.83,1.16-.2-1.44,1.44-1.65,2.04-2.64Z"/>
      <path class="cls-1" d="M33.5,118.6c-.01.37-.43.73-.77.78-.04-.47.55-.49.77-.78Z"/>
      <path class="cls-1" d="M32.78,119.8c-.05.46-.55.79-.96.83.03-.49.65-.6.96-.83Z"/>
      <path class="cls-1" d="M67.67,130.48c.34,1.38-1.35,1.8-2.06,2.51-.21-1.38,1.46-1.57,2.06-2.51Z"/>
      <path class="cls-1" d="M35.49,121.8c.05.19.07.38-.02.65-.06-.22-.25-.5.02-.65Z"/>
      <path class="cls-1" d="M31.92,121.08c0,.45-.61,1.17-1.21,1.06.28-.58.67-.96,1.21-1.06Z"/>
      <path class="cls-1" d="M67.72,132.09c.28.55-.5.89-.97,1.25-.41.31-.73.65-1.05.75.02-.13,0-.24,0-.36.66-.58,1.38-1.05,2.04-1.63Z"/>
      <path class="cls-1" d="M34.85,122.56c.15.5.02.98-.32,1.44-.13-.08-.13-.37.02-.47-.03-.11-.24-.11-.22-.24.12-.34.35-.47.52-.73Z"/>
      <path class="cls-1" d="M67.71,133.28c.12.2.02.51.07.73-.64.53-1.36.92-1.98,1.47-.4-.93,1.37-1.48,1.91-2.2Z"/>
      <path class="cls-1" d="M31.01,122.52c.07.4-.59.87-.73,1.44-.36-.15-.57-.05-.86-.08.45-.6.83-1.33,1.59-1.35Z"/>
      <path class="cls-1" d="M33.88,123.8c.13.17-.18.22-.22.35-.11-.13.18-.23.22-.35Z"/>
      <path class="cls-1" d="M33.87,124.22c.21.29.02.76-.2,1.06-.3-.31-.02-.72.2-1.06Z"/>
      <path class="cls-1" d="M67.73,134.76c.39.92-1.48,1.54-1.95,2.13-.25-1.22,1.4-1.33,1.95-2.13Z"/>
      <path class="cls-1" d="M32.97,125.42c.17.3.15.72-.13,1.02-.11-.2-.1-.46-.15-.7.13-.04.19-.2.28-.33Z"/>
      <path class="cls-1" d="M67.75,136.07c.2.18.1.52.11.8-.7.55-1.49.95-2.18,1.53-.28-.76.33-.97.96-1.43.47-.34.84-.55,1.11-.91Z"/>
      <path class="cls-1" d="M32.15,126.59c.04.21.17.55.02.71.02-.23-.23-.52-.02-.71Z"/>
      <path class="cls-1" d="M31.45,127.51c.08.12.04.4-.17.36.02-.19.12-.24.17-.36Z"/>
      <path class="cls-1" d="M28.07,126.55c-.18.22-.35.47-.55.66-.27-.11-.43-.02-.68-.09.12-.29.34-.38.49-.62.28.07.48-.01.75.05Z"/>
      <path class="cls-1" d="M69.25,139.13c.25.18.3.48.43.72-.06.16-.31-.01-.39.12-.09-.24-.07-.54-.04-.84Z"/>
      <path class="cls-1" d="M30.67,128.52c.25.08-.06.32-.11.38-.13-.11.08-.28.11-.38Z"/>
      <path class="cls-1" d="M27.1,127.61c-.23.39-.72.3-1.12.37.25-.35.59-.54,1.12-.37Z"/>
      <path class="cls-1" d="M29.38,130.44c.08.08.07.21,0,.36-.15-.13-.1-.16,0-.36Z"/>
      <path class="cls-1" d="M28.59,132.86c.25.33.19.84.55,1.11-.11.11-.32.02-.45.1-.15-.34-.11-.79-.1-1.22Z"/>
      <path class="cls-1" d="M69.56,145.56c-.09.39-.23.7-.37,1.01-.22.02-.38.15-.62.11.21-.32.34-.78.53-1.14.2.1.26-.08.46.02Z"/>
      <path class="cls-1" d="M67.54,146.96c.17-.36.31-.78.43-1.23.14-.04.32-.01.45-.1.03.39-.37,1.39-.88,1.33Z"/>
      <path class="cls-1" d="M29.93,135.69c-.21.17-.57.08-.82.17-.29-.31-.32-.77-.34-1.23.33.02.64,0,.91-.08.25.29.1.8.25,1.14Z"/>
      <path class="cls-1" d="M66.42,147.33c.11-.47.33-.74.43-1.23.11-.06.26-.03.34-.13.05.36-.37,1.29-.77,1.37Z"/>
      <path class="cls-1" d="M82.09,151.07c.52.39.42,1.04.01,1.72-.17-.24-.31-.5-.41-.78.11-.36.28-.61.4-.94Z"/>
      <path class="cls-1" d="M30.02,137.14c-.23-.04-.43-.02-.61.05-.14-.18-.1-.46-.21-.66.47-.26,1.02-.02.82.61Z"/>
      <path class="cls-1" d="M82.8,152.47c.51.54.29,1.28-.12,2.15-.3-.58-.42-1.37.12-2.15Z"/>
      <path class="cls-1" d="M62.26,146.78c-.64,1.54-.71,3.95-1.78,4.91.05-.85.53-1.92.39-2.66.48-.71.97-1.42,1.39-2.24Z"/>
      <path class="cls-1" d="M30.16,137.83c.01.22-.14.53.18.59-.15.21-.44.15-.7.14.03-.27-.11-.46-.07-.73.21.03.35-.08.59,0Z"/>
      <path class="cls-1" d="M83.41,153.95c.75.65.03,1.62-.39,2.48-.48-.71.04-1.5.39-2.48Z"/>
      <path class="cls-1" d="M30.52,139.6c-.2.07-.43.11-.68.09-.04-.1,0-.24-.08-.32.28-.18.75-.17.76.23Z"/>
      <path class="cls-1" d="M83.88,155.93c.41.82-.27,1.7-.7,2.51-.45-.93.27-1.54.7-2.51Z"/>
      <path class="cls-1" d="M30.63,140.4c-.06.21.11.31.01.54-.26-.04-.5-.04-.68.09-.08-.18-.07-.41-.04-.66.26.06.42-.06.7.04Z"/>
      <path class="cls-1" d="M29.98,141.57c.2.12.46.21.74.28.02.17.03.35.02.54-.32-.16-.48-.04-.7-.03.02-.28-.07-.51-.06-.79Z"/>
      <path class="cls-1" d="M84.03,157.99c.18,1.06-.51,1.98-.88,3.11.18.42-.09,1.07-.28,1.69,0-1.28.32-2.71.25-3.95.1-.13.15.13.33.1.28-.16.38-.65.58-.95Z"/>
      <path class="cls-1" d="M30.09,142.96c.16.14.39.24.6.36,0,.14,0,.27-.08.45-.23-.1-.41-.09-.61-.12.09-.26.06-.46.09-.68Z"/>
      <path class="cls-1" d="M30.1,144.5c.16.03.13.17.29.21-.09.14.03.17-.03.29-.2-.01-.18-.14-.36-.17.03-.11.06-.22.1-.32Z"/>
      <path class="cls-1" d="M29.65,145.79c.08-.05.47.11.31.33-.25-.03-.17-.25-.31-.33Z"/>
      <path class="cls-1" d="M3.2,138.13c-.13,1.45-.93,2.38-1.4,3.66-.31-1.31.92-2.53,1.4-3.66Z"/>
      <path class="cls-1" d="M29.12,146.75c.05.13.06.27.05.43-.1-.02-.09-.1-.2-.12,0-.18.12-.18.15-.31Z"/>
      <path class="cls-1" d="M28.61,147.66c.21.16.35.36.55.52-.14.46-.42.69-.58,1.13-.27-.07-.42-.2-.62-.31.16-.54.46-.82.64-1.34Z"/>
      <path class="cls-1" d="M2.75,140.78c.19,1.08-.17,2.33-.88,3.29-.41-1,.34-2.26.88-3.29Z"/>
      <path class="cls-1" d="M28.14,150c-2.45,3.82-5.77,6.04-9.98,6.57,1.76-.67,3.46-.88,4.95-1.88.83-.56,1.53-1.4,2.29-2.27.75-.87,1.49-1.76,2.14-2.78.21.12.42.23.6.36Z"/>
      <path class="cls-1" d="M2.8,143.16c.4.81-.38,1.77-.7,2.69-.43-.82.3-1.81.7-2.69Z"/>
      <path class="cls-1" d="M2.96,145.17c.24.43-.4,1.02-.49,1.63-.29-.43.41-1.06.49-1.63Z"/>
      <path class="cls-1" d="M82.24,169.35c.67,3.69,2.25,6.88,5.01,9.45-3.56-1.96-5-5.44-5.01-9.45Z"/>
      <path class="cls-1" d="M3.22,146.07c.07.19.19.35.18.58-.24-.08-.36.07-.44.28-.08-.26.18-.62.26-.86Z"/>
      <path class="cls-1" d="M3.5,146.92c.22.26.21.64.44.9-.25-.02-.43.1-.56.3-.22-.26.06-.79.13-1.21Z"/>
      <path class="cls-1" d="M3.95,147.95c.24.31.35.69.58,1.01-.17.05-.41-.03-.48.21-.17-.14-.25-.32-.32-.51.13-.33.17-.38.21-.71Z"/>
      <path class="cls-1" d="M58.1,164.82c.13.1.18.24.31.33-.17.47-.12.82-.27,1.28-.14-.02-.09-.13-.26-.13.03-.47.16-1,.21-1.48Z"/>
      <path class="cls-1" d="M4.61,149.1c.21.24.32.53.54.76-.17.08-.39.06-.5.26-.43-.16-.1-.71-.04-1.02Z"/>
      <path class="cls-1" d="M58.81,165.62c.47.28.08,1.01.06,1.56-.46-.28-.23-.94-.06-1.56Z"/>
      <path class="cls-1" d="M77.57,171.48c.67.4.09,1.47.1,2.22-.44-.52,0-1.51-.1-2.22Z"/>
      <path class="cls-1" d="M59.49,166.48c.27-.05.43.35.62.49-.17.44-.14.78-.23,1.17-.23-.13-.42-.29-.57-.47.11-.42.17-.82.18-1.19Z"/>
      <path class="cls-1" d="M78.33,172.31c.4.22.45.75.56.88-.24.63-.15,1.08-.26,1.64-.81-.46-.23-1.66-.3-2.52Z"/>
      <path class="cls-1" d="M75.05,171.61c-.05.27-.08.53-.12.79-.26-.12-.41-.02-.67-.14,0-.28-.02-.54-.06-.79.34.15.52,0,.84.14Z"/>
      <path class="cls-1" d="M5.14,150.5c.16.05.33.1.49.15-.11.08-.16.26-.31.26-.17-.08-.29-.18-.17-.41Z"/>
      <path class="cls-1" d="M60.56,167.28c.06.01.09.04.09.09.19.34.01.87.02,1.31-.13-.04-.13-.14-.31-.15.05-.4.09-.8.2-1.24Z"/>
      <path class="cls-1" d="M73.26,171.25c.18.05.36.11.54.16-.15.34-.1.56-.14.85-.22-.1-.33,0-.52-.04.06-.34,0-.61.11-.97Z"/>
      <path class="cls-1" d="M6.05,151.01c.2.18.38.37.61.54-.09.12-.21.17-.28.33-.21-.12-.32-.28-.53-.4.03-.23.15-.29.2-.47Z"/>
      <path class="cls-1" d="M61.3,167.74c.78.48,1.72.87,2.49,1.35-.02.41-.1.84-.07,1.22-.86-.45-1.65-.93-2.55-1.36.06-.41.07-.79.13-1.2Z"/>
      <path class="cls-1" d="M72.62,171.23c.13.24,0,.6-.05.94-.09,0-.26-.15-.29-.03-.21-.21-.07-.6-.08-.91.17.06.31.07.41,0Z"/>
      <path class="cls-1" d="M71.56,171.2c-.08.3.03.5-.07.81-.16-.08-.22.04-.4-.06,0-.28,0-.54-.06-.79.14-.05.32-.02.52.04Z"/>
      <path class="cls-1" d="M79.24,173.59c.68.59.6,1.59.38,2.66-.71-.58-.4-1.69-.38-2.66Z"/>
      <path class="cls-1" d="M70.51,171.95c-.28-.04-.58-.13-.81-.07-.18-.25-.14-.62-.12-.98.27.04.54.1.76.05.25.23.1.67.17,1Z"/>
      <path class="cls-1" d="M7.08,151.92c.26.15.44.34.74.46-.11.19-.31.22-.42.41-.25-.13-.32-.34-.57-.47.09-.1.13-.31.24-.4Z"/>
      <path class="cls-1" d="M15.5,154.59c-.25.23-.42.62-.67.86-.14-.04-.29-.09-.43-.13.12-.34.34-.49.44-.87.25.1.4.02.67.15Z"/>
      <path class="cls-1" d="M64.09,169.29c.39.2.77.41,1.11.63-.17.35-.05.54-.14.84-.24-.07-.47-.14-.7-.21-.05-.44-.17-.85-.27-1.27Z"/>
      <path class="cls-1" d="M14.38,154.37c-.25.26-.47.59-.73.84-.17,0-.36-.04-.52-.04.17-.35.38-.64.58-.95.27.13.42.04.67.14Z"/>
      <path class="cls-1" d="M68.99,170.9c-.1.33.04.52-.01.83-.19-.08-.36-.1-.5-.09.06-.31-.05-.52.01-.83.18.05.3,0,.51.09Z"/>
      <path class="cls-1" d="M8.22,152.62c.23.06.31.2.58.23-.12.31-.37.38-.5.68-.16-.08-.27-.19-.39-.29.11-.19.22-.39.3-.62Z"/>
      <path class="cls-1" d="M67.87,170.68c-.04.31.04.55.04.84-.3-.13-.48-.05-.78-.17-.08-.23-.01-.54-.13-.75.24-.05.56.02.86.09Z"/>
      <path class="cls-1" d="M13.14,154.17c-.34.31-.47.99-1,.94.14-.37.39-.54.48-.98.16-.02.31-.05.52.04Z"/>
      <path class="cls-1" d="M65.67,170.13c.18.19.73.22.85.32,0,.24,0,.48.02.72-.25-.08-.51-.15-.76-.23-.03-.27-.12-.51-.11-.8Z"/>
      <path class="cls-1" d="M9.15,153.08c.28.09.62.15.8.3-.24.23-.44.53-.66.81-.19-.08-.34-.18-.51-.27.11-.32.29-.49.37-.83Z"/>
      <path class="cls-1" d="M10.33,153.49c.25.08.51.15.76.23-.23.36-.54.58-.76.95-.24-.02-.25-.17-.47-.2.16-.32.34-.6.47-.98Z"/>
      <path class="cls-1" d="M11.57,153.87c.18.06.36.11.54.16-.25.33-.46.72-.72,1.03-.19-.11-.37-.02-.43-.13.22-.32.41-.7.61-1.06Z"/>
      <path class="cls-1" d="M80.25,175.37c.51.61.57,1.45.46,2.39-.65-.53-.73-1.36-.46-2.39Z"/>
      <path class="cls-1" d="M81.16,177.25c.34.28.23.81.19,1.3-.43-.24-.11-.88-.19-1.3Z"/>
      <path class="cls-1" d="M75.51,51.58c2.32.19,4.96,1,6.97.63-2.35-.51-4.48-.62-6.75-.98.21-.26.36-.63.57-.89,2.12.53,4.59.99,6.53.91-2.12-.57-4.5-.88-6.52-.97.32-.51.65-.99.95-1.55,1.92.13,3.94.45,5.82.52-.06.34-.21.51-.3.8-1.96-.29-3.99-.72-5.74-.61.78.31,1.84.36,2.81.49,1,.14,2,.29,2.87.28-.07.22-.13.43-.2.65.53-.27.54-1.19,1.03-1.64.18-.17.12-.09.25-.46.37-.98,1-1.94,1.4-3.07.23-.02.43-.11.68-.09-2.8,7.04-5.73,13.86-8.94,20.14-.35,0-.74-.09-1.1-.1,1.47-2.94,2.91-5.97,4.33-9.23.45-1.02,1.05-2.03,1.24-3.12-1.41,1.75-2.23,4.04-3.34,6.15-1.09,2.08-2.34,4.1-3.38,6.08-2.5-.14-5.05-.38-7.54-.51.32-1.33,1.2-2.42,1.89-3.51,2.08-3.28,4.44-6.42,6.44-9.95ZM75.09,52.4c2.09.51,4.53.93,6.32.61-2.17-.33-4.3-.56-6.32-.61Z"/>
      <path class="cls-1" d="M65.76,56.44c.05.63-.15,1.23-.81,1.12.15-.26.46-.95.81-1.12Z"/>
      <path class="cls-1" d="M65.75,58.63c-.06.39.04.68-.09,1.1-.24,0-.45.07-.72.02.1-.05.13-.22.17-.36-.14-.04-.23.02-.28.15.13-.3.43-1.01.92-.9Z"/>
      <path class="cls-1" d="M53.85,87.76c.93,1.24,1.55,2.65,2.28,4-.66-.79-1.25-1.96-1.94-2.96-.2-.28-.74-.64-.34-1.05Z"/>
      <path class="cls-1" d="M53.37,88.74c.54.46.87,1.21,1.27,1.87.41.67.85,1.33,1.24,1.97-.68-.78-1.31-1.84-2-2.79-.21-.29-.64-.61-.51-1.04Z"/>
      <path class="cls-1" d="M58.47,93.42c.42.58.47,1.35.83,1.97-.33-.45-.84-1.19-.83-1.97Z"/>
      <path class="cls-1" d="M61.18,101.29c.53,1.31.83,3.13,1.19,4.68.06.17.03-.09.05-.16,1.19,7.87,1.36,16.29,1.94,24.5-.88-4.72-.93-9.65-1.52-14.54-.58-4.87-.66-9.82-1.66-14.47Z"/>
      <path class="cls-1" d="M68.03,122.06c.06-.14.31.07.45-.1.06-.21.13-.43.19-.65.21,2.78.08,5.74.12,8.62-.34-2.57-.45-5.27-.76-7.87Z"/>
      <path class="cls-1" d="M69.57,138.87c0,.16-.24-.12-.25.04-.08-.66-.16-1.55-.13-2.11.02-.35.06.4.11.8.06.42.17.77.27,1.26Z"/>
      <path class="cls-1" d="M56.7,164.16c-.61-1.17-.87-2.65-1.03-4.22-.24-2.33-.61-4.59.92-7.36,1.7-3.06,3.71-5.94,5.83-8.3.53-.12.86-.6,1.21-1.05.1.15,0,.39-.07.63.2.05.18.51.17.82,1.17-.48,1.33-2.4,1.58-3.84.11-.68.1-1.54.27-1.87.17-.34.88-.62,1.12-.79.41-.27.78-.45,1.12-.78.14.87-.07,1.92.04,2.79-.3.28-.7.38-.91.85,1.04.62,2.29-.22,3.34.3.44.22.94,1.08,1.3,1.58.71.97,1.51,1.83,3.15,1.9.06-.14-.07-.17-.17-.23,2.61,1.18,5.16,2.78,6.34,4.88-.14.47-.33.96-.14,1.26.25-.05.27-.52.45-.69.17-.16.4.41.54.58-.28.35-.31,1.17-.81,1.11.01.83.98,1.14.72,2.12-.05.18.21.19.26.32.4,2.61.55,5.17-.22,8.34-1.79,7.39-.71,13.38,4.1,17.17,1.61,1.27,3.94,1.79,5.87,3.31.36.8-.79.88-1.46.92-1.14.07-3.15-.36-4.1-1.12-1.78-1.43-2.85-3.71-3.98-5.82-1.17-2.18-2.13-4.47-3.98-5.82-.26-.19-.91-.36-1.17-.24.33.46-.05,1.25-.07,1.99-.99-.28.27-1.78-.45-2.21-.47.36-.38,1.31-.52,1.91-.12,0-.34-.17-.4-.06-.17-.4.1-.86.42-1-.41-.66-1.51-1.17-2.49-1.35-.58-.11-1.26.05-1.94-.05-.95-.14-1.84-.22-2.74-.35-.81-.12-1.78-.24-2.56-.54-1.79-.68-3.07-1.95-4.88-2.66-.15-.09-.05-.31-.17-.41-.2-.13-.16.14-.36.01-2.9-2.24-4.08-6.37-3.04-10.87.44-1.94,1.46-3.17,2.25-4.7-.13.85-.03,1.81-.25,2.59-.09.32-.33.6-.44.87-.37.96-.68,2.1-.72,2.98-.17,3.43.34,6.29,2.58,8.3.59.53,1.04,1.25,1.76,1.6.83.39,1.17.25,1.83.43,1.08.3,1.94.92,2.86,1.1.82.16,2.09.29,2.88.28.31,0,.67-.28.99-.35.19-.04.41.03.59,0,.38-.05.76-.21,1.14-.25.43-.04.8-.01,1.16-.12,1.74-.52,4.06-2.54,5.02-4.46.51-1.01.78-2.12,1.02-3.18.37-1.59.05-3.17-.27-4.76-.58-2.86-1.74-5.63-4.58-7.37-1.54-.94-3.91-2.07-5.73-1.8-.06-.25.18-.67.24-.99.57-.07,1.08.29,1.62.31.38.02.69-.26,1.04-.1-.95-1.45-3.54-1.49-5.03-.99-.81.27-1.65.71-1.99,1.29.07.16.35-.07.49.15-.3.76-.55,1.62-1.3,1.56.31-.68.73-1.58.91-2.21-.94.08-1.25,2.08-1.84,2.76-.14.16-.45.28-.62.29.23-.87.78-1.94.88-2.51-.55-.17-.82.51-1,.94-.35.86-.65,2.01-1.09,2.63.09-.91.32-1.89.65-2.94.07-.3-.38-.11-.31-.33.17-.27.54-.81.4-1.12-.72.46-1.06,1.36-1.59,2.12-.51.73-1.06,1.44-1.51,2.26-.97,1.78-2.31,3.17-2.92,5.33-.98,3.5-.44,6.78.85,9.32-.07.22-.13.43-.2.65-.1.25-.13-.16-.24-.19-.08.36.39.43.08.91-.55-.43-.09-1.4-.06-2.15-.04-.01-.07-.02-.11-.03-.27.07-.41.36-.52.73ZM78.55,147.92c-.73-.76-1.86-1.99-2.53-1.24,1.5.92,2.11,2.34,3.58,3.21.33-.7-.47-1.37-1.06-1.98ZM79.9,164.37c-.13.38-.13.67.23.79.03-.04.06-.05.12-.02.15-.17.25-.54.16-.72-.17-.17-.36-.11-.52-.04ZM78.99,167.77c1.14.75,1.24-1.27.82-1.71-1.09-.41-.92,1.21-.82,1.71ZM77.63,168.54c-.43.4-.11,1.49.52,1.22.77-.65,0-1.71-.52-1.22ZM80.95,170.32c-.01-.31-.06-.61-.15-.87-.07.35.06.6.15.87ZM87.84,182.94c.77.21,1.74-1.19.43-1.41-1.13-.19-1.19,1.2-.43,1.41ZM86.73,181.9c.21-.46-.47-1.12-.99-.66-.23.68.71,1.28.99.66ZM89.88,183.62c1.02.3.9-1.42-.02-1.31-.71.09-.54,1.14.02,1.31Z"/>
      <path class="cls-1" d="M26.19,128.46c-.05.16-.96.77-1,.17.37.02.7-.04,1-.17Z"/>
      <path class="cls-1" d="M51.89,91.67c1.1,1.27,2.09,2.61,3.07,3.95-3.77,1.81-6.54,6.77-9.42,10.58-1.85,2.45-3.41,4.87-5.27,7.23-.96,1.22-1.61,2.6-2.47,3.87-.84,1.24-1.78,2.44-2.64,3.64-1.45,2.01-2.87,3.6-4.29,5.57-.08.78-.55,1.35-.95,1.96-.08.27-.12-.2-.29-.03-.71,1.18-1.72,2.54-2.07,4.11-.48,2.2.6,4.14.89,6.25.29,2.1.71,4.26-.02,6.69-.36,1.19-1.24,2.79-1.92,3.8-.72,1.07-1.62,2.07-2.37,2.95-1.7,1.97-3.83,2.62-6.17,3.16-.05-.28.96-.91.24-1.17,1.38-.28,2.88-.34,3.74-1.59-.72-.13-1.39.43-2.1.67-.71.24-1.53.25-2.11.72-.11.18.19.14.29.21-.33.32-.6.74-.81,1.29-.27.06-.58.04-.89.03.1-.26.28-.38.34-.72-.53-.07-.55.83-1.14.66.2-.4.43-.72.59-1.18-.23-.29-.29,0-.63-.07-.53-.12-1.05-.49-1.53-.64-1.01-.3-2.31-.53-3.45-.93-3.37-1.18-5.2-3.38-6.23-6.03-.5-1.29-.61-2.79-.71-4.3-.11-1.52.09-3.3.54-4.92.7-2.52,2.14-3.7,3.68-5.1-.39-.1-.84.18-1.12.37-.42.29-.91.74-1.29,1.15-1.25,1.34-2.19,3.39-3.19,5.07.37-2.39,2.5-3.78,3.1-5.75.87-.89,1.87-1.54,2.86-2.21.09-.05.25.02.4.06.91-1.22,2.27-1.52,3.76-2.06,1.92-.7,4.01-.96,6.47-.65.59.08,1.22.13,1.84.2,1.17.13,2.34.08,3.59.85-.15.98.94,1.05,1.64.85.85-.5,1.61-1.41,2.33-2.43.41-.58.99-1.25.88-1.92-.41,0-.72.19-1.16.12.16-.9,1.6-.12,2.1-.67-.09-.57-.93-.28-1.35-.41.33-.59,1.17-.24,1.69-.49.22-.1-.03-.36.13-.43,2.4-1.94,3.82-4.95,5.58-7.67,5.24-8.11,10.77-16.06,15.81-24.46.02-.05.03-.11.05-.16ZM17.61,130.01c.11.06.45.12.67.14,1.01.07,2.77-.05,2.22-.87-1.37-.23-2.68-.36-3.73,0,.41.11.59.59.84.73ZM24.49,133.69c.74.74.9,1.85,1.22,2.8-.54-.82-1.4-1.54-2.32-2.3-1.19-.99-2.21-2.12-3.9-2.54-.44-.11-.91-.03-1.33-.11-.72-.14-1.26-.37-1.82-.44-3.92-.48-7.57,2.04-9.7,4.88-1.06,1.4-1.57,3.7-1.5,5.35.05,1.07.16,2.25.37,3.07.41,1.6,1.75,3.09,2.75,4.39.7.9,1.22,2,2.28,2.64,1.64,1,3.18.79,4.76,1.09.33.06.61.23.92.28,1.34.2,2.52-.45,3.49-.96.37-.19.78-.24,1.08-.44.51-.35,1.01-1.02,1.56-1.66.5-.56,1.09-1.14,1.55-1.78.83-1.15,1.99-3.29,2.36-4.85.15-.64.19-1.34.32-2.04.13-.73.38-1.47.41-2.12.05-.97-.17-2.1-.42-2.91-.25-.8-.7-1.78-1.23-2.38-.5-.57-1.31-1.11-2.49-1.17.48.56,1.18.74,1.65,1.21ZM27.64,141.86c.18-.05.26-.39.24-.58-.63-.77-1.07.65-.24.58ZM26.44,145.05c.11.31.39.7.86.67,1.24-.85-.53-2.66-.86-.67ZM25.9,148.2c.95.3,1.22-1.62-.13-1.34-.45.36-.37,1.19.13,1.34ZM25.1,149.68c.15-.41.02-.68-.06-.97-1.2-.54-.71,1.63.06.97Z"/>
      <path class="cls-1" d="M11.01,134.04c-1.53,1.44-3.4,2.97-4.24,6,.3-3.1,2.53-4.7,4.24-6Z"/>
      <path class="cls-1" d="M4.78,133.7c0,.32-.45.51-.61.82.02-.27.45-.52.61-.82Z"/>
      <path class="cls-1" d="M3.26,135.78c.02-.43.46-.78.69-1.1.03.17-.53.71-.69,1.1Z"/>
      <path class="cls-1" d="M6.51,142.63c.1.74.25,1.44.42,2.14-.27-.29-.56-1.34-.42-2.14Z"/>
      <path class="cls-1" d="M81.93,178.78c.27.38.42.84.7,1.22-.34-.17-.84-.64-.7-1.22Z"/>
      <path class="cls-1" d="M61.4,5.34c-.1,10.67-1.13,21.84-.7,32.23.11.04.08-.19.14-.25.16,4.96-.29,10.62.1,15.71.04.6.25,1.74.11,2.17-.1.31-.59.71-.85,1.04-.82,1.05-1.62,2.18-2.36,3.31-.31-1.32.79-2.31,1.59-3.48.57-.83,1.06-1.64,1.47-2.52-1.1,1.14-2.06,2.56-2.99,4.01-.21-1.68,1.74-3.29,2.31-5.1-.82.99-1.55,2.14-2.26,3.34-.01-3.9.41-8.26.62-12.42.03-.61-.08-1.26.06-1.76.25-.89,1.02-1.6,1.39-2.42-.5.34-.82,1.02-1.23,1.52,0-4.04.24-8.37.45-12.65.22-4.22.38-8.38.81-12.84.19-1.98.3-4.21.33-6.35,0-.64-.17-1.58-.04-2.03.17-.59.79-.95,1.05-1.51ZM58.76,45.92c0-.15.04-.32-.05-.43-.13.14-.08.3.05.43Z"/>
      <path class="cls-1" d="M56.56,72.36c.32-.86.4-1.91.51-2.86.11-.96,0-2.09.28-2.88.31-.85,1.18-1.59,1.71-2.32.59-.83,1.13-1.58,1.67-2.4,0,2.51-.4,5.24.24,7.42-.02.25.02.47.02.71.05.17.31.01.49.15-1.13.97-2.3,1.92-3.4,3.23-.27.32-.93,1.04-.95,1.37-.02.45.91.82,1.49.93.95.18,2.07.02,3.17.07,1.1.05,2.19.04,3.06-.14,0,.2-.58.58-.95.6-.63.04-1.25-.14-1.99-.07-1.82.17-3.94.08-5.49.53-.08-1.29.05-2.69-.04-3.98-.49,1.71-.43,3.52-.47,5.25-.02.93.15,1.74-.49,2.4-.24-2.96-.18-6.54,0-9.95.03-.51-.04-1.13.09-1.45.17-.45.75-.7.88-1.16.03,1.53,0,3.09.16,4.55Z"/>
    </g>
  </g>
</svg>