<?xml version="1.0" encoding="UTF-8"?>
<svg id="_レイヤー_2" data-name="レイヤー 2" xmlns="http://www.w3.org/2000/svg" viewBox="0 0 75.57 185.77">
  <defs>
    <style>
      .cls-1 {
        fill: #fff;
      }

      .cls-1, .cls-2 {
        fill-rule: evenodd;
      }

      .cls-2 {
        fill: #0f0b0b;
      }
    </style>
  </defs>
  <g id="Layer_1" data-name="Layer 1">
    <g>
      <path class="cls-2" d="M72.46,49.92c1.3-1.71,2.36-3.87,2.96-6.83.33-1.63.06-3.36-.12-4.99-.36-3.19-1.54-5.85-3.64-8.04-1.06-1.11-2.15-2.24-3.46-3.04-1.64-1-3.64-1.51-5.39-1.9-1.03-.23-1.97-.49-2.8-.47-.76.02-1.47.34-2.23.52-.71.16-1.39.49-2.11.73-.72.24-1.49.41-2.15.66-2.12.8-3.47,2.36-5.03,4.17-.33-1.6-.29-3.18-1.15-4.49-.39-.61-1.01-1.12-1.42-1.76-.42-.66-.88-1.29-1.35-1.8-.53-.58-1.19-1.03-1.78-1.57-1.1-1.01-2.06-2.34-3.77-3.01-.86-.33-1.86-.33-2.88-.79-.84-.38-1.7-1.05-2.36-1.61-.66-.56-1.19-1.29-1.67-1.95-1.02-1.4-1.96-2.83-3.04-4.12-1.74-2.06-3.48-3.81-5.76-5.53-.71-.53-1.4-1.11-2.1-1.71-1.05-.2-2.15-.96-3.42-1.48C16.61.41,15.02-.09,13.92.02c-.62.06-1.03.49-1.54.83.07.53.18.89.12,1.29.57.65,1.3,1.1,2.03,1.52,2.32,1.31,3.82,3.05,5.38,4.94.52.64,1.03,1.19,1.39,1.88.35.67.61,1.37.97,2.12.73,1.55,1.79,3.28,1.71,5.07-.02.47-.15,1.29-.35,1.7-.26.53-1.05.92-1.55,1.31-.53.41-1.01.85-1.51,1.37-.98,1-2.03,2.13-2.58,3.53-.75,1.91-1.16,4.26-1.15,5.71,0,.69.21,1.51.34,2.24.39,2.29.97,4.3,2.07,6.12.76,1.25,1.54,2.39,2.44,3.48.48.58.91,1.12,1.47,1.6.55.46,1.41.89,1.92,1.48.78.91,1.02,3.05,1.02,4.76,0,1.86-.03,3.59-.17,5.38-.3,3.81-1.17,7.91-1.7,11.59-.6,4.17-1.2,8-1.7,11.59-.27,1.94-.5,3.86-.75,5.76-.33,2.59-.42,5.05-1.43,7.79-.25.68-.47,1.45-.76,1.88-.13.2-.24.16-.39.31-.3.34-.32.62-.66.89-.09.07-.2.03-.27.11-.63.68-1.48,1.44-1.94,2.51-.7,1.61-1.02,3.78-1.36,5.59-2.34,12.45-4.4,24.95-6.78,37.41-.66,3.47-1.5,7.16-2.22,10.67-.74,3.6-1.54,7.31-2.21,10.85-.64,3.37-1.27,6.92-2.22,10.85-.61,2.55-1.12,5.5-1.36,7.98-.14,1.44-.59,3.26.79,3.62.65.17,1.22-.19,1.46-.97.19.05-.01.57.24.42,1.36-1.5,2.3-3.51,3.19-5.51.46-1.05.88-2.12,1.36-3.21.45-1.01.96-2.05,1.38-3.08.66-1.61,1.04-3.34,1.67-4.97,1.77-4.62,3.68-9.17,5.48-13.83.62-1.61,1.11-3.26,1.71-4.9.56-1.55,1.25-3.08,1.81-4.63,3.44-9.42,6.93-19.07,10.41-28.71,1.75-4.84,3.3-9.73,5.1-14.59.6-1.61,1.11-3.25,1.69-4.85.31-.84.83-1.66,1.23-2.52,2.76-5.91,5.52-11.91,8.3-17.77,1.54-3.25,2.94-7,4.64-10.36,1.14-2.26,2.4-4.86,3.73-7.27.41-.74.88-1.99,1.3-2.33.51-.41,2.52-.35,3.26-.35,3.27-.03,6.55-.62,8.98-2.25,1.59-1.06,3.26-2.43,4.54-4.12ZM65.48,32.6c1.24.53,2.88,2.3,3.4,3.26.96,1.79.84,5.59-.26,7.87-.24.5-.64.96-1,1.46-1.38,1.95-2.92,2.93-4.89,3.67-.9.33-1.95.68-3.02.54-1.06-.14-2.91-.64-3.76-1.09-.66-.35-1.12-1.03-1.6-1.57-.5-.56-1.05-1.14-1.33-1.68-.6-1.16-1.07-3.28-.96-4.74.08-1.08.42-1.98.68-2.92.62-2.26,1.7-3.22,3.07-3.99,1.01-.57,2.79-1.2,4.21-1.41,1.22-.18,3.98-.02,5.45.6ZM41.19,31.28c.13.86.34,1.88.27,2.7-.23,2.6-1.52,4.37-2.67,5.59-.7.74-1.41,1.43-2.17,2.03-.77.16-1.6.39-2.47.51-.86.12-1.77.45-2.57.43-1.19-.04-2.3-.4-3.13-.98-1.15-.8-2.42-2.19-3.23-3.45-.88-1.38-1.62-3.35-1.78-5.03-.18-1.91.58-3.9,1.15-6.13,1.09-.9,2.09-2,3.29-2.62.57-.29,1.82-.72,2.42-.77.54-.04,1.22.07,1.77.07.6,0,1.22-.08,1.73,0,2.77.44,4.45,1.49,5.58,2.91,1.17,1.46,1.51,2.8,1.8,4.73ZM45.27,42.67c.49,2.69,1.59,4.92,2.97,7.2.32.54,1.08,1.33,1.06,1.79-.02.42-.48,1.3-.78,1.99-.89,2.04-1.74,3.89-2.64,5.66-2.52,4.98-4.75,9.97-6.84,15.31-.79,2.01-1.73,3.93-2.54,5.75-.31.69-.48,1.41-.76,2.11-.48,1.23-1.35,2.26-1.8,3.5-.33.09-.43.56-.77.62-1.2,1.38-2.59,2.41-4.23,3.01.06-1.62.25-3.38.44-5.07.19-1.66.36-3.32.54-4.98.54-5.04,1.44-10.11,1.88-15.06.3-3.39.94-6.89,1.71-10.33.39-1.72.65-3.55,1.59-5.11,1.33-.52,2.8-.71,3.99-1.47,1.09-.7,2-1.69,3.11-2.42,1.12-.73,2.17-1.55,3.08-2.5Z"/>
      <path class="cls-1" d="M6.81,168.89c-.35-.21-.71-.41-1.09-.6-1.35,4.26-3.53,8.73-4.4,13.59-.11.62-.05,1.4.22,1.79.03.06.08.11.14.16,1.4-5.24,3.42-9.98,5.13-14.94Z"/>
      <path class="cls-1" d="M3.48,182.06s.06,0,.07-.04c1.39-2.61,2.74-6.14,3.93-9.3,3.22-8.53,6.75-17.29,9.7-26.34.07.13.04.32.04.49,4.47-11.51,8.52-23.77,13-35.28-3.66,9.34-7.57,18.76-11.22,28.37-.9,2.37-1.82,4.75-2.79,7.11-2.41,5.85-4.37,11.83-6.61,17.93-.44,1.2-1.04,2.39-1.34,3.57-.07.27-.24.35.01.6-.45.1-.49.65-.64,1.02-.78,1.96-1.68,4.19-2.51,6.29-.34.87-.84,1.78-.99,2.53-.02.1.06.31.04.49-.1.99-.95,1.93-.7,2.55Z"/>
      <path class="cls-1" d="M3.79,169.43c.95-3.36,1.53-7.09,2.51-10.65.68-2.46,1.19-4.89,1.64-7.25.14-.75.48-1.52.26-2.25.52-.57.48-1.42.67-2.2,1.32-5.6,2.45-11.28,3.3-16.76.32-2.06.84-4.07,1.05-5.98.04-.4.01-.62-.09-.98.18-.13.22-.08.36-.44.24-.62.32-1.59.51-2.49.18-.86.48-1.77.22-2.33.37.13.33-.84.42-1.31,1.14-5.66,1.75-11.15,3.45-17.08-.99,1.36-1.27,3.6-1.68,5.68-.83,4.16-1.52,8.68-2.44,12.76-.66,2.92-1.29,5.74-1.77,8.59-.48,2.84-.96,5.63-1.49,8.43-2.17,11.56-4.98,22.92-6.93,34.26Z"/>
      <path class="cls-1" d="M6.92,168.26s.07.02.11.03c.96-2.46,1.89-4.97,2.75-7.6-.39-.17-.83-.56-1-.69-.97,2.62-1.96,5.23-2.89,7.92.32-.04.84.17,1.04.35Z"/>
      <path class="cls-1" d="M6.25,164.2c1.41-3.32,2.57-7.06,3.99-10.36-.44-.69-.76-1.69-1.18-2.23-.64,4.03-2.03,8.49-2.81,12.59Z"/>
      <path class="cls-1" d="M10.3,158.81c-.27-.17-.62-.3-.81-.52-.24.44-.42.96-.6,1.51.33.09.71.15.86.35.3-.24.35-.92.55-1.34Z"/>
      <path class="cls-1" d="M10.44,158.31c.05-.33.21-.45.27-.76-.32-.08-.62-.18-.8-.34-.2.09-.24.46-.33.75.27-.01.55.25.86.36Z"/>
      <path class="cls-1" d="M9.94,156.86c.17.1.73.18.97.15.08-.28.15-.55.23-.83-.29-.09-.46-.24-.75-.33-.2.25-.26.75-.46,1.01Z"/>
      <path class="cls-1" d="M11.34,155.69c.08-.4.27-.61.34-1.04-.31-.04-.43-.19-.71-.25-.2.39.2.45.15.76-.21.17-.26-.31-.43-.18-.04.15-.08.29-.12.44.33.05.43.22.76.27Z"/>
      <path class="cls-1" d="M11.17,153.91c.24.07.48.13.72.2.16-.22.23-.59.36-.86-.27-.06-.42-.2-.64-.29-.17.28-.27.68-.44.95Z"/>
      <path class="cls-1" d="M10.36,153.39c1.3-1.48-.51-2.78-.73-4.08-.85,1.79.43,2.78.73,4.08Z"/>
      <path class="cls-1" d="M12.44,152.77c.12-.36.28-.66.4-1.02-.27-.07-.46-.17-.49-.38-.27.25-.37.79-.56,1.16.27.05.35.2.65.24Z"/>
      <path class="cls-1" d="M11.19,151.47c.21-.34.57-.76.6-1.09.04-.55-.98-1.6-1.01-2.19-.23.34-.29.97-.57,1.22.35.68.68,1.37.98,2.06Z"/>
      <path class="cls-1" d="M12.36,151.14c.09.13.41-.04.68.13.33-.57.41-1.07.18-1.5.04-.31.41-.04.54-.21,1.25-3.32,2.57-6.51,3.8-9.88-.18-.1-.27-.26-.44-.36-1.58,3.95-3.08,8.04-4.75,11.82Z"/>
      <path class="cls-1" d="M12.15,149.71c.14-.68.56-1.09.57-1.63.01-.7-1.15-1.79-1.27-2.32-.09.69-.46,1.14-.46,1.66,0,.38.39.88.56,1.23.21.43.3.89.6,1.06Z"/>
      <path class="cls-1" d="M10.04,149.13c0-.64.44-1.93.03-2.5-.29.8-.48,1.96-.03,2.5Z"/>
      <path class="cls-1" d="M12.83,147.68c1.65-4.29,3.1-8.93,4.85-13.05-1.02-1.44-1.99-3.15-2.88-4.5,0,.87-.39,1.51-.37,2.23.01.58.78,1.75,1.03,2.31.37.84.61,1.6.91,2.34-.72-1-1.48-2.62-2.16-3.64-.74,3.75-1.48,7.49-2.54,11.42.44.93.88,1.87,1.17,2.89Z"/>
      <path class="cls-1" d="M10.39,146.36c.31-.82.63-2.04.24-2.62-.23.77-.64,2.05-.24,2.62Z"/>
      <path class="cls-1" d="M10.97,143.35c.53-1.81,1.27-5.62,2.04-8.27.29-.98.73-1.94.73-2.66,0-.63-.53-1.33-.7-1.8-.68,3.31-1.4,7.18-2.03,10.6-.17.92-.42,1.54-.05,2.13Z"/>
      <path class="cls-1" d="M17.82,139.09c.19-.35.34-.78.46-1.25-.21-.07-.18-.27-.38-.34-.36.56-.62,1.42-.08,1.59Z"/>
      <path class="cls-1" d="M18.51,137.25c.16-.2.21-.57.3-.87-.11-.08-.18-.17-.36-.22-.11.27-.25.5-.34.8.14.09.18.24.4.29Z"/>
      <path class="cls-1" d="M19.03,135.78c.16-.27.22-.72.39-.97-.09-.07-.18-.15-.3-.2-.15.31-.3.62-.4,1.02.18,0,.14.14.32.15Z"/>
      <path class="cls-1" d="M17.86,133.97c.12-.31.46-.62.46-1.01,0-.32-.64-.95-.85-1.25-.85-1.17-1.66-2.7-2.37-3.76-.05.36-.08.7-.18,1.09.86,1.71,1.97,3.28,2.94,4.93Z"/>
      <path class="cls-1" d="M19.53,134.19c.24-.04.21-.56.38-.73-.14-.01-.09-.13-.26-.13-.08.28-.22.43-.27.76.08.02.16.03.15.1Z"/>
      <path class="cls-1" d="M18.45,132.46c.12-.32.46-.63.47-1.06,0-.49-.94-1.49-1.25-1.96-1.25-1.88-2.44-4.17-3.39-5.89-.54,1.26.3,2.02.8,2.97,1.05,2.01,2.37,4.13,3.38,5.94Z"/>
      <path class="cls-1" d="M20.01,132.89c.29-.28.52-1.1.59-1.51-.32.21-.68,1.13-.59,1.51Z"/>
      <path class="cls-1" d="M19.06,130.9c.28-.3.38-.93.6-1.33-2.02-2.46-3.55-5.44-4.93-8.1-.08.43-.16.87-.31,1.35,1.42,2.76,3.17,5.34,4.64,8.08Z"/>
      <path class="cls-1" d="M20.7,130.81c.05.01.11.03.17.04.04-.21.3-.46.18-.66-.22.03-.25.39-.35.62Z"/>
      <path class="cls-1" d="M14.6,128.47c.68-1.29-.44-1.96-.63-2.92-.73,1.32.34,2.02.63,2.92Z"/>
      <path class="cls-1" d="M19.67,129.33c.18-.27-.01-.75.41-.84-1.79-2.68-3.57-5.62-5.05-8.32-.06.2-.11.41-.17.61,1.44,2.94,3.37,5.6,4.81,8.55Z"/>
      <path class="cls-1" d="M21.26,129.65c.17-.1.46-.7.3-.87-.19.09-.44.71-.3.87Z"/>
      <path class="cls-1" d="M20.22,127.99c.03-.34.54-.86.53-1.29,0-.21-1.22-1.65-1.43-1.95-1.4-1.96-2.95-4.26-4-6.06.05.19-.12.37-.11.63.01.55.86,1.68,1.18,2.23,1.24,2.19,2.74,4.29,3.84,6.43Z"/>
      <path class="cls-1" d="M21.8,128.31c.22-.11.24-.57.4-.79-.11-.06-.12-.18-.3-.2-.07.35-.32.81-.09.99Z"/>
      <path class="cls-1" d="M21.49,127.93c.17-.14.27-.4.36-.68-.23.04-.23.47-.36.68Z"/>
      <path class="cls-1" d="M22.42,126.93c.06-.23.19-.32.22-.6-.24-.05-.26-.23-.52-.26-.05.2-.11.41-.17.61.22.04.24.2.47.25Z"/>
      <path class="cls-1" d="M20.77,126.42c.32-.3.39-1.02.64-1.44-2.32-2.55-3.93-5.5-5.69-8.37-.63,1.51.4,2.33,1.04,3.39,1.28,2.14,2.99,4.36,4.02,6.42Z"/>
      <path class="cls-1" d="M26,118.07c-.28-.08-.56-.15-.83-.23-1.01,2.39-1.89,5.01-2.8,7.59.1.14.34.21.44.36,1.16-2.41,2.13-5.15,3.2-7.71Z"/>
      <path class="cls-1" d="M26.19,117.58c.12-.26.23-.53.34-.8-.28-.08-.55-.15-.83-.23-.1.24-.17.53-.31.69.18.16.48.26.8.34Z"/>
      <path class="cls-1" d="M26.72,116.29c.09-.25.22-.45.27-.76-.31-.06-.43-.22-.76-.27-.1.24-.17.53-.31.69.19.15.55.22.8.34Z"/>
      <path class="cls-1" d="M27.12,115.09c.22-.1.28-.49.4-.79-.33-.08-.44-.28-.73-.38-.1.35-.23.63-.37.91.21.1.61.09.71.25Z"/>
      <path class="cls-1" d="M28.13,112.92c-.25-.12-.53-.23-.8-.34-.07.35-.25.5-.3.88.26.09.44.22.62.35.28-.09.34-.56.48-.88Z"/>
      <path class="cls-1" d="M28.4,112.4c.19-.4.37-.83.57-1.22-.36-.09-.58.08-.99-.09-.13.32-.29.59-.39.97.27.11.55.22.8.34Z"/>
      <path class="cls-1" d="M24.01,107.97c-1.65-.46-2.14-1.59-2.45-2.82-.28,1.1.57,1.95.95,2.83.61.27,1.35.42,1.49,0Z"/>
      <path class="cls-1" d="M24.04,106.96c.2.07.3-.03.47.01.03-1.33.08-2.67-.06-3.9-.31.94-.01,2.53-.37,3.72-.02.07-.09.07-.05.17Z"/>
      <path class="cls-1" d="M25,106.75c.21-.08.39-.19.57-.32-.16-.8.09-1.83-.4-2.44-.11.76-.06,1.85-.16,2.76Z"/>
      <path class="cls-1" d="M23.1,106.04c.13-.59-.01-1.43.12-2.17-.34.09-.54,1.07-.48,1.54.04.34.36.42.36.64Z"/>
      <path class="cls-1" d="M26.03,106.02c.13-.11.32-.65,0-.66-.06.25.03.42,0,.66Z"/>
      <path class="cls-1" d="M22.94,103.61c.06.01.11.03.17.04.09-.05.15-.24.09-.33-.11.05-.19.15-.26.29Z"/>
      <path class="cls-1" d="M22.62,96.3c.19-.19.63-.16.69-.35.09-.26-.47-.57-.39-.95-.23.05-.39.25-.58.38,0,.35.2.6.28.91Z"/>
      <path class="cls-1" d="M19.81,95.47c.18-.02.25-.21.31-.45-.17.03-.19.33-.31.45Z"/>
      <path class="cls-1" d="M23.61,95.74c.16-.08.35-.11.44-.3-.22-.23-.29-.56-.43-.83-.19-.03-.29.1-.41.19.02.38.28.62.39.95Z"/>
      <path class="cls-1" d="M24.39,95.3c.18,0,.25-.22.47-.17-.04-.38-.3-.64-.31-1.04-.24.02-.43.12-.57.32.12.31.27.59.41.89Z"/>
      <path class="cls-1" d="M25.28,94.89c.18-.06.34-.17.54-.21-.06-.4-.29-.71-.35-1.11-.25,0-.39.2-.61.25.09.38.27.72.42,1.07Z"/>
      <path class="cls-1" d="M26.26,94.38c.28-.08.76-.05.84-.24.12-.27-.55-.74-.46-1.14-.29.02-.47.22-.73.28.03.42.29.71.35,1.11Z"/>
      <path class="cls-1" d="M27.54,93.84c.16-.02.95-.41.98-.51.08-.29-.49-.62-.44-1.02-.32.12-.64.25-.94.4.05.42.33.72.4,1.12Z"/>
      <path class="cls-1" d="M28.87,92.89c.25,0,.33-.29.53-.39-.01-.23-.13-.39-.2-.59-.23,0-.4.13-.59.2,0,.31.21.5.26.79Z"/>
      <path class="cls-1" d="M29.74,92.12c.21-.13.35-.37.56-.5-.15-.14-.46.11-.69.11.04.14.09.26.13.39Z"/>
      <path class="cls-1" d="M26.13,90.94c.08,0,.11-.07.2-.07-.42-.73-.96-1.39-1.46-2.07.11.89.94,1.37,1.26,2.14Z"/>
      <path class="cls-1" d="M36.62,93.59c2.68-6.49,5.53-12.68,8.36-18.89-3.24,5.89-6.04,12.54-9.22,18.53.3.11.77.13.86.36Z"/>
      <path class="cls-1" d="M35.15,93.07c.14-.6-.52-1.13-.83-1.54-.36-.47-.68-.97-1.04-1.42-.61.52-.05,1.11.42,1.73.44.57.72,1.05,1.45,1.24Z"/>
      <path class="cls-1" d="M27.02,90.53c-.65-.87-1.35-1.95-1.95-2.69-.09.57.48.91.78,1.29.35.45.68.95.99,1.4.08.04.11-.03.18,0Z"/>
      <path class="cls-1" d="M27.82,90.21c.2-.44-.27-.76-.49-1.03-.69-.84-1.38-1.87-2.02-2.64-.01.22-.05.46-.14.74.8.98,1.61,1.95,2.34,2.97.14.05.19-.04.31-.04Z"/>
      <path class="cls-1" d="M35.52,92.16c.13-.02.18-.18.22-.36-.5-.25-.77-.72-1.06-1.13-.29-.4-.52-.92-.95-1.1.39.98,1.19,1.73,1.8,2.58Z"/>
      <path class="cls-1" d="M35.93,91.32c.16-.1.23-.37.33-.56-.78-.65-1.21-1.5-1.83-2.24-.03.2-.11.3-.18.43.51.82,1.17,1.55,1.68,2.37Z"/>
      <path class="cls-1" d="M27.88,88.92c.14-.07.02-.39.1-.57-.81-1.02-1.64-2.29-2.41-3.17-.12.29-.03.45-.14.74.91.94,1.66,1.99,2.46,3Z"/>
      <path class="cls-1" d="M36.72,89.74c-.72-.68-1.08-1.57-1.76-2.27-.43.59.27,1.18.62,1.66.34.46.67.82.81,1.18.22,0,.25-.33.33-.57Z"/>
      <path class="cls-1" d="M27.97,87.51c.19-.11,0-.4.12-.62-.78-.95-1.54-1.9-2.25-2.89-.21.11-.05.4-.17.61.78.96,1.59,1.9,2.3,2.9Z"/>
      <path class="cls-1" d="M36.89,89.37c.22-.19.32-.59.48-.88-.88-.54-1.21-1.4-1.74-2.15-.72.64-.03,1.08.42,1.73.38.54.6.94.83,1.3Z"/>
      <path class="cls-1" d="M28.09,85.99c.14-.07.03-.39.1-.57-.85-.78-1.48-1.93-2.2-2.63-.1.23-.06.38-.1.57.84.82,1.52,1.73,2.2,2.64Z"/>
      <path class="cls-1" d="M37.41,88.32c.16-.14.22-.44.35-.62-.8-.59-1.19-1.67-1.7-2.26-.11.09-.14.3-.24.41.49.85,1.21,1.56,1.59,2.47Z"/>
      <path class="cls-1" d="M37.83,87.48c2.12-4.51,4.32-8.88,6.59-13.11-.66-.45-1.16-1.36-1.71-2.02-1.61,3.47-3.81,7.15-5.57,10.7-.23.46-.7,1.23-.74,1.59-.05.5,1.33,2.28,1.43,2.84Z"/>
      <path class="cls-1" d="M28.19,84.53c.19-.04.02-.26.11-.39-.86-.7-1.38-1.83-2.13-2.44-.19.38.26.58.44.78.54.62,1.05,1.38,1.59,2.05Z"/>
      <path class="cls-1" d="M28.3,83.48c.15-.11,0-.44.13-.68-.91-.64-1.35-1.54-2.05-2.3-.13.03-.01.32-.14.5.78.77,1.48,1.59,2.06,2.48Z"/>
      <path class="cls-1" d="M28.35,82.24c.13-.2.04-.68.16-1.03-.94-.46-1.31-1.25-1.92-1.9-.2.1-.08.42-.17.61.72.73,1.42,1.47,1.93,2.32Z"/>
      <path class="cls-1" d="M28.46,80.72c.19-.25.09-.74.18-1.08-.75-.56-1.24-1.26-1.87-1.89-.14.33-.07.54-.18.85.67.68,1.35,1.36,1.86,2.12Z"/>
      <path class="cls-1" d="M28.65,78.98c.36-2.14.33-4.46.52-6.66-.61-.35-.88-.9-1.44-1.29-.29,2.08-.57,4.16-.96,6.3.84.26,1.33,1.07,1.88,1.65Z"/>
      <path class="cls-1" d="M29.1,71.7c.21-.99.16-2.24.26-3.33-.37-.27-.71-.81-.98-.98-.25,1.05-.37,2.02-.53,3.02.49.39.91.82,1.25,1.3Z"/>
      <path class="cls-1" d="M44.48,74.15c.21-.15.28-.54.45-.77-.61-.67-1.07-1.42-1.62-2.12-.51.64-.1,1.06.31,1.7.33.51.68.83.87,1.19Z"/>
      <path class="cls-1" d="M45.17,72.97c.12-.32.27-.57.41-.84-.59-.66-1.1-1.37-1.64-2.06-.1.28-.23.52-.38.73.4.8.95,1.52,1.61,2.18Z"/>
      <path class="cls-1" d="M29.38,67.66c.19-.73.14-1.74.3-2.6-.32-.29-.49-.66-.82-.94-.09.77-.17,1.54-.35,2.35.26.41.61.77.86,1.19Z"/>
      <path class="cls-1" d="M45.75,71.7c.74-.63-.06-1.13-.49-1.69-.36-.47-.48-.92-.8-1-.05.32-.24.39-.31.69.56.65,1.07,1.33,1.6,1.99Z"/>
      <path class="cls-1" d="M46.27,70.7c1.23-1.05-.82-2.12-1.16-2.95-.11.32-.27.57-.41.84.52.7,1.05,1.4,1.57,2.1Z"/>
      <path class="cls-1" d="M47.04,69.42c.18-.38.38-.7.59-1.03-.66-.67-1.18-1.42-1.67-2.19-.27.22-.36.73-.58,1.04.42.8.98,1.53,1.66,2.19Z"/>
      <path class="cls-1" d="M29.65,64.27c.17-.22.11-.72.16-1.03-.23-.24-.56-.43-.69-.73-.24.25-.06.66-.22,1.01.36.19.61.43.75.74Z"/>
      <path class="cls-1" d="M47.71,68.06c.94-.53.05-1.13-.41-1.78-.35-.51-.56-1.01-.78-1.29-1.07,1.12.87,2.2,1.18,3.07Z"/>
      <path class="cls-1" d="M29.82,62.59c.39-.6-.5-.87-.58-1.35-.43.62.37.94.58,1.35Z"/>
      <path class="cls-1" d="M48.38,66.93c.26-.14.09-.54.4-.6-.55-.83-1.28-1.55-1.64-2.48-.22.03-.22.44-.39.55.36.95,1.08,1.7,1.63,2.54Z"/>
      <path class="cls-1" d="M29.87,61.53c.33-.09.08-.62.26-.94-.38-.27-.46-.71-.87-.96.04.34-.05.75-.07,1.12.4.17.48.51.68.79Z"/>
      <path class="cls-1" d="M48.91,65.88c.23-.04.26-.42.37-.68-.67-.67-1.23-1.65-1.78-2.22-.38.51.21,1.21.54,1.7.32.47.7.84.87,1.2Z"/>
      <path class="cls-1" d="M30.2,59.89c.17-.86-.54-1.22-.81-1.83.03.34-.08.76-.07,1.11.59.07.55.5.88.72Z"/>
      <path class="cls-1" d="M49.42,64.89c.18-.25.33-.57.44-.96-.76-.58-1.26-1.31-1.77-2.04-.67.55.04,1.22.46,1.8.35.48.75.83.87,1.19Z"/>
      <path class="cls-1" d="M30.29,58.48c.41-.81-.49-1.28-.81-1.83-.01.29,0,.56-.06.88.56.16.61.62.87.96Z"/>
      <path class="cls-1" d="M49.91,63.77c.68-.92,1.13-2.23,1.66-3.42-.38-.42-.8-.82-1.07-1.31.42.17.75.79,1.12,1.14.18-.14.27-.45.38-.73-.58-.65-1.15-1.31-1.58-2.05-.45.67-.78,1.54-1.21,2.23.16.63.82.97,1,1.59-.54.09-.76-1.02-1.24-1.12-.06.89.97,1.16,1,2.01-.65-.13-.84-.93-1.31-1.32-.08.19-.33.51-.29.64.4.85,1.2,1.47,1.56,2.34Z"/>
      <path class="cls-1" d="M30.42,57.15c.58-1.11-.48-1.69-.82-2.44-.16.39,0,1-.12,1.52.59.15.69.57.94.92Z"/>
      <path class="cls-1" d="M52.11,59c.32-.16.41-.71.6-1.09-.93-.38-1.15-1.16-1.73-1.73-.09.28-.23.47-.36.67.33.81,1.03,1.41,1.5,2.14Z"/>
      <path class="cls-1" d="M52.74,57.8c.15-.17.24-.45.36-.67-.45-.7-.99-1.59-1.51-2.09-.05.26-.21.34-.28.58.32.82,1.13,1.36,1.43,2.18Z"/>
      <path class="cls-1" d="M53.74,55.93c-.64-.56-.96-1.55-1.55-1.98-.74.86.81,1.8,1.07,2.62.27-.02.32-.42.48-.65Z"/>
      <path class="cls-1" d="M53.93,55.44c.79-.57.12-1.2-.26-1.86-.28-.49-.55-.91-.79-1.05-.02.35-.33.53-.34.8-.02.5,1.21,1.6,1.39,2.11Z"/>
      <path class="cls-1" d="M29.6,44.32c-.37-.57-.59-1.23-1.29-1.61.4.57.3,1.65,1.29,1.61Z"/>
      <path class="cls-1" d="M31.09,44.55c-.4-.41-.4-1.05-1.28-1.19.32.48.4,1.16,1.28,1.19Z"/>
      <path class="cls-1" d="M32.54,44.9c-.4-.46-.58-1.19-1.31-1.32.36.46.41,1.32,1.31,1.32Z"/>
      <path class="cls-1" d="M33.96,45.17c-.36-.45-.68-.92-.99-1.41-.17,0-.27.12-.49.04.38.47.53,1.51,1.48,1.36Z"/>
      <path class="cls-1" d="M35.09,44.94c-.15-.49-.54-.85-.78-1.29-.2-.02-.33.07-.54.03.29.54.49,1.71,1.32,1.26Z"/>
      <path class="cls-1" d="M59.57,51.86c-.59-.4-.88-.96-1.62-1.28-.13.01-.21.25-.52.15.06.85,1.17.82,2.14,1.13Z"/>
      <path class="cls-1" d="M61.31,52.05c-.43-.47-.82-.97-1.85-1.11.43.53,1.28,1.03,1.85,1.11Z"/>
      <path class="cls-1" d="M36.14,44.63c-.15-.48-.5-.84-.72-1.28-.19-.03-.29.1-.45.12.38.4.49,1.5,1.17,1.16Z"/>
      <path class="cls-1" d="M62.64,51.99c-.18-.27-.51-.46-.69-.73-.24.02-.43.12-.73.04.27.44.79.82,1.42.69Z"/>
      <path class="cls-1" d="M63.91,51.51c-.3-.16-.42-.42-.67-.6-.27.05-.55.08-.73.28.45.38.96,1.03,1.4.33Z"/>
      <path class="cls-1" d="M65.25,50.98c-.16-.3-.52-.48-.68-.79-.34.11-.58.4-.96.45.35.74,1.03.67,1.64.33Z"/>
      <path class="cls-1" d="M37.2,43.37c.21-.04.35-.2.51-.34.03-.23-.23-.31-.28-.49-.18.06-.35.15-.54.21.06.23.25.39.31.62Z"/>
      <path class="cls-1" d="M66.37,50.57c-.2-.4-.64-.67-.84-1.07-.3.1-.49.41-.8.5.32.63,1,1.15,1.63.57Z"/>
      <path class="cls-1" d="M67.52,49.45c-.46-.21-.59-.6-.96-.86-.22.27-.52.4-.73.69.35.29.52.67.94.92.19-.34.53-.43.74-.75Z"/>
      <path class="cls-1" d="M68.26,48.71c-.4-.22-.66-.53-.9-.84-.22.04-.28.33-.47.41.3.48.98,1.41,1.37.44Z"/>
      <path class="cls-1" d="M68.5,48.29c.22-.1.33-.39.48-.64-.31-.25-.59-.51-.79-.81-.23.06-.29.43-.5.52.15.38.58.6.82.94Z"/>
      <path class="cls-1" d="M69.6,46.45c-.3-.19-.45-.46-.64-.71-.22.08-.32.37-.46.59.34.36.89,1.2,1.1.12Z"/>
      <path class="cls-1" d="M49.9,41.68c.25-.08-.1-.59,0-.89-.32-.43-.67-.84-.96-1.28-.41.94.55,1.53.95,2.17Z"/>
      <path class="cls-1" d="M69.76,46.07c.17-.03.19-.33.3-.45-.26-.21-.4-.5-.71-.67-.05.24-.23.26-.26.52.33.14.47.39.67.6Z"/>
      <path class="cls-1" d="M49.74,39.66c.36-.77-.17-1.68-.58-2.01-.08.27-.15.55-.23.83.19.44.58.76.81,1.18Z"/>
      <path class="cls-1" d="M70.07,43.65c.04-.07.12-.06.16-.14.32.02.31.23.51.32.06-.22.12-.44.18-.67-.15-.18-.39-.31-.45-.54.11-.27.38-.22.62-.07.29-.68-.12-.96-.35-1.35-.43,1.05-.65,2.48-1.17,3.38.61.18.89.68.95.02.03-.37-.53-.55-.45-.96Z"/>
      <path class="cls-1" d="M50.73,39.1c.35-.75.58-2.08.68-2.68-.33.88-.56,1.8-.68,2.68Z"/>
      <path class="cls-1" d="M49.88,37.85c.16-.08.15-.46.24-.65-.23-.24-.36-.54-.62-.77-.06.2-.11.41-.17.61.25.24.43.51.55.81Z"/>
      <path class="cls-1" d="M45.1,35.04c.34-.18.63-.43.99-.56.21-.64.24-1.17.29-1.71-.73.35-1.11,1.09-1.28,2.27Z"/>
      <path class="cls-1" d="M22.21,26.71c-.54.45.31.83.38,1.24.51-.41-.28-.87-.38-1.24Z"/>
      <path class="cls-1" d="M71.23,41.17c.37-.77.1-1.58-.4-2.02-.17.42-.03,1.08-.15,1.63.32.05.49.19.55.39Z"/>
      <path class="cls-1" d="M22.93,26.91c.19-.07.11-.62.31-.69-.04-.21-.32-.29-.34-.51-.63.26-.14.85.03,1.2Z"/>
      <path class="cls-1" d="M45.49,33c.32-.22.59-.51.95-.64.04-.44.02-.85.06-1.29-.65.34-1.02.96-1.01,1.93Z"/>
      <path class="cls-1" d="M23.56,25.71c.27-.33.4-.61.06-.88-.2.06-.31.28-.43.48.24.07.13.33.37.4Z"/>
      <path class="cls-1" d="M45.56,31.23c.37-.1.49-.62.94-.58-.08-.22.05-.56-.16-.7-.09.15-.12.17-.02.29-.42.12-.81.48-.75.99Z"/>
      <path class="cls-1" d="M24.19,24.93c.17-.08.28-.27.45-.35-.09-.18-.16-.38-.41-.47-.38.23-.21.55-.05.82Z"/>
      <path class="cls-1" d="M45.47,30.25c.36-.17.48-.74.8-.97.05-.26-.08-.42-.12-.63-.37.45-.93.96-.68,1.61Z"/>
      <path class="cls-1" d="M24.98,24.25c.17-.03.28-.16.42-.24-.18-.23-.27-.5-.53-.68-.42.34,0,.62.1.92Z"/>
      <path class="cls-1" d="M45.29,29.19c.32-.36.9-.93.58-1.45-.3.19-.44.66-.72.88-.04.24.17.34.14.58Z"/>
      <path class="cls-1" d="M25.79,23.7c.24-.12.48-.26.67-.47-.27-.14-.36-.38-.56-.57-.24-.04-.32.2-.5.28.07.29.31.47.39.76Z"/>
      <path class="cls-1" d="M44.93,28.31c.29-.25.66-.75.69-1.18-.3.24-.63.77-.69,1.18Z"/>
      <path class="cls-1" d="M27.34,22.81c-.24-.24-.47-.48-.62-.77-.86.04.2,1.58.62.77Z"/>
      <path class="cls-1" d="M55.91,30.5c-.33-.2-.39-.56-.68-.78-.2.09-.5,0-.68.11.38.41.78,1.42,1.36.67Z"/>
      <path class="cls-1" d="M44.68,27.71c.2-.31.87-.98.48-1.3-.13.45-.66.85-.48,1.3Z"/>
      <path class="cls-1" d="M28.4,22.44c-.31-.29-.54-.62-.74-.98-.21-.02-.33.13-.48.22.15.49.65,1.45,1.22.75Z"/>
      <path class="cls-1" d="M44.39,27.03c.2-.36.73-.92.48-1.3-.25.29-.7.92-.48,1.3Z"/>
      <path class="cls-1" d="M57.11,30.24c-.01-.32-.34-.46-.39-.76-.27.08-.51.2-.83.19.19.46.69.93,1.21.57Z"/>
      <path class="cls-1" d="M29.62,22.13c-.35-.41-.69-1.35-1.4-.98.24.6.62,1.45,1.4.98Z"/>
      <path class="cls-1" d="M58.54,30.03c-.21-.32-.5-.59-.7-.91-.28.06-.57.09-.83.19.27.59.8.95,1.53.72Z"/>
      <path class="cls-1" d="M44,26.27c.27-.12.32-.64.54-.87,0-.19-.07-.33-.24-.42-.11.42-.57.93-.3,1.29Z"/>
      <path class="cls-1" d="M43.58,25.85c.15-.75.74-1.37.2-1.8-.24.48-.89,1.54-.2,1.8Z"/>
      <path class="cls-1" d="M59.49,30.05c-.3-.4-.43-1.2-1.13-1.09.37.37.44,1.04,1.13,1.09Z"/>
      <path class="cls-1" d="M30.62,21.98c-.14-.47-.57-.77-.81-1.18-.15,0-.26.09-.43.06.33.44.49,1.2,1.24,1.12Z"/>
      <path class="cls-1" d="M60.74,30.1c-.31-.41-.36-.95-1.14-1.09.25.43.45,1.04,1.14,1.09Z"/>
      <path class="cls-1" d="M31.93,21.99c-.27-.46-.57-.89-.89-1.32-.23-.02-.42.04-.62.07.44.46.6,1.48,1.51,1.25Z"/>
      <path class="cls-1" d="M42.95,25.08c.14-.4.31-.92.47-1.48-.18-.1-.17-.3-.44-.36-.23.8-.61,1.46-.03,1.84Z"/>
      <path class="cls-1" d="M61.9,30.18c-.33-.32-.31-.85-1.05-.95.18.38.42.97,1.05.95Z"/>
      <path class="cls-1" d="M32.7,22.01c-.2-.48-.63-1.07-.95-1.33-.13.27.56.86.65,1.32.13.06.15-.07.29.02Z"/>
      <path class="cls-1" d="M63.02,30.25c-.02-.14-.4-.41-.02-.37-.24-.18-.69-.23-.97-.38.27.31.44.86.99.75Z"/>
      <path class="cls-1" d="M64.25,30.53c-.1-.13-.18-.27-.24-.42-.22-.06-.44-.12-.66-.18.27.22.39.53.9.61Z"/>
      <path class="cls-1" d="M33.81,22.09c-.42-.45-.45-1.12-1.24-1.36.39.47.35,1.17,1.24,1.36Z"/>
      <path class="cls-1" d="M34.92,22.39c-.48-.49-.59-1.19-1.37-1.51.42.53.39,1.31,1.37,1.51Z"/>
      <path class="cls-1" d="M35.8,22.45c-.41-.44-.5-1.06-1.18-1.34.33.46.6,1.18,1.18,1.34Z"/>
      <path class="cls-1" d="M42.67,22.86c-.28-.21-.43-.5-.77-.69-.08.46-.29.7-.37,1.15.26.28.53.54.72.85.37-.21.19-.88.42-1.31Z"/>
      <path class="cls-1" d="M36.9,22.58c-.4-.38-.36-1.01-1.17-1.16.3.42.42,1.14,1.17,1.16Z"/>
      <path class="cls-1" d="M37.73,22.81c-.26-.38-.3-.89-.9-1.08.3.36.36.86.9,1.08Z"/>
      <path class="cls-1" d="M25.56,18.44c.6.03,1.02-.24,1.49-.43-.09-1.55-.9-2.91-1.53-4.18-.65-1.3-1.47-2.55-2.38-3.7.53,1.03,1.27,1.95,1.73,3.04.12.28.09.63.23.9.05.1.24.16.29.26.05.11-.04.27,0,.42.06.22.31.45.36.64.22.83.02,1.86-.14,2.89-.02.05-.03.11-.04.17Z"/>
      <path class="cls-1" d="M31.06,16.67c.35-.54.31-1.67-.15-2.07-.1.59-.34,1.66.15,2.07Z"/>
      <path class="cls-1" d="M30.08,15.27c.09.05.12-.01.14-.08-.13-.99-.14-2.04-.87-2.69.01.51.05,1,0,1.55.26.4.56.77.74,1.22Z"/>
      <path class="cls-1" d="M28.51,12.93c.11-.83-.16-1.84-.7-2.46-.1.37.11.97,0,1.5.25.31.53.6.69.96Z"/>
      <path class="cls-1" d="M26.63,9.13c.23.54-.08,1.38.33,1.82.33-.3-.35-1.07-.06-1.51-.02-.14-.11-.25-.27-.31Z"/>
      <path class="cls-1" d="M24.83,8.33c.09.04.13-.02.07-.04-.1-.58-.08-1.23-.65-1.55.03.29-.02.63-.02.95.22.21.44.41.6.64Z"/>
      <path class="cls-1" d="M23.65,7.17c.26-.51-.1-1.47-.77-1.77-.1.18.02.24-.05.4-.86-.11-1.59-.68-1.57-1.45-.21-.12-.41-.24-.62-.35,0,.25.08.45-.03.77,1.22.68,2.18,1.5,3.04,2.39Z"/>
      <path class="cls-1" d="M22.37,5.33c.28-.1-.19-.54-.49-.61-.07.34.31.41.49.61Z"/>
      <path class="cls-1" d="M20.02,4.32c-.08-.38-.04-.83-.58-.94-.02.25.09.42.05.67.27.04.28.21.52.26Z"/>
      <path class="cls-1" d="M18.72,3.6c-.06-.31-.1-.63-.37-.82.09.3-.08.74.37.82Z"/>
      <path class="cls-1" d="M17.66,3.13c-.04-.23-.08-.45-.18-.65-.17.07.05.31-.08.52.05.06.13.11.26.13Z"/>
      <path class="cls-1" d="M13.91,131.39c.31-.55.28-1.31.55-2-.33-.62-.63-1.27-.9-1.92-.59,1.52-.15,2.86.35,3.92Z"/>
      <path class="cls-1" d="M31.95,91.47c.51.44.77,1.03,1.19,1.52-.15.29-.11.67.06.85.62.67,2.64.51,3.04.66-.26.53-.56.99-.79,1.57-2.11-.17-2.92-1.11-3.66-2.08-.33-.44-.48-1.2-1.1-1.2.36.43.28,1.15.44,1.67.4,1.34,1.91,2.95,3.84,2.55-1.79,3.75-3.74,7.21-4.96,11.95-.18.2-.61-.03-.69.34-.15.29.34.21.3.44-.19.47-.41.88-.6,1.33-.27-.16-.53-.33-.83-.47.74-1.69,1.59-3.18,2.39-4.77-.19.1-.35.38-.42.24-1.08,1.47-2.07,3.11-2.92,4.98-.65.65-1.2,1.89-1.66,3-1.25,3.02-2.31,6.34-3.53,9.12-1.26-1.96-2.81-4.03-3.99-6.11-.42-.73-.84-1.47-1.4-2.06.6,1.55,1.54,2.95,2.45,4.31.92,1.39,1.87,2.78,2.86,4.13-.16.41-.29.86-.46,1.25-1.28-2.16-2.95-4.39-4.27-6.61-.46-.78-.92-1.51-1.27-2.32.72-3.63,1.36-7.51,2.24-11.38.56-2.48,1.33-5.43,2.38-7.11.41-.66.76-1.41,1.41-1.64.09.31.35.52.5.8-.52.49-1.51.59-1.66,1.45,1.65-.42,2.91-1.53,4.46-2.12.18.04.21.16.43.18.12-.19-.09-.19-.02-.36,2.51-.38,4.52-2.13,6.27-4.12ZM17.2,115.11c.41-.83.65-1.95.91-3.09.27-1.18.6-2.38.21-3.16-.33,1.82-1.29,4.41-1.29,6.21.06.02.11.03.17.05ZM25.02,107.95c.49.66,1.18.08,1.52-.3.65-.73,1.49-1.83,1.16-3.14-.25-1-1-2.59-1.4-2.95-.51-.47-2.74-.83-3.49-.54-.28.11-.52.51-.88.83-.61.54-1.3.67-1.61,1.29-.38.77-.44,2.09-.34,2.77.08.61.41,1.72.93,2.05.41.26.63-.04.99.51,1.49.61,2.28,0,3.12-.51ZM27.54,96.64c-.27-.06-.1.15-.26.29-.43-.07-.87.13-1.4.33-.42.16-1.22.19-1.34.76.88.28,2.55-.34,3.01-1.38Z"/>
      <path class="cls-1" d="M23.8,106.77c.02-.43-.08-.8-.01-1.26-.03.34-.43,1.12.01,1.26Z"/>
      <path class="cls-1" d="M27.19,42.23c.09.45.25.86.5,1.21.2.12.25-.14.35.04.1.35.25.67.52.92.09.21-.27.25,0,.42,1.06.62,2.41,1.16,3.67,1.42,1.19.25,2.34.07,3.54-.28,1.35-.4,2.65-.71,3.22-1.74-.07.29-.44.05-.67.05.07-.26.34-.51.27-.76-.7.17-1.29.53-1.91.85-.21-.4-.69-.88-.6-1.3.51-.29.61.58,1.07.65.38.06.61-.33.9-.65-.04-.29-.35-.43-.33-.75,1.99-1.12,3.74-3.49,4.72-6.52.9-2.77.33-4.8.13-6.77,1.5,2.46.6,8.05-1.26,11.53-.41.76-.93,1.18-1.42,1.7,1.78-.24,2.64-2.62,3.37-4.87.3-.92.62-1.97.79-2.88.61-3.15.14-5.28-1.11-7.47-.97-1.71-2.58-3.03-4.47-3.92-.11-.36-.76-.91-.59-1.12,1.93,1.02,3.58,2.35,4.81,3.77.87,1,1.22,1.63,1.61,2.83.14.43.38.93.42,1.31.1,1.2-.37,2.5-.18,3.89-.02.23-.21.18-.23.42.19,0,.2.1.25.19-.04.89-.86,2.45-.41,2.99.5-.4.43-1.18.77-1.7.28-.44.81-.57,1.08-.9-.68,2.65-1.82,4.49-2.78,6.63-.94.63-1.64,1.64-2.44,2.37-.89.81-2.09,1.36-2.9,2.3-.93.13-1.78.84-2.58,1.14-.65.24-1.43.23-1.72.84-.14.3-.1.71-.16,1.03-.43,2.2-1.17,4.74-1.55,6.91.21-2.14.61-4.57.43-6.57-.04-.51.04-1.55-.64-1.55-.1.24.12.35.12.63,0,.42-.2.87-.3,1.29-.39,1.78-.52,3.88-.8,5.51-.39-.19-.5-1.17-1.16-1.21.02-.32-.07-.58-.05-.91.2-.03.27.75.65.48-.05-.77-.62-1.24-.92-1.87.08.29-.18.3-.26.53.33.61.05,1.55-.02,2.44-.14,1.94-.33,4.03-.65,6.03-.44,2.79-.57,5.57-1.13,8.23-1.69,8.05-2.41,16.03-4.16,23.98-.41.29-.77.69-1.25.85,2.14-8.21,2.68-15.5,3.83-23.66.86-6.08,1.93-12.78,2.31-18.58.06-.88.23-1.81.17-2.58-.02-.28-.2-.65-.31-1.04-.25-.89-.55-2.01-1.01-2.6-.17-.22-.25-.36-.7-.49-1.34-1.6-2.94-2.91-4.19-4.5-.59-.74-1.08-1.62-1.57-2.52-.47-.87-1.11-1.81-1.35-2.7-.11-.4-.08-1.03-.16-1.6-.14-1.11-.26-2.18,0-3.46.25-1.28.59-2.73,1.1-4,.45-1.13,1.4-2.1,2.14-2.99,1.56-1.89,3.11-2.84,5.02-3.93.32-.18.87-.32.99-.57.14-.3.02-.9-.07-1.03.04-1.55-.81-2.78-1.49-4.11-1.17-2.28-2.64-4.28-4.3-6.08-.46-.5-.92-.96-1.42-1.35-1.03-.8-2.45-1.33-3.13-2.29,1.85,1.03,3.35,2.19,4.73,3.39,1.63,1.42,2.87,3.1,4.15,4.66,1.52,1.86,2.56,4.12,4.4,5.69.19.16.5.59.84.41.16-.36-.27-.38-.16-.7.18-.32.32-.7.43-1.13.46.12.33.83-.14.74.52.17-.03.95.25,1.26.28,0,.27-.52.56-.5.8.07,1.33.67,2.07.93.89.31,1.89.32,2.75.64,1.25.46,2.2,1.19,3.16,1.77-.02.37-.47.75-.15.97.25-.03.22-.55.34-.8.28.26.7.44.79.81-.03.32-.21.7-.25,1.12-.98-.57-1.96-1.64-3.28-2.16-2.48-.97-5.28-1.28-7.48-1.46-.24.13-.5.22-.79.26-.29-.05-.21-.32-.56-.34-.27.08-.04.51-.36.44-.2.13-.33.07-.59-.04-.24.35-.68.37-1.04.55-1.27.62-2.7,1.72-3.8,2.95-1.16,1.31-2.37,2.62-2.99,4.37-.85,2.37-.95,4.8-.5,6.37.23.81.64,1.82,1.05,2.68.77,1.62,1.72,3,2.87,4.31.55.63,1.01,1.47,1.79,1.75-.7-1.49-2.19-2.72-2.93-4.33-1.41-3.1-3.02-6.15-1.08-10.8.33.3,1.1.75.69,1.62-.32.02-.35-.72-.85-.59-.05.56.42.82.68,1.21-.12.39-.13.73-.18,1.08-.11.05-.39-.2-.45.11.33.67.36,1.51.36,2.37-.08.13-.29-.29-.44-.12.11.45.39.81.7,1.15.57,2.93,2.13,5.43,4.5,7.27.37.29.89.46,1.01.88-.15.25-.25-.53-.49-.38ZM29.07,46.45c-.31.65,2.76,1.48,2.83.78.06-.53-2.45-1.07-2.83-.78Z"/>
      <path class="cls-1" d="M41.94,71.24c-.24.5-.45,1.02-.75,1.41,1.03-2.2,2-4.5,3.08-6.61,0,.12-.17.35-.05.4,1.1-2.68,2.4-4.86,3.67-7.47.87-1.78,1.76-3.8,2.73-5.58.31-.57.9-1.34.94-1.89.03-.59-.52-.94-.83-1.54-.16-.3-.15-.74-.27-.97-.13-.25-.4-.4-.54-.63-.36-.55-.63-1.32-1.01-1.95-.39-.64-1.14-1.41-1.25-1.96-.26-1.24-.36-2.6-.19-4.29.15-1.53.32-3.31.73-4.82.86-3.12,3.26-5.84,5.32-6.95.69-.37,1.83-.56,2.8-.84.95-.28,1.89-.69,2.84-.77.98-.08,2.25.13,3.48.36,1.23.23,2.57.26,3.64.65,1.66.6,2.96,2.12,4,3.25,2.38,2.58,3.3,5.45,3.51,9.14.1,1.76-.04,4.07-.76,6-.21.58-.62,1.11-.99,1.64-.38.54-.68,1.14-1.05,1.62-.9,1.17-2.39,2.17-3.54,2.91-.46.29-.85.69-1.27.91-1.31.67-2.71.85-4.25.92-.49.02-.95.14-1.41.15-1,.03-2.02-.19-3.05-.19-.37,0-.67.3-1,.38-.64.15-1.06.04-1.82.33-.19-1.22-1.13-2.41-1.84-3.49.03-1.31-.22-2.47-1.14-3.24-.16-.33-.42-.65-.62-1-.18-.31-.27-.86-.72-.86-.14.38.35.61.19.83.06-.08-.21-.13-.14.08.51,1.52,1.38,2.84,1.55,4.55-3.91,6.9-7.25,14.81-10.93,22.12.02-.05.03-.11.05-.17.3-.77.77-1.67.91-2.44ZM52.39,30.9c.42-.08.77-.29,1.14-.46.24.25.34.59.68.79-.1-.33-.39-.56-.54-.87.12-.14.32-.15.44-.3,0,.14.78.79.74.98-.02.1-1.05.72-1.18.81-1.17.83-2.33,2.01-2.92,3.44-.14.04-.41-.51-.71-.25-.21.65.69.7.22,1.37-.17-.06-.46-.46-.58-.7.15-.56.41-.92.62-1.38-.57-.09-1.11.83-1.38,1.53-.58,1.53-.94,3.49-.93,4.88,0,.76.29,1.3.47,1.98.27,1,.08,2.26.95,2.83.2-.69-.17-1.46-.24-2.16,1.42,1.52,3.06,3.31,4.54,4.95.14.1-.19,0-.05.17.54.54,1,1.26,1.86,1.71.65.34,1.44.33,1.51,1.01-.76-.07-1.74-.53-2.35-.35.42.56,1.22.88,1.96,1.14,1.28.45,2.69.98,3.93,1.14.83.11,2.54.05,3.29-.23.23-.09.49-.39.81-.55.71-.36,1.69-.37,2.31-.8.41-.28.79-.73,1.2-1.1,1.18-1.07,2.43-2.29,3.06-4.17.35-1.06.7-2.06.96-3.26.31-1.46.64-3.41.38-4.85-.26-1.41-.67-2.8-1.65-3.56-.9-2.97-3.73-5.34-8.46-6.33-2.16-.45-4.18-.69-5.67,0-.31.14-.57.49-.88.59-.52.18-1.1.03-1.57.28-.39.21-.67.59-1.01.86-.34.26-.72.47-.96.87Z"/>
      <path class="cls-1" d="M51.04,44.5c-.34-1.05-1.15-2.25-2.06-3.13-.16,1.53,1.47,2.03,2.06,3.13Z"/>
      <path class="cls-1" d="M71.32,39.1c-.16-1.24-.25-2.45-.77-3.49-.38-.76-1.01-1.31-1.7-2.08-1.06-1.19-1.98-2.46-4.05-3.08.28.61,1.11.58,1.56.84.44.27.58.7.87.95.57.5,1.11.77,1.52,1.2.79.84,1.33,1.89,1.66,3.08.14.53.13,1.18.33,1.82.08.26.4.77.57.75Z"/>
      <path class="cls-1" d="M25.91,9.58c.1-.34-.23-.84-.25-1.26-.2.4-.08,1.01.25,1.26Z"/>
    </g>
  </g>
</svg>