<?xml version="1.0" encoding="UTF-8"?>
<svg id="_レイヤー_2" data-name="レイヤー 2" xmlns="http://www.w3.org/2000/svg" viewBox="0 0 493.69 238.75">
  <defs>
    <style>
      .cls-1 {
        fill: #282a26;
      }
    </style>
  </defs>
  <g id="_レイヤー_1-2" data-name="レイヤー 1">
    <g>
      <path class="cls-1" d="M42.04,98.38c-.52,1.78-2.83,2.97-4.31,4.21-.54.44-.62.98-1.23,1.43-1.46,1.46-4.98,3.1-7.1,3.37-.73.09-3.98-.16-4.39-.48-.48-.24-.67-1.18-1.44-1.31-1.92-.43-3.14-1.24-3.38-3.07-.21-1.61.39-3.33,2.52-3.61,1.61-.21,4,2.1,6.72,1.75,1.4-.18,3.59-1.06,4.72-.98,3.64-1.88,4.14-4.93,5.16-8.05,0-.07-.04-.29-.05-.37-.04-.29-.38-.62-.49-.91.08-.53.29-1.23.21-1.89-.11-.88-.32-1.9-.45-2.93-.17-1.32-1.65-2.4-1.81-3.65-.03-.22.1-.39.05-.75v-.07c-1.15-3.06-5.38-7-8.56-8.53-1.03-.47-4.5-.17-5.82,0-.88.11-1.88,1.06-3.27,1.24-1.47.19-2.64.34-2.84-1.2-.06-.44-.06-1.04.19-1.44.09-.46,1.87-1.73,2.4-2.25,1.89-2.11,3.1-4.35,4.86-6.29.05-.16.41-1.47.44-1.85,1.11-3.57,1.48-3.55,1.01-7.22-.2-1.54-2.54-4.08-4.59-3.81-.66.08-1.76.82-2.47,1.14-.5.21-.79.25-1.36.47-.69.46-1.1,1.33-1.66,1.63-.33.34-1.1.14-1.57.57-.96.65-5.23,5.15-5.12,6.03.08.66.75,1.17.85,1.98.09.73-.04,1.42.05,2.16.09.73.26,1.46.36,2.19.12.95-.18,2.11-.02,3.36.05.37.1.81.09,1.26-.27,3.69-2.1,10.42-1.6,13.71l.05.37c-.92,3.85-.19,7.26.3,11.08.08.59-1.02,5.43-1.32,5.99-.32.41-1.61,2-2.02,2.27-2.37.15-4.86-2.44-5.13-4.49s1.81-3.96,1.52-5.04c.36-.64.33-1.53.25-2.12-.14-1.1-.56-2.02-.7-3.12-.18-1.4,1.34-2.93,1.15-4.4-.07-.51-.21-1.02-.25-1.39-.27-2.13,1.02-4.23.74-6.44-.08-.59-.5-.98-.56-1.49-.08-.66.98-2.21.89-2.95-.04-.29-.3-.63-.33-.85-.16-1.25.07-2.4-.08-3.57-.14-1.1-.43-2.18-.58-3.36-.17-1.32-.19-2.66,0-4.03.16-.47,1.03-1.25,1.29-1.58,1.64-1.78,2.86-3.87,4.74-5.53.87-.78,2.22-1.33,3.1-2.04.95-.72,1.77-1.94,3.03-2.55,2.62-1.08,7.11-3.9,9.53-4.21,3.6-.46,7.13,4.38,7.47,7.03.21,1.62-.43,3.04-.25,4.43,0,.07-.21.1-.19.25-.22,1.22-1.17,2.54-1.7,3.65-.16.47-.08,1.13-.38,1.69-.25.93-1.11,1.78-1.75,2.69-.25.4-.05.75-.29,1.23-.26.33-1.2,1.12-1.13,1.64,0,0,0,.07.03.22.29.56,1.16.3,1.83.29,1.04-.06,2.1.1,3.02.28.78.27,1.32.95,2.38,1.11,2.15.47,3.98,1.36,5.29,2.83.61.67,1.46.93,2,1.61,1.72,2.39,1.81,5.36,2.73,7.93.15.58.73,1.03.79,1.54.16,1.25.49,2.62.64,3.87.89,6.97-.57,5.44-2.21,11.32Z"/>
      <path class="cls-1" d="M62.88,95.71c-.26.33-4.53,1.92-4.97,1.98-2.06.26-3.08-1.92-3.76-3.17-.49-.91-1.4-1.61-1.87-2.37-.57-.97-.16-2.44-.42-3.3-.31-1.23-1.41-1.09-1.48-2.2-.04-.89,1.34-1.74,1.51-3.33-.1-.81-.29-1.68-.19-2.66.03-.97.59-1.79.48-2.67-.2-2.14.77-3.31,1.38-5.55,1.75-2.61,3.6-3.89,6.19-5.27,3.23-1.61,5.22,1.12,6.95,2.39.15,1.17.36,2.19.5,3.29.05.37.17.72.11,1.4-.2.77-2.1,3.4-2.75,4.16-.59.67-.37.64-.71.84-1.25.76-1.49,1.76-3.27,3.03-.27.26-.94.79-1.34,1.21-1,.95-2.18,1.03-2.77,2.22.23,1.24.65,4.47.82,5.79.03.22,1.18,1.04,1.64,1.13.24.12.01.67.3.63l.22-.03c1.61-.21,4.58-2.08,4.91-2.42,1.58-1.1,3.48-1.94,5.35-4.27.7-.98,3.27-2.43,3.79-3.02.54-.44,4.22-4.94,5.1-5.06,1.69-.22,1.98.34,2.08,1.08.05.37,0,.6-.17.99-.25.4-.7,1.51-2.03,2.8-1.22.98-1.86,1.81-1.89,2.11-.63.3-1.05,1.1-1.33,1.29-.39.42-1.26.61-2.34,1.49-1.75,1.49-2.37,2.47-4.14,3.81-.33.34-.24,1.07-.73,1.29-2.16,1.17-3.64.69-5.14,2.37ZM59.78,71.49c-.9.56-3.11,3.08-2.97,4.19.04.29.37.55.44,1.14.14,1.1-1.49,2.35-1.27,4.04.07.51.58.45,1,.25.48-.36.81-.63,1.09-.81,2.62-2.28,4.78-3.45,4.28-6.74-.06-.44-1.06-.69-1.14-1.35-.06-.44-.53-1.2-1.43-.71Z"/>
      <path class="cls-1" d="M97.51,80.08c-.19-.35-.59-.52-.96-.47-.15.02-.13.17-.27.18-.58.15-.49,1.41-1.08,2.08-1.06,1.03-2.45,1.81-3.55,3.14-2.46,2.93-6.73,5.71-10.62,6.21-2.57.33-3.75-2.5-4-4.41-.14-1.1-.27-2.13-.26-3.18.11-.91,1.19-2.39,1.68-3.2,1.51-2.8,2.89-4.85,5.22-7.01,1.59-1.55,4.33-2.87,6.4-4.77.19-.25,2.04-.93,2.48-.99.95-.12,2.9.52,3.06,1.77.15,1.17-.84,3.32-.82,3.46.07.51.38,1.22,1.08,1.43.07,0,.21-.1.43-.13.44-.06.75.05,1.19,0,1.03-.13,1.53-1.46,2.26-1.56,1.17-.15,2.88,1.5,3,2.45.05.37-.14.62-.13.76.07.51.53,1.2.96,1.67.14,1.1.15,2.29-.03,3.29.69.73.68,1.85,1.01,2.63.42.92,1.82,1.41,2.48,1.32,1.83-.23,1.73-1.64,2.86-2.75.52-.59,1.75-1.49,2.41-2.17.47-.43,4.09-5.9,5.12-6.03,1.54-.2,1.96.12,2.06.93.05.37.1.81.08,1.18-.12.24-.77,1.59-2.07,3.1-1.1,1.33-1.73,2.24-1.85,2.47-.68.53-1.1,1.33-1.63,1.85-.18.32-1.27.54-2.39,1.72-.79.85-3.15,3.39-3.95,4.09-.42.2-.73.09-1.17.22-1.04.58-1.8,1.05-2.98,1.2-1.25.16-3.55-.37-3.81-1.75-.21-1.09-1.01-2.03-1.15-3.14-.21-.49-.42-3.3-.65-3.87-.3-.63-.29-1.08-.45-1.73ZM89.52,74.17c-.95.12-2.59,1.3-3.24,2.06-.79.85-1.29,2.18-1.83,3.22-1.01,2-2.74,4.83-2.45,7.1.04.29.28.41.65.44h.07c.69.13,1.33-.7,1.82-.99,1.98-.85,3.1-2.04,4.38-3.69.82-.55,5.57-5.41,5.52-5.85,0-.07-.11-.28-.13-.43-2.51.25-3.25-2.05-4.79-1.85Z"/>
      <path class="cls-1" d="M164.64,68.87c.04.29.09.73.08,1.18-.05.23-.63,1.5-2.23,2.97-.99,1.02-1.99,1.97-2.04,2.13-.61.45-1.15,1.49-1.33,1.81-.63.3-1.47,1.31-2.54,2.34-.94.79-2.8,2.6-4.63,4.03-.19.25-.85.33-1.27.54-1.35,1.07-2.84,2.3-4.67,2.54-2.94.38-4.86-2.44-5.19-5-.24-1.91.1-3.89-.07-5.81-.03-.22-.41-.25-.7-.21-1.41,1.82-3.06,3.45-4.29,5.55-1.1,1.93-8.11,8.35-9.94,8.59-2.2.28-3.28-1.74-3.52-3.58-.08-.66-.08-1.18.05-1.95.05-.23-.12-.95-.15-1.17-.22-1.69.78-2.64.66-3.59-.16-1.25-.87-2.13-1.11-3.44-.07-.51.18-1.52-.63-1.41-.59.08-1.22.98-2.03,1.08-.73.09-1.77-.44-1.86-1.1-.09-.73.16-1.66.74-2.41.64-.83,4.24-4.2,6.15-4.44,1.39-.18,3.12.5,3.29,1.82.3,2.35-.09,5.16.08,7.6,0,.6-.44,1.77-.28,3.09.07.51.35,2.72,1.01,2.63.09.14.31.11.31.11.5-.21.79-.85,1.05-1.1,4.21-3.23,6.81-7.96,10.46-11.56.34-.27.94-.79.87-1.38.37-1.17,1.66-3.35,3.28-3.55,1.17-.15,2.9,2.24,3.01,3.12.26,2.06-1.91,3.75-1.4,6,.02.15.11.28.12.36.06,1.04-.56,2.01-.39,3.33.11.88.74,2.89,1.29,3.64.37-.05.6,0,.74-.02,2.42-.31,4.45-3.11,5.97-4.65.69-.98,2.11-2.73,2.76-3.49.52-.59,4.45-5.42,5.55-5.56,1.91-.24,2.64.18,2.81.98Z"/>
      <path class="cls-1" d="M171.34,50.11c.88-.11,1.3.28,2.25.08.07,0,.52,0,.74-.02.15-.02.59-.08.88-.11.22-.03.73-.09.95-.12,1.5.03,2.79-.36,4.14.29.18.2.77.2.6.6-.29.63-.58,1.27-.73,1.29-1.38.33-2.42.31-3.62.24l-.22.03c-.43.13-.9.56-1.19.6-.29.04-.69-.13-1.11.07-.58.15-.93.87-1.45.93-.66.08-1.48-.48-2.07-.41,0,0-.18.32-.4.35-1.71.59-2.01,7.05-2.37,8.29-.26.33.12.95.18,1.39s.24.72.14,1.1c-.66,1.28-.33,2.06-.37,3.48-.09.46-.07,1.8-.44,2.37.14,1.1.17,2.51.16,3.56-.19,1.44,1.29,3.64,3.34,3.38,1.17-.15,3.08-2.19,4.8-3.9.46-.51,1.04-.58,1.44-1,.38-.5.46-1.63,1.1-1.93.43-.13.85-.33,1.89-1.58.51-.66,1.07-1.55,1.51-2.21.66-.68,1.02-1.4,1.38-1.45,1.47-.19,2.1.1,2.2.84.04.29.09.73-.08,1.13-.13.17-1,1.55-2.06,2.58-.92.94-2.03,2.2-2.15,2.44-.54.44-2.82,3.05-3.28,3.48-1.83,1.43-2.7,3.4-4.59,4.92-.89.64-2.36.82-3.25,1.46-.28.11-.36.12-.65.16-.95.12-3.6-.14-4.23-.95-2.74-3.31-2.69-7.04-2.9-10.97-.06-.44-.1-1.33-.12-1.48.11-3.22-.03-4.32.13-5.98.03-.38.82-2.94.74-3.53-.05-.37-.25-.79-.16-1.25.03-.38.15-1.14.18-1.52.2-1.37-.13-1.62-.85-1.38-.15.02-1.49.04-1.56.05-.81.1-1.22-.22-1.88-.13-.37.05-.81.1-1.32.17-.37.05-1.24-.36-1.3-1.4-.03-1.41.79-1.97,1.45-2.05.73-.09,1.11-.07,1.62-.13.66-.08,1.95.05,2.68-.04,1.61-.28,1.66-1.63,1.88-2.78.04-.23.27-.78.58-1.27.11-.31-.75-.58-.87-2.13-.05-.37.7-.91.58-1.27-.11-.28-.13-.43-.17-.72-.01-.67,1.03-1.25,1.17-1.94,0-.07-.18-.27-.19-.35l.13-.17c.17-.4,1.17-.75,1.79-1.13.27-.26,1.17-.75,2.04-1.01,3.39-.88,3.21,1.75,3.16,3.1,0,.6-.25,1.52-.36,2.43-.03.38.09.73.07,1.11-.2.77-1.48,2.43-1.53,2.66-.35,1.31.83,1.83,1.57,1.74Z"/>
      <path class="cls-1" d="M212.36,101.26c-.61.45-.52,1.19-.75,1.74-.89,1.83-3.45,5.14-5.87,5.45-1.47.19-2.42-.21-2.8-1.51-.68-2.38.02-4.48-.13-6.85-.05-.37-.25-.79-.18-1.4.11-.31.26-.85.35-1.31.35-.79.18-1.51.45-2.3.26-.33-.05-.37-.08-.66-.03-.22.17-.4-.09-.73-.13-.43.13-1.88.16-2.26.14-1.21,1.05-2.3,1.26-3.52.09-.46-.36-1.07-.05-1.56.67-1.73-.17-3.11.05-4.86.08-1.13.87-1.38.48-2.67-.14-.5.13-.76.06-1.28.13-.17.63-5,.5-5.44-.11-.28-1.09-.38-1.29-.21-1.47.19-5.18,4.99-5.91,5.68-.87.78-1.02,3.12-2.85,3.35-3.01.39-4.46-5.7-4.8-7.22-.58-2.17-.79-4.45-1.36-6.54-.18-.8-.7-2-1.95-1.84-.73.09-2.13,1.99-2.57,2.05-.73.09-2.18-.69-2.27-1.42-.14-1.1,1.52-3.25,2.22-4.24.57-.82-.08-1.78.79-2.56.35-.19,2.22-1.33,2.8-1.4q.07,0,.15-.02c3.01.21,4.41,2.42,4.92,4.59.21,1.09.42,2.11.86,3.25.34.93.7,1.93.96,2.26.15.58.22,1.69.46,3,.21,1.02.64,2.68,2.08,2.87,1.12-.59,3.48-3.13,4.03-4.1.42-.8,1.71-2.38,1.98-3.16.29-.63.2-1.37.34-1.98.21-.7.55-1.56.78-2.64.6-1.12,1.22-2.69,1.45-3.84.15-.54,1.17-3.06,2.06-3.17,1.83-.23,3.47.3,3.83,1.97.58,2.16-.3,4.07.26,6.08.05.37-.14.62-.13.76.01.67-.59,1.2-.66,1.87-.13.76.36,1.67.41,2.63-.01,2.24-1.32,4.27-1.04,6.47.09.73-.1,2.7-.47,3.34-.42.8.38,2.41.42,3.3-.05.75-.55,1.56-.67,2.32-.47,2.15.12,4.46-.58,6.56-.67,1.73-1.53,4.37-1.05,6.33.57,2.09,3.61.81,4.07,3.21.15.58-.53,1.11-.62,1.57Z"/>
      <path class="cls-1" d="M231.42,77.11c-.41,1.47-.38,2.88-.77,4.5-.46,1.63-1.45,3.24-2.1,5.12-.31,1.08-1.21,2.17-1.42,3.46-.25.93-2.26,3.35-3.31,3.86-.38-.03-.81.1-1.25.16-.51.07-1.37-.2-1.44-.79-.07-.51,1.5-2.28,1.71-2.98.69-2.18,1.83-4.34,2.3-6.49.18-.92-.16-1.84-.04-2.68.21-2.42.53-2.83.19-5.54-.16-1.25-.74-2.29-.91-3.61-.08-.66.5-1.33.39-2.21-.16-1.25,2.24-4.09,3.85-4.3,2.28-.29,3.33,1.51,3.53,3.13.12.95-.21,1.89-.09,2.77.1.81-.21,4.73-.63,5.6Z"/>
      <path class="cls-1" d="M266.69,71.17c-.55.37-1.12,1.19-1.91,1.36-.35.19-1.82-.21-2.64-.18-1.06-.09-2.53-.5-3.7-.94-2.33-.75-3.75-3.1-4.02-5.16-.03-.22-.88-1.01-.99-1.89-.14-1.1.03-2.09.04-3.14.02-.45.56-1.49.51-1.85-.05-.37-.14-.5-.18-.8-.04-.29,2.29-4.25,2.63-5.11.53-1.71,1.11-3.57,3.26-4.3,1.72-.52,2.87-.29,3.46-2.08.24-1-.35-1.6.48-2.67.78-.92,3.24-2.06,4.49-2.22,2.42-.31,2.42,2.6,2.96,3.87.02.15.11.28.15.58.09.73-.1,1.58,0,2.31.14,1.1.92,1.97,1.04,2.85.14,1.1-.57,1.94-1.67,2.08-4.04.52-5.39-1.92-6.72-1.75-2.05.26-3.11,2.49-3.57,4.19,0,.07.13,1.03.15,1.17.26,2.06-1.38,3.83-1.09,6.03s2.91,5.22,5.42,4.45c.15-.02.21-.1.36-.12,2.11-1.02,2.8-1.4,4.73-2.1.2-.17.94-1.39,1.37-1.52,1.7-.74,2.39-2.92,4.1-3.51.77-.4,2-2.42,2.46-2.93.37-.57,3.49-5.37,4.22-5.47.66-.08,1.65.09,1.77.97.04.29.09.73-.02,1.05-.05.16.11,1.4-1.13,2.83-.98,1.1-2.19,2.15-2.16,2.37-.41.28-.79,1.37-1.13,1.64-.27.18-1.19.6-2.04,1.53-1.94,2.34-6.72,7.5-9.31,8.28-.35.19-.82.03-1.32.17Z"/>
      <path class="cls-1" d="M314.09,49.8c.27,2.13-3.46,4.99-5.65,5.42-.59.08-1.67,1.56-2.26,2.15-.75.54-3.28,1.76-4.33,1.75-1.7.14-4.03,1.19-3.37,2.82-.19,2.04-2.08,4.15-3.64,5.39-.74.62-1.67,1.56-2.52,1.89-.99.42-2.27.36-3.31.35-2.86-.16-4.84-1.1-6.04-3.48-.45-.61-1.44-2.5-1.53-3.24-.06-.44.32-1.01.25-1.52-.11-1.4-.14-3.41,0-5.22,0-1.12.83-2.27,1.36-3.38.71-1.43,1.47-1.9,2.27-3.27.95-1.32,1.64-1.78,3.15-2.79.98-.5.79-1.97.7-2.7-.18-1.39.89-4.14,2.76-4.08.15-.02.29-.04.52,0,2.67,1,2.97,2.83,3.77,4.96.17.72.68,1.26.99,1.89,0,.07.04.29.05.37.19,1.47,1.15,3.14,1.34,4.6.1.81.03,1.41.14,2.22.09.73.42,2.11,1.7,2.17,1.58.1,3.25-.86,5.19-2.01.33-.34,1.25-.68,1.6-.88.9-.56,1.25-1.28,1.91-1.96,1.55-1.32,2.76-2.37,2.98-2.4.66-.08,1.26-.09,1.66.16.19.27.3.63.32.78ZM287.82,53.84c0,.52-.19,2.56-.31,2.8-.59,1.79-.41,4.38-.2,5.99.23,1.76,1.21,3.05,3.4,3.22.15-.02.21-.1.43-.13,1.32-1.36,1.59-1.55,1.84-3.07.4-2.14,1.94-.02,1.16-6.12-.12-.95-2.17-2.41-3.25-4.96-1.21.45-2.81.81-3.07,2.26Z"/>
      <path class="cls-1" d="M373.69,45.6c.3-.56,4.41-5.19,5.51-5.33,1.76-.23,2.32.08,2.42.81.04.29.09.73,0,1.12-.13.17-.85,1.53-2.4,2.84-1.33,1.29-2.11,2.14-2.17,2.29-.69.46-1.25,1.28-1.8,1.65-.39.42-5.12,5.43-5.59,5.86-.2.18-4.35,2.72-4.87,2.79-2.64.34-7.05-2.01-7.37-4.5-.08-.59-.56-.9-.63-1.41-.17-1.32-.19-2.66-.37-4.06-.08-.59-.2-1.54-1.08-1.43-.29.04-.44.06-.58.15-.5.74-.91,1.61-1.63,2.45-1.58,2.22-3.15,4.51-4.49,6.92-.75,1.14-1.88,1.66-2.2,2.67-.45,1.7-2.24,4.61-4.3,4.88-1.69.22-2.72-1.44-2.86-2.54-.09-.73-.03-1.41-.13-2.15-.11-.88-.35-1.6-.46-2.4-.03-.22,0-.52-.01-.67.06-1.87-.47-3.67-.41-5.54-.02-.74.26-1.45.17-2.19s-.44-1.14-1.07-1.35c-.5.14-.9.56-1,.95-1.4,1.9-3.3,3.33-4.68,5.38-.96,1.24-1.37,2.71-2.17,4.01-1,1.55-2.24,2.9-2.86,4.47l.05.37c.21,1.09-1.09,2-2.41,2.17-1.32.17-2.82-.46-2.99-1.78-.36-2.79,1.81-3.36,1.54-5.42-.15-1.17-.89-2.27-1.06-3.59-.05-.37-.03-.82-.09-1.26-.04-.29-.95-1-1.02-1.58-.12-.95-.39-1.89-1.86-1.7-1.91.24-3.21,2.35-4.16,2.47-.37.05-.6,0-.89.04-.73-.43-1.54-1-1.65-1.8-.25-1.98,4.92-5.85,6.9-6.11,1.17-.15,3.67.65,4.81.88,1.53.33,2.85,5.38,3.02,6.7.06.44.54.75,1.06.69.15-.02.22-.03.36-.12.67-.61,1.15-1.49,1.28-2.25.37-2.36,3.08-3.3,4.71-5.15.59-.67,3.29-2.88,4.32-3.01,2.94-.38,5,1.15,5.33,3.72.12.95-.42,1.99-.34,2.58.06.44.7.81.78,1.39.1.81-1.04,2.37-.93,3.25.11.88.51,1.65.6,2.39.04.29.48.24.77.2l.29-.04c1.13-1.64,2.03-3.39,3.14-5.18.46-.51,1.27-1.13,1.71-1.79.57-.82,1.13-1.64,1.53-2.58,1.09-2.53,1.98-3.76,4.98-4.82.71-.24,1.33-.69,2.14-.8,2.5-.32,3.14,2.36,3.33,3.9.22,1.69.18,3.19.37,4.65.08.66.22,1.17.31,1.83.04.29.02.74.06,1.04.08.59,1.64,1.73,2.19,1.96,2.11-.42,3.7-1.37,5.91-3.37.91-1.09,2.42-2.7,2.91-3.51Z"/>
      <path class="cls-1" d="M389.07,81.83c-.42-.39-.98-.62-1.4-1.01-.33-.26-.17-.72-.43-.99-.88-1.01-1.02-.99-1.34-2.29-.05-.37-.99-.77-1.27-1.18-.29-1.08-.41-2.04-.98-3.01-.36-.48-.95-1-1.02-1.58-.05-.37.03-.97-.21-1.62-.15-.58-.75-1.17-.83-1.83-.06-.44-.25-.79-.31-1.23-.21-1.02-.23-1.76-.22-2.88v-.07c-.08-.51-.29-1.01-.52-1.65-.32-.78.51-1.86.32-2.73-.05-.37-.66-.51-.71-.88-.1-.81-.43-3.38-.3-4.07.03-.38.45-.58.4-.95-.15-1.77-.75-4.68-.52-6.95l-.33-.26c-.07-.51.49-2.6.41-3.19-.33-1.38-1.6-2.03-2.77-3-.17-.2-.24-.72-.49-.91-.21-.49-.79-.94-.92-1.37-.17-.72,2.05-2.05,2.77-2.22.3.04.82-.03.96-.05,1.54-.2,1.81-2.17,1.41-3.54-.02-.15.51-1.26.54-1.64.15-1.14-.53-2.99-.43-3.97.12-.24.23-.55.48-.88.24-.48.52-1.19.55-1.56.41-2.59.8-6,1.54-8.33.05-.16-.07-.51-.09-.73-.06-.44.87-1.38,1.27-1.73v-.07c-.43-.99.13-1.81.02-2.69-.05-.37-.09-.73,0-1.12.21-.7,1.25-1.88.82-2.34.38-1.09,2.04-1.01,1.82-2.1-.03-.22-.12-.36-.16-.65-.12-.95,1.35-1.14,1.76-2.02.47-.96.08-2.32,1.76-2.54.73-.09,3.78,2.13,4.1,2.91.31.71-.37,2.96-.25,3.84.11.88.22,1.69.31,2.42.13,1.03-1.14,1.04-1.68,1.48-.54.44-1.67,1.56-1.94,2.34-.16.47-.53,2.83-.79,3.76-.33.94-.92,2.13-.72,3.15.05.37-.69.98-1.09,1.41-.54.44-.15,1.14-.36,1.84-.07,1.2-.52,2.38-1.05,3.42-.06.16.11,1.48.1,1.93-.42,1.99-2.26,7.38-1.7,8.87.53,1.8,3.73,4.67,6.37,4.33,5.21-.67,6.51-3.89,7.62-4.04,1.62-.21,2.32.08,2.56.79.04.29.09.73,0,1.12-.05.16-.63,1.5-2.1,2.81-2.4,2.25-5.66,2.44-6.9,2.6-3.67.47-5.76-1.28-6.91-1.5-.27.18-.79.25-.9.56-.06.68,0,1.12.16,1.84.44,1.66,1.07,1.95,2.9,3.43,1.04,1.13-.08,2.25.63,3.2,1.16,1.49,1.88,3.04,2.95,4.4.1.21-.12.24.04.29.17.13.09.73.3,1.16.27.34,2.97,5.14,3.31,5.47.4.77.23,1.76.65,2.16.53.6,1.36,1.32,1.59,1.96.19.35-.1.98.06,1.63.61,1.86,1.94,3.48,2.37,5.14.18.8.2,1.54.46,2.4.19.35.26.86.4,1.37.33,1.45-.5,1.93-1.32,3.08-.39.42-.78.92-1.09,1.41-.37.64-2.15,1.25-2.81,1.33-1.69.22-4.92-.56-6.88-2.48ZM395.15,72.85c-.22-.57-.65-.96-.73-1.62-.08-.59-.16-1.25-.25-1.98-.08-.66-1.02-.99-1.1-1.58-.06-.44-.09-.73-.16-1.25-.08-.66-.94-.92-1.18-1.64,0-.07-.08-.06-.17-.13-.9-1.23-.69-2.45-1.53-3.76-.19-.35-.79-.94-1.04-1.13-.42-.32-.43-.99-.51-1.65-.13-1.03-1.97-3.18-2.94-3.73-.76.47-.24,1.07,0,1.79.34,1.52.31,3.62.29,5.19-.1.39-.14.69-.07,1.2.08.59.59,1.12.67,1.71.3,1.16-.14,2.41,0,3.43.1.81,1,1.37,1.32,2.14.31,1.23.94,2.12,1.16,3.21.05.37.08.66.12.95.07.51.57.38.87.93.2.42.08.59.29,1.08,1.1,1.58,2.15,3.98,4.81,4.38l.15-.02c.44-.06,2-1.82,1.88-2.18-.12-.36-.44-.54-.57-.97-.18-.27.28-.71.22-1.22,0-.07-1.13-.68-1.32-1.55-.24-.72-.05-.96-.21-1.61Z"/>
      <path class="cls-1" d="M431.6,34.75c.27,2.13-3.46,4.99-5.65,5.42-.59.08-1.67,1.56-2.26,2.15-.75.54-3.28,1.76-4.33,1.75-1.7.14-4.03,1.19-3.37,2.82-.19,2.04-2.08,4.15-3.64,5.39-.74.62-1.67,1.56-2.52,1.89-.99.43-2.27.36-3.31.35-2.85-.16-4.84-1.1-6.04-3.48-.45-.61-1.44-2.5-1.53-3.24-.06-.44.32-1.01.25-1.52-.11-1.4-.14-3.41,0-5.22,0-1.12.83-2.27,1.36-3.38.71-1.43,1.47-1.9,2.27-3.28.95-1.32,1.64-1.78,3.15-2.79.98-.5.79-1.97.7-2.7-.18-1.39.89-4.14,2.76-4.08.15-.02.29-.04.52,0,2.67,1,2.97,2.83,3.77,4.96.17.72.68,1.26.99,1.89,0,.07.04.29.05.37.19,1.47,1.15,3.14,1.34,4.6.1.81.03,1.41.13,2.22.09.73.42,2.11,1.7,2.17,1.58.1,3.25-.86,5.19-2.01.33-.34,1.26-.68,1.6-.88.9-.56,1.25-1.28,1.91-1.96,1.55-1.32,2.76-2.37,2.98-2.4.66-.08,1.26-.09,1.66.16.18.27.3.63.32.78ZM405.33,38.79c0,.52-.19,2.56-.31,2.8-.59,1.79-.41,4.38-.2,5.99.23,1.76,1.21,3.05,3.4,3.22.15-.02.21-.1.43-.13,1.32-1.36,1.59-1.55,1.84-3.07.4-2.14,1.94-.02,1.16-6.12-.12-.95-2.17-2.41-3.25-4.96-1.21.45-2.81.81-3.07,2.26Z"/>
      <path class="cls-1" d="M447.75,29.17c-2.05.26-4.62,3.58-4.67,5.45,0,.52-1.85,2.47-1.77,3.66.09,1.26.33,2.57.51,3.96.3,2.35-.5,6.56-4.03,7.01-1.1.14-2.59-.42-2.7-1.3-.09-.73.19-1.44.25-2.12.4-1.54.17-2.78.21-4.2-.08-.59.48-.88.41-1.47-.07-.51-.99-1.29-1.35-1.77-.42-.92-.06-2.83-1.75-2.61-1.03.13-1.99,1.9-2.8,2-1.03.13-1.69-.38-1.79-1.19-.23-1.76,5.11-5.58,7.67-5.91,1.47-.19,2.75.47,3.63.36,1.91-.24,3.09-5.54,6.47-5.98,3.3-.42,7.3,1.68,7.67,4.54.09.73-.28,1.3-1.09,1.41-1.76.23-3.25-2.05-4.86-1.84Z"/>
      <path class="cls-1" d="M468.09,12.1c.88-.11,1.3.28,2.25.08.07,0,.52,0,.74-.02.15-.02.59-.08.88-.11.22-.03.73-.09.95-.12,1.5.03,2.79-.36,4.14.29.17.2.77.2.6.59-.29.63-.58,1.27-.73,1.29-1.38.33-2.42.31-3.62.24l-.22.03c-.43.13-.9.56-1.19.6s-.69-.14-1.11.07c-.58.15-.93.87-1.45.93-.66.08-1.48-.48-2.07-.41,0,0-.18.32-.4.35-1.71.59-2.01,7.05-2.37,8.29-.26.33.12.95.18,1.39.06.44.24.71.14,1.1-.66,1.28-.33,2.06-.37,3.48-.09.46-.07,1.8-.44,2.37.14,1.1.17,2.51.16,3.56-.19,1.44,1.29,3.64,3.34,3.38,1.17-.15,3.08-2.19,4.8-3.9.46-.51,1.04-.58,1.44-1,.38-.5.46-1.63,1.1-1.93.43-.13.85-.33,1.89-1.58.51-.66,1.07-1.55,1.51-2.21.66-.68,1.01-1.4,1.38-1.45,1.47-.19,2.1.1,2.2.84.04.29.09.73-.08,1.13-.13.17-1,1.55-2.06,2.58-.92.94-2.03,2.2-2.15,2.44-.54.44-2.82,3.05-3.28,3.48-1.83,1.43-2.7,3.4-4.59,4.92-.89.64-2.36.82-3.25,1.46-.28.11-.36.12-.65.16-.96.12-3.6-.14-4.23-.95-2.74-3.31-2.69-7.04-2.9-10.97-.06-.44-.1-1.33-.12-1.48.11-3.22-.03-4.32.13-5.98.03-.38.82-2.94.74-3.53-.05-.37-.25-.79-.16-1.25.03-.38.15-1.14.18-1.51.2-1.37-.13-1.62-.85-1.38-.15.02-1.49.04-1.56.05-.81.1-1.22-.22-1.88-.13-.37.05-.81.1-1.32.17-.37.05-1.24-.36-1.3-1.4-.03-1.41.79-1.97,1.45-2.05.73-.09,1.11-.07,1.62-.13.66-.08,1.95.05,2.68-.04,1.61-.28,1.66-1.63,1.88-2.78.04-.23.27-.78.58-1.27.11-.31-.75-.58-.87-2.13-.05-.37.7-.91.58-1.27-.11-.28-.13-.43-.17-.72-.01-.67,1.03-1.25,1.17-1.94,0-.07-.18-.27-.19-.35l.13-.17c.17-.4,1.17-.75,1.8-1.12.27-.26,1.17-.75,2.04-1.01,3.39-.88,3.21,1.75,3.16,3.1,0,.6-.25,1.52-.36,2.43-.03.38.09.73.07,1.11-.2.77-1.48,2.43-1.52,2.66-.35,1.31.83,1.83,1.57,1.74Z"/>
      <path class="cls-1" d="M492.94,43.6c-.41,1.47-.38,2.88-.77,4.5-.46,1.63-1.45,3.24-2.11,5.12-.31,1.08-1.21,2.17-1.42,3.47-.25.93-2.26,3.35-3.31,3.86-.38-.03-.81.1-1.25.16-.51.07-1.37-.2-1.44-.79-.07-.51,1.5-2.28,1.71-2.98.69-2.18,1.83-4.34,2.3-6.49.18-.92-.16-1.84-.04-2.68.21-2.42.53-2.83.19-5.54-.16-1.25-.74-2.29-.91-3.61-.08-.66.5-1.33.39-2.21-.16-1.25,2.24-4.09,3.85-4.3,2.28-.29,3.33,1.51,3.53,3.13.12.95-.21,1.89-.09,2.77.1.81-.21,4.73-.62,5.6Z"/>
      <path class="cls-1" d="M39.67,155.04c-.19-.35-.59-.52-.96-.47-.15.02-.13.17-.27.18-.58.15-.49,1.41-1.08,2.08-1.06,1.03-2.45,1.81-3.55,3.14-2.46,2.93-6.73,5.71-10.62,6.21-2.57.33-3.75-2.5-4-4.41-.14-1.1-.27-2.13-.26-3.18.11-.91,1.19-2.39,1.68-3.2,1.51-2.8,2.89-4.85,5.22-7.01,1.59-1.55,4.33-2.87,6.4-4.77.19-.25,2.04-.93,2.49-.99.95-.12,2.9.52,3.06,1.77.15,1.17-.84,3.32-.82,3.46.07.51.38,1.22,1.08,1.43.07,0,.21-.1.43-.13.44-.06.75.05,1.19,0,1.03-.13,1.53-1.46,2.26-1.56,1.17-.15,2.88,1.5,3,2.45.05.37-.15.62-.13.76.07.51.53,1.2.96,1.67.14,1.1.15,2.29-.03,3.29.69.73.68,1.85,1.01,2.63.42.92,1.82,1.41,2.48,1.32,1.83-.23,1.73-1.64,2.86-2.75.52-.59,1.75-1.49,2.41-2.17.47-.43,4.09-5.9,5.12-6.03,1.54-.2,1.96.12,2.06.93.05.37.1.81.08,1.18-.12.24-.77,1.59-2.07,3.1-1.1,1.33-1.73,2.24-1.85,2.47-.68.53-1.1,1.33-1.63,1.85-.18.32-1.27.54-2.39,1.72-.79.85-3.15,3.39-3.95,4.09-.42.2-.73.09-1.17.22-1.04.58-1.8,1.05-2.98,1.2-1.25.16-3.55-.37-3.8-1.75-.21-1.09-1.01-2.04-1.15-3.14-.21-.49-.42-3.3-.65-3.87-.3-.63-.29-1.08-.45-1.73ZM31.68,149.13c-.95.12-2.59,1.3-3.24,2.06-.79.85-1.29,2.18-1.83,3.22-1.01,2-2.74,4.83-2.45,7.1.04.29.28.41.65.44h.07c.69.13,1.33-.7,1.81-.99,1.98-.85,3.1-2.04,4.38-3.69.82-.55,5.57-5.41,5.52-5.85,0-.07-.11-.28-.13-.43-2.51.25-3.25-2.05-4.79-1.85Z"/>
      <path class="cls-1" d="M106.8,144.95c-.2.17-.92,1.54-2.47,2.85-1.33,1.29-2.11,2.14-2.17,2.29-.69.46-1.18,1.27-1.58,1.62-.61.45-1.71.67-2.85,1.63-.87.78-3.68,3.31-4.58,3.87-.28.11-.38-.03-.72.17-.96.65-1.74.97-2.99,1.13-1.25.16-3.4-.31-4.07-1.49-.32-.78-.07-1.71-.41-2.63-.17-.72-.5-1.58-.58-2.16-.08-.59.25-1,.36-1.84.02-.45-.55-1.35-.24-1.83.36-.72.51-1.26.42-1.99-.07-.51-1.07-.76-1.53-.85-2.99,2.32-4.08,6.57-7,9.4-.9.56-.88,1.83-1.23,2.62-.28.71-1.57,1.17-2.18,1.62-.8.77-.99,1.62-1.64,2.37-.32.41-.98.5-1.57.57-3.23.41-3.84-.85-4.53-3.3-.19-.35-.33-.85-.48-1.43-.54-1.27-.76-3.04-1.02-4.5-.06-.44-.22-1.69-1.17-1.57-.66.08-.94.79-1.75.9-.66.08-.85-.26-1.06-.69-.17-.73.12-1.43-.05-2.16-.21-1.09,3.42-4.17,5.26-4.4,1.25-.16,3.25.33,3.57,1.63.52,2.32.07,5.21.73,7.44.16.65.37,1.15,1.25,1.03.22-.03.38.03.67-.01,1.35-1.67,2.71-5.05,4.35-6.23.35-.19,1.12-1.19,1.36-1.59.24-.48,1.03-.73,1.1-1.33.41-2.07,2.68-1.24,3.18-4.29.1-.39,1.5-1.68,1.94-1.74,1.54-.2,5.55.26,6.15,1.97.27.94.54,1.87.52,2.92.01.67-.22,1.22-.21,1.89-.02.45.32.78.24,1.31-.03,1.5-.21,3.01.32,4.21.23.64,1.27,1.18,2.08,1.08,1.91-.24,2.46-1.73,3.54-2.69.66-.68,2.04-1.53,2.71-2.14.54-.44,4.82-5.47,5.92-5.61,1.69-.22,2.32.08,2.42.81.04.29.09.73,0,1.12Z"/>
      <path class="cls-1" d="M133.46,149.89c-.15.02-.37.05-.35.19-1.27,1.13-3.16,3.91-4.7,4.11-3.23.41-2.87-6.12-5.04-6.14-3.45,2.23-4.98,5.41-8.25,6.65-.7.39-1.16.3-2.06.26-1.06,1.03-3.3,1.62-4.74,2.02-2.16.65-4.6.81-6.23-.32-.09-.14-.01-.67-.02-.74-.16-.65-.55-1.35-.65-2.16-.13-1.03-.67-1.78-.15-2.89.11-.31.23-1.07.33-1.53,1.19-4.11,3.49-8.28,6.26-11.7,1.43-1.67,2.08-1.24,3.27-2.43.68-.53,1.24-1.35,1.63-1.85.44-.65,1.32-.77,1.81-1.05,1.41-1.23,1.79-2.32,3.29-2.88,1.87-.54,3.05-2.4,4.55-2.9.38.03.67-.01.82-.03,1.3-.32.81-2.42.85-3.24-.11-1.4.38-2.88.27-4.29.05-.75.1-1.58-.14-2.29-.21-.5-1.42-.64-1.54-3.31.05-.75.41-1.47.46-2.22.07-.61-.34-.93-.39-1.29-.07-1.11.91-2.21,1.06-3.34-.03-.22-.19-.35-.23-.64l-.03-.22c.14-.62,1.24-1.35,1.65-1.7.61-.45,1.23-1.43,2.16-1.77,3.23-1.01,3.42,3.44,3.41,5.68-.12,1.36,0,2.98.1,4.31.08.66.24,1.31.12,2.07-.23,1.15-.94,3.11-.93,3.25-.06.68.24,1.31.33,1.97.09.73-.43,1.32-.49,2-.22,1.22.02,3.06-.2,4.28-.24,1.07-.17,2.18-.39,3.41-.21.7-.5,1.33-.8,1.89-.24.48.15,1.17.15,1.77-.05.75-.41,1.47-.33,2.06.2,2.73.81,8.63,1.34,11.02.21,1.09.2,2.14,1.77,2.16h.07c.41-.29,4.82-5.48,5.3-5.84.56-.3.87-.19,1.43-.48,1.19-.6,2.4-3.37,3.43-3.5,1.54-.2,2.03.11,2.05.86.04.29.09.73-.15,1.14-.05.16-1.2,1.72-2.98,2.92-.41.28-2.1,2.21-2.71,2.73-.58.15-4.2,3.9-4.41,4ZM123.34,140.74c-.04-.89-.72-1.55-.68-2.38-.02-.74.74-1.81.78-2.64-.04-.29-.22-.57-.27-.94-.09-.73.32-1.61.35-2.51-.09-1.26-1.79-1.19-2.86-.75-1.23.31-3.06,2.33-4.09,2.99-.81.7-.86,1.45-1.75,2.09-.34.27-.54.44-.87.78-.58.67-1.59,2.14-2.51,3.16-.86.86-1.65,2.3-2.27,3.27-.94,1.39-1.99,3.09-2.55,4.58,0,0,0,.07.03.22.07.51.46.69.53,1.2.08.66.17,1.32.17,1.92,0,1.12,1.63,1.06,2.41.74.94-.27,1.94-.62,3.07-1.07,2.82-.73,2.8-2.6,5.31-3.37,1.45-.33,5.71-3.79,5.67-5.2.05-.75-.53-1.2-.49-2.1Z"/>
      <path class="cls-1" d="M178.11,137.31c-.19-.35-.59-.52-.96-.48-.15.02-.13.17-.28.18-.58.15-.49,1.41-1.08,2.08-1.06,1.03-2.46,1.81-3.55,3.14-2.46,2.93-6.73,5.71-10.62,6.21-2.57.33-3.75-2.5-4-4.41-.14-1.1-.27-2.13-.26-3.18.11-.91,1.19-2.39,1.68-3.2,1.51-2.8,2.89-4.85,5.22-7.01,1.59-1.55,4.33-2.87,6.4-4.77.19-.25,2.04-.93,2.48-.99.95-.12,2.9.52,3.06,1.77.15,1.17-.84,3.32-.82,3.46.07.51.38,1.22,1.08,1.43.07,0,.21-.1.43-.13.44-.06.75.05,1.19,0,1.03-.13,1.53-1.46,2.26-1.56,1.17-.15,2.88,1.5,3,2.45.05.37-.15.62-.13.76.07.51.53,1.2.96,1.67.14,1.1.14,2.29-.03,3.29.69.73.68,1.85,1.01,2.63.42.92,1.82,1.41,2.48,1.32,1.83-.24,1.73-1.64,2.86-2.75.52-.59,1.75-1.49,2.41-2.17.47-.43,4.09-5.9,5.12-6.03,1.54-.2,1.96.12,2.06.93.05.37.1.81.08,1.18-.12.24-.77,1.59-2.07,3.1-1.1,1.33-1.73,2.24-1.85,2.47-.68.53-1.1,1.33-1.63,1.85-.18.32-1.28.54-2.39,1.72-.79.85-3.15,3.39-3.95,4.09-.42.2-.73.09-1.17.22-1.04.58-1.8,1.05-2.98,1.2-1.25.16-3.55-.37-3.8-1.75-.21-1.09-1.01-2.04-1.15-3.14-.21-.49-.42-3.3-.65-3.87-.3-.63-.29-1.08-.45-1.73ZM170.11,131.39c-.95.12-2.59,1.3-3.24,2.06-.79.85-1.29,2.18-1.83,3.22-1.01,2-2.74,4.83-2.45,7.1.04.29.28.41.65.44h.07c.69.13,1.33-.7,1.81-.99,1.98-.85,3.1-2.04,4.38-3.69.83-.55,5.57-5.41,5.52-5.85,0-.07-.11-.28-.13-.43-2.5.25-3.25-2.05-4.79-1.85Z"/>
      <path class="cls-1" d="M245.23,127.22c-.2.17-.92,1.54-2.47,2.85-1.33,1.29-2.11,2.14-2.17,2.29-.69.46-1.18,1.27-1.58,1.62-.61.45-1.71.67-2.85,1.63-.87.78-3.68,3.31-4.58,3.87-.28.11-.38-.03-.72.17-.96.65-1.74.97-2.99,1.13-1.25.16-3.4-.31-4.07-1.49-.32-.78-.07-1.71-.41-2.63-.17-.72-.5-1.58-.58-2.16-.08-.59.25-1,.36-1.84.02-.45-.55-1.35-.24-1.83.36-.72.51-1.26.42-1.99-.07-.51-1.07-.76-1.53-.85-2.99,2.32-4.08,6.57-7,9.4-.9.56-.88,1.83-1.23,2.62-.28.71-1.57,1.17-2.18,1.62-.8.77-.99,1.62-1.64,2.37-.32.41-.98.5-1.57.57-3.23.41-3.84-.85-4.53-3.3-.19-.35-.33-.85-.48-1.43-.54-1.27-.76-3.04-1.02-4.5-.06-.44-.22-1.69-1.17-1.57-.66.08-.94.79-1.75.9-.66.08-.85-.26-1.06-.69-.17-.73.12-1.43-.05-2.16-.21-1.09,3.42-4.17,5.26-4.4,1.25-.16,3.25.33,3.57,1.63.52,2.32.07,5.21.73,7.44.16.65.37,1.15,1.25,1.03.22-.03.38.03.67-.01,1.35-1.67,2.71-5.05,4.35-6.23.35-.19,1.12-1.19,1.36-1.59.24-.48,1.03-.73,1.1-1.33.41-2.07,2.68-1.24,3.18-4.29.1-.39,1.5-1.68,1.94-1.74,1.54-.2,5.55.26,6.15,1.97.27.94.54,1.87.52,2.92.01.67-.22,1.22-.21,1.89-.02.45.32.78.24,1.31-.03,1.5-.21,3.01.32,4.21.23.64,1.27,1.18,2.08,1.08,1.91-.24,2.46-1.73,3.54-2.69.66-.68,2.04-1.53,2.71-2.14.54-.44,4.82-5.47,5.92-5.61,1.69-.22,2.32.08,2.42.81.04.29.09.73,0,1.12Z"/>
      <path class="cls-1" d="M252.29,107.29c.88-.11,1.3.28,2.25.09.07,0,.52,0,.74-.02.15-.02.59-.08.88-.11.22-.03.73-.09.95-.12,1.5.03,2.79-.36,4.14.29.17.2.77.2.6.59-.29.63-.58,1.27-.73,1.29-1.38.33-2.42.31-3.63.24l-.22.03c-.43.13-.9.56-1.19.6-.29.04-.69-.13-1.11.07-.58.15-.93.87-1.45.93-.66.08-1.48-.48-2.07-.41,0,0-.18.32-.4.35-1.71.59-2.01,7.05-2.37,8.29-.26.33.12.95.18,1.39.06.44.24.72.14,1.1-.66,1.28-.33,2.06-.38,3.48-.09.46-.07,1.8-.44,2.37.14,1.1.17,2.51.16,3.56-.19,1.44,1.29,3.64,3.34,3.38,1.17-.15,3.08-2.19,4.8-3.9.46-.51,1.04-.58,1.44-1,.38-.5.46-1.63,1.1-1.93.43-.13.85-.33,1.89-1.58.51-.66,1.07-1.55,1.51-2.21.66-.68,1.01-1.4,1.38-1.45,1.47-.19,2.1.1,2.2.84.04.29.09.73-.08,1.13-.13.17-1,1.55-2.06,2.58-.92.94-2.03,2.2-2.15,2.44-.54.44-2.82,3.05-3.28,3.48-1.83,1.43-2.7,3.4-4.59,4.92-.89.64-2.36.82-3.25,1.46-.28.11-.36.12-.65.16-.95.12-3.6-.14-4.22-.95-2.74-3.31-2.69-7.04-2.9-10.97-.06-.44-.1-1.33-.11-1.48.11-3.22-.03-4.32.13-5.98.03-.38.82-2.94.74-3.53-.05-.37-.25-.79-.16-1.25.03-.38.15-1.14.18-1.52.2-1.37-.13-1.62-.85-1.38-.15.02-1.49.04-1.56.05-.81.1-1.22-.22-1.88-.13-.37.05-.81.1-1.32.17-.37.05-1.24-.36-1.3-1.4-.03-1.41.79-1.97,1.45-2.05.73-.09,1.11-.07,1.62-.13.66-.08,1.95.05,2.68-.04,1.61-.28,1.66-1.63,1.88-2.78.04-.23.27-.78.58-1.27.11-.31-.75-.58-.87-2.13-.05-.37.7-.91.58-1.27-.11-.28-.13-.43-.17-.72-.01-.67,1.03-1.25,1.17-1.94,0-.07-.18-.27-.19-.35l.13-.17c.17-.4,1.17-.75,1.79-1.12.27-.26,1.17-.75,2.04-1.01,3.39-.88,3.21,1.75,3.16,3.1,0,.6-.25,1.52-.36,2.43-.03.38.09.73.07,1.11-.2.77-1.48,2.43-1.53,2.66-.35,1.31.83,1.83,1.57,1.74Z"/>
      <path class="cls-1" d="M273.1,135.21c-.13.17-3.46,1.49-3.91,1.54-1.32.17-2.6-1.68-3.15-2.43-.57-.97-.97-1.14-1.09-2.1-.13-1.03-.17-2.51-.17-2.51-.09-.73-.57-3.28-.61-4.17-.16-2.96.17-4.5.35-6.61.07-.61-.29-1.68-.45-2.93-.17-1.32.25-2.72,2.89-3.06,2.64-.34,3.94.47,4.23,2.74.25,1.98-.54,1.64-.78,3.23,0,.52-.01,1.05.06,1.63.3,2.35.02,4.85-.2,7.19.17.13.29.48.31.71.07.51-.09,1.06-.03,1.5.08.66.78,1.47,1.52,1.37,1.4-.18,5.44-5.85,6.47-7.17.84-1,2.5-3.75,3.68-3.9,1.76-.23,2.25.08,2.34.82.04.29.09.73,0,1.12-.05.16-.78,1.52-2.32,2.83-1.33,1.29-2.1,2.21-2.17,2.29-1.98,2.57-1.57,3.48-4.46,5.35-.81.63-1.72,1.71-2.51,2.56ZM273.46,101.29c-.51.07-.92-.18-1.29-.21-1.16-.3-2.18-.17-3.25-.33-.55-.23-2.58-1.53-2.92-1.79-.1-.21-.17-.2-.2-.42-.2-1.54,2.79-3.27,4.26-3.46,1.47-.19,4.96.86,5.39,1.92.27.34.37.55.41.84.2,1.54-.27,3.17-2.39,3.44Z"/>
      <path class="cls-1" d="M307.55,103.57c-1.39.18-2.87-.83-2.94-.82-.44.06-1.03.73-1.44,1-.96.65-2.5.32-2.96,1.95-.95,3.11-4.86,4.58-6.62,7.12-2.01,2.94-5.57,8.32-6.46,11.35-.05.23.35,4.51.44,5.17.05.37.68.66,1,.84,2.88-2.01,5.39-5.09,7.2-7.86.31-.49.29-1.23.62-1.57,1.96-2.19,2.87-4.4,4.28-6.81.42-.8.01-1.64.28-2.5.17-.99,1.43-2.2,2.68-2.36,2.72-.35,4.6,2.69,4.84,4.6.08.59-.24,1.07-.16,1.66.05.37.14.5.18.8.07.51-.24,1.07-.26,1.45-.09,1.65.28,3.4.49,5.01.04.29.6.59.65.96.09.73-.69,1.58-.59,2.39.09.73.69,1.33.79,2.06.1.81-.83,1.67-.93,2.66.07,1.11.07,2.3.21,3.4.08.66.24,1.31.33,1.97.09.73-.22,1.75-.33,2.65-.05.75.13,1.62.04,2.61-.1.98-.05,1.35-.59,2.39-.06.08,0,.07,0,.07.05.37.39.7.78.87,1.81-.46,2.85-2.83,4.24-3.01.59-.08.84.12,1.25.44-.02.45.04.89-.35,1.31-1.52,2.66-5.34,10.76-9.08,11.24-1.25.16-2.18-1.29-2.3-2.24-.05-.37.07-.61.1-.98-.11-.28-.42-.92-.46-1.28-.19-1.47,1.03-4.16.96-4.75-.08-.59-.35-1-.4-1.37-.24-1.83-.48-3.74-.73-5.73.07-.61.76-1.66.48-3.79-.14-1.1-.5-2.17-.64-3.27-.18-1.39.47-2.75.35-3.7-.08-.59-.6-1.19-.69-1.93-.09-.73-.15-1.77-.26-2.58-.08-.66-.1-.81-.76-1.25-.44.06-.91.49-1.01.88.15-.02.17.13.17.2.15,1.17-2,3.61-3.18,4.29-.27.26-1.07,1.56-1.39,1.97-.46.51-1.03,1.25-1.72,1.71-.94.79-5.49,3.17-6.37,3.28-3.16.4-5.67-1.74-5.97-4.09-.05-.37-.19-.87-.25-1.39-.22-1.69.95-5.42,1.92-7.18.06-.08-.06-.44-.08-.59-.04-.29-.02-.74.09-1.06.53-1.11,1.12-2.31,1.96-3.31,1.01-1.4,2.48-2.78,3.4-4.32.45-.58.21-1.29.72-1.96.88-1.31,2.45-.69,3.38-2.75,1.17-2.54,2.22-3.64,4.9-4.88.54-.44,1.47-1.9,2.21-2,.66-.08,1.04-.06,1.62-.13,1.17-.15,1.47-.78,2.2-.88,2.5-.32,5.38.06,6.41,2.24-.34.86-.99,1.62-2.23,1.78Z"/>
      <path class="cls-1" d="M361.64,111.19c.04.29.09.73.08,1.18-.05.23-.63,1.5-2.23,2.97-.99,1.02-1.99,1.97-2.04,2.13-.61.45-1.15,1.49-1.33,1.81-.63.3-1.47,1.31-2.54,2.34-.94.79-2.8,2.6-4.63,4.02-.19.25-.85.33-1.27.54-1.36,1.07-2.84,2.3-4.67,2.54-2.94.38-4.86-2.44-5.19-5.01-.24-1.91.1-3.89-.07-5.81-.03-.22-.41-.25-.7-.21-1.41,1.82-3.06,3.45-4.29,5.55-1.1,1.93-8.11,8.35-9.94,8.59-2.2.28-3.28-1.74-3.52-3.58-.08-.66-.08-1.18.05-1.95.05-.23-.12-.95-.15-1.17-.22-1.69.78-2.64.66-3.59-.16-1.25-.87-2.13-1.11-3.44-.07-.51.18-1.52-.63-1.41-.59.08-1.22.98-2.02,1.08-.73.09-1.77-.44-1.86-1.11-.09-.73.16-1.66.74-2.41.64-.83,4.24-4.2,6.15-4.44,1.39-.18,3.12.5,3.29,1.82.3,2.35-.08,5.16.08,7.6,0,.6-.44,1.77-.27,3.09.07.51.35,2.72,1.01,2.63.09.14.31.11.31.11.5-.21.79-.85,1.05-1.1,4.21-3.23,6.81-7.96,10.46-11.56.34-.27.94-.79.87-1.38.37-1.17,1.66-3.35,3.28-3.55,1.17-.15,2.9,2.24,3.01,3.12.26,2.06-1.91,3.75-1.4,6,.02.15.11.28.12.36.06,1.04-.56,2.01-.39,3.33.11.88.74,2.89,1.29,3.64.37-.05.6,0,.74-.02,2.42-.31,4.45-3.11,5.97-4.64.69-.98,2.11-2.73,2.76-3.49.52-.59,4.45-5.42,5.55-5.56,1.91-.24,2.64.18,2.81.98Z"/>
      <path class="cls-1" d="M369.77,123.95c-.26.33-4.53,1.92-4.97,1.98-2.06.26-3.08-1.92-3.76-3.17-.49-.91-1.4-1.61-1.87-2.37-.57-.97-.16-2.44-.42-3.3-.31-1.23-1.41-1.09-1.48-2.2-.04-.89,1.34-1.74,1.51-3.33-.1-.81-.29-1.68-.19-2.66.03-.97.59-1.79.48-2.67-.2-2.14.77-3.31,1.38-5.55,1.75-2.61,3.6-3.89,6.19-5.27,3.23-1.61,5.22,1.12,6.95,2.39.15,1.17.36,2.19.5,3.29.05.37.17.72.11,1.4-.2.77-2.1,3.4-2.75,4.16-.59.67-.37.64-.71.84-1.25.76-1.49,1.76-3.27,3.03-.27.26-.94.79-1.34,1.22-1,.95-2.18,1.03-2.78,2.22.23,1.24.65,4.47.82,5.79.03.22,1.18,1.04,1.64,1.13.24.12.01.67.3.63l.22-.03c1.62-.21,4.58-2.08,4.91-2.42,1.58-1.1,3.48-1.94,5.35-4.27.7-.98,3.27-2.43,3.79-3.02.54-.44,4.22-4.94,5.1-5.05,1.69-.22,1.98.34,2.08,1.08.05.37,0,.6-.17.99-.25.4-.7,1.51-2.03,2.8-1.22.98-1.86,1.81-1.89,2.11-.63.31-1.05,1.1-1.33,1.29-.39.42-1.26.61-2.34,1.49-1.75,1.49-2.37,2.47-4.14,3.81-.33.34-.24,1.07-.73,1.29-2.16,1.17-3.64.69-5.14,2.37ZM366.66,99.72c-.9.56-3.11,3.08-2.97,4.19.04.29.37.55.44,1.14.14,1.1-1.49,2.35-1.27,4.04.07.51.58.45,1,.25.48-.36.82-.63,1.09-.81,2.62-2.28,4.78-3.45,4.28-6.74-.06-.44-1.06-.69-1.14-1.35-.06-.44-.53-1.2-1.43-.71Z"/>
      <path class="cls-1" d="M24.18,237.33c-.55.37-1.12,1.19-1.91,1.36-.35.19-1.82-.21-2.64-.19-1.06-.09-2.53-.5-3.7-.94-2.33-.75-3.75-3.1-4.02-5.16-.03-.22-.88-1.01-.99-1.89-.14-1.1.03-2.09.05-3.14.02-.45.56-1.49.51-1.86-.05-.37-.14-.5-.18-.8-.04-.29,2.29-4.25,2.63-5.11.53-1.71,1.11-3.57,3.25-4.3,1.72-.52,2.87-.29,3.46-2.08.25-1-.35-1.6.48-2.67.78-.92,3.24-2.06,4.49-2.22,2.42-.31,2.42,2.6,2.96,3.87.02.15.11.28.15.58.09.73-.1,1.58,0,2.31.14,1.1.92,1.97,1.04,2.85.14,1.1-.57,1.94-1.67,2.08-4.04.52-5.39-1.92-6.72-1.75-2.06.26-3.11,2.49-3.57,4.19,0,.07.13,1.03.15,1.17.26,2.05-1.37,3.83-1.09,6.03.28,2.2,2.91,5.22,5.42,4.45.15-.02.21-.1.36-.12,2.11-1.02,2.8-1.4,4.73-2.1.2-.18.94-1.39,1.37-1.52,1.7-.74,2.39-2.92,4.1-3.51.77-.4,2-2.42,2.46-2.93.37-.57,3.49-5.37,4.22-5.47.66-.08,1.65.09,1.77.97.04.29.09.73-.01,1.05-.05.16.11,1.4-1.13,2.83-.98,1.1-2.19,2.15-2.16,2.37-.41.28-.79,1.37-1.13,1.64-.28.18-1.19.6-2.04,1.53-1.94,2.34-6.72,7.5-9.31,8.28-.35.19-.82.03-1.32.17Z"/>
      <path class="cls-1" d="M46.64,198.34c-.29,1.83-.22,3.53-.76,5.17-.13.76.28,3.32.41,4.35.03.22.08.59.03.82-1.06,2.82-1.18,3.58-1.04,6.4-.04.83-.29,3.02-.61,3.96.04.29.15.58.2.94.15,1.17-.61,1.65-.5,2.53.04.29.44.54.68.66,2.2-.28,2.24-4.09,2.88-5.44.3-.56,1.26-1.21,1.7-1.86.89-1.23,1.28-2.25,2.25-3.42.78-.92,1.02-1.92,1.88-2.78.94-.79,2.95-2.02,4.36-2.05l.37-.05c.96-.05,2.71.77,3.23,1.38.61.67.52,1.72.96,2.26.66,1.04.93.85,1.11,2.25.19,1.47,1.04,2.85,1.23,4.39.2,1.54-.1,3.3.12,4.98.07.59.53,1.2,1.26,1.11,1.84-1.36,3.31-3.26,3.98-3.87.26-.33,1.16-1.42,2.22-2.45.32-.41.69-.46.88-.71.39-.42.35-.79.67-1.2.71-.84,1.38-1.45,1.82-1.5,1.69-.22,1.81.14,1.9.88.04.29.09.73,0,1.12-.2.17-.6,1.12-2.21,2.52-1.34,1.22-1.86,1.81-2.51,2.56-.65.75-2.94,3.81-3.53,4.48-1.43,1.67-2.34,3.28-3.69,4.95-.47.43-2.74,1.92-3.33,1.99-1.25.16-2.35-1.49-2.47-2.37-.14-1.1.07-2.4-.07-3.5-.06-.44-.1-.81-.38-1.22.03-.38.13-.76.07-1.2-.12-.95-.63-2.01-.76-3.04-.12-.95-.03-2.01.27-3.09-1.22-1.34-1.32-3.34-2.38-4.62-.18-.27-.62-.22-.86-.34-2.89,1.94-4.49,6.92-5.41,9.65-.03.38-.98,1.1-1.27,1.73-.73,1.88-1.8,4.04-2.43,6.06-.2.77.08,1.78.03,2.53-.13.76-2.14,3.11-2.87,3.2-.73.09-1.59-.77-1.67-1.35-.24-.72-1.56-1.07-1.65-1.8-.11-.88.48-2.08.88-3.02-.69-.73-1.41-1.68-1.53-2.64-.13-1.03.26-2.05.51-2.98-.4-.25-.51-1.05-.56-1.49-.14-1.1-.2-2.14-.34-3.24-.03-.22.53-.52.46-1.03-.06-.44-.39-.7-.44-1.14l-.02-.15c.25-.93.31-1.68.51-2.45.35-1.91.32-3.92.42-6.02.15-.54-.21-1.09-.29-1.68-.11-.88.25-1.52.43-2.44.45-1.7.53-3.43.52-5.29-.01-1.27.65-1.95.72-3.15.08-.53.53-1.11.45-1.7-.07-.51-1.11-1.65-1.02-2.7,0-.07-.27-.34-.3-.63-.05-.37.81-1.22,1.15-1.49l-.02-.15c-.47-.76.02-1.57-.37-2.34-.13-.43-.08-.66-.06-1.04.23-.55.91-1.61.48-2.08.18-.92,1.9-.91,1.48-1.83-.12-.36-.06-.44-.07-.51-.47-.76.78-.92,1.18-1.87.25-.93-.11-2,1.29-2.18.73-.09,3.74,1.83,4.2,2.52.38.62.36,2.79.07,3.42-.14.69-.11,2.63-1.02,3.71-.45.58-1.19,1.2-1.26,1.8-.03.38-.19,2.56-.39,3.33-.28.71-.19,2.56-.55,3.88-.04.23-.6,1.12-.62,1.57Z"/>
      <path class="cls-1" d="M94.87,215.52c-.19-.35-.59-.52-.96-.47-.15.02-.13.17-.27.18-.58.15-.49,1.41-1.08,2.08-1.06,1.03-2.45,1.81-3.55,3.14-2.46,2.93-6.73,5.71-10.62,6.21-2.57.33-3.75-2.5-4-4.41-.14-1.1-.27-2.13-.26-3.18.11-.91,1.19-2.39,1.68-3.2,1.51-2.8,2.89-4.85,5.22-7.01,1.59-1.55,4.33-2.87,6.4-4.77.19-.25,2.04-.93,2.48-.99.95-.12,2.9.52,3.06,1.77.15,1.17-.84,3.32-.83,3.46.07.51.38,1.22,1.08,1.43.07,0,.21-.1.43-.13.44-.06.75.05,1.19,0,1.03-.13,1.53-1.46,2.26-1.56,1.17-.15,2.88,1.5,3,2.45.05.37-.14.61-.13.76.07.51.53,1.2.96,1.67.14,1.1.14,2.29-.03,3.29.69.73.68,1.85,1.01,2.63.42.92,1.82,1.41,2.48,1.32,1.83-.23,1.73-1.64,2.85-2.75.52-.59,1.75-1.49,2.41-2.17.47-.43,4.09-5.9,5.12-6.03,1.54-.2,1.96.12,2.06.93.05.37.1.81.08,1.18-.12.24-.77,1.59-2.06,3.1-1.1,1.33-1.73,2.24-1.85,2.48-.68.53-1.1,1.33-1.63,1.85-.18.32-1.27.54-2.39,1.72-.79.85-3.15,3.39-3.95,4.09-.42.2-.73.09-1.17.22-1.04.58-1.8,1.05-2.98,1.2-1.25.16-3.55-.37-3.81-1.75-.21-1.09-1.01-2.04-1.15-3.14-.21-.5-.42-3.3-.65-3.87-.3-.63-.29-1.08-.45-1.73ZM86.88,209.6c-.95.12-2.59,1.3-3.24,2.06-.79.85-1.29,2.18-1.83,3.22-1.01,2-2.74,4.83-2.45,7.1.04.29.28.41.65.44h.07c.69.13,1.33-.7,1.81-.99,1.98-.85,3.1-2.04,4.38-3.69.83-.55,5.57-5.41,5.52-5.85,0-.07-.11-.28-.13-.43-2.5.25-3.25-2.05-4.79-1.85Z"/>
      <path class="cls-1" d="M132.94,204.6c-2.06.26-4.62,3.58-4.67,5.45,0,.52-1.85,2.47-1.77,3.66.09,1.26.33,2.57.51,3.96.3,2.35-.5,6.56-4.03,7.01-1.1.14-2.59-.41-2.7-1.3-.09-.73.19-1.44.25-2.12.4-1.54.17-2.78.21-4.21-.08-.59.48-.88.41-1.47-.07-.51-.99-1.29-1.35-1.77-.42-.92-.06-2.83-1.75-2.61-1.03.13-1.99,1.9-2.8,2-1.03.13-1.69-.38-1.79-1.19-.23-1.76,5.11-5.58,7.67-5.91,1.47-.19,2.75.47,3.63.36,1.91-.24,3.09-5.54,6.47-5.98,3.3-.42,7.3,1.68,7.67,4.54.09.73-.28,1.3-1.09,1.41-1.76.23-3.25-2.05-4.86-1.84Z"/>
      <path class="cls-1" d="M202.08,202.68c.3-.56,4.41-5.19,5.51-5.33,1.76-.23,2.32.08,2.42.81.04.29.09.73,0,1.12-.13.17-.85,1.53-2.4,2.84-1.33,1.29-2.11,2.14-2.17,2.29-.69.46-1.25,1.28-1.8,1.65-.39.42-5.12,5.43-5.59,5.86-.2.17-4.35,2.72-4.87,2.79-2.64.34-7.05-2.01-7.37-4.5-.08-.59-.56-.9-.63-1.41-.17-1.32-.19-2.66-.37-4.06-.08-.59-.2-1.54-1.08-1.43-.29.04-.44.06-.58.15-.5.74-.91,1.61-1.63,2.45-1.58,2.22-3.15,4.51-4.48,6.92-.75,1.14-1.88,1.66-2.2,2.67-.45,1.7-2.24,4.61-4.3,4.88-1.69.22-2.72-1.44-2.86-2.54-.09-.73-.03-1.41-.13-2.15-.11-.88-.35-1.6-.46-2.4-.03-.22,0-.52-.01-.67.06-1.87-.47-3.67-.41-5.54-.02-.74.26-1.45.17-2.19-.09-.73-.44-1.14-1.07-1.36-.5.14-.9.56-1,.95-1.4,1.9-3.3,3.33-4.68,5.38-.96,1.24-1.37,2.71-2.17,4.01-1,1.54-2.24,2.9-2.86,4.47l.05.37c.21,1.09-1.08,2-2.41,2.17-1.32.17-2.82-.46-2.99-1.78-.36-2.79,1.81-3.37,1.54-5.42-.15-1.17-.89-2.27-1.06-3.6-.05-.37-.03-.82-.09-1.26-.04-.29-.95-1-1.02-1.58-.12-.95-.39-1.89-1.86-1.7-1.91.24-3.21,2.35-4.16,2.47-.37.05-.6,0-.89.04-.73-.43-1.55-1-1.65-1.8-.25-1.98,4.92-5.85,6.9-6.11,1.17-.15,3.66.65,4.81.88,1.53.33,2.85,5.38,3.02,6.7.06.44.54.75,1.06.68.15-.02.22-.03.36-.12.67-.61,1.15-1.49,1.28-2.25.37-2.36,3.08-3.3,4.71-5.15.58-.67,3.29-2.88,4.31-3.02,2.94-.38,5,1.15,5.33,3.72.12.95-.42,1.99-.34,2.58.06.44.7.81.78,1.39.1.81-1.04,2.37-.93,3.25.11.88.51,1.65.6,2.38.04.29.48.24.77.2l.29-.04c1.13-1.64,2.03-3.39,3.14-5.18.46-.51,1.27-1.13,1.71-1.79.57-.82,1.13-1.64,1.53-2.58,1.09-2.53,1.98-3.76,4.98-4.82.72-.24,1.33-.69,2.14-.8,2.5-.32,3.14,2.36,3.33,3.9.22,1.69.18,3.19.37,4.65.08.66.22,1.16.31,1.83.04.29.02.74.06,1.04.08.59,1.64,1.73,2.19,1.96,2.11-.42,3.71-1.37,5.91-3.37.91-1.09,2.42-2.7,2.91-3.51Z"/>
    </g>
  </g>
</svg>