<?xml version="1.0" encoding="UTF-8"?>
<svg id="_レイヤー_2" data-name="レイヤー 2" xmlns="http://www.w3.org/2000/svg" viewBox="0 0 144.1 64.91">
  <defs>
    <style>
      .cls-1 {
        fill: #282a26;
      }
    </style>
  </defs>
  <g id="_レイヤー_1-2" data-name="レイヤー 1">
    <g>
      <path class="cls-1" d="M52.81,4.57c.26.26.46.61.58,1.49.14,1.03.12,1.4-.47,1.48-.37.05-.2-.35-1-.23-.88.12-1.5,5.36-2.41,6.38-.06.08.04.29-.01.45.21.94-.71,1.89-.35,2.89.29,1.01-1.26,1.67-.67,3.23.54,1.2-.64,1.88-.86,2.96-.09.46.34,1.37.41,1.89.1.73-.42,1.25-.4,2,.02,2.84-.95,5.58-1.24,9.43,0,1.12-.54,2.02-.39,3.12.04.29-.75,1.6-.78,2.5.06,2.08-.16,4.28.13,6.33.03.22.36.47.4.77.07.51-.43,1.18-.36,1.69.09.66.48,1.28.58,2.01.13.95-.23,2.65-1.55,2.83-1.76.24-4.53-1.99-4.81-3.44-.28-1.45-1.59-2.84-2.03-4.43-.02-.15-1.17-1.41-1.59-1.8-.37-.55-.4-1.29-.84-1.75-.47-.68-.95-1.44-1.19-2.15-.52-1.05-1.21-1.7-1.78-2.59-.29-.48-.2-1.47-.88-2.05-2.16-1.57-1.51-1.73-2.51-3.54-.31-.63-1.08-.82-1.52-1.28-2.06-3-4.22-5.69-6.89-8.24-.51-.45-.86-1.37-1.38-1.9-.57-.89-1.59-1.2-2.02-2.19-.22-.49-2.12-1.28-2.62-1.66-.83-.63-2.55-2.79-3.65-2.63l-.29.04c-.41.8-.34,1.84-.75,2.72.29.48.85.78.93,1.29.2,1.47-.44,3.27-.92,4.69-.2.7.24,1.76.2,2.51-.54,3.14-1.27,6.52-1.77,9.88-.21,1.15-.44,3.87-.27,5.04.09.66.54,1.2.62,1.78.19,1.39-.2,2.87,0,4.33.06.44.17.72.24,1.16.05.37-.11.84-.33,1.39-.73,1.74-.52,3.28-1.02,5.07-.15.54-.59,1.13-.73,1.74-.1.91-.03,1.95.08,2.75.1.73.49,1.35.59,2.08.16,1.17-1.51,2.08-2.68,2.24-2.05.28-3.04-.92-3.25-2.46-.08-.59-.45-1.06-.6-1.64-.35-.92-.52-2.17-.67-3.19-.38-2.79,1.13-3.74,1.32-6.16.11-.84-.03-1.86,0-2.76,0-.6.51-1.19.52-1.64.05-1.28-.26-2.43-.42-3.6-.38-2.79,1.49-5.44,1.13-8.08-.05-.37-.16-.65-.19-.87-.06-.44.26-1.38.4-2,.09-.46-.15-1.1-.2-1.47-.16-1.17-.21-2.59-.07-3.73.11-.84.56-1.35.43-2.3-.09-.66.86-1.31.76-2.05-.11-.81-.45-1.65-.57-2.53-.04-.29.23-.48.23-1,.11-1.88.57-3.96.33-5.72-.17-1.25-1.51-1.73-1.61-2.47-.21-1.54.83-3.18,2.81-3.45.37-.05.71-.25,1.15-.31.37-.05,1.61.3,2.06.31,2.64.16,4.42,2.83,7.53,3.14.92.17,1.98,1.89,2.51,2.49.69.65,1.5,1.14,2.11,1.73.77.72,1.62,3.06,2.56,3.38.16.05.62.14.85.18.39.1.48.76.82,1.08.74,1.02,2.19,1.79,2.73,2.98.72,1.4,1.33,1.01,1.9,1.83.17.13.06.44.25.71.2.35,1.01.83,1.46,1.37.56.82,1.29,1.76,1.93,2.65.36.47.89,2.12,1.15,2.9.05.37,1.09.89,1.46,1.37.51.98.67,2.15,1.54,3.07,1.47,1.44,2.2,4.55,3.32,6.19l.66-.09c.58-1.72.45-4.84.32-5.8-.11-.81.7-1.96.72-2.86.18-.85.16-1.52.03-2.47-.12-.88-.26-1.31.1-1.96.85-1.39.14-2.26.56-3.52.2-.7.67-1.66.94-2.37.19-.77-.78-1.31-1.02-1.95-.64-1.93,1.18-1.73,1.06-3.14-.17-3.41,1.11-6.58.65-9.88-.03-1.27.27-1.83.46-3.13-.06-.44-.02-1.79.33-3.03.04-.23.25-.33.36-.65.14-.09-.05-.37.09-.46.4-.88.93-1.4,1.73-1.51.81-.11,1.88.11,2.72.75.32.18.12.88.43.91.25.19.62.14.86.26.6.59,1.43,1.15,1.52,1.81.05.37-.3.56.04.82Z"/>
      <path class="cls-1" d="M68.54,49.83c-.25.33-4.51,1.97-4.95,2.03-2.05.28-3.1-1.89-3.79-3.14-.5-.9-1.42-1.6-1.89-2.35-.58-.97-.19-2.44-.46-3.3-.32-1.23-1.42-1.07-1.5-2.18-.05-.89,1.33-1.75,1.48-3.34-.11-.81-.31-1.68-.22-2.66.02-.97.57-1.8.45-2.68-.22-2.14.74-3.31,1.32-5.56,1.73-2.63,3.57-3.93,6.14-5.33,3.21-1.64,5.23,1.07,6.97,2.32.16,1.17.38,2.19.53,3.29.05.37.17.72.12,1.4-.19.77-2.07,3.42-2.71,4.18-.58.68-.36.65-.71.84-1.24.77-1.47,1.77-3.24,3.06-.26.26-.94.8-1.33,1.23-.99.96-2.17,1.05-2.75,2.25.25,1.23.69,4.46.87,5.78.03.22,1.19,1.03,1.65,1.12.24.12.02.67.31.63l.22-.03c1.61-.22,4.56-2.12,4.89-2.47,1.56-1.11,3.46-1.97,5.31-4.32.69-.99,3.25-2.46,3.76-3.06.54-.45,4.17-4.98,5.05-5.1,1.69-.23,1.99.32,2.09,1.06.05.37,0,.6-.16.99-.24.41-.69,1.51-2,2.81-1.21.99-1.84,1.82-1.87,2.13-.63.31-1.04,1.12-1.31,1.3-.39.43-1.26.62-2.33,1.52-1.73,1.51-2.35,2.49-4.1,3.85-.33.34-.23,1.08-.72,1.29-2.15,1.19-3.64.73-5.12,2.42ZM65.2,25.64c-.89.57-3.08,3.12-2.93,4.22.04.29.37.55.46,1.13.15,1.1-1.47,2.37-1.23,4.05.07.51.58.44,1,.23.47-.36.81-.63,1.08-.82,2.6-2.3,4.75-3.49,4.22-6.78-.06-.44-1.06-.67-1.16-1.33-.06-.44-.54-1.2-1.44-.7Z"/>
      <path class="cls-1" d="M120.41,33.25c-.75,1.07-1.02,1.26-1.14,2.55-.11,4.05-4.09,10.43-8.93,11.09-.44.06-.9-.02-1.42-.03-1.37-.18-4.5-1.24-5.18-2.35-.83-1.68-1.2-7.08-2.41-8.78-.07.01-.29.04-.37.05,0,0-.37.05-.42.21-.83,1.01-5.19,11.1-6.29,11.25-2.42.33-4.2-.09-4.52-2.44-.12-.88.22-1.67.08-2.7-.12-.88-.55-1.79-.67-2.67-.22-1.61.58-4.49.36-6.03-.07-.51-.52-1.05-1.1-.97-.66.09-1.02.21-1.33,1.16-.14.62-1.1,1.79-1.73,2.11-.69.39-1.48,1.18-2.21,1.28-.73.1-1.13-.59-1.19-1.03-.12-.88.26-1.38.75-2.12.17-.4.07-.61.29-1.16.76-1,1.83-1.9,2.99-3.25.76-1.52,3.16-2.53,4.85-2.76,2.35-.32,3.77.23,4.06,2.35.2,1.47-.34,2.96-.18,4.13.06.44.23,2.21.3,2.72.12.88-.46,1.56-.33,2.51.04.29.4.69.83.63.73-.1.81-1.16,1.05-1.57.59-1.13,1.56-3.28,2.01-4.39.37-1.1,1.68-1.88,1.69-2.92.1-.39.8-1.23,1.09-1.27.44-.06.87.33,1.75.21.66-.09,1.08-.3,1.81-.4,1.47-.2,1.98.85,2.14,1.95.08.59-.19,1.3-.11,1.88.15,1.1.45,2.18.58,3.13.14,1.03.62,1.78.74,2.66.06.44-.04.75-.14,1.14.18.2.08.59.12.88.1.73,1.07,2.32,1.93,2.65,1.73-.46,3.26-2.92,3.73-4.33.4-1.4.43-2.82.91-4.23.08-.53-.03-1.27-.08-1.63-.18-1.32-1.37-1.83-1.59-3.37-.05-.37-.12-.88-.17-1.25-.03-.22.16-.47.14-.62-.06-3.65,1.08-8.37,4.73-10.66.21-.1.29-.04.29-.04.81-.11,1.87.56,2.59.91.19.87.49,1.95.6,2.75.1.73-.38,1.55-.12,2.41.04.29.07.51.12.88.12.88.12,1.93-.06,2.85-.14.62-.69.99-.6,1.58.09.66.37,1.07,1.1.97.29-.04.9.03,1.42.03,1.12,0,4.51-2.49,5.61-2.64.29-.04.73-.1,1.01.31.62.74.4,2.86-1.1,3.96-.76.48-2.74,1.8-3.84,1.95s-2.84.02-3.35.09c-.22.03-.8.18-1.14.38Z"/>
      <path class="cls-1" d="M142.15,39.21c-.64.76-1.21,2.04-1.98,2.44-1.03.67-2.12,1.41-3.38,2.04-.77.4-2.17,0-2.72,1.42-.36.65-1.18,2.85-2.27,3-.81.11-2.45-1.53-2.53-2.11-.11-1.33,4.23-4.54,5.09-5.86.39-.43,1.47-2.89,1.55-3.35.23-.48.52-1.12.47-1.48-.1-1.26-7.55-6.5-7.83-10.2-.08-1.11.35-2.36.24-3.69-.07-.51-.23-1.09-.21-1.54.02-.38-.09-.66-.07-1.04.94-3.49,2.85-9.66,7.76-10.34,2.05-.28,3.36,1.63,3.58,3.24.18,1.32-1.42,2.73-2.51,2.89-.44.06-1.02-.38-1.76-.28q-.15.02-.22.03c-.68.47-.49,1.34-.57,1.8-.34.79-.47,1.48-.44,2.23-.15,1.07-1.2,2.11-1.07,3.06l.02.15c-.02.38.23.57.12.88,0,.52.08,1.11,0,1.64.02.67.9,1.07,1.27,1.62.13.43-.03.9.39,1.22.2.35.83.63,1.35,1.08.74.5.53,1.12,1.77,1.47,1.64.52,3.08,1.74,4.76,2.55.07.51-.08,1.06-.02,1.5.05.37,1.15,1.86,1.16,2.98.03.74-1.31,1.9-1.95,2.66Z"/>
    </g>
  </g>
</svg>