<?xml version="1.0" encoding="UTF-8"?>
<svg id="_レイヤー_2" data-name="レイヤー 2" xmlns="http://www.w3.org/2000/svg" viewBox="0 0 209.72 75.68">
  <defs>
    <style>
      .cls-1 {
        fill: #282a26;
      }
    </style>
  </defs>
  <g id="_レイヤー_1-2" data-name="レイヤー 1">
    <g>
      <path class="cls-1" d="M18.74,16.36c-.15-1.1.5-1.79,1.67-1.95,2.93-.41,6.53-4.11,6.16-6.75-.05-.37-.03-.74-.02-1.19-.04-.29-.21-.94-.27-1.38-.19-.27-.59-.52-.96-.46-.51.07-.69.39-1.06.44-.95.13-2.03-.09-2.84.02-1.47.2-3.41,1.82-4.66,2.51-.69.39-1.75.32-2.44.71-.33.34-1.24,1.29-1.57,1.64-1.07.9-2.24,1.06-2.84,2.19-1.34,2.2-2.69,4.85-3.25,7.32-.07.61.16,1.17.11,1.85-.2,1.22-.76,2.65-.58,3.89.03.22.07.51.08.59.87,2.5.76,5.5,2.25,7.61,1.06,1.72,1.23,3.49,1.97,4.51.31.63.88.92,1.31,1.39.5.38.58.97.95,1.44.53.6,2.89,1.47,3.14,2.18.65,2,3.09,3.46,4.72,4.95.3,2.2,3.43,3.19,3.94,5.28.23,1.16,1.47,2.56,1.54,3.07.07.51-.42,1.25-.44,1.7-.06,1.73-.64,2.93-1.28,4.29-.3.56-1.25,1.22-1.71,1.66-2.06,2.38-3.76,3.58-6.37,5.29-1.4.72-2.75,1.2-4.18,2.22-.34.27-.93.28-1.44.42-1.92.71-3.61,3.64-5.29,3.87-1.03.14-2.2-.22-2.33-1.17-.03-.22.12-.24.15-.54,1.14-5.24,2.91-3.24,6.44-5.3,2.49-1.46,4.22-3.5,6.39-5.14.74-.62.78-1.38,1.11-2.25.3-.56.78-.85.67-1.66-.46-3.3-1.85-4.75-3.98-7.15v-.07c0-1.05-2.32-2.67-2.98-3.62-.7-.73-.74-1.54-1.38-2.42-1.65-1.64-3.51-3.25-5.08-4.9.06-.08-.02-.15-.04-.29-.07-.51-.84-1.23-1.1-1.49-.55-.22-.57-.37-.65-.96l-.06-.44c-.31-2.27-1.43-3.84-1.69-5.74l-.04-.29c-.05-.37-.04-.82-.1-1.26-.05-.37-.17-.72-.23-1.09-.09-.66.14-1.14.05-1.8-.1-.73-.41-1.36-.51-2.1-.21-1.54.41-2.97.74-4.36,0-.6,0-1.12.02-1.5.34-1.32,3.73-9.78,4.19-10.22.92-.87,1.89-1.46,2.82-2.33.72-.77.97-1.63,1.92-2.36,1.58-.97,3.13-1.7,4.92-2.25.7-.32,1.39-.79,2.16-1.12.85-.34,2.22-.68,3.32-.83,1.91-.26,4.09.41,5.62,1.24,2.63-.44,6.27.48,6.63,3.12.51,3.67-3.92,5.7-4.15,7.82.01,1.72-1.75,1.96-3.1,2.44-.36.12-.67.54-.96.66-.56.3-1.31.26-2.02.5-.65.17-.65.69-1.68.83-.95.13-1.62-.37-1.74-1.25Z"/>
      <path class="cls-1" d="M42.54,54.01c-.25.33-4.51,1.97-4.95,2.03-2.05.28-3.1-1.89-3.79-3.14-.5-.9-1.42-1.6-1.89-2.35-.58-.97-.19-2.44-.46-3.3-.32-1.23-1.42-1.07-1.5-2.18-.05-.89,1.33-1.75,1.48-3.34-.11-.81-.31-1.68-.22-2.66.02-.97.57-1.8.45-2.68-.22-2.14.74-3.32,1.32-5.56,1.73-2.63,3.57-3.93,6.14-5.33,3.21-1.64,5.23,1.07,6.97,2.32.16,1.17.38,2.19.53,3.29.05.37.17.72.12,1.4-.19.77-2.07,3.42-2.71,4.18-.58.68-.36.65-.7.84-1.24.77-1.47,1.77-3.24,3.06-.26.26-.94.8-1.32,1.23-.99.96-2.17,1.05-2.75,2.25.25,1.23.69,4.46.87,5.78.03.22,1.19,1.03,1.65,1.12.24.12.02.67.31.63l.22-.03c1.61-.22,4.56-2.12,4.89-2.47,1.56-1.11,3.46-1.97,5.31-4.32.69-.99,3.25-2.46,3.76-3.06.54-.45,4.17-4.98,5.05-5.1,1.69-.23,1.99.32,2.09,1.06.05.37,0,.6-.16.99-.24.41-.69,1.51-2,2.82-1.21.99-1.84,1.82-1.87,2.13-.63.31-1.04,1.11-1.31,1.3-.39.43-1.26.62-2.33,1.52-1.73,1.51-2.35,2.49-4.1,3.85-.33.34-.22,1.08-.72,1.29-2.15,1.19-3.64.73-5.12,2.42ZM39.2,29.82c-.89.57-3.08,3.12-2.93,4.21.04.29.37.55.46,1.13.15,1.1-1.47,2.37-1.23,4.05.07.51.58.44,1,.23.47-.36.81-.63,1.08-.82,2.6-2.3,4.75-3.49,4.22-6.78-.06-.44-1.06-.67-1.16-1.33-.06-.44-.54-1.2-1.44-.7Z"/>
      <path class="cls-1" d="M76.19,32.11c-2.05.28-4.58,3.62-4.62,5.49,0,.52-1.82,2.49-1.73,3.68.1,1.26.35,2.57.55,3.96.32,2.35-.44,6.56-3.96,7.05-1.1.15-2.59-.39-2.72-1.27-.1-.73.17-1.44.23-2.12.38-1.55.14-2.78.17-4.21-.08-.59.48-.89.39-1.47-.07-.51-1-1.28-1.36-1.75-.42-.91-.09-2.83-1.78-2.59-1.03.14-1.98,1.92-2.78,2.03-1.03.14-1.69-.36-1.81-1.17-.24-1.76,5.05-5.63,7.62-5.98,1.47-.2,2.75.44,3.63.32,1.91-.26,3.04-5.58,6.41-6.04,3.3-.46,7.32,1.6,7.71,4.46.1.73-.27,1.31-1.07,1.42-1.76.24-3.27-2.01-4.88-1.79Z"/>
      <path class="cls-1" d="M113.66,28.13c-.96,1.7-1.85,4.44-2.37,6.08-.02.38.09.66.08,1.11-.29,1.68-.78,3.02-1.76,4.58-.23.48-.63.83-.8,1.23-.32.42-.18.85-.14,1.14.14,1.03-1.34,2.2-2,3.34-.88,1.17-1.58,3.73-3.65,4.39-.22.03-.39-.1-.59.08-.36.12-1.29-.12-1.43-.1-.6,0-1.81-2.81-1.88-3.33-.16-1.17-.09-1.18-.27-2.5-.11-.81-.77-1.24-.89-2.12-.08-.59.19-1.3.1-1.96-.15-1.1-3.01-3.39-3.88-4.32-.78-.79-.95-1.44-2.03-2.26-.42-.32-.91-.62-1.64-.52-.73.1-1.06,1.49-1.65,2.1-1.22,1.44-1.23,1.89-2.63,2.08-.95.13-1.7-.96-1.72-1.63.01-.45-.02-.67.36-1.17.5-.74,1.3-.85,2.04-2,.61-.98,1.88-2.65,4.6-3.47.71-.25,1.49-.06,2.35-.32,2.79-.38,4.71,2.71,6.82,4.51l.03.22c.04.29-.06.68-.03.83,1.95,2.2,1.32,4.67,2.53,6.97.1.21.34.33.73.42,1.15-.31,2.29-3.45,2.3-4.43.02-.38.76-1,.88-1.76.28-2.28.19-2.94,1.93-5.5.12-.24-.04-1.34.14-1.66.29-.64.98-2.08,1.1-2.84.04-.83,1.94-2.21,3.01-2.58,1.92-.71,2.92,1.69,3.08,2.86.14,1.03-.9,1.62-1.97,1.99-.36.12-.64.24-.75.55Z"/>
      <path class="cls-1" d="M131.08,40.66c-.13.17-3.45,1.52-3.89,1.58-1.32.18-2.62-1.66-3.17-2.4-.58-.97-.98-1.14-1.11-2.09-.14-1.03-.2-2.51-.2-2.51-.1-.73-.6-3.28-.65-4.17-.19-2.96.13-4.5.28-6.61.07-.61-.31-1.68-.48-2.92-.18-1.32.22-2.72,2.86-3.08,2.64-.36,3.94.43,4.26,2.7.27,1.98-.52,1.64-.75,3.24,0,.52,0,1.05.08,1.63.32,2.35.07,4.85-.13,7.19.17.13.29.48.32.7.07.51-.08,1.06-.02,1.5.09.66.8,1.46,1.53,1.36,1.39-.19,5.39-5.9,6.4-7.23.83-1.01,2.47-3.78,3.64-3.94,1.76-.24,2.25.06,2.35.79.04.29.1.73,0,1.12-.05.16-.76,1.52-2.29,2.86-1.31,1.3-2.08,2.23-2.15,2.31-1.96,2.59-1.53,3.5-4.41,5.39-.81.63-1.7,1.73-2.48,2.58ZM131.1,6.74c-.51.07-.92-.17-1.3-.19-1.16-.29-2.19-.15-3.25-.3-.55-.22-2.6-1.51-2.93-1.76-.1-.21-.18-.2-.21-.42-.21-1.54,2.76-3.29,4.22-3.5,1.47-.2,4.97.81,5.41,1.87.27.34.37.55.42.84.21,1.54-.23,3.17-2.36,3.46Z"/>
      <path class="cls-1" d="M152.63,40.38c-.55.38-1.1,1.2-1.9,1.38-.35.2-1.82-.2-2.64-.16-1.06-.08-2.53-.47-3.71-.91-2.34-.72-3.79-3.06-4.07-5.12-.03-.22-.89-1-1.01-1.88-.15-1.1.01-2.09.02-3.14.01-.45.54-1.49.49-1.86-.05-.37-.14-.5-.19-.8-.04-.29,2.25-4.27,2.58-5.14.51-1.71,1.07-3.58,3.21-4.33,1.72-.54,2.87-.32,3.44-2.12.23-1-.37-1.59.45-2.68.77-.93,3.22-2.09,4.47-2.26,2.42-.33,2.45,2.58,3,3.84.02.15.11.28.15.58.1.73-.08,1.58.02,2.31.15,1.1.94,1.96,1.06,2.84.15,1.1-.55,1.95-1.65,2.1-4.03.56-5.41-1.87-6.73-1.69-2.05.28-3.09,2.52-3.53,4.22,0,.07.14,1.03.16,1.17.28,2.05-1.34,3.85-1.03,6.04s2.96,5.19,5.46,4.4c.15-.02.21-.1.36-.12,2.1-1.04,2.79-1.43,4.71-2.15.2-.18.93-1.4,1.36-1.53,1.69-.76,2.36-2.94,4.07-3.55.77-.4,1.98-2.44,2.43-2.95.37-.57,3.44-5.4,4.17-5.51.66-.09,1.65.07,1.78.95.04.29.1.73,0,1.05-.05.16.12,1.4-1.1,2.84-.97,1.11-2.17,2.17-2.14,2.39-.41.28-.78,1.38-1.12,1.65-.27.19-1.19.61-2.03,1.55-1.92,2.36-6.65,7.57-9.23,8.37-.35.2-.82.04-1.32.18Z"/>
      <path class="cls-1" d="M178.88,35.18c-.25.33-4.51,1.97-4.95,2.03-2.05.28-3.1-1.89-3.79-3.14-.5-.9-1.42-1.6-1.89-2.35-.58-.97-.19-2.44-.46-3.3-.32-1.23-1.42-1.07-1.5-2.18-.05-.89,1.33-1.75,1.48-3.34-.11-.81-.31-1.68-.22-2.66.02-.97.57-1.8.45-2.68-.22-2.14.74-3.31,1.32-5.56,1.73-2.63,3.57-3.93,6.14-5.33,3.21-1.64,5.23,1.07,6.97,2.32.16,1.17.38,2.19.53,3.29.05.37.17.72.12,1.4-.19.77-2.07,3.42-2.71,4.18-.58.68-.36.65-.71.84-1.24.77-1.47,1.77-3.24,3.06-.26.26-.94.8-1.32,1.23-.99.96-2.17,1.05-2.75,2.25.25,1.23.69,4.46.87,5.78.03.22,1.19,1.03,1.65,1.12.24.12.02.67.31.63l.22-.03c1.61-.22,4.56-2.12,4.89-2.47,1.56-1.11,3.46-1.97,5.31-4.32.69-.99,3.25-2.46,3.76-3.06.54-.45,4.17-4.98,5.05-5.1,1.69-.23,1.99.32,2.09,1.06.05.37,0,.6-.16.99-.24.41-.69,1.51-2,2.81-1.21.99-1.84,1.82-1.87,2.13-.63.31-1.04,1.12-1.31,1.3-.39.43-1.26.62-2.33,1.52-1.73,1.51-2.35,2.49-4.1,3.85-.33.34-.23,1.08-.72,1.29-2.15,1.19-3.64.73-5.12,2.42ZM175.54,10.99c-.89.57-3.08,3.12-2.93,4.22.04.29.37.55.46,1.13.15,1.1-1.47,2.37-1.23,4.05.07.51.58.44,1,.23.47-.36.81-.63,1.08-.82,2.6-2.3,4.75-3.49,4.22-6.78-.06-.44-1.06-.67-1.16-1.33-.06-.44-.54-1.2-1.44-.7Z"/>
      <path class="cls-1" d="M207.77,30.74c-.64.76-1.21,2.04-1.98,2.44-1.03.66-2.12,1.41-3.38,2.04-.77.4-2.17,0-2.72,1.42-.36.65-1.18,2.85-2.27,3-.81.11-2.45-1.53-2.53-2.11-.11-1.33,4.23-4.54,5.09-5.86.39-.43,1.47-2.89,1.55-3.35.23-.48.52-1.12.47-1.48-.1-1.26-7.55-6.5-7.83-10.2-.08-1.11.35-2.36.24-3.69-.07-.51-.22-1.09-.21-1.54.02-.38-.09-.66-.07-1.04.94-3.49,2.85-9.66,7.76-10.34,2.05-.28,3.36,1.63,3.59,3.24.18,1.32-1.42,2.73-2.51,2.89-.44.06-1.02-.38-1.76-.28q-.15.02-.22.03c-.68.47-.49,1.34-.57,1.8-.34.79-.47,1.48-.44,2.23-.15,1.07-1.2,2.11-1.07,3.06l.02.15c-.02.38.23.57.12.88,0,.52.08,1.11,0,1.64.02.67.9,1.07,1.27,1.62.13.43-.03.9.39,1.22.2.35.83.63,1.35,1.08.74.5.53,1.12,1.77,1.47,1.64.52,3.08,1.74,4.76,2.56.07.51-.08,1.06-.02,1.5.05.37,1.15,1.86,1.16,2.98.03.74-1.31,1.9-1.95,2.66Z"/>
    </g>
  </g>
</svg>