<?xml version="1.0" encoding="UTF-8"?>
<svg id="_レイヤー_2" data-name="レイヤー 2" xmlns="http://www.w3.org/2000/svg" viewBox="0 0 143.07 76.53">
  <defs>
    <style>
      .cls-1 {
        fill: #282a26;
      }
    </style>
  </defs>
  <g id="_レイヤー_1-2" data-name="レイヤー 1">
    <g>
      <path class="cls-1" d="M18.74,17.21c-.15-1.1.5-1.79,1.67-1.95,2.93-.41,6.53-4.11,6.17-6.75-.05-.37-.03-.74-.02-1.19-.04-.29-.21-.94-.27-1.38-.19-.27-.59-.52-.96-.46-.51.07-.69.39-1.06.44-.95.13-2.03-.09-2.84.02-1.47.2-3.41,1.82-4.66,2.51-.69.39-1.75.32-2.44.71-.33.34-1.24,1.29-1.57,1.64-1.07.9-2.25,1.06-2.84,2.19-1.34,2.2-2.69,4.85-3.25,7.32-.07.61.16,1.17.11,1.85-.2,1.22-.75,2.65-.58,3.89.03.22.07.51.08.59.87,2.5.76,5.5,2.25,7.61,1.06,1.72,1.23,3.49,1.97,4.51.31.63.88.92,1.31,1.39.5.38.58.97.95,1.44.53.6,2.89,1.47,3.14,2.18.65,2,3.09,3.46,4.72,4.95.3,2.2,3.43,3.19,3.94,5.28.23,1.16,1.47,2.56,1.54,3.07.07.51-.42,1.25-.44,1.7-.06,1.73-.64,2.93-1.28,4.29-.3.56-1.25,1.22-1.71,1.66-2.06,2.38-3.76,3.58-6.37,5.29-1.4.72-2.75,1.2-4.18,2.22-.34.27-.93.28-1.44.42-1.92.71-3.61,3.64-5.29,3.87-1.03.14-2.2-.22-2.33-1.17-.03-.22.12-.24.15-.54,1.14-5.24,2.91-3.24,6.44-5.3,2.49-1.46,4.22-3.5,6.39-5.14.74-.62.78-1.38,1.11-2.25.3-.56.78-.85.67-1.66-.46-3.3-1.85-4.75-3.97-7.15v-.07c0-1.05-2.32-2.67-2.98-3.62-.7-.73-.74-1.54-1.38-2.42-1.65-1.64-3.51-3.25-5.08-4.9.06-.08-.02-.15-.04-.29-.07-.51-.84-1.23-1.1-1.49-.55-.22-.57-.37-.65-.96l-.06-.44c-.31-2.27-1.43-3.84-1.69-5.74l-.04-.29c-.05-.37-.04-.82-.1-1.26-.05-.37-.17-.72-.23-1.09-.09-.66.14-1.14.05-1.8-.1-.73-.41-1.36-.51-2.1-.21-1.54.41-2.97.74-4.36,0-.6,0-1.12.02-1.5.34-1.32,3.73-9.78,4.19-10.22.93-.87,1.89-1.46,2.82-2.33.71-.77.97-1.63,1.92-2.36,1.58-.97,3.13-1.7,4.92-2.25.7-.32,1.39-.79,2.16-1.12.85-.34,2.22-.68,3.32-.83,1.91-.26,4.09.41,5.62,1.24,2.63-.44,6.27.48,6.63,3.12.51,3.67-3.92,5.7-4.15,7.82.01,1.72-1.75,1.96-3.1,2.44-.36.12-.67.54-.96.66-.55.3-1.31.26-2.02.5-.65.17-.65.69-1.68.83-.95.13-1.62-.37-1.74-1.25Z"/>
      <path class="cls-1" d="M42.76,20.24c-.27,1.83-.18,3.54-.71,5.18-.12.76.31,3.32.45,4.35.03.22.08.59.04.82-1.03,2.83-1.15,3.59-.98,6.41-.04.83-.25,3.02-.57,3.96.04.29.15.58.21.94.16,1.17-.59,1.65-.47,2.53.04.29.45.54.69.65,2.2-.3,2.2-4.11,2.83-5.47.3-.56,1.25-1.22,1.68-1.88.88-1.24,1.26-2.27,2.21-3.44.77-.93,1-1.93,1.85-2.8.94-.8,2.93-2.05,4.34-2.09l.37-.05c.96-.06,2.72.75,3.25,1.34.62.66.54,1.72.98,2.26.67,1.03.94.84,1.13,2.23.2,1.47,1.06,2.84,1.28,4.38.21,1.54-.07,3.3.16,4.98.08.59.54,1.2,1.27,1.09,1.83-1.37,3.28-3.29,3.94-3.91.25-.33,1.15-1.43,2.2-2.47.32-.42.68-.47.87-.72.39-.43.34-.79.65-1.21.71-.84,1.37-1.46,1.81-1.52,1.69-.23,1.81.12,1.91.86.04.29.1.73,0,1.12-.2.18-.59,1.13-2.19,2.54-1.32,1.23-1.84,1.82-2.48,2.58-.64.76-2.91,3.84-3.49,4.52-1.41,1.69-2.31,3.31-3.65,4.99-.46.44-2.72,1.94-3.3,2.03-1.25.17-2.37-1.47-2.49-2.35-.15-1.1.04-2.4-.11-3.5-.06-.44-.11-.81-.39-1.22.02-.38.12-.76.06-1.2-.13-.95-.65-2-.79-3.03-.13-.95-.05-2.01.24-3.1-1.23-1.33-1.36-3.32-2.43-4.59-.19-.27-.63-.21-.87-.33-2.87,1.96-4.42,6.96-5.31,9.7-.02.38-.97,1.11-1.25,1.74-.71,1.89-1.76,4.05-2.37,6.08-.19.77.1,1.78.05,2.53-.12.76-2.11,3.13-2.84,3.23-.73.1-1.6-.75-1.68-1.34-.25-.71-1.57-1.05-1.67-1.79-.12-.88.46-2.08.85-3.03-.7-.73-1.43-1.67-1.56-2.62-.14-1.03.24-2.05.49-2.98-.41-.24-.52-1.05-.58-1.49-.15-1.1-.22-2.14-.37-3.24-.03-.22.53-.52.45-1.03-.06-.44-.4-.69-.46-1.13l-.02-.15c.25-.93.29-1.68.48-2.46.33-1.91.28-3.92.36-6.03.15-.54-.23-1.09-.31-1.68-.12-.88.24-1.53.41-2.45.44-1.7.5-3.43.46-5.29-.03-1.27.63-1.95.69-3.16.07-.53.52-1.12.44-1.7-.07-.51-1.12-1.64-1.04-2.7-.01-.07-.27-.34-.31-.63-.05-.37.8-1.23,1.14-1.5l-.02-.15c-.48-.76,0-1.57-.4-2.34-.13-.43-.09-.66-.07-1.04.22-.55.9-1.62.46-2.08.17-.92,1.89-.93,1.46-1.85-.12-.36-.06-.44-.07-.51-.48-.76.77-.93,1.16-1.88.24-.93-.13-2,1.27-2.19.73-.1,3.76,1.8,4.23,2.48.38.62.38,2.79.1,3.42-.13.69-.08,2.63-.98,3.72-.44.58-1.18,1.21-1.24,1.81-.02.38-.17,2.56-.36,3.34-.28.71-.17,2.56-.51,3.88-.04.23-.59,1.13-.6,1.58Z"/>
      <path class="cls-1" d="M104.23,32.59c.29,2.13-3.41,5.03-5.59,5.48-.59.08-1.65,1.57-2.24,2.18-.75.55-3.26,1.8-4.31,1.79-1.7.16-4.01,1.23-3.34,2.85-.17,2.04-2.04,4.17-3.58,5.43-.73.62-1.65,1.57-2.5,1.91-.99.44-2.26.39-3.31.38-2.86-.13-4.85-1.05-6.07-3.42-.46-.61-1.46-2.49-1.57-3.22-.06-.44.31-1.01.24-1.53-.12-1.4-.17-3.41-.05-5.22,0-1.12.8-2.28,1.32-3.4.7-1.44,1.45-1.92,2.23-3.3.94-1.32,1.62-1.79,3.12-2.82.98-.51.77-1.98.67-2.71-.19-1.39.85-4.15,2.72-4.11.15-.02.29-.04.52,0,2.67.98,3,2.8,3.82,4.93.17.72.7,1.25,1.01,1.88,0,.07.04.29.05.37.2,1.47,1.18,3.12,1.38,4.59.11.81.04,1.41.16,2.22.1.73.44,2.11,1.72,2.15,1.58.08,3.24-.9,5.17-2.06.33-.34,1.25-.7,1.6-.89.89-.57,1.24-1.29,1.89-1.98,1.53-1.33,2.73-2.39,2.95-2.42.66-.09,1.26-.1,1.66.14.19.27.31.63.33.77ZM78,36.89c0,.52-.17,2.56-.29,2.8-.57,1.8-.37,4.38-.14,6,.24,1.76,1.24,3.04,3.43,3.19.15-.02.21-.1.43-.14,1.3-1.37,1.58-1.56,1.81-3.09.38-2.14,1.94-.04,1.1-6.13-.13-.95-2.2-2.39-3.29-4.92-1.21.47-2.8.83-3.04,2.29Z"/>
      <path class="cls-1" d="M132.1,34.79c.74-.62,1.64-2.17,2.31-2.78.46-.44,4.99-5.55,5.94-5.68,1.76-.24,2.38-.1,2.64.76.03.22.17.72-.01.97-.12.24-.78,1.38-2.3,2.78-1.27,1.07-3.38,3.08-3.37,3.23-.69.39-1.48,1.7-1.82,1.97-.68.47-1.08,1.35-2.12,2.53-1.49,1.63-3.38,4.2-4.84,4.4-.07,0-1.03.14-1.47.2-.73.1-2.12-1.28-3.08-2.26-2.73-2.46-2.28-6.26-5.87-8.45-.34-.33-.71.25-1,.89-.76,1-1.3,1.97-1.39,2.88-.03.3-.49.81-.99,1.48-.59.6-1.01,1.33-1.46,2.44-.17.4-.31,2.06-1.38,3.55-.06.08.04,1.34-.2,1.82-.08.46-.65,1.21-.57,1.8.04.29.42.91.22,1.61-.02.38-.33,1.91-.22,2.72.06.44-.34.79-.68.99-.32.42.15.58.19.87,0,.07-.13.17-.17.4-.73,1.22-.89,2.74-.79,3.47,0,.07.34.85.55,1.27.2.35-.21,1.15-.22,1.67-.26,1.38-.17,2.04-.32,3.63-.03.3.22,1.02.13,1.48-1.19,3.3.81,5.86-1.99,8.34-.05.16-1.5.51-1.92.19-.93-.77-2.38-2.06-2.34-3.41-.05-.37.1-1.43-.15-2.15.16-.47.71-1.89.57-2.39-.34-.85-.22-1.61-.3-2.2-.32-2.35-.09-3.35.16-5.85,0-.07-.28-.41-.6-1.11-.24-.64.04-1.35-.03-1.86-.03-.22.16-.47.09-.98-.06-.44-.34-.85-.35-1.45.07-.61.26-1.38.17-2.04-.06-.44.49-2.98-.59-4.25-.55-.75-.2-1.99-.09-3.87.1-.39-.62-1.78-.37-2.12.18-.32-.23-.57-.41-.77-.14-.5-.09-1.71-.13-2-.02-.15-.35-.4-.43-.39-1.1.15-1.68,1.35-2.56,1.47-.51.07-.93-.24-1.06-.68-.26-.79-.28-2.05.18-3.01.32-.42,2.88-3.46,3.38-4.2.24-.41.48-1.41.45-2.15,0-.07-.15-.58-.13-.95.03-.3.56-1.35.48-1.94-.04-.29-.14-1.03-.19-1.39-.04-.29.15-1.07.1-1.43-.3-2.2-.03-4.03,2.35-5.7.18-.32.64-.24,1.01-.29.25.19.45.54.54.67,1.91,1.38,1.02,1.95,2.29,4.09.1.21.13.95.12,1.4l.29,2.12c.18,1.32-.07,5.99-.73,6.6.82,2.13.43,3.68.5,6.28.06.96-.33,3.03.97,2.7,1.44-.42,1.92-3.4,2.18-4.26.17-.4.76-1,1.02-1.78.15-.54.29-1.16.39-1.47.28-.71,1.11-1.72,1.55-2.31.94-1.32,2.16-3.29,3.36-4.35.6-.53,1.06-1.49,1.53-1.93.05-.16.44-.06.57-.23.28-.11.54-.37.83-.49,1.05-.52,3.97.65,3.67,2.26.02.15.26.26.31.63.29,1.01.96,2.11,1.23,3.49.25.71.34,2.49.62,3.43.05.37.35.92.71,1.32.3.56.22,1.09.67,1.63.42.32,1.18.43,1.77.35.73-.1,1.41-1.17,2.61-2.23Z"/>
    </g>
  </g>
</svg>